<svg version="1.2" xmlns="http://www.w3.org/2000/svg" viewBox="0 0 1191 1684" width="1191" height="1684">
	<title>Carta</title>
	<defs>
		<clipPath clipPathUnits="userSpaceOnUse" id="cp1">
			<path d="m0 0h1191v1684h-1191z"/>
		</clipPath>
	</defs>
	<style>
		tspan { white-space:pre } 
		.t0 { font-size: 42px;line-height: 1px;fill: #cad2b2;font-family: "Engravers Gothic BT" } 
		.t1 { font-size: 34px;line-height: 1px;fill: #cad2b2;font-family: "Engravers Gothic BT" } 
		.s2 { fill: #f8cfc9;stroke: #f8cfc9;stroke-miterlimit:22.92558479309082;stroke-width: 1.1 } 
		.s3 { fill: #cad2b2;stroke: #cad2b2;stroke-miterlimit:22.92558479309082;stroke-width: 1.1 } 
	</style>
	<g id="Page 10" clip-path="url(#cp1)">
		<text id="BEBIDAS " style="transform: matrix(1.061,0,0,.943,719.875,1537.58)" >
			<tspan x="0" y="0" class="t0">BEBIDAS 
</tspan>
		</text>
		<text id="sin alcohol" style="transform: matrix(1.061,0,0,.943,839.188,1562.954)" >
			<tspan x="0" y="0" class="t1">sin alcohol
</tspan>
		</text>
		<path id="Path 388" fill-rule="evenodd" class="s2" d="m930.8 236.6c6.4-10.4 21.8-20.7 24.5-16.2 1.9 3.2-13.1 11.4-15.3 12.9-3.8 2.6-4.3 3.6-6.6 8.8-3 6.7-3.9 5.2-6.7 9 0.4 4.9 4.1 7.2-2 10.6 20.3 0.6 27.6 8.1 39 27 8.1 13.5 11.9 27.8 1.9 49.1 16.7 6.5 50.4 1.4 42.2 24.1-6 16.3-22.8 25.9-33.6 32.9 13.3 1.6 33-9.5 58.1 4.7-2.3 1.2-1.5 0.8-6.6-1.6-22.1-10.6-48.1 3.3-78.6-1.9-15.6-2.7-44-15-58.2-22.3-17.8-9.2-29.9-19.4-56.4-21.2-11.6-0.8-16.7 1.4-25.8 2.7 0.9-2.2-1.2-0.7 2.5-2.2l10.8-1.8c5-0.5 10.1-0.7 15.5-0.1 14.5 1.8 21.5 5.5 34.5 9.8-6.9-8.2-10.9-12-15.6-21-3.8-7.2-8.2-15-7.1-26.1 1.5-14.3 10.2-33.1 19.9-43.3 3.4-3.6 7.3-5.5 10.2-8.4-10.4-1.4-13-3.9-23.3-2.7-7.2 0.8-12.9 4.7-17.4 5.2 3.9-15 39.6-55 79.1-25.5 4.7 3.5 5.2 6.3 9.1 8.9 1.9-1.8 3.5-7.5 5.9-11.4zm23 156.4c-4.8-3.4-11.6-4.8-21.1-12.4-8.9-7-6.6-9.6-18.8-6.1 5.6 8.8 26.5 16.5 39.9 18.5zm37.8-20.7c-2.6 4.9-4.2 7.7-10.5 5.7-0.7 7-11 11.7-19.8 3.2-4.5 4.1-8.4 2.9-13.8-1.9-4.8-4.2-3.1-7.7-0.5-14.7-1.7 2.3-5.1 6.4-7.4 7.1-5.6 1.8-0.8-2.3-10-0.5 2.4 7.8 16.9 15.3 27.4 19.5 8.5 3.3 11.3 5.5 17.9 2.1 11.5-5.9 29.4-20.8 32.5-34.6 2.8-13.1-18.5-14.7-29.8-15.9 11.9 8.7 28.8 2.3 14 30zm-62.8 0.9c-2.1-1.7-0.3-0.6-2.7-0.5l3.9 3.3c0-0.1 0-1.7-1.2-2.8zm19.1-6.4c-2.4 5.9-2.7 8.9 1.4 12.1 6.1 4.8 6.3 3 11.6 1.7 3.3-12.9 4.5-25.3 0.5-35.2-6.2 6-10.2 13.2-13.5 21.4zm-25-104.6l-2.9-1.2c-0.7-0.1-2.3-0.4-3.1-0.5-2.7-0.6-5.3-1.3-7.9-1.9-6-1.3-7.2 0.2-11.8 1.2-13.4 2.9-13.2 0.3-22.3 6.1-10.7 6.9-22.6 26.1-25.4 43.7-1.9 12.3-0.4 15.1 3.3 23.9 2.3 5.5 7.6 14.3 11.5 19.1 10.3 12.2 29.4 23 44.9 19.7-1.4-2.7-3.1-4.2-4.6-7.1-2.7-5.3-7.1-15.8-8.1-21.8-1.9-11.6 0.9-25.8 8.6-36 11.1-14.6 16-2.8 26.9 4.9 10 7 19.5 12.3 27.6 20.1-1.4 4.9-0.4 1-3.4 4.7 2.2-0.6 1.7-0.6 4.3-0.7l3.1 0.2c0.2-0.3 0.5 0 0.7 0 17.1-28.1-8.5-63-23.5-70.7-3.5-1.8-11.3-3.5-15-2.4-3 0.9-5.1 7.9-10.7 1.9 1.8-2.7 4.3-2.7 7.8-3.2zm3.6 108.6c-1.8-4-3.9-7.2-6.1-11.8l-5.7-13.6c0.8 4.7 5.8 24.9 11.8 25.4zm20.1-11.1c5.5-4.9 5.4-6.9 8.1-15.5-3.5 1.5-3.2 2.9-6.3 4.6-5.6 3-18.7 5.2-19.7 9.1 0.5 3.5 2.9 7.5 5.7 9.9 4.2-1.5 8.1-4.5 12.2-8.1zm-47.7-13.3c1.4 5.7 8.8 25.5 14.1 26.3 2.4 0.3 8.2-0.6 9.8-1.5-3.3-8.5-7.1-8.6-11-30.9-2-11.5-3.6-23.3 0.6-37.3-11.1 5.2-17.5 27.6-13.5 43.4zm22.1-1c3.2 10.6 8 8.7 16.6 5 5.9-2.5 12.5-5.2 16.8-11.9-20.2 4-42-22.1-33.4 6.9zm39.7-3.5c-1.8 1.1-0.3-2.3-2.3 2.5-0.6 1.5-0.4 1.7-0.4 3.1zm-5.9-0.3q0.1-0.1 0.2-0.1 0.2-0.5 0.8-1.3l-2.9 2.7zm11.6 11.8c1.5 14.4-6.9 26.8-0.5 29.8 4.5 2.2 10.5 0.1 12.7-1.9 1.7-2.8-1.8-19.7-3.2-22.9l-11.1-18c-0.7 3 1.6 8.6 2.1 13zm-46.7-7.5c-0.6-2.2-2.4-10.2-1.8-12.8 1.2-6.2 2.8 0 1.3-5.3-2.3-7.7-1-16.4 4.4-19.9-2.1-2.5-4.1-6.1-8.4-6.2l-2.1 10.5c-0.2 3.4-0.3 6.6-0.2 9.7 0.5 14.6 10.2 47.1 16.2 48l3.3-0.8c-1.8-6.9-7.6-6.8-3.7-14.2-6.4-1.4-7.5-4-9-9zm57.6 12.9c3.9 13-0.1 16.8 8.6 18.5 3.9-3.8 13.3-19.4 8.8-25-2.8-3.5-21.4-10.1-27.1-11.1 5.2 7.6 6.8 8 9.7 17.6zm-88.3 13.4q0.1 0 0.1 0-0.1 0-0.1 0zm0.1 0c2.9 0.6 27.9 12.5 33.8 14.6 11.1 4.1 28.2 11 38.9 8.5-17.1-3.7-23.4-2.1-39.2-11.9-4.7-2.9-10.1-9.2-14-9.4-7.6-0.4-11.2-0.5-19.5-1.8zm65.7-36.2l-16.6-1.2c7.4 2.6 11.7 4.3 16.6 1.2zm-27.6-4.8c6.6 1.9 21.4 3.8 27 2.7-2.5-2-5.7-3.7-8.7-5.9-7.1-5.4-18.2-16.8-22.8-18.4-3.8 9.4-6.5 18.3 4.5 21.6zm30.9 2.5c-2.3-5.4-20.1-15.9-26.5-19.9 5.6 6.1 20 18.1 26.5 19.9zm-44.5 8.4l1.1 2.4c0.1-3.5 0.7-2.2-1.3-4.6 0 1.2-0.1 1 0.2 2.2zm3.7-77.1c3.5 0.9 3.2 1.2 5.1-1.1zm29.1 97.4l-10.8 7.3c4.7 1.3 6.3-0.5 10.8-7.3zm-88.8-105.1c8.4-0.6 15.3 3.7 23.1 3 4.4-0.4 8-3.7 19.1-4.1 6.9-0.2 14-3.3 17.3-7.6-18.5-7.2-34.1-6.4-50.4 0.5-4.3 1.8-9.3 4.9-14.3 5.1 1.6-2.7 10.6-7.5 13.7-8.7 21.9-8.6 34-7 54.7 1.4-1.5-3.6-4.7-5.9-8.1-8.2-11.6-7.7-27-11.2-39.2-7.2-9.6 3.1-30 18-33.9 30.6 3.4-2.1 12.4-4.3 18-4.8zm62.6 2.2c4.9 0.7 3.3-1.9 4.7-7.5l-5.6-3.9-7.4 6.3c-0.1 0.1-1.7 0.9-1.8 0.9-1.2 0.7-0.8 0.5-1.8 1.3 3.6 0.8 8.5 2.4 11.9 2.9zm4.6 0.1c1.9-1.3 2.1-1.7 1.3-4.8zm-13.5-14.9c-4.5-2-11.1-4.1-15.9-2.7zm-43.9 2.2c0.7-0.1 1-0.2 1.1-0.2q0.1 0 0.3-0.2c1.2-0.5 1-0.5 1.9-1.1-1.6 0.4-2.8 0.2-3.3 1.5zm71.9-15c3.4-2.3 12.7-7.5 15-10.9-5.2-0.5-12.1 4.7-15.8 8.2-4.6 4.4-8.6 10.9-10.7 18.3 5.3-3.8 3.3-10 11.5-15.6zm-6.4 146.6c-1.9-3.3-1.7-2.1-2.8-2.6z"/>
		<path id="Path 389" fill-rule="evenodd" class="s2" d="m885.9 244.5l15.9 2.7c-4.5-1.9-11-4.1-15.9-2.7z"/>
		<path id="Path 390" fill-rule="evenodd" class="s2" d="m920.7 378.4c0 0 0-1.7-1.3-2.7-2-1.7-0.2-0.6-2.7-0.5z"/>
		<path id="Path 391" fill-rule="evenodd" class="s2" d="m907.9 267.6c3.5 0.9 3.2 1.2 5.2-1.1z"/>
		<path id="Path 392" fill-rule="evenodd" class="s2" d="m915.3 262.2c1.9-1.3 2.2-1.7 1.4-4.8z"/>
		<path id="Path 393" fill-rule="evenodd" class="s2" d="m905.4 347.2c0-3.6 0.7-2.3-1.4-4.7 0 1.2-0.1 1 0.3 2.2z"/>
		<path id="Path 394" fill-rule="evenodd" class="s2" d="m858 249.5c2.3-0.5 0 0.3 1.4-0.4 1.2-0.5 1-0.5 1.9-1.1-1.7 0.4-2.8 0.2-3.3 1.5z"/>
		<path id="Path 395" fill-rule="evenodd" class="s3" d="m643.3 1455c27 0 49 22 49 49 0 27.1-22 49-49 49-27.1 0-49-21.9-49-49 0-27 21.9-49 49-49z"/>
		<path id="Path 396" fill-rule="evenodd" class="s2" d="m920.7 378.4l2.8 2.7c-1.9-3.3-1.7-2.1-2.8-2.7z"/>
		<path id="Path 397" fill-rule="evenodd" class="s2" d="m677.3 1437.9l3.1 2.9c2.1-6.7 4.7-8.4 11.7-11.4-3.8 17.3 2.4 14.3-0.1 28.5 7.5-3.6 26.5-17.7 35.7-15.4 2.3 12.9-6.5 8.4-14.7 11.5-6.7 2.5-12.4 7.7-18.2 9.9l5.7 3.4c4.4 2.4 2.1 1.3 5.8 4.1 5.3 4 7.9 3.3 13.8 6.1-1.5 3-3.3 3.4-6.7 4.6l7.5 2.4c-3.4 4.2-6.7 3.7-12.3 4.4-12.4 38.2-0.7 48.7-41.2 67.9l67.9-0.1c-3.4 3.9 1.4 0.7-3.1 2.3-7.7 2.6-27.5 0.5-34.3 0.3-24.3-0.4-49.5 0.9-74.1 0.6-19-0.3-32.7 4.6-42.8-14.1-4.4-8-3-3.9-6.3-14.4-2.3 13.4-11.4 34.6-24.9 33.4-16.7-1.6 9.8-8.2-46.8-9.4-36.1-0.8-72.4-1.4-108.4-2.5-17-0.5-36.9-1.8-53.6-1.2-6.7 0.3-27.4 13.1-40.8 16.3-21.7 5.3-64.5 5.9-87.9-0.7-7-2-5.2-1.7-8-6.8-8.2 18.9-48.4 37.5-76 37-40.5-0.6-69.2-29-86.1-56.9-25.3-45.1 59.4 91.5 5.1 3.5 16.3 23.9 38.9 44.8 68.8 49.6 97.1 15.8 144.4-120.1 90.6-178.2 12.7 33 19.4 43.3 11.2 84.5-5.4 27.1-17.3 48.7-40.2 61.7-34.1 19.6-82 20.9-115.8-3.9-6-4.4-19.3-21.4-21.3-30.1l5.8-4.1c3.5 15.2 15 30.2 27.9 33.2l-14.8-14.2c-4.8-4.9-9.8-12.7-12.6-19.3l1.5-1.7c0.2-0.1 0.6-0.6 0.8-0.8 9.5-8.9 48.1-34.6 57.9-41 5.3-3.6 9.4-7.3 14.7-10.8 5.6-3.6 10.1-7 15.6-11.3 8.1-6.1 21.6-17.7 31.4-21.2-1.4-31.3-21.8-230.9-15.8-242.5 4.6 2.4 3.4 2.8 5.8 13.1 3.6 15.2 6 33.5 14.8 45.8 6.7-1.5 15.2-5.4 23.2-7.4 8.8-2.3 18-3.8 26.9-4.8 0.9-6.5-2.7-23.6-4.4-30.4-13.7-6.6-32.6-3.8-46.1-11.5-1.9-1.1-1.9-1.3-2.3-1.8-23.3-1.3-38.6-34.2 37.8-40.8 6-31.3-37.7-66.3-54.1-84.9-6.6-7.6-17.7-21.8 1.5-26.3 10-2.3 17.8 7.3 26.4 18.4 18.1 23.2 45.3 34.2 51.2 91 24.2 0.1 48.2-0.3 72.1 3.8 25.2 4.3 89.1 29.5 17.5 41.9-13 2.3-27.7 6.1-39.6 8 26.1 0.5 59.7-13.8 71-14.4l-7.3 135.3c14.5-10.2 44.6 2.1 49.1 8.9 1.8-22.4-12-25.2-1.3-36.8 4.2-4.6-1-2.3 4.9-3.8 8.4 9.2 9.7 24.3 6.9 38.3 14.5-1.5 30 2.2 44.1-0.6l-33.5-2.2c2-14 16.3-24.2 32.8-23 19.7 1.4 29.3 5.1 50 1.7-4.2 56.1-62.3 43.8-78.6 33.4-2.8-1.8-5.5-4.9-9.4-4.6-5.8 0.6-2.5 0.1-4.7 2 15.6 3 42.9 24.2 51.9 40.2 12.3 21.6 17.9 49.9 10.1 78.3-6.8 25.2-20.4 48.3-33.5 60-16.9 15.1-40 29.3-63.3 28.3l158.7 4.3c-20-13.6-36.6-27.2-48.7-48.3-15.4-26.8-10-55.2 14.7-65.4-0.2-0.3-0.6-1.2-0.7-0.9l-2.1-2.7c-7.3-8.3-6.5-2-6.4-9.7 5.5 2.2 5.1 5.5 13.3 2.5 7.9-2.9 9.1-2.9 17.9-2-2.6-5.6-6.1-12.9-9.4-17.7-2.9-4.3-13.2-11.8-7.9-15.3 8.4-5.4 19.8 22.9 23.8 29.9 2.6-3.9 3.9-5 7.1-8.3 5.9-6 2.9-4.1 5.5-11.9 2.1 2.3-0.4-2.6 1.7 2.6 0.6 1.4 1.1 3.2 1.3 4.8 0.5 4.1 0.3 6.3 0 10.3 4.2-1.3 6.4-1 10.4-1.9l6.4-3.5c2.2-1.6-0.3-0.3 2.9-2.1-0.5 7.4-1.4 9.1-4 14 18.3 2.9 33 21.5 33.1 43.8 0.1 19-14.5 56.9-11.3 67.2 5.4-12.9 8.9-94.1 55.6-98.4 7.4-0.6 15.4 0.5 22.4 2.7 8.5 2.6 10.9 6.4 16.2 9.6-1-4.3-2.5-8.5-4.6-11.7-1.2-1.9-2.1-2.7-3.2-3.9l-4.3-6.3c5.7 0.9 8.6 3.3 11.3 2.5 2.8-0.9 5-6.8 4.7 4.6zm-469.3 125c19.3 6.5 59.8 8.2 81 4.6 12.3-2.1 23.5-5.6 33.8-10.8 6-2.9 9.3-7 15.5-7.7 6.3-0.8 13.9 0.4 21.3-0.3-4.3 1.9-12-2-17.3-3-8.1-1.5-14.6-0.9-22.6 0.5-30.9 5.7-38.9 15.7-79.5 10.5-18.9-2.3-30.3-8.3-32.2 6.2zm462.3-89.7c13.1 1.6 10.3 4.5 14.6 5.3-1-7.8-1.9-1.4-10-17.6-11.9-23.6-48.6-20.9-61.9-8.4-12.8 11.9-31.2 63.6-30.3 90.2 23.3 11.5 63.6 20.7 91.8 8.5 20.2-8.8 31.6-37.6 25-56.2-2.2-6.1-7.2-15.8-11.4-14.7-3.4 11.6 5.9 17.5 7.1 26.5-5.2-3.5-6.2-11.3-13.7-13.3-5.5 6.1-3.5 9.5-0.6 15.6 2.7 5.7 6.6 12.5 3.3 17.4-5-5.8-6.6-14.5-9.4-22.2-17.9 0.3-6.4 27.3-9.5 33.1-3.8-8-0.6-19.3-9.9-20.2-5 3.8-1-0.5-3.1 4.4l-4.2 12.9c-3.5 7.4-0.5 2.8-4.6 5.3l2-16.3c-13.1 5.3-11.7 16.2-18.9 29.8-1.5-3-1.2-3.3 0.3-10.4 0.8-4 1.6-8.3 2.2-12.3-12.4 5-6.8 6.3-21.8 19-1.8-2.3 0.8-4.1-1.3-6.7l-8.2 4.6c-0.2-0.3-0.3-1.3-0.4-1 0 0.2-0.2-0.8-0.2-0.9-2.7-5.9 1.4 0-1.3-1.9l-3.2-4.3c-2.8-5.4 0.8-0.9 6.4-11.9l-10.8 4.2c4.1-10.1 18-8.2 23.4-21.9-6.3 0.5-12.1 0.5-16.9-2.8 1.4-0.9 0.2-0.5 3.2-1.2 11.6-2.3 12.9 2.6 23-9.1-6.7-0.4-8.6 0.1-11.1-6.4 17.9 0.4 13.7-2.9 25.3-6.7-5.4-4.2-16.3-2.1-22.1-14.7 8.8 1.5 26 13.4 37.9 2.7-2.5-2.4-6.3-4.9-8.6-6.7-10-7.6-7.1-4.2-8.3-9.7 19.6 5.9 21.1 22.2 30.4 10.4-2.7-7.3-12.3-7.1-13.4-18.8 6.8 5.1 4.3 9.3 13.9 12.8 9.8 3.5 15.9 4.4 5.3 13.6zm-87.9 5.3c-0.9 16.7-5.5 33.4-11.3 48.5-2.9 7.6-6.3 15.2-10.2 20.1-6.6 8.6-7.1 8.1-19.8 9.8 1.3 0.3 18.9 20.5 30.7-23.1 2.3-8.7 4.8-17.5 6.7-26.5 0.9-4 3.6-28.3 3.9-28.8zm-230.3-281.9c-18.4 5.7-35.3 10.1-55.4 13.1-15.7 2.3-35.2-1.9-41.6 27 20.2 1.8 85.5-1.8 90.3 20.8-8.3 17.3-68.1 18.6-89.2 19.7 2.4 38.6 48.4 257.9 45.1 265.3-4.4 5.6-6.7 6.5-15.5 7.2-11.9-21-46-223.1-53.3-265.2-14.5-3.7-25-6.3-40.6-8.4-14.4-1.9-33.6-5.7-20.7-21.5-4.4-7.3-7.2-14.8-9.5-24.2-1.7-6.8-4.6-23.4-7.8-28.1 0 36.8 13.3 184.7 17.2 231.5 9-2.8 21.9-12.1 28.1-1.5 6.3 10.7 4.3 26.6 0.5 36.6 9.2 8.2 4.1 24-0.5 34.6-5 11.7-9 20.6-23.6 17.6 4.6 13.2-0.6 21-9 27.2-8.2 5.9-22.1 8.6-30.1 1.8-2.8 2.6-3.1 5.8-8.5 8.4-4.5 2.2-9.7 2.4-14.8 2.3-26-0.3-20.2-7.5-27.9-10.4-0.8-0.3-37-4.7-22.6-35.5-3.5 1.3-8.9 5.4-12.4 8.4 2.1 6.4 9 16.2 13.6 20.6 10.1 9.6 18.5 17.4 35.2 20.9 24.6 5.2 54.9-1.1 73.4-13.2 31.5-20.4 53-97 26.2-131.6-8 0.1-8.4 4.1-16.5 6.6 5.9-10 9.3-4.8 20.5-17.1 0.3-0.4 0.7-0.8 1-1.1 0.2-0.2 0.6-0.7 0.9-1 2.8 7.8 25.4 24.4 27.2 67.1 1.2 29.8-9.3 55.5-20.4 76.6 19.1-1.5 38.4 6.1 61.3 3.5 19.4-2.2 35.1-10.2 54.6-12.1 17.5-1.7 66.8 17.5 104.9-21.7 32.1-33 50.9-82.3 29.6-129-4.9-10.9-13.7-21.9-22.7-28.6-8.3-6.2-23-17-33-18.6 1.3 5.9 3.6 8.2 5.1 13.5-5-1-5.1-2.3-9.5-4.6 1.1 6.1 2.8 9.4-0.2 15.1-4.5-2.2-0.7 3.2-3.9-5.1-1.5-3.7-2.1-13.8-18.2-7.4 0.2-14.4-3.2-13.5-3.4-19.6 6.1 0.5 7 3 17 2.6-6.7-7.6-28.4-15.3-41-10.5-4 3.4-12.4 156.2-14.2 184.5-0.3 4.9-0.8 9.8-1.1 14.7-0.8 14.2-0.8 9.6-3 11.8zm-240.4 284.3l-40.3 28.4c-22.7 21.1 0.1 37.6 12.9 38l1.3-4.9c2.9-13.7 20.2-53.9 26.1-61.5zm556-4.9c-5.4 8.3-0.4 5.6-11.6 11.2-5.5 2.8-11.1 4.8-8.2 13.1 15.7 0.2 14.3-17.2 21.2-16.1 13.1 2.1-9.1 22.2-10.6 23.4-7.3 5.8-15.3 10.6-24 15.6l-25.9 13.5c12.8-1.4 10.7-7.4 22-9.2l0.6 6.9c5.7-11.6 12.4-12 17.5-15.3 2.4-1.6 2-2.1 4-3.3 4.8-2.9 5.8-1.1 9 1.4 1.8-9.3 4.6-15.8 13.8-15.8l2.3-9.9 7.9-0.2-1.2-8.4-4.3 4.6c-0.3 0.2-0.7 0.6-1.1 0.8 2.9-11 1.4-12.3-11.4-12.3zm-4-0.2c-16.3 4.7-51.8 42.8-58.3 57.3 10.8 0.6 69.5-33.4 63.7-46.2-6.8 2.5-0.2 2.3-9.6 11.4-12.4 12-23.2-0.9-8-11.7 6.3-4.5 10.8-2.5 12.2-10.8zm28.7 1.2l7.1-0.8c6.3 7.3 7.9 9.6 13.2 9.5-3.5-2.5-5.2-4.1-7.2-8.5l8.4 1.8c-9.7-3.6-18.1-17.1-28.6-8.9zm-20.2-9.8c-2-4 1.6-0.8-3.1-3.6-7.7 2.7 5.6 3.2-13.3 9-10.5 3.2-1.7 7.2-31.1 4.6 1.9-0.4 10.4 1.4 15.1 1.9-2.2 6.9-14.1 16.4-23.4 13.7l10 0.8c-2.1 5.5-6.5 10.2-13.3 12.8 4.6 11.5-6.5 4.4-7.5 18.4l1.5-1.6c1-1.2 1.3-1.4 2.1-2.3 2.1-2.2 1.6-1.4 3.4-3.6 12.2-14.4 24.5-27.7 39.7-38.6 7.7-5.6 14-5.1 19.9-11.5zm-552.1 8.9c10.6 12.4 17.4 70.9 17.4 71.1 8.3 8.8 23 3 30.4-3.4 8.7-7.5 10.9-20.3-1.6-27.3-13.3-7.5-39.8-29.7-43.2-42 6.3 0.2 18.3 11.5 23.1 16.2l21.1 20.2c12.6 12.2 21.6 14.3 31.5-13.5 2.2-6.3 7.1-23.8-1.5-27.3-5-2.1-50.1 7.6-60.2-0.3 5-3.9 14.9-3.6 22.5-3.6-0.4 0.3-1 0.1-1.3 0.8l-5.3 2.3c-1.6 0.3-4.1 0.1-5.4 0.1 7.7 0.6 38-2.2 39.9-0.9l-26-0.3c4.9-3.9 11-2.8 17.5-2.8 7-0.1 13 0.6 19.8 0.9 2.4-11.3 2.8-26.7-3.9-35.2-6.1-1.7-18.6 1.8-22.3 5.6-9.2 9.4 6.2 7-33.3 27.6-6 3.1-14 6.9-19.2 11.8zm485.8 81.2h2.8l7.8-0.6c-12.4-0.9-21.8-5.5-32-9.5 3.8 8.4 9.8 10 21.4 10.1zm-497.1 11.9c13.8 4.8 39 0.3 51.8-5.2 17.4-7.5 24.7-15.1 33.4-27.5 16.9-23.9 30.2-76.8 16.7-98.8 4 20 5 31.1-0.9 53.6-14.5 55.6-35.4 76.4-101 77.9zm59.1-129.5c-7.8 3.6-24.6 16.3-30.2 21.6 4.8-1.6 13.1-5.9 17.2-8.2 9.3-5.3 8.3-5.7 13-13.4zm509.4-1.8c-3.3-2.4-0.4 4.9-2.5-1.7l7.9 29.2 4.2-4c7.2-9.4 0.5-14.8 0.7-26-9.2 6.8-3.6 11.1-2.9 24.1-3.2-3.4-8-16.7-7.4-21.6zm-112.5 11.5c-9.9-3.4-16.5 4-26.8-4.9 0.8 8.9 4.2 15.5 4 27.4-4.5-4.4-1.2-5.8-8-10-6.9-4.2-5-2.3-9.5-9.2-5.1 7-14.9 11.1-26.8 9.8 0.7-3 1.7-4.2 5.8-6.2-8.1 0.1-12.8 4.4-17 7.7-1-7.3 0.7-9.4 2.6-15.2-15.9 17.6-17.7 32.3-2.3 58.1 11.3 19.1 22.1 26.2 40 39.5 6.4 4.8 17.4 13.1 27.4 3.9 15.1-13.8 24.9-53.6 25.7-75.6 0.5-13.6-3.2-14.9 0.7-19.8 6.9 26.1 2.8 27.3 1.1 52.1 3-16.1 10.6-32.9 3.3-51.3-5.5-13.9-16.1-27.8-34.3-24 0.2 0.3 0.6 0.3 0.7 0.8l7.3 7.3c3.1 3.6 4.8 5.5 6.1 9.6zm-42.4-14.8c15.3-0.2 15 15.7 36.7 10.6-8-19-20.4-4.2-34.2-12.6zm0 0l-16.7 3.4c5.3 1.5 6.5 0.2 7 0.3 2.9 0.4 1.3 0 2.6 0.9-11.4 7.3-23.2 1-26.3 18.9 3.3-1.3 11.3-3.6 14.6-5.1 8.9-4.1 0.6-10.8 11.3-9-0.6 5.6-4.7 8.1-8.9 13.3l-2.2 2.9c22.3-1.9 17.2-14.9 18.4-17.5 7.1 6.3-0.8 8.9 16.3 18.3-1.4-13-2.4-21.5-15.5-22.7zm-26.5 0.2c5.8 2.8 4.8 2.6 11.5 0.3 4.7-1.6 9.7-2.1 14.2-3.9-3.8-2.1-8.2-2.4-12.9-1.7zm62.1-14.7c-12.4 5-14.9-1.2-21.5 12.5 14.6-1 17.5-4.6 21.5-12.5zm-32.3 10.7c11 2.8 13.9-6.7 13.4-17.4-3.5 5-11 7.5-13.4 17.4zm-2.4-4.5c-1.7-7.3-5.1-12.6-8.3-17.7-7.3-11.4-5.9-12.3-11.4-12.8 0.7 4.1 1.6 2.3 4.8 6.5 6.3 8.4 10.9 20.3 14.9 24zm-130.2-76.7c0.9-5 0.6-3.7 2.8-7.4l-14.8-1.1 1 11.1c10.6-1.1 14-0.8 16.6 8.3 1.4-4 0.3-5.6 0.6-9.8l6.2 1.5-2.2-6.7c-11.2 1.7-2.3 1.9-10.2 4.1zm104.4-34.6c-16.2 3.3-31-1.2-46.9-2.4-14.1-1.1-29.7 8-29.3 17.9 11.5 0.4 25 2.6 36.2 1.9 12-0.8 18.5-6.8 27.7-9.5-4.4 19.5-65.4 15-69.7 15.3 11.1 3.7 20.6 16.1 51.3 11.9 19-2.7 27.2-15.2 30.7-35.1zm-97.6 23.7c12.9-6.5 2.8-29.5 0-38.5l-2.7 3.3c-0.2 0.2-0.5 0.5-0.7 0.7-0.8 0.7-2.1 1.5-2.9 2.2 0 1 6.2 31.9 6.3 32.3zm-112.5 208c5.9-0.4 7.7-0.4 11.5-5.2l-46.5-264.1h-4.8l-2.3 8.3-10.1 0.2c6 34.9 42.9 246.9 52.2 260.8zm-53.8-270.2c0.8 4.7 0.1 6.3 4.9 7.1 6 1 5-1 5.4-6zm18.7-2c0.8-9.5-1.7-21.8-0.6-34.4-5.1 0.6-4.5-0.5-6 5.2-2.2 8.4-2.6 20.8 0.1 29.2zm-20.6 5.3c-2.3-6.1-2.1-3.6-15-6.5-6-1.3-10.9-2.2-17-2.9-19.5-2.4-18.9-7.5-27.7-12.7l-3.4 5.8c7 8.6 17.5 9.3 30.5 11 12.4 1.5 28.4 7.2 32.6 5.3zm110.9-23.6c-10.6-16.2-66.7-17-89-16.4l1.5 34.8c13.9-0.3 83-3.3 87.5-18.4zm-117.3-13c-12.5-0.2-41.2 6-49.3 13 8.8 11.7 36 14.2 54.4 17zm3-0.3c-0.3 7.1 2.6 25.1 5.7 30.9l8.9 0.7c-2.1-15.4-1.5-19.1 1.4-34zm-6.4-32.7l5.2 29.6 18.3-2.3c1.7-7.9-2.3-17.5-3.2-25.7zm28.5 27.4c7.7-6.1-1.6-8.2 16.2-24.9l-21.9-0.6 5.1 24.4c0.1-0.2 0.4 0.7 0.6 1.1zm-130.3 238.6c-4 0.6-2.4 3.2-3.7 9.4-1.6 7.5-7.5 21.5-10.7 28.2l-16.6 35.6c6.5 11.2 37.2 13.9 44.9-0.9-3.5-12.2-5.9-6.9-9.4-32.8-1.6-11.2-5.3-29-4.5-39.5zm50.7-279.1c12.6 0.6 31.3 8.8 47.8 9.3l-8.4-47.5c-11.5 0.8-24.1 3.1-34.6 6.6-13.9 4.7-32.7 15.1-13.4 26.1l7.8 4.9c0.2-0.3 0.5 0.4 0.8 0.6zm61.1-39.6l-19.2 0.9 8.4 47.6c4.9 2.7 13.8 2.6 20.3 3.1zm121.9 27.9c-6.4-24.6-93.4-31.3-119.3-27.8 1.2 8.5 3.4 17.9 4.9 26.5l6.2 25c20.2 4.6 37.6-4.3 56.9-7.8 15.6-2.9 42.7-4.2 51.3-15.9zm-123.5-30.6c1.4-7.3-4-27.9-6.9-34.8-4.6-10.8-10.1-17.9-16.2-25.4l-39-43.4c-7.3 4.2-3.9 8.2-18.7 8.6 27.2 37.9 55.3 43.1 62.7 96zm-80.1-97.5c8.2-0.5 10.6-1.1 14-7.8-7.7 0.8-11.5 1.8-14 7.8zm-35.8 425.7l-4 6.5c-6.5 13.5-21.3 42.9-22.4 55l4.6-6.2c5.8-12.5 18.9-44.1 21.8-55.3z"/>
	</g>
</svg>