<svg version="1.2" xmlns="http://www.w3.org/2000/svg" viewBox="0 0 1191 1684" width="1191" height="1684">
	<title>Carta</title>
	<defs>
		<clipPath clipPathUnits="userSpaceOnUse" id="cp1">
			<path d="m0 0h1191v1684h-1191z"/>
		</clipPath>
	</defs>
	<style>
		tspan { white-space:pre } 
		.s0 { fill: #cad2b2;stroke: #cad2b2;stroke-miterlimit:22.92558479309082;stroke-width: 1.1 } 
		.s1 { fill: #f8cfc9;stroke: #f8cfc9;stroke-miterlimit:22.92558479309082;stroke-width: 1.1 } 
		.t2 { font-size: 41px;line-height: 32px;fill: #cad2b2;font-family: "Engravers Gothic BT" } 
		.s3 { fill: #cad2b2;stroke: #f8cfc9;stroke-miterlimit:22.92558479309082;stroke-width: 1.1 } 
	</style>
	<g id="Page 3" clip-path="url(#cp1)">
		<path id="Path 36" fill-rule="evenodd" class="s0" d="m276.5 1195.2c23.3 0 42.3 19.7 42.3 44.1 0 24.4-19 44.2-42.3 44.2-23.4 0-42.3-19.8-42.3-44.2 0-24.4 18.9-44.1 42.3-44.1z"/>
		<path id="Path 37" fill-rule="evenodd" class="s1" d="m563.3 1429.2c26.4 13.6 71.3 11.6 110.6 41.7 45.7 35 13.4 66.4-25.9 84.2-125.8 56.8-467.6 64.2-570.5-20.8-13.8-11.3-20.6-35.9-4.3-52.2 36.5-36.7 65.4-29.7 98.9-47.2 3.9-25.1-4.1-75.2-7.3-101.6-11-4-16.7-7.8-9.9-22.7 14.7-32.1 41.1-33.4 64.5-49.5-3.3-8.1-10.8-12.9-13.5-27.3-5.8-30.5 32.2-28.4 35.9-2.9 2.5 16.6-7.3 22.7-11.9 33 12.7 5.5 25.6 15.5 45.3 9.7 38.1-11.1 36.5-86.7-8.1-82-16.8 1.8-9.6 2.8-14.2 15-8.6 1.6-11.7 1.9-15.8-6 3.3-8 3.5-5 10.9-10.1-8.3-33.7-27.6-59.5-56.4-71.9-9.8-4.2-25.6-5.4-28.9-17.2 17.9 4.2 45.7 16.6 58.2 30 14.5 15.8 25 35.4 32.3 57.1 18-1.6 49-10.6 53.9 34.7 5.8 54-40.6 70.2-78.1 45-16.1-10.9-93.9 48.5-65.5 58.6l-0.7-13.3c49.1-1.4 195.3-5.6 242-2.5 18.9 1.3 37 6.2 55.7 6.8 9.2 0.2 12.1-0.8 16-6.3-23.1-12-48-29-73.5-33.9-21.9-4.2-65.6-15.2-66.1-44.9 10.8 2.3 34 14.8 44.6 20.2 10.7 5.4 35 20.6 42.9 23.1 69.4 21.5 38.4 17.8 63.5 35.8 12.2 8.8 21.3 20.1 1.6 21.4-4.6 0.3-9.3-0.4-13.4 2 25.5 11.4 36.9-7.1 31.1 38.7-3.4 27-0.3 46.2-2.2 71.8-1.3 18-11.5 55.4 1.8 65.5 11.8 9 31.6 0.8 43.5-5.2 5-2.5 9.1-5.9 13.7-3.1-7.1 11.4-38.2 18.3-49.1 16.9-33.6-4.2-13.1-54.2-15.3-109.5-0.7-16.8 8.1-51.9 1.4-63.1-7.6-4.9-11-1.2-19.9-3.8-7.5-2.2-9.3-8.2-15.8-10.4-13.5-4.4-23.3 12-33.4 17.3-12.5 6.4-28 1.9-32.9 16.6-5.2 15.6-5.8 28.7-23.9 28.5-7.4-16.7 3.8-45.1-21.3-46.4-24.8-1.2-28.4 10-59.1 0.1-27.1-8.6-29.9-6.2-56.6-0.9-17.7 3.5-85.7-11.1-40.7 34.5 7.7 7.8 12.5 13.7 22.7 9.3 13.7-5.9 53.4-12.3 62.9-2.8-0.8 14.2-15.8 18.3-28.8 19.8-20.5 2.4-27.4-5.5-41.7-6.3-18.9 43.4 15.1 16.3 36.8 22.3 12.8 3.5 26.3 13.4 40.5 11.3 13.8-2.1 23-12.5 38-15.2 18.4-3.3 27.3 5.3 39.5 12.8 35.7 22.1 42.2-15.8 68.5-24.9 32.5-11.4 58.3 27.2 51 51.4-10.7 3.9-21.8-9.9-34.7-12.7-15.1-3.3-25.1 4.7-36.2 10.6-33.7 18-50.3-0.8-80.4-6.2-35.5-6.2-30.9 23-80.7 2.9-51.1-20.5-62.6 21.2-48.2 29.8 13 4.8 20.7-9.8 34.9-10.2 11.3-0.3 24.5 10.4 33 14.7 28.8 14.4 53.9-2.4 82.6-1.1 30.3 1.3 30.8 32.4 72.5 16.5 9.1-3.5 25.3-12.5 35.5-10.3 13.4 2.9 18.6 23.4 6.4 29.4-22.1 11-219.2-11.6-260.9-22.6-37.7-10-37.2-31.5-38.9-59.6-13.7 1.6-40.6 11.7-53.7 17.4-79 33.9-56.2 75.3 19.9 101.1 123.8 42.1 391.4 48.3 509.9-10.8 113.4-56.6-26.5-106.8-95.8-115.7 1.3-8.1 4.3-3.9 11.3-4.4zm-158.3-76.9c7.4-3.1 31-4 41.1-21-62.6-2.3-84.3-0.1-148.5 0.8-28.3 0.4-108.6-7.4-127.2 0.8 0.3 17.5 4.5 40.1 6.2 58.5 2.2 22 0.2 39.2 0.3 60.5 0.3 43.7 37 45.2 74.1 50.7 89.4 13.2 110.6 14.6 195 17.8 4.4 0.1 10.3 0.5 14.6 0.2 19.6-1.3 13-17.9 4.4-20.6-6.6-2-13 1.2-18.4 3.5-78.3 32.8-46.2-19.1-110.8-7.9-42 7.2-45.5 8.7-78.9-10.6-17.3-10-20.3-3.8-34.6 3.6-38.7 19.7-39.7-68.6 33.8-38.7 47.3 19.2 41.3-8 77.4-3.5 27.3 3.3 48.4 24.3 78.6 7.9 46.9-25.7 40.9-7.6 71 2-0.8-17.7-11.1-35.4-20.6-40.5-16.4-8.9-30.7-0.6-40.7 8.9-42 40.1-44.5 16.3-74.5 3.6-32.8-13.9-36.8 26.8-86.1 6.8-30.9-12.5-22.9-0.9-45.2-1-8.5-0.1-14.3-5.1-14.6-14.3-0.4-10.1 4.7-14.8 7.1-20.8-6.7-5.9-47-33.5-24.3-52.3 9.7-8.1 25.3-2.1 37.4-2 13.5 0.2 25.1-4.7 38-6.3 29.9-3.5 39.1 14 75.8 7.5 39.4-6.9 41.2 6 42.5 43.4 18.7 0.6 10.1-29.8 27.1-37zm-236.4-33.2c0.1 12.8 4.1 4.9 33.1 4.9 43.5-0.1 73.5 3.5 126.3 2 27.9-0.8 55.6-1.8 83.6-1.5 17.2 0.2 72.6 4.7 84.6 2.3l-11.9-11.5c-6.8 2.1-0.7 0.1-6.5 3.5-15.8 9.3-38.5 0.6-64.3-1.7-26.6-2.4-54.6-2.3-81.5-1.3zm272-33.1c7.6 5.4 20.4 13.5 30.9 16.7-6.5-7.7-18.6-14.1-30.9-16.7zm-94.9-43.7c9.4 16.2 34.2 29 59.7 29.6-10.9-7-47.3-26.1-59.7-29.6zm-120.5 15.4l9.4-11.4c7.2-16.1-2.7-36.8-22.4-27.3-4.6 17.1 4.3 30.6 13 38.7zm24.5-59c-0.9-0.6 1.8-2.3-2.7-1.1-6.7 1.8-2.2 0.8-3.6 3 6 2.7 4 2.5 6.3-1.9zm28.1 192.4c-12.8-3.3-45.5 0.6-57.4 6.6 15 10.5 48.9 9 57.4-6.6z"/>
		<text id="PASTELERÍA" style="transform: matrix(1.032,0,0,.969,799.942,1538.893)" >
			<tspan x="0" y="0" class="t2">PASTELERÍA
</tspan>
		</text>
		<path id="Path 56" fill-rule="evenodd" class="s1" d="m925.3 248c12.3-19.4 24.4-4.6 39.2-4 8.6 0.3 17.8 0.7 25.4 5 2.8 1.6 2.9 2.4 4.4 5.4 7.3 13.5 16.4 6.2 21.9 18.2 6.7 14.7 1.8 12.7 0.4 10.2-1.5-2.6-1.2-4.1-3.6-6.6-4.8-5-17.5-6.1-24.2-5.8-11.3 0.6-27.8 7.5-35.2 15.3-1.6 1.7-3.2 3.2-4.9 4.9-5.5 5.7-13.6 16.3-15.7 24.4-1.4 5.3-1.6 14.9-4.9 15.2-3.3-3.1-1.9-17-1.3-22.1l-1.5 1.9q-0.6 1.1-1 2.2c-1.2 3.3-1.5 7.1-1.8 10.7-0.1 1.7 0.4 4.7-0.9 5.6-1.4-0.9-0.9-3-1-4.8-0.5-12-2.4-24.2-1-36.3 1-8.5 4.3-17.3 8.2-24.7l3.9-6.7c-1.5-1.1-5.6-2.7-7.8-3-3.2 4.1-7.3 14.9-8.5 20.8-1.7 8.8-2.2 17.9-2.4 27-0.2 7.9-0.2 20.4 1.6 27.8 1.1 4.8 2.7 6.1 6.9 7.6 6.1 2.2 5.2 2.4 12.3 1.6 0.8-5.6 3.3-15.3 5.2-20.4 3.6-9.7 16.6-20.1 25.3-25.8 11.8-7.6 24.4-12.7 39-8.5 4.9 1.5 13.8 5.6 16.9 8.2 6.9 5.8 10.7 16.4 12.2 26 0.8 5 2.2 8.2-2.7 8.2 2.8 10.1 5.7 17.6 4.3 28.7-0.9 7.1-5.6 8.1-10.6 10.7-2.8 1.4-2.4 6-6.8 6-1.3-3 0.1-4.4 2.5-5.6 2.9-1.4 3-1.5 3.9-5 1.5-5.7-1.6-10.1-4-13.5-14.9-20.7-42.6-24.5-65.6-14.6-3.2 1.4-9.5 5-10.1 7.7 7.4-4.7 59.2-6.4 68.9 17.7 2.4 6.2 2.9 12.9 0 18.9-2.4 4.8-7.3 9.7-10.7 12.5-5.8 4.5-12.3 9-20.7 7.8-3.5-0.5-1.8 0.7-4.6 0.7-1.8 0-8-0.6-8.4-2.5-7.8 4.3-20.7 2.4-29.7 0.1-14.2-3.6-17.3-6.5-13.3-17-5.4-0.3-11.4-0.1-17-0.3 3.3-2.6 25.8 0 18-1.2 2.3-3.7 4.7-6 7.5-8.6 2.2-1.9 7.1-5.5 11.1-4.3 1.3 2.2 0.4 4.3-0.3 6.9-1.9 6.9-11.2 7-17.5 7.3-2.1 4.6-4 8.6 0.7 11.5 8.6 5.3 33.3 10.2 40.6 3.8 5.7-5-0.2-17.8-5.8-23.7-4.2-4.4-14.6-11.1-24.4-8.3-1.5 1.6-1.6 4.4-4.7 3.6-0.7-2 0.5-3 1.9-3.9 1.4-1 1-0.1 1.4-2.1 0.2-1 0.2-1.6 0.5-2.6 3.5-9.6 23.3-0.5 27.9 2.5 5.5 3.6 9.1 6.9 11.6 14.3 2.1 6.1 4.5 15.1 3.2 22.1 6.3 2 11.9-0.8 16.2-3.7 7.7-5.1 17.6-13.4 17.1-23.8-0.8-18.7-15.5-25-33.5-27.9-6.9-1-33.1-3.2-36 2.4 3.6 6.6 30.7 4.7 39 11.9 7.7 6.8 7.4 14.7 0.5 10.6-5.2-3-3.6-3.7-12.4-7.3-9-3.8-25.3-6.5-28.3-11.4-5.8-9.5 12.7-16.1 19.2-17.9 14.7-4.2 31.1-3 43.3 4.1 7.7 4.5 15.9 12.1 19.2 20.2 1.9 4.8 1 6.2-0.1 10.9 5.5-1.8 8.5-4.3 9.1-10.5 0.5-5.9-0.2-12-1.5-17.4-2.7-10.8-3-9.9-7.1-11.7-6.2-2.9-18.2-10.7-21.4-16.4-1.4-2.8-0.5-5.3 3.1-4.6 7.4 1.3 17 11.1 20.7 17 1.7 2.6 1.6 5.1 5 4.3 0.4-5.4-2.3-15.4-4.2-20.1-2.4-5.9-6-10.4-10.7-13.2-10.6-6.4-24-10.3-37.4-5.2-13.5 5.3-34 19.7-39.1 32.8-1.7 4.4-4.2 14.4-4.9 19.2 6.6-1.1 2.9 6-1.3 5.1l-0.3-3.2c-7.6 0.3-6 0.6-12.7-1.8-4.3-1.5-6.1-3-7.5-7.5-2.1-7.1-2-20.1-1.9-28 0.2-18.4 0.8-28.7 8.2-44.6 0.8-1.6 2.1-3.5 2.5-5-3.8-1.8-12.2-3-16.9-2.7-5.7 0.3-10.8 2-15.4 4.2-5 2.5-8.6 4.8-11.4 8.2-1.8 2.1-5.2 10.8-5.1 14.3 3.2 0.3 3.6-3 4.4-5.5 0.3-1.2 0.6-2.5 0.9-3.8 0.7-3.5 0.2-2.8 1.5-3.2 1.6 0.9-0.5 1.9 2.3 3.5 1.1 0.7 2.7 1.3 4 1.9 8.6 4.3 10.9 12.3 12.2 22.5 0.9 7.1 1.2 15.1 0.8 22.4-0.2 3.4 0 7.2 1.2 10.1 0.8 2.3 4.3 4.4 6.8 4.3 0-3-2.7-14.5-3.3-22.3-0.3-4.5-1.9-21.5 0.7-23.9 3.9 1.9 2.5 31 4.1 37.2 1.7 6.6 7.8 13.1-3.4 10.4-3.2-0.7-3.1-1.1-4.9-2.5-2.5-2-2.8-0.3-3.4-4.2-1.5-9.7-5.6-33.5-12.7-39.2-9.2-7.4-9.3-4.5-12.1-5.9-2.5-1.3-4.8 0.1-8.5 1.3-3.9 1.3-7.8 2.3-6.5 7.1 1-0.2 4.4-2.6 6.8-3.3 8.3-2.3 16.3 2.2 20.2 8.8 3.9 6.7 9 22.1 9.4 31.1 0.2 7-9 5.6-13.9 3.7-6.6-2.4-7-4.9-7.1-12.7-0.2-8.2-1-12.3-5.8-17.3-2.7-2.9-6.8-4.6-9.2-7.9-4.3 2.3-9.7 18.6-11.3 25.4-1 4.1-2.4 12.2 0.9 15.1 3.5 2.9 11.3 0.9 15.2-0.6 7.4-2.9 7.3-5.6 7.1-11.2-0.2-5-0.7-11.3-3.8-14.1-6.5-5.6-17.1 11.3-14.7 18.7 2.2 3.5 11.7 0.1 13.3-0.1l1.6 0.2c-0.5 1.3-0.1 0.9-1.9 1.4-4.2 1.2-13.7 3.3-14.7-2.2-1.2-6.1 3.6-13.1 6-16.2 3.3-4.3 10.7-6.9 13.7 0.4 1.5 3.8 3.3 16.4 0.9 19.6-2.9 3.6-9.6 6.6-16 6.8-1.7 0-3.6-0.1-5.3-0.5-9.9-2.6-2.2-23.9-0.1-29.2 2.4-6 4.4-10.4 7.8-14.7-1.8-5-0.2-6.8 4-8.5 2.6-1.1 8.1-2.9 11.1-3.1 4.3-12.3 2.7-16.6 17.7-23.6 14.5-6.7 19.7-4.5 33.6-1.6 1.1-1 1.4-1.8 2.2-3zm94.9 118.4c-1.5 0.6-2.8 1.3-2.6 3 1-0.5 2.1-1.7 2.6-3zm-56.5 2.7c4.2 4.6 12 18.2 5.2 25l9.3 0.7c1-6.5-0.7-13.2-2.5-19.2-2.4-7.6-4.2-9.5-8.6-13.4-5.8-5.2-29.1-15.7-29.4-2.5 11.9-1.9 20.7 3.8 26 9.4zm-10.8-19c9 2.7 21.7 5.9 28.6 11.8 7.3 6.4 6.9-1.4-0.8-7.4-2.9-2.2-7.6-3.4-12-4.2-11.6-2.1-15.5-0.9-25.9-6.3 2.4 4 3.9 4.2 10.1 6.1zm-15.5-11.7l-2.3 0.7v2c1.4-0.1 1.9-1 2.3-2.7zm-28.3-9l1.7-0.1c0.1-2.1-1.6-5.9-2.6-7.4zm104.3-14.2c4.4 3.2 8.2 5.4 13.5 7.9-2.2-6.6-16.7-20.2-23-19.1-1.1 3.6 6.9 9.3 9.5 11.2zm-108.1-28.4c-0.1 2.8-0.2 25.4 1.8 28.8 0-8.6-0.3-20.8-1.8-28.8zm-31 23.7c0.3 7.4-2 15.1 11.9 16.4 3.6 0.4 6.5 0.2 6.5-3.7-0.2-8.2-5.3-23-8.6-29.3-5.8-10.9-18-12.4-25.1-6.1 4.2 6.1 14.6 6.6 15.3 22.7zm17.3-17.8c2 5.4 3.7 12.2 4.9 17.9q0.3 1.6 0.6 3.2c0.3 1.3 0.3 2.3 1 3.3 0.5-11.4 0.8-24.8-2.8-35.6-3.6-10.7-10.1-10.3-15-14-0.4 1.1-1 3.8-1.4 5.1-0.6 1.8-1.6 3.2-2 4.6 8 5.3 10.9 5.5 14.7 15.5zm41.4-38c2.8-2.1 4.1-4.8 10.5-5.8 7.9-1.3 39.3 1.9 42.1 7.6 2 4.1-5.1 6.2-8.7 6.7-9.3 1.2-21.5-0.8-30.4-3-4.6-1.1-8.8-2.6-13.2-3.8-3.9 5-9.4 17.1-11.1 24.9-2.5 11.5-1.4 22.8-0.5 34.6 0.8-1.7 0.6-3.2 2.9-7.3 1.5-2.6 2.8-3.8 3.9-6.8 1.4-3.5 5.9-12.1 9.1-11.5 0.5 4.2-7.7 11.1-8.9 15.6-1.1 4.8-2.4 18.1 0 22.3 1.5-2.2 2.3-12.2 3.8-16.1 1.9-5 4.9-9.1 7.5-12.9 5.1-7.6 12.4-15.3 20.2-20.3 13.4-8.5 32-13.1 48.2-7.1 2.6 1 5.1 2.5 6.3 4 1.4 1.9 1.7 2.8 2.5 4.8l1.3 1.9c-0.6-3.4-3.9-11.1-5.8-13.1-3.1-3.3-8-3.8-12.3-6.1-4.2-2.2-5.8-5.9-8.3-10.2-2.2-3.7-7.2-5-12.6-6.2-6.2-1.3-10.8-1.1-16.9-1.7-5.3-0.6-9.6-2.4-14.3-4-5.7-2-10-3.2-14.8 0.3-3.2 2.4-6.8 6.1-8.7 10.2zm26.6 6.6c4.6 0.6 9.5 1.1 14.2 0.8 3.2-0.2 11.5-1.5 10.6-4.8-1-3.6-19.2-6.1-24.4-6.6-10.2-1.1-19.9-2.1-25.4 4.5 6.2 2.7 17.6 5.1 25 6.1zm-16 103.5c-4.5-0.5-10.2 4.8-12.8 7.7-1.2 1.4-2.2 2.1-3 3.9 7.8-0.4 17-1.2 15.8-11.6z"/>
		<path id="Path 57" fill-rule="evenodd" class="s1" d="m881.1 334.1c-0.1-9.4-0.4-22.5-2-31.2-0.2 3-0.2 27.5 2 31.2z"/>
		<path id="Path 58" fill-rule="evenodd" class="s3" d="m883.2 349l1.9-0.1c0.1-2.3-1.7-6.4-2.8-8z"/>
		<path id="Path 59" fill-rule="evenodd" class="s3" d="m911.4 361.7c1.5-0.1 2.1-1.1 2.4-2.9l-2.4 0.6z"/>
		<path id="Path 60" fill-rule="evenodd" class="s3" d="m1000.6 392.3c1.1-0.6 2.3-1.9 2.8-3.2-1.6 0.5-3 1.3-2.8 3.2z"/>
		<path id="Path 61" fill-rule="evenodd" class="s1" d="m899.5 468.1c-9.4 14.8-18.6 3.5-30 3.1-6.6-0.3-13.6-0.6-19.4-3.9-2.1-1.2-2.2-1.9-3.4-4.1-5.6-10.4-12.6-4.8-16.8-14-5.1-11.2-1.3-9.7-0.3-7.8 1.2 2 0.9 3.2 2.8 5.1 3.7 3.8 13.4 4.7 18.5 4.4 8.7-0.4 21.3-5.7 27-11.7 1.2-1.3 2.4-2.4 3.7-3.8 4.3-4.3 10.5-12.4 12.1-18.7 1-4 1.2-11.3 3.7-11.6 2.6 2.4 1.5 13 1 16.9l1.2-1.5q0.4-0.8 0.7-1.6c1-2.6 1.2-5.5 1.4-8.2 0.1-1.3-0.3-3.6 0.7-4.3 1 0.7 0.7 2.3 0.8 3.7 0.3 9.2 1.8 18.5 0.7 27.8-0.8 6.5-3.2 13.2-6.3 18.9l-3 5.2c1.2 0.8 4.4 2 6 2.2 2.5-3.1 5.7-11.3 6.6-15.9 1.3-6.7 1.6-13.7 1.8-20.7 0.1-6.1 0.1-15.6-1.2-21.3-0.9-3.6-2.1-4.7-5.3-5.8-4.7-1.7-4-1.8-9.5-1.2-0.6 4.2-2.4 11.7-3.9 15.6-2.8 7.4-12.7 15.4-19.4 19.7-9.1 5.9-18.7 9.8-29.9 6.6-3.8-1.2-10.6-4.3-13-6.3-5.2-4.4-8.2-12.6-9.3-19.9-0.6-3.8-1.6-6.3 2.1-6.3-2.2-7.8-4.4-13.5-3.3-22 0.7-5.4 4.3-6.2 8.1-8.2 2.2-1.1 1.8-4.6 5.3-4.6 0.9 2.3-0.2 3.4-2 4.3-2.2 1.1-2.3 1.2-3 3.9-1.2 4.3 1.2 7.7 3.1 10.2 11.4 15.9 32.6 18.9 50.3 11.2 2.4-1 7.2-3.8 7.7-5.8-5.7 3.5-45.4 4.9-52.8-13.6-1.9-4.7-2.3-9.9 0-14.5 1.8-3.7 5.6-7.4 8.2-9.5 4.4-3.5 9.4-6.9 15.9-6 2.6 0.3 1.3-0.5 3.5-0.6 1.3 0 6.1 0.5 6.4 1.9 6-3.3 15.9-1.8 22.8-0.1 10.8 2.8 13.2 5 10.1 13.1 4.2 0.2 8.8 0 13.1 0.2-2.5 2-19.8 0-13.8 1-1.8 2.8-3.6 4.5-5.8 6.5-1.6 1.5-5.4 4.3-8.5 3.3-0.9-1.7-0.3-3.3 0.2-5.2 1.5-5.3 8.6-5.4 13.5-5.6 1.6-3.6 3.1-6.7-0.5-8.9-6.6-4-25.6-7.8-31.2-2.9-4.3 3.9 0.2 13.7 4.4 18.2 3.3 3.4 11.2 8.5 18.8 6.3 1.1-1.2 1.2-3.3 3.6-2.7 0.5 1.5-0.4 2.2-1.5 3-1.1 0.7-0.8 0.1-1.1 1.6-0.1 0.8-0.1 1.2-0.4 2-2.6 7.3-17.8 0.4-21.3-1.9-4.3-2.8-7-5.3-8.9-11-1.6-4.7-3.5-11.5-2.5-16.9-4.8-1.5-9.1 0.6-12.3 2.8-5.9 3.9-13.6 10.2-13.2 18.2 0.6 14.3 11.9 19.2 25.7 21.4 5.3 0.8 25.4 2.4 27.5-1.8-2.7-5.1-23.5-3.6-29.8-9.2-5.9-5.1-5.7-11.2-0.4-8.1 4 2.3 2.8 2.8 9.5 5.6 6.9 2.9 19.4 5 21.7 8.8 4.5 7.2-9.7 12.3-14.7 13.7-11.3 3.2-23.9 2.3-33.2-3.2-5.9-3.4-12.2-9.2-14.7-15.4-1.5-3.7-0.8-4.8 0.1-8.4-4.2 1.4-6.5 3.3-7 8.1-0.4 4.5 0.1 9.1 1.2 13.2 2 8.4 2.3 7.6 5.4 9.1 4.8 2.2 14 8.1 16.4 12.5 1.1 2.1 0.4 4.1-2.4 3.6-5.7-1-13-8.5-15.8-13.1-1.3-2-1.3-3.9-3.9-3.3-0.3 4.2 1.8 11.8 3.2 15.4 1.9 4.5 4.7 8 8.3 10.1 8.1 4.9 18.3 7.9 28.6 4 10.4-4 26.1-15.1 30-25.1 1.3-3.4 3.2-11 3.7-14.7-5.1 0.8-2.2-4.7 1-3.9l0.3 2.4c5.8-0.2 4.5-0.4 9.7 1.4 3.3 1.1 4.7 2.3 5.7 5.7 1.6 5.4 1.5 15.5 1.5 21.5-0.2 14.1-0.6 22-6.3 34.2-0.6 1.2-1.6 2.6-1.9 3.8 2.9 1.3 9.3 2.3 12.9 2.1 4.4-0.2 8.3-1.6 11.8-3.3 3.8-1.9 6.6-3.6 8.8-6.2 1.3-1.7 3.9-8.3 3.8-11-2.4-0.3-2.7 2.3-3.3 4.2-0.3 0.9-0.5 1.9-0.7 2.9-0.5 2.7-0.2 2.2-1.1 2.5-1.3-0.7 0.3-1.5-1.8-2.7-0.9-0.6-2.1-1-3.1-1.5-6.6-3.3-8.3-9.4-9.3-17.2-0.7-5.4-0.9-11.6-0.6-17.1 0.1-2.7 0-5.5-0.9-7.8-0.7-1.7-3.4-3.4-5.3-3.3 0 2.3 2.1 11.1 2.6 17.1 0.2 3.4 1.4 16.5-0.6 18.3-3-1.4-1.9-23.8-3.1-28.5-1.3-5-6-10 2.6-8 2.4 0.6 2.4 0.9 3.7 2 2 1.5 2.2 0.2 2.6 3.2 1.2 7.4 4.3 25.6 9.7 30 7.1 5.7 7.2 3.5 9.3 4.5 1.9 1 3.7-0.1 6.6-1 2.9-1 5.9-1.7 4.9-5.4-0.7 0.1-3.3 2-5.2 2.5-6.4 1.8-12.5-1.7-15.5-6.8-2.9-5-6.9-16.9-7.1-23.8-0.2-5.3 6.9-4.2 10.6-2.8 5.1 1.9 5.4 3.8 5.5 9.8 0.1 6.2 0.7 9.4 4.3 13.2 2.1 2.2 5.3 3.5 7.1 6 3.3-1.7 7.5-14.2 8.7-19.4 0.8-3.2 1.8-9.4-0.7-11.6-2.7-2.2-8.7-0.7-11.6 0.5-5.7 2.2-5.7 4.3-5.5 8.6 0.2 3.8 0.5 8.6 3 10.8 4.9 4.3 13-8.7 11.2-14.4-1.7-2.6-9 0-10.2 0.1l-1.2-0.2c0.3-0.9 0.1-0.6 1.4-1 3.2-1 10.5-2.6 11.3 1.7 0.9 4.6-2.8 10-4.6 12.4-2.5 3.3-8.2 5.3-10.5-0.3-1.2-2.9-2.6-12.6-0.7-15 2.2-2.8 7.4-5.1 12.2-5.2 1.4-0.1 2.9 0 4.1 0.4 7.6 1.9 1.7 18.2 0.1 22.3-1.8 4.6-3.3 8-6 11.3 1.4 3.8 0.2 5.2-3 6.5-2 0.8-6.3 2.2-8.6 2.4-3.3 9.4-2 12.7-13.5 18-11.1 5.2-15.1 3.5-25.8 1.2-0.8 0.8-1 1.4-1.7 2.4zm-72.6-90.8c1.1-0.4 2.1-0.9 2-2.3-0.8 0.5-1.6 1.4-2 2.3zm43.2-2c-3.2-3.5-9.1-13.9-4-19.1l-7-0.6c-0.8 5 0.4 10.1 1.9 14.7 1.8 5.8 3.2 7.3 6.5 10.3 4.5 4 22.3 12 22.6 1.9-9.2 1.5-15.9-2.9-20-7.2zm8.4 14.6c-7-2.1-16.7-4.6-22-9.1-5.6-4.9-5.3 1.1 0.6 5.7 2.3 1.7 5.8 2.6 9.2 3.2 8.9 1.6 11.9 0.7 19.9 4.8-1.9-3.1-3-3.2-7.7-4.6zm11.8 8.9l1.8-0.5v-1.6c-1.1 0.1-1.5 0.8-1.8 2.1zm21.7 6.9l-1.3 0.1c-0.1 1.6 1.2 4.5 1.9 5.6zm-79.8 10.9c-3.4-2.4-6.3-4.1-10.4-6.1 1.7 5.2 12.8 15.6 17.7 14.7 0.8-2.7-5.3-7.1-7.3-8.6zm82.7 21.8c0.2-2.2 0.2-19.5-1.3-22.1 0 6.6 0.2 15.9 1.3 22.1zm23.8-18.2c-0.2-5.6 1.5-11.6-9.1-12.6-2.7-0.2-5-0.1-4.9 2.9 0.1 6.3 4 17.6 6.5 22.4 4.5 8.4 13.8 9.5 19.2 4.7-3.2-4.7-11.1-5-11.7-17.4zm-13.2 13.6c-1.5-4-2.8-9.3-3.8-13.7q-0.2-1.2-0.5-2.4c-0.2-1-0.2-1.8-0.7-2.5-0.4 8.7-0.7 19 2.1 27.3 2.8 8.1 7.8 7.9 11.5 10.6 0.4-0.8 0.8-2.9 1.1-3.8 0.5-1.4 1.2-2.5 1.6-3.6-6.2-4-8.4-4.2-11.3-11.9zm-31.7 29.2c-2.2 1.6-3.2 3.7-8.1 4.5-6.1 0.9-30.1-1.5-32.3-5.9-1.5-3.2 4-4.8 6.8-5.1 7-1 16.4 0.6 23.2 2.2 3.5 0.9 6.7 2.1 10.1 2.9 3-3.8 7.2-13 8.5-19 2-8.8 1.1-17.5 0.4-26.5-0.6 1.3-0.4 2.4-2.2 5.6-1.1 2-2.2 2.9-3 5.2-1 2.7-4.5 9.3-7 8.8-0.4-3.2 6-8.5 6.8-12 0.9-3.6 1.9-13.8 0.1-17.1-1.2 1.7-1.8 9.4-3 12.4-1.4 3.8-3.7 6.9-5.7 9.9-3.9 5.8-9.5 11.7-15.5 15.5-10.3 6.6-24.5 10-36.9 5.5-2-0.8-3.9-1.9-4.8-3.1-1.1-1.5-1.3-2.1-2-3.7l-0.9-1.4c0.4 2.6 3 8.5 4.4 10 2.4 2.6 6.1 2.9 9.4 4.7 3.2 1.7 4.4 4.5 6.4 7.8 1.7 2.8 5.5 3.9 9.6 4.8 4.8 1 8.3 0.8 13 1.3 4 0.4 7.3 1.8 11 3.1 4.3 1.4 7.6 2.3 11.3-0.3 2.4-1.8 5.2-4.7 6.6-7.8zm-20.3-5.1c-3.6-0.5-7.3-0.8-11-0.6-2.3 0.1-8.8 1.2-8 3.7 0.7 2.8 14.7 4.7 18.6 5.1 7.9 0.8 15.3 1.6 19.5-3.5-4.7-2.1-13.4-3.9-19.1-4.7zm12.2-79.3c3.5 0.4 7.8-3.6 9.8-5.9 0.9-1 1.7-1.6 2.3-3-5.9 0.4-13 0.9-12.1 8.9z"/>
	</g>
</svg>