<svg version="1.2" xmlns="http://www.w3.org/2000/svg" viewBox="0 0 1191 1684" width="1191" height="1684">
	<title>Carta</title>
	<defs>
		<clipPath clipPathUnits="userSpaceOnUse" id="cp1">
			<path d="m0 0h1191v1684h-1191z"/>
		</clipPath>
	</defs>
	<style>
		tspan { white-space:pre } 
		.s0 { fill: #cad2b2;stroke: #cad2b2;stroke-miterlimit:22.92558479309082;stroke-width: 1.1 } 
		.t1 { font-size: 42px;line-height: 32px;fill: #cad2b2;font-family: "Engravers Gothic BT" } 
		.s2 { fill: #f8cfc9;stroke: #f8cfc9;stroke-miterlimit:22.92558479309082;stroke-width: 1.1 } 
		.s3 { fill: #f8cfc9 } 
		.s4 { fill: #a8b69f } 
		.s5 { fill: #a8b69f;stroke: #a8b69f;stroke-miterlimit:22.92558479309082;stroke-width: 1.1 } 
	</style>
	<g id="Page 9" clip-path="url(#cp1)">
		<path id="Path 331" fill-rule="evenodd" class="s0" d="m569.1 1153.9c28.9-6.9 57.9 10.8 64.9 39.6 7 28.9-10.7 57.9-39.6 64.9-28.8 7-57.9-10.7-64.9-39.6-6.9-28.8 10.8-57.9 39.6-64.9z"/>
		<text id="POSTRES" style="transform: matrix(1.061,0,0,.943,856.165,1537.58)" >
			<tspan x="0" y="0" class="t1">POSTRES
</tspan>
		</text>
		<path id="Path 333" fill-rule="evenodd" class="s2" d="m634.2 1190.4c14 41-27.2 80.5-63.6 78.1-44.4-3-51.9-63.5-91.8-56.8-17.7 2.9-35.8 20.7-30 43.2 9.2 35.8 82.6 26.9 116.8 20.7 26.6-4.8 35.6-8.8 51.9-22.3 5.2-4.3 14-12.4 21.2-15.3 17.2-7 34.7 14.9 29.7 39-6.1 29.2-44.6 39.1-72.9 40.1-49.9 1.8-75.8-19.6-117.4-31.1-21.5-5.9-43.6-7.7-58.6 6.2-12.4 11.6-18.6 44 1.1 50.4 29.2 9.5 99.3-8.1 129.8-13.4 34.8-6 72.9-8.1 102.9-27.5 3.6-2.3 7.5-5.8 11.7-7.1 20.4-6.3 33.3 22.3 30 41.5-5.7 33.1-50.4 33.6-78 31.1-12-1.1-25-0.5-37.2-0.6-23.3-0.1-47.9-0.9-70.8-3.9-21.6-2.8-41.6-11.6-62.7-11.2-43.6 0.7-36.8 44.2-20.4 47.1 8.2 1.5 17.1-21 29.3-25.9 16.1-6.4 26.5 9 34.8 18.3 12.6 14 21.8-2.3 33-10 13.2-9.2 16.2-0.6 21.9 8.4 4.3 6.8 14.3 14 24.4 6.6 5.9-4.4 12.1-15.1 21.2-16.3 17.5-2.2 24.6 27.5 52 17.5 13.8-5 32.5-31.4 45.9-29.4 12.6 12.8-17.3 105.3-23.2 123-22.5 66.5-13.4 65.5-87.4 64.5-25.7-0.3-50.7 1-76.2 1.1-11.1 0-24.5-0.1-34.6-3.6-11.8-4.1-10.6-11.9-14.1-24.6-5.4-19.4-12.4-38-19.4-56.6-3.4-8.9-21.2-50.5-17.7-56.7 1.6-2.6 3.2-3.5 7.6-3.9 9.9-1 19.7 4.4 25.4 10.8 13.8 15.6 17.4 54.4 22.3 74.8 3.7 15.3 17.8 19.8 21.8-0.7 2.8-14.5-1.2-29.9 3-44.9 10-35.7 35-41.5 40 0.5 1.9 15.8-8.5 54.4 3.7 65.2 4.7 4.2 11.7 4.3 16.5-0.3 9.2-9 6.5-26.8 5.8-40.9-2.1-38.3 27-56.4 34.8-13.8 2.4 12.6-2.7 55.9 9.6 60.6 16.6 6.3 17.6-37.9 21.4-52.1 1.5-5.4 11-31.1 17.9-29.2 1.5 3.9-4.4 4.1-10.4 17.8-9.4 21.2-8 65.7-24.1 67.2-19.3 1.9-16-32.1-15.8-43.2 0.5-38.3-19.8-61-29.2-23.2-2.3 9.4-0.6 19-0.2 28.6 0.4 9.2 0 18.5-3.9 25.7-3.2 6-11.1 12.4-20.3 8-14.9-7.2-11.4-31.2-9.5-48.1 3.7-34.8-10.8-71.9-29.9-31-4.9 10.6-5.4 19.1-5.2 31.6 0.1 10.4 0.5 23.4-4.3 31.9-5.7 10.1-17.3 6.7-22-1.1-6.2-10.3-10.4-69-26-83.6-5.2-4.9-17.8-10.1-26.5-5.5-0.8 7.3 14.8 46 18.2 54.5 8.8 22.4 17.3 45.5 22.6 69.2 1.5 6.6 3 7.8 8.9 9.9 19 6.9 84.9 2.1 107.7 2.4 17.4 0.2 53.3 2.2 64.9-7.5 10.5-8.9 54.8-156 46.6-173.5-13-4.1-34.1 39-63.4 30.1-9.1-2.8-13.9-8.5-20.1-13.3-20.8-15.9-24.1 12.2-40.8 14.2-26.8 3.2-18.1-33.7-39.9-17-5 3.8-11.8 11.5-18.6 14-11.4 4.1-15.6-5-20.5-10.3-35.2-38-39.3 11.2-55.7 13.1-8.6 1-14.4-8.6-16.4-16.1-6.1-23.2 7.9-33.5 27-37.2-20.4-2.6-31.3-2.7-33.7-24.7-2.1-19.3 8-32.5 18.6-39 26-16.1 69.2 1.5 93.1 11.5 30 12.6 60.5 22.3 97.7 15.4 14.8-2.7 31.8-9.8 40.8-17.6 10.3-8.9 15.5-30.2 6.3-43.5-20-28.6-41.3 12.5-71.8 23-24.6 8.5-124.9 24.5-142.2-12.5-14.7-31.7 23.5-65.3 54.4-49.1 6.5 3.4 11.5 8.5 15.8 13.4 4.4 5.3 9.1 12.1 14.1 16.2-7.2-23-15.1-42.6 2.8-67 1.8-2.5 7.9-8.6 10.4-10.5 4-3 8.1-5.5 13-7.9 13.8-6.6 21.1-5.1 36.4-3.9 4.1-21.4 9.6-43.9 12.9-65.7l-0.5-6.7c-0.6-1.5-0.9-2.3-1.1-2.6 9.8-7.9 3.9-43.7 21-40.2 2.4 8.1-4.8 20-8.2 26.3-6.8 12.4-6.1 11.8-8.7 27.7-3.6 21.7-7.9 41.1-12.3 61.8 8.1 6.2 27.4 10.2 36.6 37.4zm-28.5-113c1.7 6.5-0.8-1.7 0.1 0q-0.1 0-0.1 0zm-22.2 103.3c-10.1 9.8-28.7-1.2-11.9-14 6.8-5.2 11.1-3.4 19.4-4.3l1.9-6.2c-20.9-9.7-80.4 13.5-62.5 72.4 15.8 52 68.8 38.6 81.4 6.5 8.4-21.1 5-60.1-19.2-68.1-3.7 6.7-4.1 8.9-9.1 13.7zm23.6 72.7c5.8-4.1 7.8-6.4 12.3-10.8 32.5-31.8 4.8-79.7-22.9-85.4l-2.4 6.2c6 3.7 6.6 2.8 11.3 7.9 21.7 23.2 18.7 74.4-13 89.9 4.6-1.5 10.5-4.9 14.7-7.8zm-25.1-75.2c1.8-1.7 6.3-8.6 7-12.3-9.4-0.7-21.9 2.6-20.3 13 4.6 3 9.4 3 13.3-0.7zm36.3-121.3c2.3-4.2 7.2-12.6 5.4-17-5.8 3.4-7.5 14.3-8.4 21.7zm-128.9 299.2c10.8 2.6 21.7 3.9 33 4.9 23.7 2.2 48 2.5 72 2.5 23.1 0 49.1 4.4 70.7-2 19.3-5.7 33.2-20.6 25-45.5-5.7-17.5-16.3-24.4-31.9-13.6-33.6 23.2-89 25.8-134 35.1-13.4 2.8-52.2 11.2-64.8 9.8l-6.1 0.4 4.5 1.7c9.4-0.8 22.4 4.6 31.6 6.7z"/>
		<path id="Path 334" fill-rule="evenodd" class="s0" d="m222.9 1291.3c32-7.7 64.2 11.9 71.9 43.9 7.8 32-11.9 64.2-43.8 71.9-32 7.8-64.2-11.9-72-43.8-7.7-32 11.9-64.2 43.9-72z"/>
		<path id="Path 335" fill-rule="evenodd" class="s3" d="m352.7 1349.9c22.1 1.1 28.5 18.5 34.8 42.7 6.1 23.2 10.9 47.1 15.9 70.5 2.9 13.5 4.9 19.3 1.9 31.7-2 8.4-6.1 17.2-11 23.6-10.4 13.4-23.1 24.7-41.3 35-34.4 19.5-88.7 32.3-129.3 36.1-42.8 4-82.5-0.7-95.8-42 11 1 17.6 7 53.3 8.1 20.4 0.6 40.5-1.6 61.3-5.4 21.4-4 44.3-10.7 64.5-18.4 9.8-3.7 19.2-7.4 28.6-11.6l20.4-9.6c8-3.8 3.9-6 1.5-5.7-1.1 0.2-0.5 0.1-1.4 0.4-0.4 0-3.1 1.4-3.6 1.7-34.6 17.5-80.4 33.6-117.7 39.7-20.8 3.4-41.5 5.2-61.4 3.8-13.9-0.9-27.3-2.7-40.3-6.8-3.5-1.1-9.6-3.8-12.1-3.9 6 26.4 18.4 39.4 35.6 47.2 47.1 21.6 155-4.8 196.3-28.2 21.3-12 43-29.3 52.2-49.3 8.3-18 7.6-26.6 3.4-45.7-5.5-24.8-10.5-49.5-16.9-74.1-6.3-24.5-15.2-43.4-37-44.3-0.4 1.1-0.4 0.9-1 2.2-0.7 1.5-0.3 0.5-0.9 2.3z"/>
		<path id="Path 336" fill-rule="evenodd" class="s2" d="m350.2 1355.3c7.5 2.1 16.7 7.9 21.7 16.8 11.5 20.6-19.8 40.6-21.6 49.3-1.9 9.9 13.3 41-2.3 38.9-4.8-0.6-10.5-13.7-12.7-17.7-6.6-11.8-16.9-13.3-21.4-0.4-4.7 13.5 5.5 56-8.8 57.5-10.7 1.2-24.8-31.5-37.4-43.7-20.2-19.6-31.3 17.2-37.2 27.3-15.1 25.7-29.9-7.6-45.7-12.8-9.9-3.3-22.2 2.5-27.1 9.8-3.5 5.2-10.4 21.5-18.7 19.9-8.4-4.3-11-16.9-18.1-24.9-3.5-3.9-9-5.6-13.5 0.2-13.5 17.6 23.6 60.4-9.7 69.3-14.6 3.9-9.7-11.3-5.4-24.8 7.7-24.5 0.1-28.3-3.7-56.1-1.1-8.8-0.4-20.5-1.7-27.5-0.4-1.4-1.5-9.4-3-9-4.4 9.2 0.8 44 3.6 56.3 8 35.1-0.6 24.5-3.8 51.4-3.2 27.4 29.5 13.5 33-3.3 2.7-13-15.9-49.6-2.6-55.2 10.5 4.5 13.7 33.6 30.9 27.4 13.3-4.8 11.3-24.8 28.8-29.2 15.3-3.8 23.5 13.3 34.4 20 21.6 13 30.1-18.6 35.9-28.2 1.9-3.2 3-5.4 6-8 8.3-7.1 13.3-0.9 17.8 4.8 8.1 10.4 16.7 26.7 25.3 35.2 13 12.8 24.1 5.6 24.7-17.4 0.2-6.6-4.3-43.4 6-43.3 8.5 0.1 15.2 36.6 31.3 25.5 9.4-6.5 1.9-25.2 0.1-35.9-1.1-6.2-0.2-5.8 3.2-9.7 8-9.2 20.6-22.3 20.9-35.6 0.3-15.8-19.2-31.1-27.5-30.8-1.4 1.1-0.8-0.4-0.9 1.8-1.3 1.1-1.4-1.2-0.8 2.1z"/>
		<path id="Path 337" fill-rule="evenodd" class="s3" d="m292.8 1352.7c3.7-6.3 6-7.5 8.3-16 5-18.8-6-33.7-21-43.1-4.1-2.6-9.7-4.3-14.7-4.5 3 3.9 6.5 7 9.1 12.3 6.9 14 5.5 36.3-0.6 44.6-10.9-7.9-18.4-36.9-23.2-52-1.5 1.3-4.2 10-5.8 13.1-8.5 15.3-17.9 22.9-37.4 27.3 0.6-6.2 6.9-22.7 9-26.6 6.6-12 13.4-15.5 17.6-20.5-12.7 0.1-26.2 0.6-37.3-2.8-7.4-2.3-23.4-12-27.6-19.3 21.4-3.4 67.7-12.7 78.6 11.3 6.2-12.9-4.7-71.4-7.8-83.8-2.3-9.2-6.3-20.2-8-29l3.9-1c5.6 8.1 14 51.3 15.7 63.3 5.2 35.5 0.2 42.8 1.3 57.1 16.9 1.1 27.2 2.1 39 13 3.5 3.2 6.2 6.2 9 10.8 6 10 7.6 20.6 4.9 31.1-1.6 6.5-8.4 18.8-13.2 22.3l-0.6-5.6c0-1.5-0.1-0.4 0.8-2zm-46.7-64.4c-18.5 4.8-27.8 22.9-31.8 39.2 16.9-3.4 31.6-26.8 31.8-39.2zm-27.8-22.5c-9.1-0.5-29.7 0.1-38.8 2.8 15.9 16.2 43.9 15.2 66.3 14.1-6.2-13.7-13.3-16.1-27.5-16.9zm53.8 70.5c3.7-7 2.9-20.1-0.4-29.1-3.7-10.2-10.2-16.5-17.7-18.1 3.5 10.7 12 40.6 18.1 47.2z"/>
		<path id="Path 338" fill-rule="evenodd" class="s2" d="m173.3 1368.8c2.2-5.8 1.7-12.3 4.6-18.2 7.9-15.7 26.3-0.1 10.8 14.4-8.3 7.8-11.2 2-9.9 15.2-0.9 3.8-0.8 4.7 0.7 9.5 2.3 7.3 0.8 16.5 11.6 17.2 4.5 1.4 6.1 3.5 13.4 4.2 6.6 0.6 12.7-0.7 19.1-3 12.7-4.5 18.7-10.4 28.9-15.9 4.3-0.9 4.6-0.5 7.7-3.2-0.3-0.4-1.2-1.8-1.6-2.3 6.1-3.6 14.8-13.9 19-15.7 3.5 1 1.8-0.2 3.8 1.8-8.8 12.2-40 34.3-57.6 40.2-32.5 11-47.3-7.5-50.2-38.8l-39 12.1-0.9-5c12.8-3.9 27.5-7.2 39.6-12.5zm12.9-20.4c-4.8 3.2-7 10.4-7 17.4 7.1-4.2 15.6-10.9 7-17.4z"/>
		<path id="Path 339" fill-rule="evenodd" class="s2" d="m93.4 1406.4c0.1 2.7-0.3 2.5-0.3 4.2 0.1 3.1-0.9 1.2 1 2.5 4.5-8.4 13-14.4 23.5-20-0.5-3.6-0.4-4.5-4.2-2.9-7.9 2.9-17.6 10.6-20 16.2z"/>
		<path id="Path 340" fill-rule="evenodd" class="s2" d="m83.9 1427.4c1.5-0.4 2.6 7.6 3 9 1.4-3.8 1.4-8.4 2.6-12.5 1.5-5.2 2.7-6.7 4.6-10.8-1.9-1.3-0.9 0.6-1-2.5 0-1.7 0.4-1.5 0.3-4.2-4.2 4.2-8.9 13.8-9.5 21z"/>
		<path id="Path 341" fill-rule="evenodd" class="s2" d="m179.2 1365.8c7.1-4.2 15.6-10.9 7-17.4-4.8 3.2-7 10.4-7 17.4z"/>
		<path id="Path 342" fill-rule="evenodd" class="s2" d="m113.4 1390.2c3.8-1.6 3.7-0.7 4.2 2.9l17-6.8-0.9-5c-3.7 1.5-7.5 2.8-11 4.2-1.8 0.7-3.7 1.5-5.3 2.2-3.4 1.4-1.9 0.1-4 2.5z"/>
		<path id="Path 343" fill-rule="evenodd" class="s2" d="m191.1 1406.9c-7.3-12-8.9-8.9-12.3-26.7-0.9 3.8-0.8 4.7 0.7 9.5 2.3 7.3 0.8 16.5 11.6 17.2z"/>
		<path id="Path 344" fill-rule="evenodd" class="s4" d="m343.5 1353c3.2 1.4 1.5 0.7 3.8 0.5 3.5-1.8 1.4-1.6 3-4.3 1.7-3 2.1-0.3 2.1-4.3l-11 0.5z"/>
		<path id="Path 345" fill-rule="evenodd" class="s2" d="m279.5 1368.4c1.9 2.3 0.7 0.7 3.9 2.2l6.3-6.3c-1.7-1.4 2.5-2.1-2-1 0.3-3.3 0-0.6 2.4-3.3l-0.3-3c-2 1.7-8.9 8.9-10.3 11.4z"/>
		<path id="Path 346" fill-rule="evenodd" class="s4" d="m336.3 1352.4l5 0.4-1.7-6.8-10 2.1c2.1 5-0.5 3 6 2.2z"/>
		<path id="Path 347" fill-rule="evenodd" class="s2" d="m289.8 1357l0.3 3c-2.4 2.7-2.1 0-2.4 3.3 4.5-1.1 0.3-0.4 2 1 1.6-1.7 1.5-1.5 2.9-4l-0.6-5.6z"/>
		<path id="Path 348" fill-rule="evenodd" class="s4" d="m350.3 1349.2c1.7-3 2.1-0.3 2.1-4.3l2.2 0.5c-0.4 1.1-0.4 0.9-1 2.2-0.7 1.5-0.3 0.5-0.9 2.3-1.6 0.2-1.2-0.2-0.8 1.5-1.4 1.1-0.8-0.4-0.9 1.8-1.3 1.1-1.4-1.2-0.8 2.1l-2.9-1.8c3.5-1.8 1.4-1.6 3-4.3zm-21.3-0.9c3-2 7.6-2.9 10.6-2.3l-10 2.1c2.1 5-0.5 3 6 2.2l0.7 2.1c-4.9 0.1-6.8 1.2-7.3-4.1z"/>
		<path id="Path 349" fill-rule="evenodd" class="s2" d="m252.5 1392.2c4.3-0.9 4.6-0.5 7.7-3.2-0.3-0.4-1.2-1.8-1.6-2.3z"/>
		<path id="Path 350" fill-rule="evenodd" class="s4" d="m341.3 1352.8l2.2 0.2-2.1-7.6-1.8 0.6z"/>
		<path id="Path 351" fill-rule="evenodd" class="s2" d="m277.6 1371c3.5 1 1.8-0.2 3.8 1.8l2-2.2c-3.2-1.5-2 0.1-3.9-2.2z"/>
		<path id="Path 352" fill-rule="evenodd" class="s5" d="m300.1 1345.8c0.5-0.7 0.6-1.3 1-2l-4.9 1.5z"/>
		<path id="Path 353" fill-rule="evenodd" class="s2" d="m965.3 376c-5.5-3.8-6.2-10.3-5.2-18.8 2.3-19.7-7.2-44-18-54.8-8.9-9-17.4-17.5-32.9-15.8l-13 4.5c-1.1 0.7-1.2 0.8-2.1 1.5l-1.4 1.3c0.3 0.2-0.7 3 7.8 0.4 2.9-0.9 4.1-1.4 7.4-1.5 5.3-0.2 10.4 0.8 13.1 4.5-4 3.9-11.4 5.2-17.8 5.9 5.8 5.3 9.7 6.5 12 17.1-18.3-0.2-15-1.6-26.5-6.2 3.2 8.1 11.9 16.2 4.6 33.6-8.2-1.8-10.8-5.3-13.6-12.2-1.9-4.5 0.3-2.6-3.3-5-1.6 1.8-0.2-1.4-2 3-2.3 5.7-0.3 17.4 0 23.2-5-0.6-10.1-2.4-12.3-4.9 0.8 8.6 8.8 17.9 14 21.1 10.8 6.8 17.5 2 29.6 2.5 5.9 0.3 10.7 2.5 15.5 2.5 10.4-0.3 42.3-9.8 39.1 4.8-8.9 15.7-34.6-1.5-45.6-0.8-32.1 2-52.7 8.2-67.6-15.9-6.3-10.1-1.9-13.3 0.8-22.1 1.5-5.2-4.7-14-1.7-24 3-10 9.3-10.4 13.3-14.8-11.9-7-15.3-35 9.3-40.2-5.7 21-4.9 17.2 1.7 36.1 1.2-1.2 0.8-0.3 1.9-2.1 0.1-0.3 0.3-0.6 0.4-0.8 2.7-5.3 3.1-13 12.4-24.6 7.2-9 14-13 28.7-8.9-4.2 2.7-7.5 0.8-13.6 9.3-2.8 4-5.8 8.9-8.3 13.4 6.8-4.1 16.5-14.9 29.3-8.1-7.7-1-9.5-2.2-16.9 1-4.5 1.9-9.4 5.2-11.3 9.6 13.7-6.1 24-9.4 38.1-0.1 8.8 5.9 16.5 14.6 22.5 25.9 17.9 33.9 0.6 50.1 11.9 59 6.6 5.1 11.9 0.7 17.6-0.6-4.2 4.8-13 5.4-17.9 2zm-104-43.1l-1.8 0.4c-7.7 9-16.1 20.5-8.5 32.2 7.2 11.2 15.7 15.2 33.9 14.9-4.3-2.5-8.1-2.7-12.4-6.1-3.1-2.5-6.9-6.7-9.1-10-5.8-9.1-7-20.4-2.6-30.8 0.2-0.1 0.4-0.5 0.5-0.6zm0.1 0q0-0.1-0.1 0zm1.6-62.4c-5.6 2.1-9.3 8.9-9.3 17.8 0 13.2 8.8 9.7 9.2 19.5-4.1 3.7-8.4 3.2-12.2 9.9-2.7 5-2.9 13-0.1 17.7 5.1-6.4 6.3-14.8 15.5-14.2l1.6 5.4c0.6 2 0.7-2 0.4 2.1-0.2 3.6-14.7 19.9 3 24.4-0.4-5.9-2.6-24.8 5.4-25.2 6.9-0.5 3.5 11.7 14.5 16.5 8.8-12-4.7-24.2-4.7-32.7 8.3 0.1 11.5 6.6 25.9 6.3-5.8-17.2-13-9.6-19.6-16.1 4.8-2.2 15.5 1.2 25.3-4.6l-1.1-1c-7-4-12.1-1-18.7 0.2-5.1 0.9-5-1.2-7.8-0.6-3.7 0.8-1.9 3.4-8.4 4 1-8.6 17.2-27.7 21.7-34.5-10.1 1.4-15.4 7.8-20 15.5-3.4 5.8-8.1 21-10.6 24-10.5-0.9-11.7-24.2-10-34.4zm28 18.9c-3.8 2.4-1.5 0.2-3.7 3.3-0.6 0.9-0.2 1.3-1.5 3.1 5.7-1.6 4.2-0.2 5.2-6.4zm65.9 92.2c-2.4-5.5-6-4.2-12.8-3-5.4 0.9-11.2 1.3-16.8 2.3 7.4 4.2 23.6 8 29.6 0.7z"/>
		<path id="Path 354" fill-rule="evenodd" class="s2" d="m915.4 338.8c5.7 1.4 11 5.8 17.6 0.6 11.3-8.8-6-25.1 11.9-58.9 6-11.3 13.7-20.1 22.5-25.9 14.1-9.4 24.3-6.1 38 0-1.8-4.4-6.8-7.6-11.2-9.5-7.4-3.2-9.3-2.1-17-1 12.9-6.9 22.5 4 29.4 8-2.6-4.4-5.5-9.3-8.4-13.3-6-8.6-9.4-6.6-13.5-9.3 14.7-4.2 21.5-0.2 28.6 8.8 9.3 11.6 9.7 19.3 12.4 24.6 0.2 0.3 0.3 0.6 0.4 0.8 1.2 1.9 0.7 1 1.9 2.2 6.7-18.9 7.4-15.1 1.8-36.2 24.6 5.3 21.1 33.3 9.2 40.2 4 4.4 10.4 4.9 13.3 14.9 3 10-3.2 18.7-1.6 24 2.6 8.8 7 11.9 0.8 22-15 24.2-35.6 17.9-67.7 15.9-11-0.7-36.7 16.6-45.5 0.9-3.3-14.6 28.7-5.1 39.1-4.9 4.8 0.1 9.6-2.1 15.5-2.4 12-0.6 18.7 4.3 29.6-2.5 5.2-3.2 13.2-12.5 13.9-21.2-2.2 2.6-7.3 4.3-12.3 4.9 0.3-5.8 2.4-17.5 0.1-23.1-1.8-4.5-0.5-1.3-2.1-3.1-3.5 2.5-1.4 0.5-3.2 5.1-2.9 6.8-5.4 10.4-13.6 12.1-7.3-17.3 1.3-25.4 4.6-33.6-11.6 4.7-8.2 6.1-26.6 6.3 2.4-10.7 6.2-11.8 12.1-17.1-6.4-0.7-13.8-2.1-17.8-6 2.6-3.6 7.8-4.7 13-4.5 3.4 0.2 4.5 0.7 7.5 1.6 8.4 2.5 7.4-0.3 7.7-0.5l-1.3-1.3c-0.9-0.6-1-0.8-2.1-1.4l-13.1-4.5c-15.4-1.7-23.9 6.7-32.9 15.7-10.8 10.8-20.3 35.2-17.9 54.9 1 8.4 0.3 14.9-5.2 18.8-4.9 3.4-13.8 2.7-17.9-2.1zm122.3-40.4c4.4 10.4 3.3 21.7-2.6 30.7-2.1 3.4-6 7.5-9.1 10-4.3 3.5-8.1 3.6-12.3 6.2 18.1 0.3 26.7-3.7 33.9-15 7.5-11.7-0.9-23.1-8.5-32.2l-1.8-0.4c0.1 0.2 0.3 0.5 0.4 0.7zm-0.4-0.7q-0.1-0.1-0.1 0zm-11.8-28c-2.4-3-7.2-18.2-10.6-24-4.6-7.7-9.9-14.1-20-15.5 4.5 6.8 20.7 25.9 21.8 34.4-6.6-0.5-4.7-3.1-8.5-3.9-2.8-0.6-2.7 1.5-7.8 0.6-6.6-1.2-11.7-4.2-18.7-0.2l-1.1 1c9.8 5.8 20.5 2.4 25.3 4.6-6.5 6.5-13.8-1.1-19.6 16.1 14.4 0.3 17.6-6.2 25.9-6.3 0 8.5-13.5 20.7-4.7 32.7 11.1-4.8 7.6-17 14.5-16.5 8 0.4 5.8 19.3 5.4 25.2 17.8-4.5 3.2-20.8 3-24.4-0.3-4.1-0.1-0.1 0.4-2.1l1.7-5.4c9.1-0.6 10.4 7.8 15.5 14.2 2.7-4.7 2.6-12.7-0.2-17.7-3.7-6.7-8.1-6.2-12.2-9.9 0.4-9.8 9.2-6.3 9.2-19.5 0.1-8.9-3.7-15.7-9.3-17.8 1.7 10.2 0.5 33.5-10 34.4zm-12.8-9.1c-1.3-1.9-0.9-2.2-1.5-3.1-2.2-3.1 0.2-0.9-3.7-3.3 1 6.2-0.5 4.8 5.2 6.4zm-41.5 85.1c-5.6-1.1-11.3-1.4-16.8-2.3-6.7-1.2-10.4-2.5-12.8 3 6 7.3 22.2 3.5 29.6-0.7z"/>
	</g>
</svg>