<svg version="1.2" xmlns="http://www.w3.org/2000/svg" viewBox="0 0 1191 1684" width="1191" height="1684">
	<title>Carta</title>
	<defs>
		<clipPath clipPathUnits="userSpaceOnUse" id="cp1">
			<path d="m0 0h1191v1684h-1191z"/>
		</clipPath>
	</defs>
	<style>
		tspan { white-space:pre } 
		.s0 { fill: #cad2b2;stroke: #cad2b2;stroke-miterlimit:22.92558479309082;stroke-width: 1.1 } 
		.s1 { fill: #f8cfc9 } 
		.t2 { font-size: 42px;line-height: 32px;fill: #cad2b2;font-family: "Engravers Gothic BT" } 
		.s3 { fill: #f8cfc9;stroke: #f8cfc9;stroke-miterlimit:22.92558479309082;stroke-width: 1.1 } 
	</style>
	<g id="Page 8" clip-path="url(#cp1)">
		<path id="Path 267" fill-rule="evenodd" class="s0" d="m568.6 1447.9c24.6 2.1 42.8 23.7 40.7 48.3-2.2 24.5-23.8 42.7-48.3 40.6-24.6-2.1-42.8-23.8-40.7-48.3 2.2-24.6 23.8-42.7 48.3-40.6z"/>
		<path id="Path 268" fill-rule="evenodd" class="s1" d="m338.4 1407.4l3.3 2.5 49.3-29.1c5.4-2.7 32.1-18.5 37.2-22.6 1.7-1.4 3.9-3.2 5.3-4.9 2.4-3 3-4.6 1.5-7.4-3.8-4.5-23.6 5.9-27.8 7.5l-46.2 21.6c-9.6 4.6-23.9 10.6-32 16l-1.2 4.9c-10 5.7-6.9 5.2-13.1 3.7-4.5 0.7-18.3 12.9-21.8 19.8-5.8 11.3 2.6 25.8-2.4 32.2-1.6 2.1-20.9 12.5-24.8 14.8-7.9 4.6-16.6 10.7-24.9 14.2l-3.4-31.1c-8.5-63.2-14.4-106.2 11.4-170.2 7.6-19 22-47.9 34.3-61.3 50.7-55.5 130.5-94.7 224.5-74.8 27 5.8 49.1 13.3 71.2 27.5 42.3 27.2 76 69.6 95.3 115.6 20.2 48.1 30.2 99.4 13.3 157.4-7 24.3-18.7 46.3-32.6 64.4-10.4 13.6-31.8 35.5-43.7 41.6 2.7-17.5-2.3-26.6-11.7-36.7-13.5-14.5-22-13.7-40.6-15.4 7-23.1 16.4-34.6 29.6-49.9 1.5 2 7.4 17.7 11.6 24.7 3.9 6.4 13.8 16.4 25 13.8 22.5-5.4 50.5-64.8 38.9-77.2-8-8.6-25.8-0.3-33.6 3.4l-11.4 5.9c-2.3 1.1-3.5 2.2-5.5 3.5-6.2 4-16.1 10.3-21.3 15.9-1.8-2.6-1.4-3.1-0.3-7 0.9-2.8 1.6-5.2 2.3-8 0.9-4.3 1-10.6 3.3-14 6.2-9.1 10.4-12 14.8-23.8 17 7.3 29.5 6.1 41.1-0.8 10.1-6.1 19.6-24.1 19.6-39.1 0-14.3-13.4-26.7-27.7-25.1-21.3 2.5-25.3 11.3-34 16.2-1.8-3-2.6-5.9-4.5-9-6.5-10.2-17.6-22.1-17.9-22.7 8.7-9.7 14.5-13.5 19.5-29.4 9.8-30.6-16.1-45-34.9-21.2-9.3 11.7-10.3 21.9-11.7 36-15.8-4.3-16 2.9-29.6-9.9 5.8-36.1-11.2-57.3-45.3-57.1-9.2 0.1-6 1.1-12.8-4.6-33.7-28.3-83.2-15.3-72.1 18.8 3.7 11.3 9.5 14 13.2 21.7-6.3 1.8-23 1.2-38.7 5.7-10.8 3.1-23.9 8.1-31.5 18.3-5.3 7.1-4.7 15-1.8 20.4 2.8 5 9.7 9.3 11.1 14.7 8.1 30.4 40.4 15.3 50.9 16.5l33.2 3.8c4.8 0.6 15.8 15.7 18.7 19.6 3.7 5 9 8.9 14.2 13.1 20.5 16.4 39.1 4.2 42.6-24.5 22.2 3.8 39.8-7.1 43.4-29.7 3.1-0.1 5.1-0.4 8-1.1 4.7 13.6 5.8 17.4 12 29.5 11.6 22.4 16.3 18.3 11.9 28-9.9-8-17.1-14.7-34.3-9.7-10.8 3.2-18.2 9.3-24.8 22.1-23.1-1.5-37.2 12.6-46.8 32.1-22.9-6.9-38.9 16.6-43.7 40.4-16.8-0.4-38.4 12-44.9 32.1-8.3 1.7-27.7 13.7-22.5 30.3 7.5 24.2 58.2 27.4 77.9 19.2 20.3-8.4 19.2-23.2 22.2-34.7 11.5-4.1 9 0.9 25.9 10.3-2.2 2.6-0.2 0.8-2.9 2.3-46 25.4-33.6 62.4-2.1 65.8 15.2 1.7 32.6-7.6 33.6-27.4 1.1-20-14-31.5-18.6-38.7 7-5.1 36-12.9 44-13.3-2.7 21.4-1.4 44.1 19.7 55.7 9.6 5.3 14.2 3.7 22.6 3.5-4.1 3.6-9 5.8-13.6 8.7-14 8.8-28.5 15.2-44.9 20.3-21.4 6.7-41.1 10.8-67.1 11.9-48.5 2-111.9-9-153.2-39.2-20.6-15-36.7-32.9-43.5-51.4-1.8-4.9-3.9-11.1-2.1-17.3 1.6-5.1 20.6-19.1 25.7-21.4 5.4-2.5 12 3.5 16.7 6.6 22.9 15.5 28.7 8.8 48.4-4.5 18.5-12.6 35.6-26 53.4-39.5 3.3-2.5 9.9-7.1 12.5-10.1-0.9-0.7 0.8-0.2-2.3-1.3-0.4-0.1-2-0.4-2.4-0.5-1.7 0.4-24.1 18.3-27.5 20.9-9.5 7.1-18.5 13.8-28.3 20.7-7.1 5-22.6 16.7-29.5 18.1-13.5 2.9-26.1-15.3-38.1-16.4-5.9-0.5-24.1 14.9-29.1 19.1-10.8 9.2-1.9 28.6 1.2 34.9 8.9 18.2 27.3 37 49.8 51.4 45.7 29.4 113.8 38.6 162.3 34 35.3-3.4 57.1-10.7 85.3-23.8 30-14 36.3-24.9 42.8-28.3 15-7.8 39.3-32.4 51.9-50.2 16.3-23.1 28.7-50 34.2-80.1 11.1-60.8-4.3-124.1-35.8-175.5-50.9-83.1-131.3-126.8-231.7-115.1-49.6 5.8-92.4 27.9-126.5 56.5-20.6 17.2-32.6 32.1-46.9 59.9-13.7 26.7-24 55.5-28.3 85.6-6 42-1 74.6 4.9 114.2 0.9 5.9 1.5 12.1 2 18.1 1.8 19.8 1 13.8-10.3 20.6-13 7.8-40.1 21.7-53.3 28.4-5.5 2.7-10.3 5-15.7 7.7-5.6 2.8-10.2 5.5-15.1 7.8l-54.5 26.2c-12.6 7.9-30.4 11.6-30.2 31 0 7 2.2 12.4 5.9 16.7 9.9 11.4 22.7 4.9 33.2-1.3 18.8-10.9 23.9-14.5 43.5-28.1 9.7-6.7 18.8-13.2 28.6-19.9 9.5-6.4 19-13.3 28.8-19.5 2.9-1.9 3.5-2.4 7.7-4.4 2.9-1.4 4.2-2.7 7-4.4 5.9-3.4 8.8-5.9 14-9.9 20.9-16.4 11.8-28.9 17.4-33.8l29.9-17.5c13.1-8.3 25.5-10.9 25.5-23.3 0.1-15.8-6.3-21.5 8.9-34 14.2-11.8 36.1-21.8 52.9-30.4 8.4-4.4 64.8-30.4 70.3-31-3.6 4.9-17.2 12.9-22.2 15.5l-23.5 13.3c-7.4 4.3-41.4 21.5-45.1 28.4zm164 112.1c8.1 4.5 18.7 21.4 19.3 33.6 1.8 39.4-64.9 28.8-49.6-7.5 5.4-12.7 22.2-23.1 30.3-26.1zm-107.7-24c2.8 26.3 71.9 11.6 72 11.6-3.1 47.5-78.2 33-88.6 14.7-7.2-12.8 8.1-24.4 16.6-26.3zm4.8-1.7c10.3-7.5 44.7-3.6 60.2 1.3 2.7 0.9 11.3 3.8 5.2 6.8-5 2.6-63.7 11.8-65.4-8.1zm1.5-6.6c5.7-13.9 25.2-24.5 37.6-24.2 1.4 3.5 0.6 11.6 5.3 18.3 1.3 1.9 2.5 2.9 3.6 5.3-9.9-0.3-18.5-3.7-35.3-1.1-3.7 0.6-8 1.6-11.2 1.7zm156.6 16.1c20.9-5.1 44.5 12.6 49 32.3 1.3 6 0.1 17.4-5.8 19.9-32.2 13.9-52.4-23-43.2-52.2zm-112.8-39.9c12.7 3.8 19.3 17.3 20.2 27-7.1-2.1-12.7-5.8-16-10.5-2.1-3-6.4-12.1-4.2-16.5zm52.7 24.6l5.2-9.4 6.6 4.5c-2.9 1.7-7.8 4.2-11.8 4.9zm55.7 10.4c-10.6 0.6-33.6 8-43.6 12.3-8.8 3.8-5 2.4-26-10.9 5.8-5.9 15-5.1 26.5-11.3 4.4-2.4 4.6-2.5 10.8-0.9 15.8 4.2 30.1-1.7 39.2-8.4zm-62.9-44.4c-3 0.7-2.4 0.6-5.4-0.3 0.4 1.4 0.1 1.1 1.4 1.7l5.9 2.9-1.6 5.4c-0.2 1.7 0 1 1.1 2.7 0.4 0.7 1.6 2.1 2.1 2.8 1.8 2.3 3 3.2 4.4 5.6-1.4 5.9-6 12.4-9.8 15.2-3.6 2.5-12.8 2.2-18.2 1.4-0.5-12.8-9.6-29.1-25.7-33.3 3.8-15.9 15.5-42.8 36.7-36l0.2 1.4c0.3 4-1.8 15 1.1 21.4h3.1l1.1-1.9c0.1-5.8-1.7-9.3 0-16.9 9.1 6.7 15.7 28 13.4 42.1-4-2.6-7.8-10.9-9.8-14.2zm38.3-63.5c-2 8.9-0.2 18.2 2.9 23.6 4.6 8 9.8 10.3 20.3 14.6-2 12.1-7.9 23-14.7 31.7-7.5 9.5-14.4 14-21.9 19.8l-10.6-6.3c-1.1-7.1 3.5-12.7-1.9-30.4-2.1-6.7-7.3-18.3-14.9-23.1 6.2-18.8 24.7-31.6 40.8-29.9zm-7.3 91.9c2.1-2.5 7.6-6.3 11.1-9.4 15.2-13.6 18.8-26.8 24.7-43.8 5.5-1.3 8.6-1 13.8-2.8 6-1.9 8.1-3.8 12.5-5.5 3.7 10 1.4 16.5-3.3 25.8-10.3 20.5-33.5 44.5-58.8 35.7zm72.1-39.1c12.5-12.6 26.6-20 41.5-27.2 23.3-11.2 34.8-8.2 20.9 24.1-12.2 28.4-32.5 61.2-53.9 25.9-1.7-2.8-8.4-18.5-8.5-22.8zm-59.9-52.1c15 5.3 20 18 18.8 32.3-15.7-4.7-22.1-17.1-18.8-32.3zm1.6-4.7c4.8-11.4 14.2-16.8 22.7-18.7 9.4-2 24.7 0.7 28.5 10.8 1.1 2.8-1.8 13.6-2.3 17.6-1.4 12.9 6.3 23.9-25.9 27.6-1.1-2.9-0.7-7.9-1.3-11.5-2-12.2-8.4-21.1-21.7-25.8zm-146-55c-11.9 2.7-25.8-1.2-29-12.1 7 2.8 13 7 21.2 9.6l0.7 0.2zm202.7 68c0.1 7.4 0.4 8.5-3.5 10.2 0-4.2 0.5-16.4 2.3-20.7-0.1 1.8 1.1 7.2 1.2 10.5zm-143.4-60.6c3.6-1.1 9.5-0.9 13.9-1.5 4.7-0.7 8.7-1.6 12.9-3.1 6.5-2.5 15.3-7.4 20.6-13.9-3.4 18 11.5 22.6 12.6 24.6 2.5 17.5-12.8 34.7-29.4 25.1-7.7-4.5-25.9-22.2-30.6-31.2zm-34.3-8.6c1.4-0.5 2.4-1.1 4-1.8l11-5.2c2.3 2 5.7 6.9 7.4 9.3-3.8 1-17.6-1.3-22.4-2.3zm181.1 56.9c-1.8-7.3-3.6-6.1-0.2-15.3 1.5 0.7 11.4 9.2 12.7 10.8-2.2 7.2-6.3 13.4-10.6 18.9-1.1-4.6-0.6-9.1-1.9-14.4zm-236.6-74.7c4.7-19.2 41.4-33.7 54.5-34.1 1 2.5 1 8.5 1.6 11.5 2.1 12.7 2.1 10.6 6.6 20.3 1.8 4 4.2 5.9 4.8 9.7-13.8 4.3-16.8 10.5-31.1 7.5-15.4-3.2-23.8-7.8-36.4-14.9zm238.8 53.9c2.6-6.2 7.4-16 12.1-19.6 1.6 10.1 3.4 18 0 30.3-4.9-3.2-8.6-7.1-12.1-10.7zm-89-27.7c-8.7-3.9-10.6-13.6-4.9-23.7 2.9 4.6 4.9 16.4 4.9 23.7zm-73.5-18.2c4.9-0.5 31.7-8.7 36.3-14.6 9 7.8 7.7 8 21.3 9.8-8.7 14.1-35 19.6-46.8 17.8-3.8-0.5-4.5-3.1-6.4-5.6-2.3-3.1-3.7-3.7-4.4-7.4zm79.1 20.6c-1.2-4.4-1.4-12.4-2.4-17.5-2.4-11.4-6-12.8 1.7-10.8 10.1 2.6 20.1 4.5 30.4 4.8 3.3 0.1 6.1-0.6 8.2 0.9-1.9 17.6-22.6 26.9-37.9 22.6zm-38.2-41.6l20.9 8.7c-1.9 4.4-9.3 2.3-13.3 0.8-4.3-1.7-8.6-4.6-7.6-9.5zm138.2 80.6c2.5-12.4 3.3-18.4 1.2-30.3-1.5-8.5-4.1-6.9 4.1-13.6 7.7-6.3 27.8-17.9 40.9-6.4 6.6 5.8 8.8 10 7.3 20-4 26.6-25.2 44.5-53.5 30.3zm-195.3-103c17.7-0.4 11.5-4.1 24.6 4.6 7.2 4.8 18.1 9.4 24.3 13.8 12.6 8.9-35.6 21.1-36.3 21.2-7.9-11-14-25.5-12.6-39.6zm77.8 25.2c-23.2-8.3-22.8-8.2-17.8-16.1 5 2.6 16.3 10.3 17.8 16.1zm-142.2 6.2c-3.3-2-5.6-5.5-7.2-8.7-6.7-13.7 11.8-22.9 19.9-26.8 8.1-4 34.5-10 47.4-8.6l-1.1 9c-8.2-0.1-27.9 7.6-33.4 10.6-4.4 2.4-9.9 6-14.2 9.5-5.3 4.3-8.1 7.4-11.4 15zm161.4-0.3c7.2-8.5 10.4-12.4 21.8-14.3 6-1.1 13.3 12.5 14.1 18.4-9.8 1.2-25.3-0.9-35.9-4.1zm-70.4-31.6c4.4 0.5 12.8 1.5 17 3.1 3.5 1.4 5.2 5.2 6.8 8.4 1.3 2.8 0.6 0.6 1 3-7.8-3.6-18.6-9.3-24.8-14.5zm31.8 2.9c-18.8-6.7-10-5.7-21.1-11.6-25.7-13.9-44.6-1.9-27.8-19.3 11.3-11.7 29.2-17.7 45.2-19.9 5-0.6 4.9 0.1 7.7 3.7 6.1 7.7 17.4 25.2 17.5 34.6-4.8 2.3-7 2.3-11.4 5-3.7 2.2-6.9 5.6-10.1 7.5zm93.4 34.8c5.5-2.8 8.5-3.4 13.6-6.6 5.7 5 9.8 9.5 13.7 14.8 4.4 6 6.2 11.3 9.7 17.4l-13.9 21.5c-6.9-6.8-22.7-36.9-23.1-47.1zm-88-32.4c4.1-4.2 11.3-9.5 18.1-9.4 0 8.8 1.9 14.5-0.4 24.9-3-2.9-5-5.4-8.5-8.4-2.9-2.4-7.3-4.7-9.2-7.1zm-52.3-16.7c7.8 0.6 15.9 3.6 23.4 6.8-3.6 0.7-8.8-0.5-13-0.7-4.6-0.2-8.1-2.7-10.4-6.1zm149.4 38.9c-1.6 1.4-7.4 4.2-10.1 4.8-0.6-0.8-0.4-0.3-0.9-1.6l-1.1-10.1c4.6 2 8.6 4.4 12.1 6.9zm-32.6-11c3.9-0.7 10.1 0.4 14.7 2 0.6 2 2 13.3 2.1 15.5l-6.5 1.2c-1.5-2.2-1.3-5.1-10.3-18.7zm-16.3-7.7l4.1 3.6c-1.8 1-3.7 1.4-6 1.6zm-24.3 1.9c0.2-5.7-1-10.5-0.9-15.5 7.8 1.3 15.4 5.6 20.9 10.4-1 3.2-2 6.2-3.5 9.1-3.4 6.5-3.9 2.4-12.3 9.3-2.1 1.7-3.4 3.5-5.9 4.1-0.8-3.1 1.5-13.1 1.7-17.4zm-86.5-23.2c3.6 1.9 5.8 4.5 8.6 7.1l-10 0.8zm164.8 37c0 0-15.5-8.5-16.1-8.9-2.1-1.4-2.3 0.6-1.4-8 0.3-3.5 0.7-6 1.6-9.6 3.3-13.1 12.3-24.8 21.1-27.3 18.5-5.3 25.1 27.6-5.2 53.8zm-100.2-73.5c15.1 1.6 27.6 1.2 37.2 14.2 5.4 7.3 8.5 21.4 5.8 34.7-7.8-4.5-12.7-9.1-22.9-9.7l-5.8-15.8zm-66.3 26.1c-5.2-4.4-11.4-15.3-12.5-21.9-3.4-19.7 19.9-28.9 41.5-22.6 5.3 1.5 9.8 3.5 14.3 6.2 2 1.2 4.3 2.8 6.2 4.1l4.6 4.6c-10.2 0.6-22.8 4.6-30.4 8.9-9.2 5.2-17.1 8.8-23.7 20.7zm-183 236.4c-1.7 14.3-4.1 17.6-13.7 25.9-7.5 6.4-14.7 10.4-22.1 14.7-26.2 15.3-87.8 62.7-111.5 73.9-7.9 3.7-18.5 8.6-25.1-3.6-4.7-8.7-2.8-19.7 6.4-26l65-32.6c2.3-1.1 3.9-2.3 6.1-3.4l71.1-36.2c4.9-2.7 19.7-11.5 23.8-12.7z"/>
		<path id="Path 269" fill-rule="evenodd" class="s1" d="m367.5 1416.1l0.9-5.5c-1 0-22.4 11.7-23.1 22 7.2 5 20.9-6.7 26.6-9.7 14.7-8 59.5-39.6 72.9-42.8-2.5 3.4-18.3 13.9-22.4 16.7l-34.7 23.6c-4 2.8-7.3 5.3-11 7.9-4 2.9-20.4 13.1-19.5 19.9 4 4.7 11.5-0.4 14.2-1.9 20.3-11.7 77.9-51.8 84.6-52.7l-7.8 8.6 4.8 1.7c3.7-2.3 11.1-10.4 8.4-14.9-3.9-4.6-10.4 1-13.4 2.5-4.6 2.4-7.3 3.9-11.7 6.7-7.8 5.1-15.6 10.2-23.1 15.3l-23 15.5c-3.6 2.6-19.4 13.3-23.6 13.8 3.5-3.8 7.4-6.4 11.4-9.3 3.5-2.5 7.2-5.6 11-8 7.6-4.8 15-10.1 22.5-15.3l33.4-23.4c3.4-2.5 8.5-5.4 8.6-10.9-5.3-3.9-10.7-0.9-14.9 1.2l-18.6 10.1c-2.3 1.5-3.8 1.9-6.1 3.5-9.5 6.5-53.2 33.8-60.2 36.6 4.2-5.2 10.2-7.3 13.8-11.2z"/>
		<path id="Path 270" fill-rule="evenodd" class="s1" d="m365.7 1399.6c0.5 1.3-0.4 0.3 1.8 0.7 1.2 0.3 2.6 0.4 3.9 0.6 2.4-0.3 29.8-15.8 31.8-17 6.7-3.8 25.9-14.6 33.3-16-4.8 4.9-54 31.9-56.6 35.5 2.3 2.7 2.6 1.9 5 1.4 1.6 0.1 6.5-3.2 8.4-4.3 14.8-8.9 34.3-19.9 48.6-29.8 2.7-1.9 6.5-4.1 4.3-7.5-4.9-7.4-34.7 11.2-42.1 14.8-11.5 5.5-24.7 14-34.4 19-0.7 0.4-2.2 1-2.6 1.3-1.5 0.9-0.7-0.2-1.4 1.3z"/>
		<path id="Path 271" fill-rule="evenodd" class="s1" d="m346.8 1408.9c5.9-3 14.5-8.6 18.9-9.3 0.5 1.3-0.4 0.3 1.8 0.7 1.2 0.3 2.6 0.4 3.9 0.6-4.5 4.6-11.6 7-17.6 10l-8.8 4.7c-3.5 1.3-5.8 3.6-10.7 0.8-0.3-1.5-0.6-2.9 0.1-4.9 1-2.6 2.2-3.2 4-4.1l3.3 2.5c0.3 1.3-0.3 1.7 5.1-1zm101.4-6.7l4.8 1.7c-2.7 3.3-12.8 13.8-17.4 15.2-1-1.9-1.1-1.4-1.9-3.4 3.9-4.9 9.6-9.1 14.5-13.5z"/>
		<path id="Path 272" fill-rule="evenodd" class="s1" d="m373.9 1406.4l6-3c2.3 2.7 2.6 1.9 5 1.4-7.3 6.3-3.7 2.8-8.7 6l-5.9 4c-1.8 1.1-0.9 0.7-2.8 1.3l0.9-5.5c2.4-2.9 2.4-2.3 5.5-4.2zm-44.9-15.4l-1.2 4.9c-10 5.7-6.9 5.2-13.1 3.7 3.5-3.6 9.7-7.1 14.3-8.6zm156.6 53.9l1.1-1.9 3.7 11c-3 0.6-2.5 0.6-5.5-0.3l-2.4-8.8z"/>
		<path id="Path 273" fill-rule="evenodd" class="s1" d="m422 1425.3c0.4 0.1 2 0.4 2.4 0.5 3.1 1.1 1.4 0.6 2.3 1.3 0.6-0.3 0.8-0.4 1.6-1 0.2-0.2 1.2-1 1.4-1.2 2-1.7 1.2-0.7 2.8-2.9-2.6-0.8-0.7 0-3-2.6-3.4 1-5.2 3.2-7.5 5.9z"/>
		<path id="Path 274" fill-rule="evenodd" class="s1" d="m433.7 1415.7c0.8 2 0.9 1.5 1.9 3.4-0.9 2-0.6 2-3.1 2.9-2.6-0.8-0.7 0-3-2.6 1.1-2.1 1.7-3 4.2-3.7zm52.6 39.6l5.9 3-1.6 5.4c-2.5-2.8-3.5-4.6-4.3-8.4z"/>
		<text id="al plato" style="transform: matrix(1.061,0,0,.943,863.706,1538.919)" >
			<tspan x="0" y="0" class="t2">al plato
</tspan>
		</text>
		<path id="Path 276" fill-rule="evenodd" class="s3" d="m950 197.2c0.6 5.4-0.7 18.5 2.8 21.5l-0.2-47.4c-0.9-6.2-1-9.2 1.4-15.7 3.5 3.9 4.6 24.4 5.1 30.6l1.3 23.7c0.2 2.2 1.5 5.6 1.3 6.4 1.8-5.8-2.1-49.2-0.1-61.6 5.2 1.9 4.7 11.6 5.4 17.1 0.7 5.4 1.7 13 1.8 18 2.9-10.8 1.3-33.2 3.1-35.3 1.7 1.3 1.5 1.2 1.6 4.2 0.4 10.1 0.8 20.8 2.7 30.5l6.8 33.4c2.5 18.1-14.2 29.5-5.7 57.5 1.5 5.1 1.9 14.4 3.2 16.9 5.2-10.3 7.9-21.6 9.5-33.2 1.8-13.6-0.4-17.7-3.6-28.3-8.6-28.7 22.1-71.5 38.3-76.1 12.2-3.4 21 4.1 24 12.4 2.9 8.2 3.5 18.5 2.3 29-1.6 13.3-5.8 20.6-10.9 31.9 5.5-4.3 16.2-18.5 21.8-24.8 4.6-5.2 30.8-38.9 37-21.3 1.7 4.9 0.3 11.8-1.4 17.7-8.9 30.6-40.1 59.8-62.4 77.5-9.6 7.6-24.4 8-25.7 15.2-1.9 10.4-6.3 7.3-11.4 10.6-2.3 1.5-9.3 8.6-11 11.4 3.4 4.5 12.9 6.3 18.2 5.7 13.1-1.7 10.5-5 26-2.3 3.8 0.7 20.2-2.1 23 11.5-2.6-2.6-10.5-13.8-19.8-9.7 6.9 5.2 3.2 14.1-3.5 13.2-5.5-0.7-9.8-6.9-0.8-13.9-10.7-3.6-18 2.3-27.1 2.7-8.4 0.3-23.4-5.7-24.7-12.8-0.3 7.3 4.1 15.2 7.5 19.7 5.6 7.5 13.2 8.1 19.9 13.4-4.2 5.6-17.3-8.1-19.6-10.3 0.5 2.1 1.4 3.7 2.2 6.4 6.9 22.8 9 55 18.5 74.4 5.3 10.7 8.8 13.3 1.8 29.8-2.7 6.1-4.2 10.8-11.3 7.6-3.5-1.5-9.9-6.5-12.3-8.9-8.4-8.6-6.5-14.1-6.7-27.3-0.2-10.3-0.7-19.7-1.7-29.8-0.7-7.2-1.6-23.3-3.3-29-3.8 9.3-6.9 21.5-10 31.3-4.4 13.9-4.8 14.4-4.4 28 0.4 13.6-9.3 26.3-22.4 27.3-6.5 0.5-7.2-3.2-8.1-7.5-5.5-25.1 2.3-27.5 14.2-49.5 4.4-8.2 7.5-18 11.6-26.7 3.8-7.9 9.1-17.3 12.2-25-1.8 2.7-7.7 9-10.4 11.9-10.2 11.4-20.9 23.2-32 33.4-15.5 14.2-12.1 15.8-20.1 24.7-5.7 6.4-21 10-29.2 6.8-11.6-4.5-0.1-26.7 5-30.3 3.7-2.6 8.9-4.1 12.9-6.8 20.3-13.9 38.5-30.8 56.8-47.7l-12.6-1.5c3.7-4.3 14.1-3.5 19.2-5.9 3.4-1.5 10.7-12.3 12.7-16.8l-8.4 5.5c-14.4 7.5-17.8 3.7-30.7 1.2-12-2.3-19.9-13.2-32.5-7.9-2.8 1.2-5.7 4.3-8.5 4.3 3-4.8 11.6-7.9 18.6-6.9 8.9 1.2 13.9 7.7 23.8 9.4 0-2.3-1-3.1 0.2-6.3 5.6-14.5 24.2-6.8 13.5 3.5-3.1 3.1-5 2.9-9.3 4.2 11.7 5.2 27.9-3.2 33.3-9.5-5.4-5.3-12.3-13.3-7.7-21.1 1.9-3.2 3.7-3.7 6.2-4.6-1.5-31.8-24.1-21.4-27-45.7-2-17.1 0.1-35.6 1.8-52.7 0.3-2.4 0.4-5.6 1.6-7.4l-0.2 7.4c-0.3 2.5-0.5 4.2-0.7 6.6-0.1 1.6-0.2 3.6-0.3 5.5l2.4-23.6c-0.4 1.8-1.4 0.4-1.7 0.6 1-4 0.4-8 2.9-10.8 1.6 1.2 1.3 1.6 1.5 4.2 0.4 7.5 3 28.7 1.5 33.2zm-4.9-32.2l-0.2 2c0.1-0.4 0.1-1.1 0.2-2zm-3.5 33.2c0.5-2 0.7-4.8 0.8-7.5zm34.1 168.5c1.6 13.8 3.6 32.2 3.9 45.8 0.1 5.9-0.5 18.5 0.8 22.8 2.5 8 19.3 25.6 24.9 15.3 8.7-16.1 6-22 0.1-33.5-1.9-3.8-5.8-15-6.6-19.6 4.6 27.5-8.7 13.7-11.4 21.7 3.2 2.4 16.9-3.1 19.3 8.1 1.1 4.9 0 21.4-4.8 24.2-4.2 0.7-10.6-4.5-13.8-7.1-4.7-3.9-6.7-5.6-6.9-11.8-0.7-21.4-2.4-38.9-3.5-59.6-0.6-12.6 2.6-26.8 1.8-31.3-5.4 13.1-5.2 12.2-3.8 25zm6.3 52.5c0.2 6.2-0.4 16.6 2.6 20.1 2.5 3 14.7 14 18 10 3-3.7 3.7-19.2 2.3-22.8-4-10.1-15.3-2.1-18.5-6.9-2.5-9.4 15.6 2.6 11.8-17.5-1.6-8.3-4.2-14.7-5.6-23.2-2.1-12.7-4.1-39.3-10.1-46.2-6.6 36.7-1.7 51.9-0.5 86.5zm-89.3-21.7c9.7 6.3 3.7-4.6 2.4-6.9-3.1-5.5 1.6-8.5 5.6-12.4 3.4-3.4 6.9-6.6 10.6-10.1 14.6-13.6 28.9-27.1 43.5-39.3-4.3-0.1-4 1.2-6.8 3.9l-38.6 33.8c-21.1 17-29.6 14.2-34.9 26.9-6.8 15.8-4.5 22.3 13.2 19.8 19-2.7 13.8-11.2 32.9-29.3 12.3-11.6 27.2-26.9 38.2-40.1-4.8 5.1-14.3 13.9-17.3 16.8-7 7-13.7 13.2-20.6 20.4-8.1 8.3-12.9 11.2-19.3 23-3.9 7.3-24 10.2-26.7 7.2-1.8-3.9 2-19.9 5.8-23.2 4.2 0.7 7.2 6.5 12 9.5zm68.9-57.1q-1.4 1.7-2.8 3.4c1.5-1.6 2.6-2.8 2.8-3.4zm30.2 20.6c0 1.2 0.2 2.9 0.6 4.8-0.1-1.4-0.4-3-0.6-4.8zm0.6 4.8c1.1 8.5 0.6 11.4 4 24.2 0.3 1.1 0.1 0.6 0.6 2 0.4 0.9 0.6 1 0.8 1.5-0.3-4.3-1.9-12.4-2.9-16.9-0.6-3-1.7-7.3-2.5-10.8zm-115.5 35.6c-1 3.4-3.3 8.5 0.9 9.7 2.6 0.8 17.5-3.1 19.2-3.9 3.4-1.5 3.8-5.4 6-9.1 3.5-5.7 14.9-16.1 19.8-20.9l27.7-27.6c4.4-4.7 9.4-9.3 13.8-13.8 6.2-6.3 9.6-6.5 10.3-16.9-5.7 8.9-11.9 5.7-21.7 13.3-10.6 8.3-28.9 25.8-39.4 35.7-4 3.8-17.4 15-18.4 20 1.3 3 7 7.9 3 12.6-8.1 0.9-12.4-10.2-17.2-11-2.3 2.8-3 8.4-4 11.9zm94.4-63.5c-1.8 5.4-3.8 10.8-5.5 16.2-7.7 23.9-8.4 26.4-19.8 46.8-6 10.7-5.2 11.6-0.4 13.3 11.2 4 5.5 9.2 3.2 9.5-3.9 0.4-9.9-4.4-14.5-5-1 3.7-0.2 6.9 0.6 10.2 0.8 3.6 1 6.4 3.5 8.3 5.3 0.4 15.5-10.6 17.5-17.5 1.4-4.8 0.8-9 1-13.7 0.7-13.2 18.7-66.8 24-75.7-2.5-2.5-4.1-5.3-4.9-8.6-1.4 2.8-3.3 12-4.7 16.2zm-22.5-10.2c3.2 0 3.8-0.9 5.8-3.7-4.9 0.2-10.8 2.7-14.1 3 2.4 0.7 5.9 0.7 8.3 0.7zm23.8-12.1c-1.6 1.2-3 1.4-4.8 2.7-10 7-7.9 1.4-13.9 8.8 5.7-0.1 16.2-5.3 18.7-11.5zm4.5 5.5c1 3 0.6 3.5 3 5.6-1.5-3.9-2.5-8.4-3.6-12.6-0.3 3.2-0.2 4.4 0.6 7zm-32.1-22.6c-5.4-4.3-15.4 5.2-12.2 11.6 7.1 2.3 18-7.1 12.2-11.6zm91.7 32.5c0.2-2.2-2-6.1-4.4-6.2-1.7-0.2-5.3 1.9-6 5-1.5 7.2 9.7 8.8 10.4 1.2zm-69.2-14.2c2.9-1.7 3.9-2.2 6.6-3.3 0.9-2.9 2.1-2.8-3.3-8.1-0.1 0.2-0.3 0.3-0.4 0.4-0.1 0.1-0.3 0.3-0.4 0.4l-10 14.4c3.6-0.9 4.9-2.2 7.5-3.8zm27.6-9c-4.3 1.1-10 2.1-14.5 3.5 1.2 2.1 2.3 4.6 5.1 6.6zm-19.9-6.8c-0.4 3.3-1 4.1 1.4 6.1 2.5-3 2.4-7.6 1.9-11.3l-1-3.2c-1.9 3.3-1.9 4.6-2.3 8.4zm-7.3-16c-4.4 0.1-4.4 5.1-2.8 8.2 1.2 2.4 3.5 5.1 5.9 6.8 5.8-4.7 4.1-15.1-3.1-15zm17 19.4c5.3-3.1 14-3 15.6-9.7-4.4-3-10.4-3.2-14-1.3-3.2 1.8-5.4 9.8-6.7 14.5 2-1 3.2-2.5 5.1-3.5zm13.3-3.8c-2.4 1.5-12.3 3.3-17.2 8.8 4.6-0.8 9.3-2 14-3.1 4.9-1.1 15.3-9.9 11.5-15.3-1.4-2-3.7-3.6-6.6-4.4-5.8-1.5-9.9 1-12.9 5 16.4-3.2 16.5 5.6 11.2 9zm-33-4.4q-0.3-0.4-0.6-0.8 0.3 0.5 0.6 0.8zm-0.6-0.8c-2-3-3.6-10.2 2.2-11.6 6.4-1.5 9.9 6.7 9 8.6 4.1-6.6-1.4-16.8-9.5-13.7-2.9 1.1-5.9 4.5-5.5 8.8 0.2 3.5 2 5.7 3.8 7.9zm43.3 1.2c-1.4 1.2-4.5 6.2-5.5 7.7 3.4-1.1 6.1-3.3 5.5-7.7zm-11-23.7c5.2-12.5 15-13.5 24.6-24.6 14.9-17.2 23.7-27.5 26.3-51.7 4.2-39.8-17.6-44.9-38.6-19.9-7.2 8.7-14.8 23.6-19.2 34.8-7.8 19.7 1 24.3 3.6 35.6 2.7 11.9-4.5 28.9-7.6 41.8 8-2.8 9.3-12.2 10.9-16zm12.2 20c3.1-1.2 1.8-2.2 13.3-5.8 5.1-1.6 8.6-4 12.7-7.3 22.1-17.8 51.5-45.6 60.7-74.6 1.9-6.2 4.9-18.5-0.9-21.3-6.2-3.1-13.2 5-17.1 8.8-9.9 9.3-18.5 20.4-27.6 31-14.7 17-27.2 29.1-41.5 44.7-3.6 3.9-12.2 11.3-13.8 16.4 9.8 0.9 10.7 2 14.2 8.1zm6.4-34c-1.6 0.5-0.2-0.2-2.2 0.9-7.5 4.1-12.9 9.3-15.7 18.2zm22.5-29.4c-7.9 11.7-18.4 24.2-27.2 30.2 1.5-1 2.2-1.2 4.2-2.3 4.1-2.3 8-6.2 11.4-9.7 11.5-12.1 18.6-23.5 22.3-40.8 2.1-9.6 0.7-14.6 1.4-21.8-2.8 17.6-0.4 27.2-12.1 44.4zm-91.6-60c-1.7 8.6-2.7 22.2-3.5 31.3-6.2 68.9 28.5 34.4 25.6 74.9 0.1 0.2 0.4 0.3 0.5 0.4l6.3 2.7c0-9.5-4-15.8-0.5-28 3.8-13.1 8.9-14.7 6.5-29.1-3.6-21-6.7-25.8-8.7-51.6-0.9 7.4-2.1 17-2.8 24.6-0.3 4.4-0.1 7.3-0.1 11.5 0.1 1.9 0.2 3.5 0.3 5.5 0.6 6.9-0.6 4.7-1.4 5.2-0.3-9-1.8-56-5.9-59.9-0.2 10.1-0.4 20.3-0.1 30.7 0.2 6 1.6 26.6-0.2 31.2-2.5-1.9-2.7-3.4-3.1-6.8-1.3-12.1-1.4-42.5-5.2-52.9-1.7 5.2-0.2 10.2 0.1 15.3 1 12.8-1.4 26.6 0.2 37.9 0.4 2.6 0.7 3.9-0.2 5.6-0.9 1.6-0.1 0.6-1.2 1.3-4.2 0.9-3.4-7.5-3.7-11.1-0.3-4.5-1.7-10.1-0.3-14-1.9-2.9-1.2-18.3-2.6-24.7zm85.9-9.5c-11.4-1.3-20.4 9.3-28 19.1-9.2 12-14.6 21-17.7 37.2 12-26.2 22.1-51.8 45.7-56.3zm-88.4 254.9c-5.3-1.9-3.6-5.2-1.5-9.9 3-7 7.7-13.3 10.9-20.5 6.5-14.3 13.2-35.5 17.9-50.8-0.7 0.5-0.6 0.3-1.4 1.2-2 2.1-6.6 12.1-8.9 16.9-3 6.2-6.5 12.9-9.3 19.4-3 6.9-4.9 13.4-8.8 20.1-8.2 14.4-16.7 24.1-14.9 37.8 0.7 4.6 1.7 14.7 6.3 15.5 5.6 0.9 12.4-3.5 15.7-6.8 4.7-4.7 7.9-10.8 7.7-18.2-2.6 6.2-4 8.3-8.3 12.5-9.5 9.2-13.4 9-15.9-3.6-4-19.9 7.4-6.2 16.4-6.2 2.6-4.6-1.3-5.7-5.9-7.4z"/>
	</g>
</svg>