<svg version="1.2" xmlns="http://www.w3.org/2000/svg" viewBox="0 0 1191 1684" width="1191" height="1684">
	<title>Carta</title>
	<defs>
		<clipPath clipPathUnits="userSpaceOnUse" id="cp1">
			<path d="m0 0h1191v1684h-1191z"/>
		</clipPath>
	</defs>
	<style>
		tspan { white-space:pre } 
		.s0 { fill: #cad2b2 } 
		.t1 { font-size: 42px;line-height: 32px;fill: #cad2b2;font-family: "Engravers Gothic BT" } 
		.s2 { fill: #f8cfc9;stroke: #f8cfc9;stroke-miterlimit:22.92558479309082;stroke-width: 1.1 } 
		.s3 { fill: #f8cfc9 } 
		.s4 { fill: none;stroke: #f8cfc9;stroke-miterlimit:22.92558479309082;stroke-width: 1.1 } 
	</style>
	<g id="Page 4" clip-path="url(#cp1)">
		<path id="Path 73" fill-rule="evenodd" class="s0" d="m236 1326.9c18.9 0 34.3 15.3 34.3 34.3 0 18.9-15.4 34.3-34.3 34.3-19 0-34.3-15.4-34.3-34.3 0-19 15.3-34.3 34.3-34.3z"/>
		<text id="tapeo" style="transform: matrix(1.061,0,0,.943,920.638,1540.14)" >
			<tspan x="0" y="0" class="t1">tapeo
</tspan>
		</text>
		<path id="Path 75" fill-rule="evenodd" class="s2" d="m732.8 261.2c20.1-14.9 60-18.5 84.7-16.5 16.4 1.3 42.8 1.7 54.1 14.1 3.6 3.9 4.5 6 4.5 12.7 0 4.9-0.5 10.9-1 15.8-0.6 6.1-0.3 25 6.4 27.1l1.4-1.4c0.3-0.4 0.9-0.8 1.4-1.1 1-0.6 2.3-1 3.5-1.6 2.6-1.1 4.6-2.2 6.8-3.5 1.6-0.9 4.9-3.8 6.6-3.6 0.7 0 5.6 2.6 6.6-2l-3-0.2c-0.2-1.5 1-1.8 2.5-2.5 3.7-1.7 5.9-3.9 8.8-6.5 2.4-2.1 5.3-1 8.6-0.5 6.2 0.9 8.8-5 2.1-3.2-1.3 0.3-2.1 0.9-3.4 0.5-0.8-0.6-0.3-1.6 0.5-2.2l5.3-3.1c2.5-1.4 4.7-3.6 8.3-3.3 4 0.3 22.4 6.5 26.6 8.2 10.9 4.5 11.1 3.3 11.2 11.9 0.1 3 1.4 7.9-0.8 9.7-1.4-0.1-2.5-1.3-4-0.3-1.9 1.2-3.7 6-0.1 5.5 1.1-0.1 1.6-1.2 4-1.3 0.8 1.1 1.5 1.1 1.3 3.3 0 1.2-0.5 2.4-0.8 3.6-3.2 14.6 1.5 18.3-3.6 21.7-0.2 0.1-0.4 0.4-0.4 0.3-0.1-0.1-0.2 0.1-0.3 0.2 25.9-2.4 30.6-1.8 55.9-0.4 14.2 0.7 34.2 3.5 47.8 0.4 1.5-0.3 4.6-1.3 5.7-0.8-0.2 1.5-1.6 1.5-4.2 2.1-11.3 2.3-28.1 2-39.2 0.4-4.2-0.6-17.1-1.2-22.3-1.5-7.6-0.5-15.3-0.7-22.9-0.3-14.1 0.7-18.5 0.5-31 5l-35.9 11.7c-10.8 2.9-8.6 3-9.9 0.1-0.5-1-0.7-0.5-1.2-1.8 2.3-0.8 2.5 1.5 3.2 2.4 0.8-0.5 11.1-3.1 13.1-3.6 8.8-2.4 32.4-11.7 37.4-12.4-4.4-0.3-18 3.5-22.7 4.9-4.6 1.3-18.2 7.6-20.2 6.8-0.7-2.8 2.8-3.1 0.9-6.3-1.1-1.8-2.7-2.8-5.7-2.9 0.1 4.2-0.3 6.3-5 5.7-1-1.1-2.4-2.3-1-4.3 0.8-1 2.4-2.1 4.1-2.4l-1-1.9c0-0.1-0.1-0.1-0.2-0.2 0-0.1-0.1-0.1-0.1-0.2-2.1 6.6-12.8 8.2-12.8 1 0-3.5 2.4-5.9 5-6.7 4.3-1.3 5.2 1.8 7.9 2.9 1.2-1.5 2.5-5.7 4.7-5.5l0.2 0.6c0.8 2.7-0.5 4.3 4 5.1 3.2 0.5 5.6-0.2 7.1-2 2.6-3.2 1.5-11.8-5.9-8.4-7.1 3.2-9.9-3.6-6.8-8.4 1.2-2 3.8-2.9 6.7-2.1 3.7 1 3.8 3.2 4.7 4.6l5.7-3.2c2.5-1.5 1.4-2.4 5.4-3.7 2.9-0.9 5.2-0.7 7.2 0.9 3.4 2.8-0.9 4.1-0.8 5.8 1.2 3.7 5.4 2.6 7-0.2 0.7-1.2 0.8-3.3-0.3-4.3-1.7-1.4-2.4 0.3-4.4 0 0-1.7 3.6-2.5 5.5-6.8-7.7 1.7-9.2-4.1-7-7 2.4-3.3 7.7-1.2 8.6 2.4l0.3 1.4c4.2-3.1 1.6-7.5 2-11.6-4 0.6-9.9 2.5-13.9 3.5-3.6 1-11.8 2.1-14.3 3 2.1 0.9 4.9 1.1 5.3 3.6 0.5 2.9-1.4 4.8-3.1 5.8-4.3 2.4-9.6-1.9-9.9-6.3-1.1 0-3.9 1.3-5.4 1.6-2.1 0.6-3.6 0.8-5.9 1.3 1.8 0.7 3.8 2.6 4 4.9 0.4 5.4-4.8 8.7-9.8 8.1-3.4-0.4-3.2-2.2-4.7-3.9-4.6 1.2-6.8 0.5-6.6-4.9-3.7 1.1-8.9 3.3-13.1 1.4-0.7 2.8-0.2 9-0.3 12.4 0 2.8-0.6 10 0.9 11.8l0.2-0.3c4.6-6.9 16 0.7 6.4 8.9-3.9 3.4-7.4-0.6-7.3 7.2 0 2.6-0.5 11.9 0 13.4 1.7 0 4.1-1.4 5.7-2.1 3.5-1.7 7.6-2.7 11.5-3.6 2-0.4 4.4-1.5 5.8 0.1-1.2 1-0.7 0.2-2.6 0.4l-14.7 4.6c-1.9 0.9-6.6 3.9-7.4 0.2-0.4-1.4 0.3-8.3 0.3-10.5-0.1-3.6-0.7-7.4 2.4-8.8 3.4-1.6 4.7-0.5 7.1-3.8 2.1-2.8 2.4-5.7-1.4-7-4.6-1.5-3.6 3.1-6.8 3.3-2-2.5-1.8-8.4-1.7-12.5 0.1-4.6-0.4-9.9 0.3-14.2-4.6-1.9-5.4-5.4-6.5-10.4-1.6-6.9-1.5-15.9-0.6-23.1 0.3-2.4 0.3-5.6 0.4-8.1 0.2-6 0.5-8.9-3.2-13.7-4.8-6.2-14.7-9.7-22.7-11-5-0.8-9.6-1.5-14.8-2.2-5.1-0.7-10.1-0.7-15.3-1.2-24.7-2.4-65.1 1.5-84.7 16.1-1.5 1.2-2.9 2.4-4.3 4.1-3.8 4.5-5.8 13.7-5.2 19.8 2.5 1.6 7.9 3.1 10.9 4.4 7.4 3.1 14.2 6.4 22 8.6 2.1 0.7 3.9 1 6 1.7 1.2 0.3 1.9 0.3 3.1 0.6 1.3 0.2 1.8 0.7 2.2 1.8-8.1-0.8-15.8-3.9-23.2-6.8-4.5-1.8-17.9-8.5-21.3-8.3 0.2 6.3-0.1 12.9-0.1 19.3 0 15.3-4.3 25.9 5.6 35.8 2.3 2.3 5.3 4.3 8 6.1 7.6 4.7 17.3 8.1 28.2 10 14.5 2.4 39.2 2.3 54.5 0.2 5-0.7 9.5-3.3 10.3-8.7 0.8-4.4-1.2-12.5-1.3-17.4l-0.1-19.1c-0.2-1.8-1.9-5.4-2.9-6.8-4.6-6.3-16-5.5-23.2-4.3-6.3 1.1-20.5 2-27.2 1.1-2.5-0.3-6.1 0.2-7.2-2.3 2.9 0.2 5.5 0.9 8.2 1 3 0.1 6.2 0 9.1 0 4.7 0 12.3-0.4 16.8-1.1 4.1-0.7 12.8-1.5 16.7-0.3 5.3 1.5 7.1 3.4 9.7 7.9 0.4-3.5-1.8-11.3-3.1-14-2-4.1-4.2-7-7.1-10.1-1.6-1.6-3-2.7-4.6-4.1-4.8-4.5-20.1-12.2-15.8-16.8 2.5-2.8 19.5-1 23.5-1 10.7 0.1 21.5-0.8 31.6-2.4 4-0.7 11.5-2.3 15.2-0.5 10.7 5-0.5 16.7 5.2 43.3 1.1 4.9 2.4 9.4-1.5 13.4-6.3 6.6-20.3 5.5-28.9 5.5-3-0.1-5.1 0.1-7.8-0.7-1.3-0.4-2.1-0.7-3.1-1.3-0.9-0.6-1.4-1.6-2.3-1.9 0.1 6.5-0.2 14.9 0.8 21.3 0.7 3.7 1.8 9.4 0.2 13-2.4 5.5-6.9 7.7-13.5 8.1-4.5 0.3-9.1 0.9-13.8 0.9-22 0-43.1 1-63.1-9.2-9.8-5.1-19.3-12.1-19.3-24 0-6.2 1.9-40.3 0.9-41.6-0.8-1.1-18.6-6.1-21.1-6.8-7.6-2-15.1-3.6-23.4-4-11.8-0.7-31.5 1.4-42.9 5.3-2 0.7-4 2.2-4.3 0.1 4.7-2.8 16.5-4.5 22.1-5.4 17.2-2.9 32.3-2 48.9 2.7 2.6 0.7 20.2 6.2 20.9 6.1 0.2-9.7 2.2-18.5 10-24.3zm241.2 47.1c0.3-2.3-0.1-6.6-0.1-9.3 0-4.5-0.1-4.8-3.6-6.4-10.2-4.6-13.2-4.7-21.6-7.9-4.6-1.7-11.2-4.6-15.5-2l-6.2 3.8c1.8 0.2 3.2-0.6 4.6 0.6 1.8 1.6 0.6 7.1-9.3 5.6-4.7-0.8-5 0-7.4 2.5-1.9 1.8-4.1 3.2-6.7 4.4 2.6 2.6-0.6 5.4-3.3 5.8-1.7 0.2-3.3-0.9-4.5-0.5-0.3 0-2.7 1.7-3.4 2.2-1.3 0.8-2.2 1.4-3.3 2l-9.1 4.3c-1.5 1-1.1 1.1-1.3 1.6 1.7 0.9 5.4 0.7 7.4 0.1 2.1-0.6 4.6-1.8 7-1.6 0.1 1.9-1.3 3.4 0.2 4.9 1.3 1.5 3.2 0.1 4.6-0.2 0-1.3 0.2-3.7 0.8-4.8 0.8-1.3 0-0.6 1.2-0.9 1.1-0.8 1.8 1.4 1.8 2.8-0.1 2.5-1.1 2.2-1.9 3.5-1.8 3.1 5.9 5.6 9.5 1.3 0.7-0.8 1.6-2.8 1.7-3.8 0.1-3.5-3.8-3.6-4.6-4.8-0.3-0.5-0.1-0.1-0.2-0.4-0.4-1.4 0.9-1.3 2.4-1.7 0.9-0.2 1.9-0.5 2.8-0.6 5.2-1 10.8-4.6 11.1-2.8 0.3 1.3-2.4 0.9-0.7 3.9 4.5 8.1 13.2-0.2 8-2.7-1.8-0.9-3.8-0.6-4.6-2.5 1.1-1.8 3.8-1.9 6.1-2.2 2.6-0.5 4.9-0.8 7.4-1.4l20.4-5.4c2.9-0.6 5.5-1.1 6.5 1.4 1 2.7-0.6 4.9-2.7 5.6-2.4 0.9-4.2-0.2-5.7-2 0 0.4 0.5 5.7 0.6 6l-0.3 0.4c-0.1 0.1-0.1 0.2-0.2 0.3-0.8 1.4-0.5 2-2.7 3.9-1.1 0.8-1 0.4-1.3 1.8-0.4 1.7-1.9 3.6-3.2 4.6l2.2 2.1c3.1 5.2-5.1 11.6-9 6.8-2.2-2.9 0.5-4.2 1.1-5.9-1.6-3.3-6.9-1.8-9.4-0.2 0.9 0.7 2.8 0.4 4 2.9 2.5 5.3-3.4 7.7-5.9 5.2-1.5-1.5-1.1-3.1-1.5-5.3-2.7 1.5-4.9 3.6-6.4 3.7-0.6-1.6 0.3-1.6-0.8-3.4-1.6-2.6-6.8-4.1-8.6 0.2-1.1 2.5-0.5 6.1 2.7 6.1 3.3-0.1 4.1-2.7 7.9-1.5 6.6 2.1 5.6 15.9-5.9 14.1-4.9-0.8-4.6-3.4-5.1-4.5-0.8 0.2-0.5 0.2-1.3 1.7-1.8 3-1.6 1.9-0.6 3.8 0.6 1 0.3 1.3 1.3 1.9 0 0 7.3 0.1 7.6 5.6 0.1 2.3-0.8 2.4-0.9 3.7l7.6-3.1c9-4 15.7-5.5 25.6-7.6 9.8-2.1 13.8-0.9 12.9-9.1-1.1-9.5 2.8-15.7 1.7-19.6l-2.1 1c-0.1 0-0.2 0.1-0.2 0.1 0 0.1-0.1 0.1-0.2 0.2 0 0-0.1 0-0.1 0.1-4.8 0.4-5.7-3.8-3.2-6.9 0.9-1.2 1.4-1.1 2.4-2.1 1.9 0.3 1.8 0.1 3.5 0.6zm-32 19.3c1.1-0.9 0.9-2.3 0.1-3.7-0.8-1.4-1.7-1.7-3.7-1.5-1.8 3.7 0.9 7.4 3.6 5.2zm8.5-20.6c-0.9 1.4-0.6 3.7 0.6 4.5 1.5 1.1 4.1 0.5 5.4-0.2 0.5-5-4.3-6.9-6-4.3zm14.1-5.8c4.3 1.9 6.4-4.8 2.1-4.6-0.3 0-4.7 1.1-5 1.2 0.2 1 2.1 3 2.9 3.4zm-49.8 49.7c0.7 0.7 2.1 0.3 2.6-0.2 0.8-0.9 0.6-2.2 0.6-3.3-1.8-0.3-4.7 1.9-3.2 3.5zm-42.9-49.8c-4.7-22 5.7-35.1-3.7-39.2-2.9-1.2-13 0.3-16.6 1.1-7.8 1.5-27 2.3-35.3 2-4.6-0.2-13.4-1.5-17.1 0.9-0.3 2.9 4.5 5.8 7.4 7.8 1.4 1 2.6 1.9 4.4 3.2 11.4 7.9 19.8 19.1 19.6 34.4 0 2.8 0.4 4.6 1.3 6.6 0.8 1.7 2.9 2.7 4.8 3 3.3 0.7 10.8 0.9 14.4 0.8l10.5-0.9c1-0.2 2-0.7 3.1-0.8l1.2-0.5c10.6-3 7.5-11.1 6-18.4zm33 43.1c-0.2 3.2 3.2 4.2 6 3.1 3.1-1.3 3.4-4.1 4.5-4.9-3.9-6.1-10.3-2.9-10.5 1.8z"/>
		<path id="Path 85" fill-rule="evenodd" class="s0" d="m474.3 1325.3c19.8 6.5 30.5 27.8 24 47.5-6.5 19.8-27.7 30.5-47.5 24-19.7-6.5-30.5-27.8-24-47.5 6.5-19.8 27.8-30.5 47.5-24z"/>
		<path id="Path 94" fill-rule="evenodd" class="s3" d="m242 1249.1h4.6c1.4 20.8 2.7 63.3 3 70.9 5.1 1.4 8.7 2.4 13.1 4.8 4.3 2.3 9.6 6 12.9 9.6 0.4 0.5 0.6 0.8 1 1.2l5 6.7c3.7 5.5 4.1 9.4 5.6 12.6 1.2-1.3 5.8-4.9 8.4-5.4 5.3-1.1 4.4 6.9 4.3 9.4 3.9-0.9 4.3-0.8 6.1 2.1 0.6 1.1 1.4 1.9 1.2 3.4-0.1 1.6-1.3 2.2-1.6 3.4 4.3 0.4 7.2-1.4 9 2.6 0.6 1.6 0.7 3.2 0 4.8-0.7 1.6-2 2.2-2.6 3.3 0 0 4.1 0.9 1.8 3-0.7 0.7-2.9 1.8-3.9 2.4-1.4 0.8-2.5 1.5-3.9 2.2-1.2 0.7-2.7 1.3-4 2.1 0.5 0.6 0.5 0.2 0.9 0.9 0.2 0.3 0.2 0.4 0.3 0.7l0.3 0.7c11.4 0.8 8.5 0.3 11.7 3.5 3.3 3.3-0.1 8.2-2.1 10.8-1.2 1.4-3.8 4.4-5.2 5.2l1.5 1.4c0.2 4.3-3.7 1.2-6.8 3.3-0.6 0.4-1.4 0.9-1.7 1.7 4.5 2.4 4.2 1.1 7.2-0.1 3.7-1.5 9.1-1.1 11.3 1.7 7 9.3 0.8 24.3-5.2 32.8-0.6 1-1.2 1.9-2 2.9-0.5 0.7-1.7 2.2-2 2.9 3.7 4.3 5.7 12.1 5.7 18.2 0 2.9-0.7 4.8-1 7.3 1.4 1.2 3 1 3.7 4.6 1.2 5.7-1.5 16.6-2.9 22.1-1.2 5.1-5.6 23-7 26.7-2.7 7.3-7.7 15.6-12.4 21.3-3.5 4.2-1.3 1.4-3.5 4.8-1.4 2.3-3.3 1.9-6.5 2h-12.6c-1.4 0-2.9 0.4-3.8-0.6-0.6-1.6 1.3-2.9 0.4-5.9-2.4 1.8-0.8 4.2-1.7 6-1.2 1.1-4.5 0.5-6.3 0.5-6 0-15.8-0.3-20.9 0l0.2-0.5c0.8-1.5 0.4-1.1 0.8-2.4l23.4 0.1c0.8-3.2 1.2-6.2 4.1-6.6 4.2-0.7 3.4 5.3 3.5 6.2l16.7 0.3c2.9-4.9 3.5-12.9 4-19.4 0.5-7 1.2-15.2 0.9-22.2-2.2 1-8.6 4.6-11.1 5-0.5-0.5 0.1-0.3-0.7-0.3-1.3-0.1-0.8 0.7-1.7-0.2 0.8-1.1 0.3-0.3 1.3-0.8l-0.3-1c3.1-1.3 5.8-2.4 8.8-3.9 2.5-1.3 9.3-5.4 11.6-7.8 1.4-1.4 2.1-2.2 3.1-3.2 3.5-3.3 4-5.7 5.1-7.5-0.3 0.3-0.9 1.2-1.3 1.6-0.6 0.7-0.6 1-1.4 1.7-1.1 1-2 2-3 3-2 2-4.5 3.7-7.1 5.3-30.6 19.1-88.3 19-117.9-1.1-1.2-0.9-2.5-1.7-3.6-2.7-0.7-0.6-1.2-0.9-1.7-1.4-2.5-2.5-5-4.8-6.8-8.1 1.3 5 6.2 10.3 10.2 13.4 10 8 22.8 12.7 36 15.4 11.5 2.4 22.8 3.1 34.7 2.3 9.4-0.7 15.5-1.8 24.2-4.1 1.6-0.4 6-2 7.1-2 0.7 1-0.7-0.8 0.4 2.2l0.2 0.5c-1.8 0-4.7 1.6-6.7 2-2.3 0.5-4.6 1.2-7.1 1.7-28.1 5.9-61.9 2.9-86.2-12.6-4.4-2.7-6-4.7-9.5-7.8l-4.5 2.9c-0.3 0.2-1.4 0.7-1.6 0.9-1.5 1.2-1.2 5.9-1.1 8.2 0.4 8.6 3.2 24.2 5.8 32.4 1.2 3.7 0.8 4 4.7 4.7 2.8 0.5 5.8 0.8 8.7 1.1 1.3-3 6.5-4.7 9.6 0.5 3.8 0.7 10.4 0.5 14.5 0.7 4.8 0.1 9.8 0.3 14.6 0.3 0.9-0.9 1.2-2.1 2.9-2.1 1.9 0 2 1.2 2.8 2.2l8.6 0.1c0.1 1.8 0 1.4 0.7 2.9l-10.4-0.2c-1.5-0.1-1.3-0.6-1.7-1.8-1.1 2.1 0.3 1.9-6.6 1.7l-24.7-0.8c-1.3-0.1-2.4 0.2-3.1-1-0.6-1.1-0.7-2.1-2-2.4-1.3-0.3-2.3 0.4-2.8 1.3-1 1.5-0.8 1.6-3 1.4-3.1-0.3-12.2-0.7-13.8-3.3-3.7-6.3-8.3-33-7.5-43 0.5-6.3 2.2-4.7 8-9-4-6-5.7-11.1-5-19.6 0.1-1.5 0.7-2.9 0.7-4.2 0-1.2-0.4-3-0.6-4.4-0.6-6.6 0.8-3.6-1.8-6.4-1.7-1.7-2.5-5.3-1.8-7.7 0.7-2.4 2-4.5 4.3-5.6 0.9-0.4 1.4-0.9 2.2-1.1 1.5-0.2 2.2 1.1 1.5 2.5-0.8 0.6-5.8 1.5-5.5 6.4 0.1 3.2 2.9 6 6.4 5.6 0.2 0 6.5-1.7 9.7-2.2 20.9-3.3 55.4-0.3 76.2 5.1 6.7 1.7 12.5 4.5 20.1 3.8 3.5-0.3 6.6-1.1 9.4-2.4 8.2-3.9 14.5-11 15.8-20.3 1.3-9.6-4.6-18.9-13.2-22.3-3.5-1.4-13.9-2.6-15.8-1.6-0.6 0.3-0.7 0.9-2 0.9-1.2-0.1-1.2-0.7-2.4-0.7-3.8-0.1-25.7 3.7-31.8 4.3-13.8 1.5-31.1 2.9-44.7 0.4-3.4-0.7-6.2-1.5-9.1-2.9-1.2-0.6-2.7-1.8-3.4-2.6-1-1.2-1.5-2.4-1.8-4.3-1.7-11.3 7.9-13.9 9.3-14-5.5-0.1-18.9 4.1-17.3-3.3 0.6-2.5 3.1-3.5 3.4-4.2-4.3 2-7.4 3.7-9.7 7.8-4.2 7.1-0.6 14.9 4.1 20.7 3.5 4.2 8.3 8.6 14 10.8-0.5 3.4 2.6 5.1 4.5 2.8 0.8-0.8-0.4-0.5 1-0.6 4.7 1.1 8.3 2.1 13.4 2.6 22.8 2.1 51.2-4.4 74.2-6 5.5-0.4 10 0 13.1 2.9 2.7 2.6 3.4 8.3 1.1 12.2-2.3 3.9-6.3 4.4-11.9 3.7-4.6-0.5-9.4-1.6-14-2.2-19.1-2.7-41.1-4.4-60.4-4-13.4 0.2-16.7 0.7-29.5 2.8 0 0 0.1-0.2 0.1-0.1l0.2-0.3c0.1-0.2 0.2-0.2 0.3-0.4-1.1-1.6-1.8-1.8-2.2-3l1.2-0.8c0.9 0 1.7 0.7 2.5 1.1 1.1 0.7 1.2 0.5 2.2-0.2 4.8-0.6 9.3-1.3 14.3-1.6 22.3-1.4 52.4 0.7 74.4 4.1 4.4 0.7 9.2 1.8 13.6 2 2.5 0.1 5-0.3 6.2-1.7 2.6-3.4 2.4-8.3-1.8-10.8-3.7-2.2-17.4-0.1-21.6 0.4-9.5 1.3-18.9 2.4-28.4 3.5-14.3 1.6-29.9 2.9-44.1-0.5-3.6-0.8-3-1.5-5.8 0.3-1.4 0.8-3.7 2.3-5.1 2.9 0 0 0.1-0.2 0.1-0.1 0.1 0.1 1.5-2 0.2-3.7-0.6-0.7-0.4-0.2-0.8-1.1l0.4-0.3c1.7 0.5 1.4 2.1 3 2.1 0.5-0.1 1.2-0.7 1.3-0.9 0.2-1.1-0.9-0.4-1.6-0.3-0.6-0.4-0.3-0.2-0.8-0.7-0.7-0.7-0.5-0.1-0.5-1.1 0-0.6-4.1-2.4-5.8-3.5-13.7-8.9-25.7-30.4-3.6-41-0.6-4.1 2.1-5.2 2.9-6.9-1.6-1-4-0.9-3.7-3.7 0.3-1.7 2.3-3.3 3.6-3.8 0 0-0.1-0.1-0.1-0.1l-1.1-0.5c-0.4-0.2-0.8-0.3-1.2-0.5-0.7-0.4-1.5-0.9-1.6-1.9-0.5-2.5 1.8-3 3.9-3.1 0.3-2.3-4.7-6.7 2.7-4.6-0.9-3.6 2.2-4.5 5.5-4.3 0.2-2.5-0.3-2.4 1.7-3.8 1.5-1.2 2.4-1.3 4.3-0.6-0.1-2.3-0.7-3.9 1-5 1.8-1.2 2.8-1 4.7-0.4-0.4-13.5 6.4-26.3 16.5-34.8 13.4-11.2 28.4-10 29.2-10.7 0.6-0.5 0.5-8.9 0.5-10.3 0.6-17.6 1.2-34.8 2.4-52.4zm-55.6 164.1q0 0 0.1 0 0 0-0.1 0zm113.6 133.3c1.3-1.9 2.7-4.5 3.8-6.8 2.6-5.6 3.6-9.8 5.3-16.1 1.6-6.2 8.3-30.5 6.8-35.6-0.2 8.5-1.1 12.3-5.5 18.2-1.8 2.5-1.2 1.4-2.8 3.3-0.5 0.5-0.9 0.9-1.5 1.4-0.5 0.5-0.9 1.1-1.4 1.5l-6.7 4.9-0.6 18.5c-0.2 2.9-0.4 6-0.7 8.8-0.3 2.6-1 5.9-1.1 8.3zm-125.1-44.9l3.5 3.3c1 0.8 2.6 1.9 3.8 2.7 1.3 0.9 2.6 1.7 4 2.5 26.9 15.1 71 15.7 99.2 4.3 5.7-2.3 15.4-7.6 18.5-11.1l3.3-3.5c2.5-3.4 4.8-6.5 5.2-11.8l-1.3 1.8c-6.5 9.4-17.3 14.9-27.9 19.3-12.2 4.9-28.4 7.2-42.7 7.4-29.3 0.3-60.8-10.2-72.2-27.7-0.1 3.9 3.9 10.2 6.6 12.8zm4.6-5.1c4.6 3.5 10.1 6.4 16.4 9 25.6 10.6 60.7 10.7 86.6 0.9 8.1-3.1 18.2-8.6 23.5-14.8 2-2.3 3.9-4.6 5-7.5-1.7 2.3-1.3 1.7-2.8 3.3-2.5 2.9-6.6 6.3-10 8.2-17.7 10.4-38.5 14.3-59.6 14.1-14.2-0.2-29.8-2.6-42-7.2-9.5-3.5-19.6-8.8-25.9-16.9-0.5-0.6-2.1-2.7-2.4-3.4 2.1 6.4 7.1 11.1 11.2 14.3zm1.2-5.3c24.6 17.1 65.4 19.1 94.2 11.2 7.7-2.1 13.7-4.6 20.2-8.2 5.6-3 12-8.5 14.8-13.8 4.5-8.6 2.9-14.2-1.5-21.5l-7.8 8.8c-4.4 3.8-3.4 4.4-8.5 8-7.9 5.6-16.7 7-26.5 4.9-3-0.7-5.7-1.8-8.6-2.6-3-0.7-5.8-1.4-8.8-2.1-18.1-3.9-51.6-6.7-70.7-2.9-3.4 0.6-5.3 1.8-9 1.8 1.4 7.2 8 13.4 12.2 16.4zm93-62.3c7.4-0.2 15.9 0.6 21.7 5.6 3.5 3.1 6.5 6.5 8 11.9 1.5 5.4 1 8.5 0 13.8 0.3-0.4 0.4-0.4 0.7-0.8 2.9-3.2 9.4-12.2 11.1-15.6 2.9-5.8 6.8-15.9 2.8-22.7-2.4-4.1-7.9-3.1-10.1-1.4-1.8 1.2-1.9-0.1-4.8 2.2-0.5 0.4-1 1.4-1.7 2-0.4 0.5-1.4 1.1-2.2 1.5-3.4 1.7-7.7 0.5-12.9 0.5-2.6 0-2.9 0.9-5.9-0.1-1.6-0.6-3.8-1.8-5.2-2.1zm-13.1-8.4c-0.6-1.1 0-0.9-3.8-1.2-17.3-1.8-38.9-5-55.8-5-11 0-22.9 1-21 12.4 0.8 5.1 7.8 6.7 12.6 7.4 15.7 2.5 34.6 0.8 50.3-1.3 3.9-0.5 7.7-1.2 11.6-1.8 3.9-0.6 8.1-1 11.9-1.6zm-66.3-8.8c14.3-0.5 21.7 0.3 36 1.7 9.2 0.9 19.1 1.8 28.2 3.2-0.6-1.9-1.7-3.8-2-5.9-17 4.3-30.6 1.3-42.7-7-1.8 1-2.4 2.6-8.7 4.8zm107.9-13.9c3.1 1.4 5.7 5.7-1.1 7.9l-2.2 1c8.3 3.6 5.7 2 10.5-2.2 1.3-1 2.9-3.2 3.7-4.8 2.1-4-1.1-3.4-1.8-5.6-2.8-0.3-5.7-0.5-8.5-0.8-1.9-0.2-2.2-0.1-3.3 0.9-0.8 0.7-1.6 1.5-2.1 2.4 1.4 0.6 3.1 0.5 4.8 1.2zm-125.5-8.4c-0.7 1.8-3 1.8-4.1 3.7 1.7 0.9 5.1 0.9 3.6 4.1-0.8 1.8-3 2.8-3.2 5.1 1.2 1.2 4.5 2.5 2.8 4.7-0.9 1.3-3.9 1.4-3.8 4.1 8.4 1.2 43.4-5 40.5-12.4-2.7-6.7-31.3-15.9-36.6-17.3 0.1 1.1 0.1 2-0.4 2.9-0.6 1-1.2 1-2.2 1.5 1.6 0.8 4.4 1.1 3.4 3.6zm96.6 31.7c2.1-1.3 6.5 1.7 8.7 2.2 1.2 0.3 1.6-0.1 2.6-0.2 5.6-0.8 14.5 2.9 16-3.6-0.4-0.3-4.1-1.5-2.2-4.9 1.2-2.1 2.6-2.2 4.7-3.4-1.9-0.5-7.6-2.2-7.9-4.3-0.4-3.4 5.7-3.3 7.2-5.1-1-3-6.8-0.9-7.8-4.2-0.9-3.2 3.4-5.8 4.9-7.1-9.2-4.1-2.6-6.7-1.8-7.6-1.9-1.1-15 6.8-16.1 7.6-3 1.9-20.9 12.5-22.1 14.5-2.6 4 3.5 14.1 5.6 17.5l4.4 6.4c0.5 0.7 0.1 0.4 0.8 0.8 1.6-3.4 1.8-7.9 3-8.6zm-93.5-41.8c0.6 0.7 6.8 2.5 8 2.9 3.4 1.2 7.2 2.5 10.4 4-0.3-1.3-3.5-6-4.9-15.4-0.3-2.2 0.2-2.7-1.3-3.7-4-2.7-0.4 4.1-3 5.8-1.5 0.9-2.6-0.4-3.6-0.9-0.4 0.2-1 0.5-1.3 0.9 0.3 1.3 0.6 1.5 0.3 3-1.6 2-3.9 0.3-5.9 1.3 0 0.5 0.9 1.7 1.3 2.1zm108.9-14.4c0.3 5.1-0.2 9.2-1.4 14.1-0.5 2.1-1.5 4.1-2 5.9 2.9-1.1 5.3-3.3 10-4.6 2.5-0.7 4.4-0.7 5.1 1.6 1 3.1-1.7 3.4-2.5 4.6 1.4 0.3 10.8-5.1 11.6-5.8-1.8-2.5-0.7-3 1.1-4.9 1.5-1.6 2.4-2.9 0.7-5.2-2.6-0.2-8.5 1-9-2.1-0.5-3.1 4.4-3.2 0.3-7.3-1.2 0.1-5.2 2.1-5.6-1.4-0.2-2.7 1-5.1-0.6-7.6-1.9 0.4-5.2 2.8-6.5 4.2-0.8 0.7-1.4 1.1-2 1.7 0.2 2.3 0.7 4.4 0.8 6.8zm-65.4 41c8.5 3.8 18.2 5 27.5 3.2 1.8-0.3 3.6-0.9 5.2-1.2 0.2-5.9 2.9-6.3 8.7-10.3l14.4-9.1c1.8-1 1.5-0.5 2.5-2.4 7.4-15 5-34-5.6-46.7l-5.8-6.1c-0.5-0.4-0.9-0.6-1.4-1.1-4.9-4.1-12.7-7.9-19.2-9.3 0.2 12-0.1 5.5 2.7 11.6 3 6.5 0.7 16.1-5.5 20.1-5 3.1-6.6-0.6-11.9 0.1-4.1 0.6-7.4 2.4-8.8 5.4-3 6.4 1.3 13.2-3 18.1-0.6 0.7-1.1 1-1.6 1.7-2.3 2.5-8.2 5.2-12.8 5.1-4.6-0.2-6.2-2.8-7.8-6.2-5.9-11.5-3.8-22.4 1.9-33.4 1.1-2.1 4.2-6.9 5.7-8.3l7.7-6.4c5.8-3.9 13.9-6.4 22.5-5.4l0.1-3.6c-20.8 0.3-36.4 14-41.2 30.2-3 9.9-2.3 20.9 1.8 29.9 3.5 7.9 3 5.9 8.6 9.2 2.7 1.6 5.8 3.7 7 6.4 0.7 1.4 0.6 2.4 0.3 3.9 2 1.6 5.3 3.3 8 4.6zm23.8-63c0.1-18.7-0.8-43.7-1.7-62.9l-1.2-20.3c-1.4 10.8-3.1 70.6-2.9 83.1 2.3 0.9 3.6 0.6 5.8 0.1zm1.8 2.1c-2.6 1.7-10.3 2.1-10.5-2.1l0.3-14.7c-9.7-0.6-15.7 1.1-22.9 6.2-3.1 2.3-6.9 6.3-8.8 9.4-6.9 11.2-10 24.7-1.9 36.6 3.2 4.5 13.4-0.4 16.1-4.4 1.9-3 0.7-5.3 0.9-10.8 0.4-7.4 3.7-11.4 11-13 1.8-0.4 3.7-0.5 5.5-0.2 1.3 0.2 3.8 1.2 4.9 1 2.3-0.5 5.2-4 6-6.2 1.1-2.8 2-7.5 0.4-10.2-0.2 2.5 0.8 7.2-1 8.4z"/>
		<path id="Path 95" fill-rule="evenodd" class="s3" d="m252 1348.8c0.5-0.7 1.1-1.4 1.6-2.1 2.1-2.7 7.9-5.6 13.1-5.1 16.6 1.8 18.7 27.3 6.9 43.4-2.8 3.8-7.1 8.2-11.1 10.7-5.4 3.3-12.9 8.6-21.4 6.8-3.1-0.7-5.2-1.8-7.5-3.5-0.4-0.3-0.7-0.5-1-0.7-1.5-1.2-3.1-3.2-3.7-5.6-1.2-5.5 2.7-11.6 6.9-14.8 6.5-4.8 14.3 0 16.8-12.2 1.6-7.8-1.5-7.9-2-11.4-0.3-2 0.7-4.2 1.4-5.5zm8.6 44.7c2-1.4 5.2-3.8 6.8-5.5 1.5-1.6 4.3-5.1 5.4-7 2.3-4 3.5-7.1 4.8-11.7 2.1-7.4 0.5-19.7-7.7-23.9-5.8-2.9-13.8 0.6-16.1 6.4-1.1 2.7 0.9 3.9 1.4 6.2 0.1-0.1 0.1-0.2 0.1-0.2 0.1 0.1 0.2-0.1 0.2-0.1 0-0.1 0.8-1.4 1.8-2.1 0.8-0.6 1.7-1.2 2.8-1.6 3-1 5.2 0.1 6 2.5 0.9 2.7-0.3 4.9-2.9 6-3.3 1.5-4.4 0.6-7.3 0.2 0 3.5-1.7 9.1-4.3 11.6-4.1 4.1-8.4 3.1-11.7 4.6-3.1 1.3-6.5 4.9-7.7 8.3-0.8 2.2-1 4.6 0.1 6.5 0.9 1.7 2.8 3.1 4.4 3.9-0.1 1.7 0.4 3 1.8 3.5 1.8 0.6 2.5-0.5 3.6-1.2 7.8 0 12.5-2.3 18.5-6.4zm-0.8-36.2c-0.9 0.6-1.9 1.6-2.1 3 8.4 0.7 6.7-5.9 2.1-3z"/>
		<path id="Path 96" fill-rule="evenodd" class="s3" d="m244.3 1259.7l1.1 20.3c0.9 19.2 1.8 44.2 1.7 62.9-2.2 0.5-3.5 0.8-5.8-0.1-0.2-12.5 1.5-72.3 3-83.1zm-22.8 95.8c3.2 6.1-9.7 6.8-11.2 1.2-1.7-6.2 7.7-8 11.2-1.2zm-8.2-0.8c-1.3 2.2 2.8 3.8 5.9 2.6-0.7-1.9-4.6-4.8-5.9-2.6zm50.2 19.1c-2.9 0.4-6.3-1.6-7.4-3.2-1.9-2.8 1.6-5 4-5.6 9.2-2.2 9.9 8 3.4 8.8zm1.4-4.3c0.2-1.7-1.7-2-3.1-1.9-1.7 0.1-2.4 0.6-3.2 1.5 0.9 1.5 5.9 3.2 6.3 0.4z"/>
		<path id="Path 97" fill-rule="evenodd" class="s3" d="m225.6 1338.8c6.1 0.7 5.6 13.8-0.5 11.5-2-0.7-4.1-3.5-4.4-6.2-0.5-3.5 1.5-5.7 4.9-5.3zm-1.3 2.9c-1.4 0.4-0.9 2.4-0.3 3.6 0.6 1.1 1.2 2.1 2.4 2.4 1.1-1.9 0.8-7-2.1-6zm-16 24.4c0.4-3.1 3.2-4.3 6.5-4.1 2.8 0.3 6.3 1.6 5.4 4.6-1.4 5.1-12.7 6.9-11.9-0.5zm2.9 1.2c0.4 1.2 2.1 1.1 3.4 0.7 1.3-0.4 2.3-1.1 2.8-2.1-1.3-1.4-7.1-1.9-6.2 1.4zm47.3 21c-3 1-4.5-0.7-5.6-2.3-2.6-3.7-2.5-11.1 4.1-8 0 0.5 0.3 1.7 0.5 2 0.1 0.3 0.4 0.4 0.6 0.5l1.8 1.7c0.6 0.6 0.3 0.6 1.3 0.8 0.6 2.8-0.5 4.5-2.7 5.3zm-3.8-4.4c1.6 3.4 5.6 1.6 3.1-1.6-0.7-0.8-2.1-2.4-3.4-2-0.6 1 0 2.8 0.3 3.6z"/>
		<path id="Path 98" fill-rule="evenodd" class="s3" d="m240.4 1391.4c-0.5-2.3 0.4-5.7 1.7-7.3 1.2-1.4 3.2-1.1 4.6-0.2 0.7 0.5 2.3 2.8 2.2 4.3 0 0.9 0.2 0.3-0.2 0.7-1-0.2-1.6 0.1-2.4 0.1-0.3-1.5-1-2.5-1.8-3.1-1.2 1.2-1.9 4.2-0.9 5.9-0.3 0.7 0.1 0.2-0.5 0.6 0 0-0.5 0.2-0.6 0.2-0.6 0.3-0.6 0.4-1.1 0.7-0.5-0.1-0.8-0.9-1-1.9zm52.6 91.6c-1.4 0.4-3.6 0.3-4.6-0.6-1.3-1.2-0.2-2.4 1.2-2.9 4-1.3 7.6 2.3 3.4 3.5zm-77.8 19c-4.5 1-6.9-3-2.3-3.7 4.5-0.8 6.2 2.8 2.3 3.7z"/>
		<path id="Path 99" fill-rule="evenodd" class="s3" d="m273.6 1495.3c0.4 2.1-0.7 2.9-3 2.9-2.1 0.1-3.9-0.4-3.7-2.6 2.3-1.8 4.4-1.7 6.7-0.3zm-17.3 8.5c-3.9 1.4-7.6-2-3.7-3.4 4.2-1.4 7.5 2 3.7 3.4zm-76.5-21c-1.5 0.5-3.4 0.4-4.6-0.4-0.5-0.5-0.9-1-0.6-1.9 0.3-0.8 0.9-0.9 1.7-1.1 4.3-1.3 7.1 2.2 3.5 3.4zm-1.9-33.7c0.4 0.9 0.2 0.4 0.8 1.1 1.3 1.7-0.1 3.8-0.2 3.7 0-0.1-0.1 0.1-0.1 0.1l-1.1 0.9q-0.2 0.2-0.5 0.3-0.1 0.1-0.1 0.1 0 0 0 0.1c-1 0.7-1.1 0.9-2.2 0.2-0.8-0.4-1.6-1.1-2.5-1.1 0.9-0.7 0.7-0.9 1.4-1.6 0.4-0.4 1.3-1 1.8-1.4-0.5 1.7 1.2 2.4 2.3 1.7q0.9-0.7 0.6-1.9c-0.2-0.7-0.7-1.1-1.6-0.9 0.5-0.8 0.8-0.7 1.4-1.3zm76.5-68.8c1.3-0.4 2.7 1.2 3.4 2 2.5 3.2-1.5 5-3.1 1.6-0.3-0.8-0.9-2.6-0.3-3.6zm-39.8-12.3c-1.3 0.4-3 0.5-3.4-0.7-0.9-3.3 4.9-2.8 6.2-1.4-0.5 1-1.5 1.7-2.8 2.1z"/>
		<path id="Path 100" fill-rule="evenodd" class="s3" d="m261.8 1367.6c1.4-0.1 3.3 0.2 3.1 1.9-0.4 2.8-5.4 1.1-6.3-0.4 0.8-0.9 1.5-1.4 3.2-1.5zm-37.8-22.3c-0.6-1.2-1.1-3.2 0.3-3.6 2.9-1 3.2 4.1 2.1 6-1.2-0.3-1.8-1.3-2.4-2.4zm20.5 40.6c0.8 0.6 1.5 1.6 1.8 3.1l0.2 1.3-0.2 1.4c-0.4 0.4-0.4 0.5-1.1 0.6l-0.7-0.1c-0.4-0.1-0.6-0.3-0.9-0.4-1-1.7-0.3-4.7 0.9-5.9zm-31.2-31.2c1.3-2.2 5.2 0.7 5.9 2.6-3.1 1.2-7.2-0.4-5.9-2.6z"/>
		<path id="Path 101" fill-rule="evenodd" class="s3" d="m259.8 1357.3c4.6-2.9 6.3 3.7-2.1 3 0.2-1.4 1.2-2.4 2.1-3zm-89 98c0.4 1.2 1.1 1.4 2.2 3-0.1 0.2-0.2 0.2-0.3 0.4l-0.2 0.3c0-0.1-0.1 0.1-0.1 0.1l-3.2 0.8c0.7-1.4 0-2.7-1.5-2.5 0.8-0.9 2.1-1.3 3.1-2.1z"/>
		<path id="Path 102" fill-rule="evenodd" class="s3" d="m238.5 1401.1c-1.4-0.5-1.9-1.8-1.8-3.5 1.1 1 3.9 1.6 5.4 2.3-1.1 0.7-1.8 1.8-3.6 1.2zm-1.9 159.5h1.4c-1.6 3.1 4.2 3.3 2.8 0.1h1.6c-0.4 1.3 0 0.9-0.8 2.4l-0.2 0.5-4.1-0.1c-0.7-1.5-0.6-1.1-0.7-2.9zm12.7-170.2c0 1.2-0.3 1.9-0.7 2.6-1.4 0.1-2.4 0.2-2.3-1.3l0.2-1.4c1.3-0.7 1.4-0.6 2.8 0.1zm-73.7 60.5c0.3-0.3 0.5-0.4 0.9-0.5 0.9-0.2 1.4 0.2 1.6 0.9q0.3 1.2-0.6 1.9c-1.1 0.7-2.8 0-2.3-1.7 0-0.4 0-0.3 0.4-0.6z"/>
		<path id="Path 103" fill-rule="evenodd" class="s3" d="m185.4 1447.7c-1.9 2.3-5 0.6-4.5-2.8l0.8 0.6c0.2 1.1 0.3 1.5 1.2 2.1 1.8 0.1 1.2 0.1 1.9-1l1.6 0.5c-1.4 0.1-0.2-0.2-1 0.6zm52.6 112.9l2.8 0.1c1.4 3.2-4.4 3-2.8-0.1zm21.9-178.4l-1.8-1.7c-0.2-0.1-0.5-0.2-0.6-0.5-0.2-0.3-0.5-1.5-0.5-2 2.2 1.4 3.1 2.3 4.2 5-1-0.2-0.7-0.2-1.3-0.8z"/>
		<path id="Path 104" fill-rule="evenodd" class="s3" d="m242.5 1392.6c0.1 0 0.6-0.2 0.6-0.2 0.6-0.4 0.2 0.1 0.5-0.6 0.3 0.1 0.5 0.3 0.9 0.4l-0.3 2.9c-2.2-0.8-1.4 0.2-2.8-1.8 0.5-0.3 0.5-0.4 1.1-0.7zm-17 95.4c-0.1 1.2-0.4 1.5-1.8 1.5-1.3 0-1.6-0.4-1.7-1.5 0.9-0.7 2.6-0.7 3.5 0zm-33.3-5.2c1.1 0 1.4 0.3 1.8 1-0.8 1.3-2.9 1.5-3.5 0 0.3-0.8 0.6-1 1.7-1z"/>
		<path id="Path 105" fill-rule="evenodd" class="s3" d="m246.3 1487.2c-0.3 2-2.3 1.3-3.5 0.9 0.1-2.2 2.4-1.8 3.5-0.9zm36.2 34.6l0.3 1c-1 0.5-0.5-0.3-1.3 0.8 0.9 0.9 0.4 0.1 1.7 0.2 0.8 0 0.2-0.2 0.7 0.3l-2.8 1.3-0.2-0.5c-1.1-3 0.3-1.2-0.4-2.2zm9.2-30.5c1.1 0 1.4 0.2 1.9 1-0.8 1.6-3 1.5-3.5 0 0.3-0.7 0.5-0.9 1.6-1zm-56.1 8.7c-0.7 1.7-3 1.6-3.6 0 0.7-1 2.6-1.5 3.6 0zm-38.7-6.3c-0.7 1.4-3.3 1.5-3.5-0.2 0.8-1.2 2.8-1.2 3.5 0.2zm-17.2-45.9c0.1 1.1-0.1 0.4 0.5 1.1 0.6 0.6 0.2 0.3 0.9 0.8 0.6-0.1 1.8-0.8 1.5 0.3-0.1 0.2-0.8 0.8-1.3 0.8-1.6 0.1-1.2-1.5-3-2.1zm66.6-56.2c-0.1 1.6 0.9 1.5 2.3 1.4-0.5 1.2-0.8 1.2-1.8 1.8-0.1-0.1-0.1-0.2-0.1-0.2l-0.7-1c-0.5-0.5-0.5-0.7-0.8-1.4 0.7 0 0.7-0.2 1.1-0.6z"/>
		<path id="Path 106" fill-rule="evenodd" class="s3" d="m244.5 1392.2l0.7 0.1c0.2 0.6 0.3 0.8 0.7 1.4l0.8 1c0-0.1 0 0.1 0.1 0.1l-2.6 0.3zm-61.6 55.4c-0.9-0.7-1-1-1.2-2.2l3.1 1.2c-0.8 1.1-0.1 1-1.9 1zm65.8-58.7c0.3-0.4 0.2 0.2 0.2-0.7 0.5 0.4 0.3 1.4 0.3 2.2-1.3-0.7-1.4-0.8-2.7-0.1l-0.3-1.3c0.9 0 1.5-0.4 2.5-0.1zm232.4-107.9c2-5.5 17.1-46.1 19.1-47.6 2.7 0.4 1.4 2.4 0.8 4.7-0.5 2.1-1.1 4.3-1.6 6.3-7.5 28.6-16.9 62.4-26.1 90 12.3 6.2 21.6 15.9 25.1 28.7 3.4 11.9 0.8 26.1-8.2 35.5-1 1-2.8 2.5-3.6 3.5 1.5 1.6 3.3 5.3 4.3 7.4 1.5 3.2-0.7 0.6 3.4 4.2 9.7 8.7 18.2 20.3 19.8 33.3 0.2 1.3 0 2.7 0.4 3.9 1.5 0 4.1-0.5 6.1-0.6 35.9-2.6-0.2 16-2.3 24.5 2.5 3 17.5 1.9 25.4 13.5 9.9 14.6-8.4 9.2-14.9 9.1 0 2.7 1 10.1-0.6 12.5-3.3 0.2-2-3.6-4.8-5.8-2.4-2.1-6.5-2.2-9-1.5-3.1 0.8-7.5 7.2-14 8.5-1.6 5.3-5.6 16.9-10.1 20-2.5 1.7-0.9 0.7-2.8 2.5-3.2 3.2-8.2 5.7-12.5 7-7.1 2.2-15.3 2.9-23 2.8-11.1-0.2-23.2-2-34.7-4.9-12.2-3.1-4.9-2.8-15.4 1.2-3.2 1.2-12.3 6.9-13.7 3.2-0.7-1.8 2.5-3.8 4.7-5.3 1.5-1.1 4.2-3.4 5.4-5.1-8.6-3-3.9-2.4-13-3.7-5-0.8-10.7-1.4-9.4-6.4-9.6-4.3-23.6-15.5-29.2-22.6-7.9-10-10.6-18.5-4.6-35.3l-18.4-7.9c-7.8-3.7-12.1-3-8.9-12.8 1.6-4.8 1-8-0.6-11.4-10.6-22.5 32.8 2.2 41.1 1.8-0.1-0.1-0.1-0.3-0.1-0.2l-0.3-0.6c-3.3-5.9-9.7-12.1-9.9-22.5-0.4-18 4.5-7 8.1-3.4 2.7 2.6 5.5 4.9 9.5 6.4 3.8-11.2 11.5-18.8 21.4-23.2 2.3-1.1 4.3-1.8 6.8-2.7 1.1-0.3 2.7-0.5 3.5-1 1.3-0.8 3.6-5 9-7.4l6.7-3.1c-1.6-11.5-1.1-21.2 7.2-31.5 6.3-7.8 14.5-12.4 24.4-14.6 5.5-1.2 15.4-1.4 21.5 0.5 0.9-1.3 15.8-44.2 18-49.9zm-17.5 259.2c21.1-2.9 20.9-8.9 24.4-10.9 1.2-0.8 1.1-0.3 2.2-1.8 0.6-0.7 1.1-1.6 1.6-2.4 2.4-4 4-8.3 5.5-12.9-2.8 0.1-3.7 0-6.6-0.4-8.8-1.2-7.8 10.1-15.4 2.9-4-3.7-0.4-1.9-11-2-13.9-0.1-7.2-1.9-16.8 3.6-1.8 1-3.1 1.7-4.9 2.7l-19.6 10.5c-1.7 1-9.1 4.3-9.9 5.1 15.2 4.6 36.5 7.5 50.5 5.6zm-121.7-55.3c0.5 1.6 0.6 2.4 1.3 3.9 0.6 1.6 0.8 2.2 1.7 3.7l4.7 6.5c4.7 5.9 20 18.1 28.5 21.4l6.3-3.4c6.8-3.4 9.3-4.7 15.6-8.5 0.9-0.5 1.9-1.2 2.7-2.1-2.2-0.7-6.1-0.9-8.8-1.4-2.9-0.7-17.2-4.7-11.3-9.2 1.7-1.4 4.3-1.2 6.7-2.1-0.8-0.8-9.5-5.6-11.5-6.8-3.8-2.3-7.1-4.8-10.4-7.4-12.6-10.1-5.3-8.1-15.3-11.4-2.5-0.9-5-1.9-7.5-2.7-2 6.4-4.3 14-2.7 19.5zm184.1 11.6c0.3-2.6 3.9-1.7 5.9-1.6 5 0.3 13.7 3 11.6-1.7-5.2-11.5-15.6-12.2-23.6-14.5-7.3-2.2-3.8-6.7-0.1-10.6 11.4-12.2 20.2-15.1 7.5-15.4-4.6-0.1-8.9 0.4-13.1 0.9-1.4 7.3-1.7 12-5.9 18.8-3.1 5-7.5 8.8-11.5 11.3-18 11.7-43.1 11.8-64.8 7.2-14.3-3-24.4-8.2-36.5-15 0 1.6 0.6 2.7 0.9 4.5 0.3 1.5 0.4 3 0.7 4.4 0.6 2.5 3 6.2 3 7.9-0.3 4.4-13.2 2.7-15.9 5.4 1.8 2.3 8 3.8 11.1 4.5 3.2 0.6 9.6 0.4 10.6 3.1 0.9 5-25.6 14.8-27.6 18.3 6 3.7 15 2.2 21.1 2.4 11.1 0.3-4.2 12.7-5.3 13.7 1.2-0.1 4.2-1.6 5.6-2.3l39.1-19.6c0.8-0.5 0.5-0.4 1.3-0.8 0.7-0.3 0.7-0.3 1.4-0.7l10.1-6c1.8-1.1 3.1-2.2 4.9-3 6.4-3 13.2-2 18.5 2.9 1.4 1.3 2.4 3.2 4.8 3.8 3.7-3.3 5.3-5.9 11-5.2 6 0.8 7.5 0.3 12.5-2.2 6.1-3.1 5.9-5.5 10.1-6.9 4.3-1.5 9.5-0.3 13 3.1 0.3-2.3-0.6-5.3-0.4-6.7zm-148-12.6c3 2 6.1 3.8 9.3 5.6 1.8 0.9 3.5 1.8 5.3 2.7 2 1 2.5 0.9 4.5 0.3 0-1.2-0.4-1.4-0.8-2.2-0.9-1.8-1.7-4.2-2.1-6.2-0.6-3.2-0.5-6.1-2-8.5-10 0.3-19.1-1.5-29.7-4.3 2.3 3.2 11.4 10 15.5 12.6zm-10.6-39.8c1.7 2.8 3.2 5.5 5.6 8.4 12.2 15.1 27.7 25.5 47.6 32.4 15.1 5.3 34.2 7.7 48 5.6 8.3-1.2 13.7-2.6 20.1-5.3 3.8-1.6 13.7-7.6 16.1-12.6l-3.9 3.1c-0.9 0.6-1 0.6-2 1.3-3.3 2.1-7.1 3.9-10.8 5.2-5.9 2.1-12.4 3.2-19.5 3.9-34.6 3.1-83.9-16.4-100.4-46.7-0.4-0.7-0.7-1.5-1-2.2-1.7-3-4.5-10.6-4.2-13.4-2.1 5.3 2.8 17.6 4.4 20.3zm-19.3-29.5c0.5 2.7 1.8 5.8 2.8 7.7 1.7 3.4 5.2 7.7 6.8 10.4 6.7 12.2-29.2-6.6-40.1-7.3-5.3-0.3-0.3 5.3 0.5 10.5 0.3 2 0.4 3.6 0 5.8-0.4 2-1.8 5.1-1.9 6.7-0.2 3.1 6.2 4.7 10.3 6.6 17.6 8.2 38.8 16.1 58.3 17.8l4.4 0.2c0.9 0 0.7 0.1 1.4-0.2-0.8-0.9-5.5-4.3-6.9-5.4-6.1-4.8-15.5-15.4-18.4-21.8-2-4.7-2.7-4.7-4.3-11-2.6-9.9 0.6-13.8 0.7-18-2.9-1.9-5.3-2.7-8.1-5-2.5-2.1-3.9-4.4-5.7-6.1-0.6 1.9-0.2 7.2 0.2 9.1zm48.9 114.7l3.1 0.9 0.5-1.1c-1.3-0.2-2.4-0.2-3.6 0.2zm-4.4-138.9c-2.4 0.1-11.5 4.1-13.7 6.2 2.5-0.1 4.7-0.3 6.6 1.9 1.4 1.5 1.6 4-0.6 5.2-3.5 1.9-10.6-1.7-7.2-6.3-9.5 6.5-13.8 16.5-11.6 28.9 1.5 8.8 7.8 18.1 14.7 25.1 14.2 14.7 39.7 27.5 63.1 30.8 13.2 1.9 27.9 2.3 39.9-1.4l6.9-2.5c1.3-0.4 2-0.9 3.3-1.5 13.9-6.6 21.5-21.6 15.8-36.9-3-8-10.1-18.6-17.1-23.8 0.1 2.1 0.4 5.9 0.1 7.7-1.4 7.7-5.4 16.8-10.8 21.7-5.6 5.2-15.6 8.5-25 9.1-22.2 1.3-42.1-6.4-58.1-21.3 0.4-1.6 0.5-0.7 1.3-2.2 2 1.4 3.4 3.4 5.8 4.9 0.8-1.8 2.3-3 4.4-1.5 1.6 1.2 0.9 3-0.2 4.9 2 0.9 3.9 2.3 6 3.5 7.6 4.1 12.6 5.3 20.7 7.6 0.4-2.2 1.3-4.1 3.5-3.5 2.7 0.6 2 2.5 2 4.4 4.4 1.1 12.4 0.8 16.5 0.4 8.5-0.9 11.9-3.1 14.3-3.6 0.8-3.3 0.9-4.8 4.6-2.6 0.8-1 2.4-1.8 3.7-3.3-0.7-0.9-2.1-2-0.7-3.9 1.3-1.8 2.8 0.2 4-0.2l2.2-5.2c-0.9 2-8.6 6.2-11.5 7.1-2.5 0.8-11.6 3.3-13.9 2.8 4.7 2.1 1.9 5.7 0.1 5.9-3.1 0.4-4.6-3.5-1.2-5.7-1.8-0.2-3.5 0-5.3 0-21.9-0.4-49.7-12.4-60.8-32-2.2-3.9-2.5-7.1-3.3-8.7-1.1 2.9-1.4 5.1-1.7 7.9 4.3 0.3 4.2 3.2 3.1 4.7-0.6 0.9-0.9 0.9-1.6 1-2.5-0.1-1.4-1.1-3.6-2.1-1.5-7.5 2.5-16.1 5.3-23.5zm94.5 42.5l-0.1 0.1q0 0 0.1-0.1zm-85-49.6c-2.5 1.6-5.4 4.5-6.9 7.7-1.8 3.8-2 7.9-1.2 11.4 2.1 10 9.5 17.5 17.6 23.4 17.1 12.4 46.2 19.1 64.3 11.3l4.4-2.2c1.4-0.7 2.6-1.6 3.9-2.8 6.3-6 7.1-12.3 4.8-20.2-0.6-1.9-3.3-7.2-4.5-8.3-0.6 0.4-1.3 1-2.1 1.5-5.6 3.3-9.7 5.2-16.8 6.4-16 2.7-33.1-3.1-44.3-14.7-5.2-5.5-6-7.7-8.6-12.9l-1.9-4.6c-2.3 0.2-6.9 2.8-8.7 4zm-18.3 17.7c-0.6-1.8-3-2.3-4.3-1.5 0.3 1.8 3 2.7 4.3 1.5zm29.3-42.2c-5.6 20.3 8 40.5 28.5 47.9 20.9 7.5 44.5-0.6 52.7-19 4.4-9.8 3.7-21-0.8-30.2-3.8-7.7-12.6-17.4-21-20.4-2.3 5.6-1.2 11.5-8.8 8.9-1.2-0.4-2.3-1-3.2-1.8-2.1-2.1 0.4-5.6 1.9-10.8-19.9-4.9-43.5 4.2-49.3 25.4zm54.4-14.9c4-10.8 10-31.7 13.5-43.6 1.7-5.6 12.1-40.1 12.1-43.2-8.2 20.5-15.9 42.2-23.3 63.1-2.5 7.1-5.5 14.9-7.5 22.1 1.5 0.9 3.5 1.8 5.2 1.6zm1.4 165.9c-2.9-1.4-8.1-1.6-10.5 0 2.9 0.5 7.7 0.3 10.5 0z"/>
		<path id="Path 107" fill-rule="evenodd" class="s3" d="m474.1 1389.3c-0.3 13.1 10 10.9 14.9-2 6.8-17.7-4.4-27.2-13.2-7.7-0.6 1.4-1.7 7.5-1.7 9.7zm19.2-15.7c1.8 12-6.2 27.7-14.9 27.2-7.6-0.5-8-12.8-5.7-19.2 1.9-5.7 6.4-16 14.1-15.6 4.3 0.3 6.2 4.9 6.5 7.6zm-52.9 91.9c4.2 0.9 8.1 3.8 8 7.3-0.2 8.6-16.7 5.6-16.9-2.4-0.1-4.6 5.4-5.7 8.9-4.9zm5.3 7.7c0.4-2-2.5-4.2-5-4.9-2.3-0.7-6-0.6-6.5 1.7-0.8 4.3 10.6 7.7 11.5 3.2z"/>
		<path id="Path 108" fill-rule="evenodd" class="s3" d="m440.7 1468.3c2.5 0.7 5.4 2.9 5 4.9-0.9 4.5-12.3 1.1-11.5-3.2 0.5-2.3 4.2-2.4 6.5-1.7zm21.6 7.8c-1.1 5.1-10.8 2-9.6-2.6 1.3-4.7 10.6-2 9.6 2.6zm-4.3-2.2c-1.4-0.5-2-0.3-2.7 0.5 0.9 1.2 2.5 2.1 4.2 1.4 0.1-0.8 0.4-0.4-0.2-1.1-0.2-0.3-0.9-0.6-1.3-0.8zm-51.1-21.7c0 2.8-2.9 3.6-5 3.2-2.5-0.5-4.8-2.3-4.7-4.3 0-5.6 9.8-3.2 9.7 1.1zm-2.8 0.3c-0.1-1.1-0.5-1.4-1.8-1.8-1.1-0.4-1.7-0.3-2.4 0.1 0.2 1.7 2.7 2.6 4.2 1.7zm-9.8-24.4c-1-1.3-1.7-2.2-2.5-3.5-0.8-1.5-3.6-5.9-3.5-7.5l2.9 0.9 7.9 11.7c-0.3 0.9-0.6 1.3-1 1.8l-0.7-0.2c-1.3-0.6-2.4-2.3-3.1-3.2zm11.8-34.4c2.3 0.6 9.7 2.9 9.8 5.7-1.8 1.3-5.7-0.3-7.8-1.1-2.3-1-5.1-2.3-5.3-4.1 0.9-1.1 1.8-0.8 3.3-0.5z"/>
		<path id="Path 109" fill-rule="evenodd" class="s3" d="m467 1428.5c1.4-1.8-1.5-5-2.8-6.3-6.1-6.4-9.7-6.1-3.6 1.6 1.3 1.6 3.7 4.6 6.4 4.7z"/>
		<path id="Path 110" fill-rule="evenodd" class="s3" d="m447.2 1424.1c-0.3-0.9-1.1-3 0-3.6 1.9-0.9 7.7 9.6 6.4 12.8-3 0.2-5.6-6.6-6.4-9.2zm-33.1-18.4c1.4-0.2 6.9-1.3 7.6 0.4 0.8 1.6-10.3 5.4-13.9 3 0.4-2.2 4.3-2.9 6.3-3.4zm55.5 9.4c4 0.3 7.7 1.6 10.7 3.8-0.7 1.5-1.3 1.5-3 1.4-2.7-0.1-10-1.9-10.8-4.2 0.7-1.3 1.6-1.1 3.1-1z"/>
		<path id="Path 111" fill-rule="evenodd" class="s3" d="m421.6 1416.2c1.4-0.8 4.9-2.8 7.2-1.7-0.8 3-9.7 8.2-12.8 6.7-0.1-2.2 4.4-4.4 5.6-5zm16.9 1c1.3 2.3-2.5 13.8-4.9 14.8-1.5-1.3 0.4-6.7 1.1-8.6 0.5-1.7 1.7-5.8 3.8-6.2zm-56.9 9.4c0.2-3.2 3.4-3.5 6-2.9l1.1 3.7c-1.7-1.1-2.8-1.9-4.4-0.8 0.9 1.7 2.5 1.9 4.3 1.8l-1.5 2.7c-2.6 0.2-5.6-2.4-5.5-4.5zm44.8 12.9c-0.5 4-5.9 2.9-5.6-0.3 0.4-4.1 6.1-3.3 5.6 0.3z"/>
		<path id="Path 112" fill-rule="evenodd" class="s3" d="m401.8 1422.2c1 1.9-0.3 4.1-2.2 4.3-1.2-1.2-1.4-3-2.6-4.3 1.1-1.9 3.7-2 4.8 0zm-14.2 1.5c5.9 2.7 4.3 7.7-0.5 7.4l1.5-2.7 0.1-1zm81.3 86.2c-2.8 0.3-7.6 0.4-10.5 0 2.3-1.7 7.6-1.5 10.5 0z"/>
		<path id="Path 113" fill-rule="evenodd" class="s3" d="m402.3 1450.7c1.3 0.4 1.7 0.7 1.8 1.8-1.5 0.9-4 0-4.2-1.7 0.7-0.4 1.3-0.5 2.4-0.1zm55.7 23.2c0.4 0.2 1.1 0.5 1.3 0.8 0.6 0.7 0.3 0.3 0.2 1.1-1.7 0.7-3.3-0.2-4.2-1.4 0.7-0.8 1.3-1 2.7-0.5zm-74.2-72.9c-1.3 1.2-4 0.3-4.2-1.4 1.2-0.9 3.7-0.4 4.2 1.4z"/>
		<path id="Path 114" fill-rule="evenodd" class="s3" d="m384.3 1426.6c1.6-1.1 2.7-0.3 4.4 0.8l-0.1 1c-1.8 0.1-3.4-0.1-4.3-1.8zm3.6-10.3c0-0.1-0.2-0.7-0.2-0.9-0.2-0.4-0.3-0.9-0.4-1.4 2.2 0.9 1.2 1.9 3.6 2.1-0.1 0.8 0 1.1 0.3 1.9l-2.9-0.9c-0.3-0.5 0 0.2-0.4-0.8zm10.1 10c-0.6-0.2-1-0.8-1.2-1.1-0.5-0.8-0.5-2 0.2-3 1.2 1.3 1.4 3.1 2.6 4.3-0.7 0.3-0.6 0.3-1.6-0.2zm0.1 5.2c0.4-0.5 0.7-0.9 1-1.8l1.1 1.4c-0.7 1.6-0.9 0.6-1.3 2.2-0.4-0.4-0.7-0.5-1-1-0.7-0.9-0.3-0.3-0.5-1zm2 98.7l-3.1-0.9c1.1-0.4 2.3-0.3 3.6-0.1zm188.3-88.3c2.7-25.4-0.3-19.7 43.4-34 6.9-2.2 14.3-6.3 17.6 2.3 4.4 11.6 5.5 6.4 14.3 11 3.4 1.8 15.6 14.6 19.3 19.3l21.4 24.2c1.4 1.6 1.8 1.8 2.9 3.2 11.7 14.2 5.5 6.1 19.3 18.3 8.5 7.5 18 18.7 25.5 26.4 2.1 2.2 5 3.9 3.7 8.8-1.2 4.6-19.3 12.6-23.6 14.3 7.8 5.2 51.6 9.9 64.2 11.2 47 4.6 98.2 5 145.5 3.4 10.5-0.4 66.2-4.4 71.1-3-2.5 1.3-10.8 1.5-14.2 1.7-73 5.3-181.2 6.4-248.8-7.2-12.8-2.6-18.1-5.8-24.5-2.4-4.7 2.5-15.6 9.6-21.8 8.6l-50.8-10.7c-6.9-1.6-18.8-6.1-24.8-4.2-5.3 1.6-19.1 4.9-21.9 8.7-1.9 2.6-10 17.4-13.2 18l-29.9-1.3c-5.1-9.6-3.1-2.6-9.5-7-3.8-10.2-2.4-11.7 0.6-20.1-3.1 2-3.8 3.1-6.9 5-20.8 12.5-64 14.4-69 10.7 1.9-0.7 25.1-0.4 30.5-1 9.3-0.9 19.4-2.8 27.4-5.9 33-13 20-28.5 23.8-43l8.5-2c1.7 2 2.9 5.4 6.9 4.6 3.8-0.8 2-4 1.6-6.8l8.5-2.7c-0.2-15.1 1.4-33.4 2.9-48.4zm11.1 107.3c1.4-2 4.5-6.2 5.6-8.4 4.5-9.1-3.4-14.4-6.8-17.9-2.2 2.4-7.7 13.1-9.5 16.5-2.2 4.2-1.5 4 0.7 8.7 1.4 3 2.7 6.4 4.4 8.8 2.3-2.3 3.6-4.6 5.6-7.7zm19.9-53c13.3 20.4 12.7 15.8 12.9 34.6 23.3 4.7 48.4 12.4 72.5 15.6-5.9-10.2-37.6-44.7-47.4-54.8l-16.4-15.4c-0.8-0.6-0.6-0.6-0.4-0.5-0.2-0.1-0.6-0.3-1.5-0.7-6.6 10.8-29.8 11-19.6-19l-27.4-30.2c-2.7 21.7-4.8 42.9-5.2 65.2 18.6 3 20.9-12.7 32.5 5.2zm-33.5 45.6l10.8-20-35.1-1.7c-2.9 6.4-6.3 11.7-8.7 18.9zm109.5-10.2c3.5 4.2 9.3 10.5 11.4 15 4-1 6.6-2.8 10.1-4.6l8.1-4.3c1.8-1.4 0.4-0.1 1.7-1.6-4.8-1-38.1-11.5-40.8-17.9-2.6 0.9 4.9 7.7 9.5 13.4zm7-5.3c6.1 2.7 12.2 4.7 18.6 6.8 10.3 3.3 9.2 2.2 17.9-2.4 10.9-5.7 22.2-8.2 11.2-18.8l-28.1-28c-10.9-8.7-8.6-5.9-17.7-17.4l-36.3-39.9c-3.1-3.1-3.2-3.8-8.6-5.4-13-3.6-7.6-7.1-13.7-14.2-6.1-1.4-21.3 4.8-27.3 6.7-8.6 2.7-18.5 5.4-25.1 9.8 0.9 2.2 4.6 6.4 6.4 8.3 1.4 1.4 1.9 2.3 3.2 3.8l10.8 12c2.3 2.6 5.1 4.8 7.5 7.3 7-2.2 10.8-0.4 15.1 3.4 6 5.1 4.6 7.1 4.8 16.1 5.4 3.3 17.8 16.2 22.7 21.3 10.1 10.5 7.3 9.5 19.3 19.3l2.8 3.2c3.4 0.5 11.9 6 16.5 8.1zm-127.7-7.2l14.9 0.7-5.9-12c-3.3 0.3-5 0.2-7.4 1.6zm0.1-10.9c-1.8-0.6-12-6.8-13.5-8-0.5 2.7-0.5 12.4-0.2 15.3 0.4 4.7 6.8 3.3 12.1 3.4zm30.3 19.8c1-0.9 0.6-0.3 1.5-1.7 1.7-2.8 1.1-4.1-0.2-6.5l-13.3-25.1c-1 1.1-7 10.4-7.2 11.5-0.5 2.5 4.6 10.5 5.7 13.7 6.7 0.4 7.2-1 13.5 8.1zm2.4-38.7c-4.1 0.7-9.7 2.3-12.8 4.3 0.8 2.3 12.4 25.3 13.4 26.5 1.4 1.7-0.6 1.7 2.4 1.2 4.4-0.8 1.6-1 1.6-2.7 0-3.7-1.2-5.6 3.2-6.4 9.7-1.6 6.3 6.4 14.7 3.4-1.5-4.2-9.8-15.7-12.6-20-2.1-3.4-4.2-7.3-9.9-6.3zm-39.7 7.5l-5.9 1.2c3.4 3.1 11.6 9.4 17.3 8.9 5.6-0.4 5.4-1.9 7.7-5.6 1.5-2.4 4.3-5.4 4-8.1-6.6-1.3-5.8-0.4-11.8 0.5 1.1 9.5-4.6 10.4-11.3 3.1zm51.3-34.6c-2 13.9 3.9 22 15.4 15.8 13.8-7.5-0.9-26.1-10.3-22.1-3.7 1.6-4.5 1.8-5.1 6.3zm-11.3 65.3c-0.9 3.7-0.4 6.3 0 10.1l23.1-6.9c0-4.1 0.6-10.7-0.9-13.5-6.3 2.5-0.4 4.7-7.2 8.6-6.5 3.8-8.1 0.9-10-3.7-3.4 1.2-3.9 1.3-5 5.4zm6.2-13.2c-1.3 2.6 1.1 10.1 2 10.8 4.8 2.3 9.4-2.4 9.5-7.2-2.2-2.4-6.5-5.5-11.5-3.6zm-56.7 37c16.7 5.7-11.7 5.4 35.2 6.7l-7.2-14.8-32.2-2.4c2.1 12.4 0.7 9.3 4.2 10.5z"/>
		<path id="Path 115" fill-rule="evenodd" class="s4" d="m585.5 1490.3l-8.5 2.7c0.4 2.9 2.2 6-1.5 6.8-4 0.9-5.2-2.6-6.9-4.6l-8.5 2c-3.8 14.6 9.1 30-23.9 43-8 3.2-18 5.1-27.3 6-5.4 0.5-28.7 0.2-30.5 1 5 3.6 48.2 1.8 68.9-10.7 3.1-1.9 3.9-3 6.9-5-2.9 8.3-4.3 9.8-0.5 20 6.4 4.4 4.3-2.5 9.5 7.1l29.9 1.2c3.1-0.6 11.3-15.4 13.1-17.9 2.8-3.9 16.7-7.1 22-8.8 6-1.9 17.9 2.6 24.8 4.2l50.7 10.7c6.2 1 17.1-6.1 21.9-8.6 6.3-3.4 11.7-0.1 24.5 2.4 67.5 13.6 175.8 12.5 248.8 7.2 3.4-0.2 11.7-0.4 14.1-1.7-4.9-1.3-60.5 2.7-71.1 3-47.3 1.6-98.4 1.2-145.4-3.4-12.6-1.3-56.5-6-64.2-11.2 4.2-1.7 22.4-9.6 23.6-14.3 1.3-4.9-1.6-6.5-3.8-8.8-7.4-7.7-17-18.9-25.4-26.3-13.9-12.3-7.6-4.2-19.3-18.4-1.2-1.3-1.5-1.6-2.9-3.2l-21.4-24.2c-3.8-4.7-15.9-17.4-19.4-19.2-8.8-4.7-9.8 0.5-14.3-11.1-3.3-8.6-10.6-4.5-17.5-2.3-43.7 14.3-40.8 8.6-43.4 34.1-1.6 15-3.2 33.2-3 48.3zm8.5 66.6c-1.8-2.4-3.1-5.8-4.5-8.8-2.1-4.7-2.8-4.5-0.7-8.6 1.8-3.4 7.4-14.2 9.6-16.5 3.3 3.4 11.3 8.8 6.8 17.8-1.1 2.2-4.3 6.4-5.6 8.4-2.1 3.1-3.3 5.5-5.6 7.7zm-7-65.9c0.3-22.3 2.4-43.5 5.1-65.1l27.4 30.1c-10.2 30.1 13.1 29.8 19.7 19 3.2 1.6 0.1-0.1 1.9 1.2l16.3 15.4c9.9 10.1 41.5 44.6 47.4 54.8-24-3.1-49.1-10.9-72.5-15.6-0.1-18.7 0.5-14.2-12.8-34.6-11.7-17.9-13.9-2.2-32.5-5.2zm-34 48c2.4-7.2 5.7-12.5 8.6-18.9l35.2 1.8-10.9 20zm132.9-20.7c2.7 6.4 36 16.9 40.8 17.8-1.3 1.5 0.1 0.2-1.7 1.6l-8.1 4.4c-3.5 1.7-6.1 3.6-10.1 4.5-2.1-4.5-7.9-10.7-11.4-15-4.6-5.6-12.1-12.4-9.5-13.3zm0 0l-2.8-3.3c-12-9.8-9.2-8.7-19.3-19.3-4.9-5-17.3-18-22.7-21.2-0.2-9 1.1-11.1-4.8-16.2-4.3-3.8-8.1-5.6-15.1-3.4-2.4-2.5-5.2-4.6-7.5-7.2l-10.8-12c-1.3-1.5-1.9-2.4-3.2-3.9-1.8-1.9-5.6-6.1-6.4-8.2 6.6-4.4 16.5-7.1 25.1-9.8 6-2 21.1-8.1 27.3-6.7 6.1 7.1 0.7 10.5 13.7 14.2 5.4 1.5 5.5 2.3 8.6 5.3l36.3 40c9.1 11.4 6.8 8.7 17.7 17.4l28.1 28c11 10.6-0.3 13-11.2 18.7-8.7 4.6-7.6 5.8-17.9 2.5-6.4-2.1-12.5-4.2-18.6-6.9-4.6-2-13.1-7.6-16.5-8zm-109.6-8.9c2.4-1.3 4.1-1.3 7.4-1.6l5.9 12.1-15-0.7zm-3 9.6c-5.4-0.1-11.7 1.2-12.2-3.5-0.3-2.9-0.2-12.6 0.3-15.2 1.5 1.1 11.6 7.3 13.4 7.9zm18.3 0.9c-1.1-3.2-6.2-11.1-5.7-13.6 0.2-1.2 6.2-10.4 7.3-11.5l13.3 25.1c1.2 2.4 1.8 3.7 0.1 6.5-0.8 1.4-0.4 0.7-1.4 1.7-6.3-9.1-6.8-7.7-13.6-8.2zm25.9-24.2c2.8 4.2 11 15.7 12.5 20-8.4 2.9-5-5.1-14.6-3.4-4.4 0.8-3.3 2.6-3.3 6.3 0 1.8 2.8 2-1.6 2.8-2.9 0.5-1 0.5-2.4-1.3-0.9-1.2-12.5-24.1-13.4-26.4 3.2-2 8.7-3.7 12.8-4.4 5.8-1 7.8 3 10 6.4zm-38.3-1.9c6-0.9 5.1-1.8 11.8-0.5 0.2 2.7-2.6 5.7-4.1 8.1-2.2 3.6-2.1 5.2-7.7 5.6-5.7 0.4-13.9-5.9-17.3-8.9l5.9-1.2c6.7 7.3 12.5 6.4 11.4-3.1zm45.1-37.8c9.3-4.1 24 14.6 10.3 22-11.5 6.3-17.5-1.8-15.5-15.7 0.7-4.5 1.5-4.7 5.2-6.3zm-11.5 66.2c2 4.6 3.6 7.5 10 3.7 6.8-4 1-6.1 7.3-8.6 1.5 2.8 0.9 9.4 0.8 13.5l-23 6.9c-0.5-3.8-1-6.5 0-10.1 1.1-4.2 1.5-4.3 4.9-5.4zm12.8-4.2c-0.2 4.8-4.7 9.5-9.6 7.2-0.9-0.7-3.3-8.2-2-10.8 5-1.9 9.3 1.2 11.6 3.6zm-72.4 22.8l32.2 2.5 7.1 14.8c-46.9-1.4-18.4-1-35.1-6.7-3.6-1.3-2.2 1.8-4.2-10.6z"/>
		<path id="Path 116" fill-rule="evenodd" class="s3" d="m728.6 1521.4c-12.4 4.8-35-14.9-15.9-21.7 15.8-5.5 30.7 16 15.9 21.7zm-0.5-1.4c13.2-5.5-2.3-24.3-15.7-18.6-16.1 6.8 6.3 22.5 15.7 18.6zm-64.2-71.8c-3.1 6.4-19.1 1.3-20.7-1.7-0.6-3.3-0.3-4.8 0.4-7.6 7.4-3.9 22.5-3.8 20.3 9.3zm-19.7-3.5c2.9 3.9 13.1 7.2 17.3 3.5 3.6-3.6 0.6-12.8-16.1-8.9z"/>
		<path id="Path 117" fill-rule="evenodd" class="s3" d="m660.6 1527.1c-8.9 0.9-20.3-14.3-9.4-19.6 8.8-4.3 19.2 18.6 9.4 19.6zm-10.6-17.6c-5.2 4.2 1.8 18.1 12.1 15.5 2.8-6.8-5.4-20.8-12.1-15.5zm-45.6-38.7c4.3-6.4-0.3-16.6-9.3-10.2-1 6.9 2.3 11.1 9.3 10.2zm-10-11.8c2.3-2.8 7.9-2.5 10.6 0 3.6 3.5 2.7 8 1.6 12.3-10.7 4.7-16-7.5-12.2-12.3z"/>
		<path id="Path 118" fill-rule="evenodd" class="s3" d="m670.4 1493c1.2-5.2 15.1-4 15.7 6.3-7.8 4.9-17.7 1.6-15.7-6.3zm5.8 6.9c3.7 1.3 6.2 0.1 8.3-1.8-1.1-4.5-6.1-7.8-12.1-5.8-1.3 3.9 0.6 6.5 3.8 7.6zm11.5-32.5c-7.6 4.1-14.2-9-5.8-13.3 8.8-4.5 12.6 9.7 5.8 13.3zm-3.4-0.7c5.8 1.4 7.5-8.9 2.6-11.6-4.1-0.7-4.5 0.1-7 2.4l-0.1 4.6c2.3 2.5 0.7 2.2 4.5 4.6zm-117.9 60.7c4.4-3.4 15.7 2.4 11.3 8-6.3 1.9-17.6-3.2-11.3-8zm3.6 6c3 1 4.3 1 7.3 0.7-0.7-5.1-5.4-7-10.3-5.3-0.5 3.1 0.2 3.7 3 4.6zm51.1-106.5c-0.1 0.1-3.6 2.6 1.7 4.6 2.4 0.9 5.1 1.1 7.8 0.7-0.5-4.1-4.9-7.4-9.5-5.3zm10.8 6.6c-3.4 0.7-5.8 0.6-9.5-0.6-4.2-1.5-4.1-2.9-3.3-7.2 3.8-3 14.5 0 12.8 7.8z"/>
	</g>
</svg>