<svg version="1.2" xmlns="http://www.w3.org/2000/svg" viewBox="0 0 1191 1684" width="1191" height="1684">
	<title>Carta</title>
	<defs>
		<clipPath clipPathUnits="userSpaceOnUse" id="cp1">
			<path d="m0 0h1191v1684h-1191z"/>
		</clipPath>
	</defs>
	<style>
		tspan { white-space:pre } 
		.t0 { font-size: 42px;line-height: 32px;fill: #cad2b2;font-family: "Engravers Gothic BT" } 
		.s1 { fill: #cad2b2;stroke: #cad2b2;stroke-miterlimit:22.92558479309082;stroke-width: 1.1 } 
		.s2 { fill: #f8cfc9;stroke: #f8cfc9;stroke-miterlimit:22.92558479309082;stroke-width: 1.1 } 
	</style>
	<g id="Page 6" clip-path="url(#cp1)">
		<text id="entre panes" style="transform: matrix(1.061,0,0,.943,781.443,1539.675)" >
			<tspan x="0" y="0" class="t0">entre panes
</tspan>
		</text>
		<path id="Path 148" fill-rule="evenodd" class="s1" d="m361.9 1201.7c21-7.1 43.8 4.2 50.9 25.2 7.2 21-4.1 43.8-25.1 50.9-21 7.2-43.8-4.1-51-25.1-7.1-21 4.2-43.8 25.2-51z"/>
		<path id="Path 149" fill-rule="evenodd" class="s1" d="m235.9 1493c21-7.2 43.8 4.1 50.9 25.1 7.1 21-4.1 43.8-25.1 50.9-21 7.2-43.8-4.1-51-25.1-7.1-21 4.2-43.8 25.2-50.9z"/>
		<path id="Path 150" fill-rule="evenodd" class="s2" d="m365.2 1172.5c1.3-3.4 0.2-0.8 1.8-3.3 9.7-14.6-3.2-19.8-1.1-26 2.8-8.1 8.9-15.2-3.9-27.9-8.7-8.7-1.4-21.7-11.6-28.8-4.9-3.5-10.2-0.2-13 3.2-5.3 6.4-2.3 7.5-2.4 15.7-24.9 21.8-4.4 26 1.7 33.3 8.5 10.3-11 32.3 17.8 38.1 0.8 11.2 5.5 35.7 8.6 45.5-0.2 0.2-0.5 0.3-0.7 0.4l-6.5 2.8c-2.3 1-4.5 1.9-7 3.5-14.8 9.2-20.1 21.8-16.9 40.4-10.2-0.5-20-1.1-30.3-1.4-5.2-0.1-9.3-0.7-14.5-1-3.7-0.2-3.4-0.4-6.4-1-12.4-2.7-2.8 13.2-3.6 19.2l-161 30.8c-5.1 34.9 6.2 36.5 26.8 41.7l-2.1 10.1c-4.5 0.8-10.1 2.5-13.1 4.5-4.3 3-5.7 4.7-5.6 11.3 3.5 3 5.8 4.6 10.4 6.9 4 1.9 8.6 2.9 12.3 5.1-6.7 1.3-13.1 2.9-19.5 4.3-6.7 1.5-13.6 2.6-20.3 4-3.3 10.4 0.7 10.4 0.4 17.7-0.1 4-1.8 4.7-2.1 19.8-10 7.8-27.1 16.9-36.6 29.8-9.4 12.7-16.5 30.7-9 50.2 20.3 52.8 123.5 78.7 176.6 86.9 107.1 16.6 251.5 9.9 341.9-36.7 23.2-12 62.1-37.3 57.1-73.4-4.4-31.5-39-54.3-65.7-66.1 2.2-2.7 14.1-14 14.9-16.1 1.5-4.2 0.6-24.1-0.2-29l-10.7-0.1c3.6-11.4 6.8-18.2 3.2-31.7 10-5.7 13.2-11.3 10.4-21.8-3-11.3-2.6-9.1-13.5-8.2-3.7 0.4-6.4 0.9-10.5 1.4 0.4-11.6-5.4-12.8-16.7-11.9 2.4-5.4 8.8-8.4 8.3-15.5-1.6-1.3-0.7-0.5-2.5-1.5l-2.7-1.6c7.2-8.7 14.9-17.2 23.3-26.8 7-8 5.6-6.1 3.5-18.6-0.7-4.2-1.4-16.8-2.8-18.6-8.3 2.8-30.4 5.7-40.7 7.6-40 7.5-82.9 14.2-122.5 22 3.9-18.3 1.2-8.9 7.9-20.2 9.1-15.2-1.3-24.8-10.8-23.7-5.6 0.6-5.2 3.3-9 4.7-1.1 0.4-20.7-1.1-23.7-1.8-1-8.7-1-17.1-2.1-25.9l-3-18.7c-1.8-5.7 0.6-2.1-2.6-3.6zm186.9 248.1c-11.1 0.8-8.6-2-16.3 4.6-3.7 3.1-8.7 5.7-11.8 9-2.7 6.7 12.6 11-3.3 22.6-9.8 7.2-12.8 6.4-25.2 10.1-11 3.2-5.6 15.2-11.4 23-4.5 6.2-14.8 5.1-21.9 13.3-7.4 8.7-8.9 37-28.8 40.7-26.7 5-31.6-17.1-53.7-15.1-23.9 2.1-30 2.4-56.1-9.4-8.4-3.8-12.9-9.5-21-13.4-8.1-4-18.1-5.2-28.9-6.1-11.4-1-12.3-7.7-28.7-5.1-13.2 2-12.3 7.3-29.4 3.8-14.2-3-39-15.8-44.9-25.1 22.4 0.8 46.4-3.5 65.5-14.6 2.9-1.7 4.8-3.6 7.5-5 11.6 21.5 31.2 39 56.3 49.5 33 13.9 84.6 16.7 118-7 7.6-5.4 5.2-4.9 15.7-10.3 5.4-2.8 31.1 7.1 65.9-25.5 4.4-4.1 8.7-8.8 11.7-15.3 4.3-9.3 2-13 2.4-22.3 4.8 1.1 17-3.1 22.8-5.4 3.5-1.4 7-3 9.8-4.7 3.2-1.9 6.6-5.3 8.9-5l0.6 1.7c0 0 1.2 4.8-3.7 11zm-10.5 38.5c3.2-5.3 16.5-15.6 22.6-24.2 19.2 4.4 63 33.9 65.9 63.6 6.1 63.1-110.9 94.3-154.9 102.8-103.9 20-247.8 16.2-339-22.4-30.3-12.8-60.7-28.9-73.7-55-11.7-23.4 0.6-47.8 17.3-61.4l4.6-3.8c5.4-4.2 13.4-10.8 20.5-13.3 4 15.1 2.6 1.8 1.7 18-0.4 6.7-1.4 16.2 3.1 19.5 3.1 2.3 28.1 9.4 34.2 11.6 10 3.5 8.8 16.1 35.8 32.7 10.5 6.5 7.7 3.3 12.7 10.1 3.6 5 8.4 5.2 14 8.8 9 5.9 20.6 22.5 49.9 12.9 10.4-3.5 5.9-3.8 18.5-2.4 6.6 0.8 14 1.7 20.7 2.1 56.5 3 26.6-4.6 80.4 10 10 2.8 26.9 7.5 37.1 8.7 15.2 1.7 25.5-24.2 40.6-27.8 28.3-6.7 60-16.2 80.7-33.5 6.9-5.8 17-14.2 20.1-25.6 3.8-14.3-6.7-23.9-12.8-31.4zm-387.8 38.9l53.8 18.3c-12.5-0.6-18.7-1.1-18.9 12.2-11.2-5-30.5-20.6-34.9-30.5zm425.2-106.5l1.1 6.2c0.2 12.3 1.6 16.3-3.9 21.2-14.1 12.6-32.4 33.5-48.6 49-10.5 10-22.2 22-32 32.3l-65.9 64c-2.5 2.4-5.4 5.1-8 7.5-4.6 4.1-6 3.1-13 1.6-9.3-2-17.9-4-26.8-6.4l-49.7-14.7c-16.8-4.9-33.2-11.7-49.4-16-0.1-19.4-3.4-21.5-10.2-33.5 7.3 0.4 16.1 1.6 22.5 3.6 13 4.1 40.7 30.9 78.6 25.7 9.9-1.3 14.1-2.6 21.8 2.6 26.5 17.6 50.5 22.1 63.6-16.8 8.6-25.5 19.3-14.4 27.7-25.3 4.1-5.2 2.9-15 6.2-19.7 3.3-4.7 24-4 35-18 7.5-9.5 0.9-12.5-1-19.7 9.3-5 12.4-10.9 17.8-11.3 13-1.1 12.4-2.4 14-14.8 0.3-0.2 0.7-0.6 0.8-0.3 0.1 0 16.2-2.6 19.4-17.2zm-367.3 121.6c-19.5-6.6-40.5-12.9-60.5-19.7-48.9-16.7-42.5-7-40.6-36.3 11.3 9.6 28.3 13.4 43.9 15.2 7.5 0.8 11.3-0.3 15.8 4 12.7 12.2 29.6 23.5 53.1 26.3-3.1 4.1-7.8 5.4-11.7 10.5zm70.3 26.5c9.3 2.3 48.8 16.3 52.4 16.5-21.9 1.9-43.5-3-63.9-2.8 3.5-6.2 8.7-2.8 11.5-13.7zm-33.5-91.4c2-0.5 6.7 1 10.4 1.9 5.4 1.4 4.5 1.5 7.3 5.1 9 11.1 30.3 24.2 44.8 29.9 27.1 10.5 56.6 12.1 86.8 4.3-3.6-2.5-8.1-0.3-14.4 0.5l-23.5 1.4c-36.5-0.1-77.1-19.6-93.3-39.2l153.7 38.1c-0.2 0.1-0.4 0.4-0.6 0.6-9.1 9.6-30.3 16.2-42.9 18.4-18.6 3.4-40.9 1.3-57.8-3-18.7-4.9-31.2-11.1-43.7-20.7-7.6-5.8-27.7-25.3-28.6-34.8zm190.6 33.7c2.9-3.3 5.9-5.5 8.8-8.6 15-16.3 11-6.1 30.2-19.7 21.8-15.5 20.5-31.7 27.5-38.8 5.6 6.6 7.4 18.5 3.2 28-8.7 19.8-46.1 44-69.7 39.1zm-193.6-34.4c-20 18.3-47.5 23.9-83.9 22-13.8-0.7-33.6-4.8-43.5-10.6-5.8-3.4-9.1-9.3-10.1-16-0.5-3.7-2-4.2-1.3-10.7 0.3-3.3 1.5-6.9 1.9-10.6 28.9 4.1 57 10.6 87 14.9l27.6 5.9c-10 1.4-18.9 4.3-30.4 5.1-19 1.4-43.5-2-60.2-9.4-16.1-7.1-12.7-7.2-21.7-12.1 1.4 6.6 18.3 14 26.2 17 10.3 4 22 7.1 34.8 7.8 36.5 2.2 49.1-7.9 57.1-7.5 4.4 0.2 13.5 2.2 16.5 4.2zm-137.2-40.8c11.1-3 23.6-4.6 35.1-7.4 9.7-2.3 8.4-1.5 17.5 1.2 47.6 14.1 101.8 21.8 152.6 36.3 5.8 1.7 12.1 2.7 17.4 4.5 5.8 1.9 7.7 6 11.5 9.3 14.3 12.5 24.6 0 29.6-1.4 1.2-0.3 30.8 3.6 37.8 3.6 17.7 0 21.4-2.8 31.8-10.8 15.2-11.8 50.3-44.8 66.9-59.7 26.6-23.8 19.8-19.4 41.6-42.6 3.3-3.5 5-8.3 11-9.8 3.9-1 14.4-2 18.9-1.6 1.4 2.3 2.4 6.2 2.8 8.7 1 5.4 0.9 5.1-2.1 8.4-7.4 8.4-26.3 23.4-35.4 30-21.5 15.5-74.8 68-90.5 86l-21.8 19.9c-0.1 0.1-0.4 0.3-0.6 0.4-2 1.8-1.3 4.8-7.9 4.4l-205.2-48.5c-18.4-4.2-106.6-16.2-110.5-20.1-2.1-4-2.2-6.5-0.5-10.8zm345.2 139.4c2.5-3 7.5-7.8 10.7-10.8l74.3-74c27.6 22.3 6.1 44.2-13.8 57.6-9 6.1-22.1 12.6-33.4 16.4-9.9 3.4-28.1 9.8-37.8 10.8zm-256.6-27.7c2.7 6.3 3.9 12.5 2.3 19.8-4-1.7-6.3-4.2-7.4-8.7-1.6-7.2 0.1-9.5 5.1-11.1zm73.5-117.4c-7.4-4.1-23-0.8-33-1.2-17.1-0.6-13.7-7.1-11.4-19.7 6.1 0.7 15.1 3.7 21.6 5.4 33.7 8.7 71.3 19.3 104.8 27.1 14 3.3 27.4 7.8 42.1 10.8-4.3 7.8-30.6 31.8-42.6 29.1-9.2-2.1-21.4-19.9-26-28-13.9-24.3-15.5-10.6-34.5-9-14.2 1.2-12.4-9.7-21-14.5zm308.6-9.6c-6.3 2.3-1.6 11.3-20.9 14.6 0.7-4.8 2.3-3.3 8.3-11.5 2.7-3.8 5.6-6.2 10.5-5 2.4 0.6 2.7-1.8 2.1 1.9zm-180.8 33.3c26.8 4.4 23.2 14.3 42.5-8.4 2.8-3.3 1.2-2.4 5.4-3 12.8-2 19.1-1.1 23.3-13 3.2-9.2 2.9-19.7 12.1-23.2 10.3-3.8 17-3.1 25.3-9 16.9-11.8 7.3-29.4 26.6-44 3.9-3 5.7-6.4 11.3-6.8 7.4-0.7 10 0.5 13.6 4.2-0.5 5.4-12.7 18.4-16.8 23.1-21.9 25.4-76.5 73.1-101.7 94.6-8.6 7.3-13.9 10.2-29 10.5-7.9 0.1-28.4-1-33.8-4.2 2.2-2.3 3.2-2.7 5.8-5.2 2-2 3.3-2.9 5.5-4.8 3.5-3.1 7.5-7.2 9.9-10.8zm28.2 1.3c0.4-26.6-7-22.3 4.1-34.5l138.1-152.9c0.2 0.2 0.3 0.6 0.4 0.8 0.1 0.2 0.2 0.5 0.3 0.8 0.1 0.2 0.2 0.5 0.3 0.8 0.2 0.5 0.5 2.1 0.6 2.6 1.7 9.2 3.9 16.7 0.4 21.1-1.5 2.1-3.3 3.6-4.9 5.5l-44.4 51.2c-23.6 27.6-50.9 56.3-74.3 83.4-2.8 3.3-7.3 7.4-10.1 10.7-3.2 3.9-6.4 7.9-10.5 10.5zm-307.4-108.3c13.1 2.3 65.2 18.9 84.2 23.2 20.8 4.8 44 12.4 66 17.7 37.8 9.1 76.2 20.5 114 30.5 37.2 9.8 37.4 5.9 38.5 17.7l1.6 20.3c-11.2-1.3-168.4-43.4-188.6-48.5l-46.9-12.2c-14.8-3.9-8.8-2.2-10.6-5.7-5.3 1.8-3.2 2.3-9.9 0.2l-31-8.4c-20.3-5.4-17-7.6-17.3-34.8zm21.8 53.4c4 6.9 5.7 7 14 4.3 5.8-1.9 9.6-3.9 15.1-6-5.4 23.7 15.3 12.5 26.8 7.3 9.6-4.3 16.8 0.3 26.2 2.2-5.2 21.4-1 25.2 28 23.9 25.2-1.2 15.9 1.3 28.1 12.6 10.1 9.3 23.2-1.7 32.2-1.7 5.7 0 8.1 6.2 10.7 10.6 2.9 4.8 5.6 8.4 8.1 13-18-3.4-34.1-8.8-52.9-12.9-17.4-3.8-34.6-8.6-53.1-12.2-21.5-4.2-91.9-18.9-98.8-31.1 1.4-6.3 9.3-9 15.6-10zm367.6 41.2c16.4-19.7 20.1-10.7 36.5-22.7 15.7-11.4 15.6-18.6 19.8-24.8 1.5-2.2 5.8-5.7 8.1-6.6 0.6 21.8-5.5 33.3-17.5 43.9-8.9 7.9-26.5 18.5-42.8 17.4zm-101.9-147.4c10-0.3 29.2-4.7 40.3-6.7 13.2-2.4 26.5-4.8 39.5-7.2 25.2-4.5 52.7-10.5 79.2-14.3l-141.1 157.1c-4.2 3.6-11.1 0-15.7-1.2-5.1-1.5-10.8-3.1-16.3-4.5l-200.5-53.8c-11.2-3.1-22.4-6.3-33.6-9.1l-32.4-9.6 153.2-27.3c13.8 43 64.5 49.5 104.3 43.6 20.6-3.1 40.4-9.4 56.9-17.8 32.3-16.5 28.8-41.9 23.4-45.3-4.3-2.7-53.3-1.2-57.2-3.9zm54.4 195c4.1-5.7 34-35.5 37.2-37.4-2.7 12.9-26.4 35.1-37.2 37.4zm-262.9-87.2c-5.4 2.3-12.6 6.1-18.1 7.2-12.9 2.6-7.4-7.5-5.1-13.6zm249.2 37.4c1.7-2.9 4-4.5 6.2-7.2l17.4-19.4c-6.3 18.1-1.2 23.7-23.6 26.6zm31.5-35.5c4.2-6.2 11.7-12.9 17.3-19.4l33.9-38.8c8.4-10.1 12.8-17.9 19.5-15.7 0.2 5.4-12.1 16.3-16.7 19.6-7.8 5.6-11.3 9.7-15.1 21.2-9.9 29.7-8.7 22.8-38.9 33.1zm-134.3-93.3l4.1 0.3c-1.8 6.8-6.7 8.6-5.1 18.6 6.1 7.2 26.6 8.7 38.6 6.5 21.1-3.8 9-19.4 19.7-26.3 2 6.4 2.5 12.4 7.1 16.5 7.8 1 12.9-5.9 18.3-9.5 3.4-2.3 5.2-3 8.4-5.2 1-0.7 3.3-2.6 3.8-3.6 1.6-3.4-0.4-4-0.4-4-2.2 4.7-1.2 3.9-5.7 6.4-11.1 6.1-16.9 12.9-23.5 13-3.2-6-2.4-14-8.2-17.1-13.1 4.8-3.6 23-18 26-9.4 2-31.8 1.7-37.2-3.6-3.2-4.4 2.5-12.3 4.2-16.7 25.6-1 36.9 2.2 53.4-13.4 2.5-2.4 6.1-1.6 13.2-1.2l43.4 3.2c9.3 2.2 1.3 22.2-5.7 29.3-23.3 23.7-109.1 43.8-149.4 16.9-11.6-7.8-28.2-27.4-27.4-49.1 15.4 3.9 38.7 1 55 2.8 5.5 6.1 4.4 5.7 11.4 10.2zm183.4 113.5c1.3-2.1-0.3-0.2 2.1-2.6l30.1-24.1c-3.2 8.3-21.1 24.2-32.2 26.7zm-357.7-29.2c-5.4 2.5-11.7 5.8-18.8 7.5-10.4 2.5-6-7.5-5.2-13.9 3.4 0.2 20.4 4.1 24 6.4zm237.5-118.4c-2.7 19.1-9 27.1-27.3 30.8-12.3 2.5-38.3 5.6-43.3-6.7-1.2-3-4.4-4.2-4-12.6 0.9-18.9 19.7-31 37.1-34.5 5.2-1 17.4-1.4 23.1 0.3 2.8 0.8 1.5 0.5 2.3 0.9-8.5 18.8 2.2 14.5 12.1 21.8zm2.5-2.1c-3.7-1.7-13.7-6-14.4-10.5-0.2-1.4 1.1-12.2 8.9-14.5 0 7.1 1.7 19.1 8.7 17 0.1-2.8-1.9-1.5-4-7-1.1-3.1-1.7-7.1-2.4-10.2 5.7 0.3 11.6 5 10.7 11.3-0.7 4.3-5.8 11.2-7.5 13.9zm-44.9-72.6c0.6 18.1 3.9 31.4 4.9 43.9 0.1 1.8 0.2 1 0 2.7-0.3 2-0.1 1.2-0.8 2.5-6.8 1-4.3-3.8-7.4-21-1.5-8.3-3.8-16.2-5.2-24 0.2-0.1 0.6-0.3 0.7-0.4zm-9.1-66.5c0.7 14.7 19 11.6 8.2 35.5-2.9 6.4 0.5 6.5 2.5 11.8 7.5 20.4-29.1 32-25-1.1 2.1-16.9-1.9-14.5-10.7-21.4-9.5-7.4-2.6-16.3 3.2-21.5 9.8-8.8-6.3-11.3 8.3-20.6 2.2-1.4-2.8-0.6 3-1.5 8.6-1.4 10.1 12.6 10.5 18.8zm-156.3 411.2c13.7 0.9 6.3 0 22.4-10.1 6.2-3.9 14.1-8 22.7-9.2 31.2-4.2 38.6 26.6 34.8 41.8-2.3 9-33.3 26.9-58.3 13.3-8.9-4.8-9.5-9.6-20.3-13 5.4-11.8 1.2-12.8-1.3-22.8z"/>
		<path id="Path 151" fill-rule="evenodd" class="s2" d="m127.6 1407.3c5.4 3.2 89.4 19.9 102.6 22.7 12.5 2.6 100.1 21.4 104.5 18.7-4.2-1.9-19.4-4.3-25.3-5.6-25.1-5.3-171.5-37-181.8-35.8z"/>
		<path id="Path 152" fill-rule="evenodd" class="s2" d="m425.1 1472.5c4.3-1.7 15.4-14 19.5-17.9l47.3-45.2c3.3-2.7 6-5.6 9.4-8.3 6.6-5.2 12.8-11.5 20.5-16.9 11.8-8.2 54.3-43.3 56.3-52.6l-38.6 34.9c-38.9 31-41.8 31.1-79 68.6-5.3 5.3-33.4 32.3-35.4 37.4z"/>
		<path id="Path 153" fill-rule="evenodd" class="s2" d="m364.1 1313.6c23.5 0 37.8-5 55.9-12.5 8.6-3.5 39.2-21.1 41.3-26.5-3.2 0.4-14.5 9-18.9 11.5-6.9 3.8-12.4 7.2-19.6 10.5-80.8 37.8-130.7-12.7-138.1-15.2 4.9 7.3 22.5 18.4 32.2 22.3 15.6 6.3 27.8 10 47.2 9.9z"/>
		<path id="Path 154" fill-rule="evenodd" class="s2" d="m344.3 1281.3c-5.9 2.3-21.3 15.4-32.3 4.5-4.3-4.3-2.8-5.7-2-11.5-2.6 1.1-3.4 1.7-3.7 5.3-0.6 7.8 7.1 13.1 13.5 13.9 9.2 1.2 22.4-6.3 24.5-12.2z"/>
		<path id="Path 155" fill-rule="evenodd" class="s2" d="m359.2 1154.5c1.4 1 1.3 0.8 2.5 1.9l-1.7 5.8c-9.2 0.1-9.7-8.2-12.5-12.5-2.3 4.3 1.2 10.5 4.1 13.5 4.8 5.2 8.8 2.5 12.4-0.6 0.7-7.5 0.5-11.9-7.4-9.9z"/>
		<path id="Path 156" fill-rule="evenodd" class="s2" d="m351.4 1127.8c-1.2-0.7 2.2-2.4-4.7 0.2-11.5 4.3-8.1-6.2-11.7-11.2-4.8 6.9 2.8 24.1 16.4 11z"/>
		<path id="Path 157" fill-rule="evenodd" class="s2" d="m356.3 1142.9c6.1-1.6 8-6.6 7.1-11.3-0.8-4.4-2.7-5-5.7-7.8l-3-2.6c0 0.1-3.3-0.2 1.5 5.2 8.2 9.2 2.9 9.5 0.1 16.5z"/>
		<path id="Path 158" fill-rule="evenodd" class="s2" d="m384.8 1236.6c-3.8 0.8-6.6 2.7-9.9 0.9-3.9-2.1-3.3-3.9-8.4-6.3 0.9 4.2 3.6 8.5 7.1 9.7 3.7 1.4 9.5 1.2 11.2-4.3z"/>
		<path id="Path 159" fill-rule="evenodd" class="s2" d="m213.7 1528.5c-1.9 5.1-6.8 7.4-3.9 12.2 3.8-4.1 6.8-8.3 6.7-14.4-2.2-2-2.4-3.3-5.9-3.9z"/>
		<path id="Path 160" fill-rule="evenodd" class="s2" d="m224.8 1516.2c4.4 4.7 14.2 4.5 16.5-2.2-6.8 0.2-1 2.6-12.8 1.6z"/>
		<path id="Path 161" fill-rule="evenodd" class="s2" d="m345.1 1108.5c5.7 0.6 6.5-11.4-1.4-12.4 0.3 3.7 1.7 2.6 2.2 6.1 0.4 3-1.3 3.4-0.8 6.3z"/>
		<path id="Path 163" fill-rule="evenodd" class="s2" d="m964.7 257.1c-3.3-3.1-7.3-6.6-10.6-10.8-18.5-24.1-23.8-53.4-11.7-79.8 0.6-1.4 1-2.4 1.6-3.7 0.8-1.5 0.9-1.5 2-2.9 1.4-1.9 2.4-4.3 5.3-5.5 4.2-1.8 5.1 0.5 6.1 4.3 3.9 14 1.8 26.2 9.2 49.2 5.3 16.5 13 30.9 22.5 44.6 1.7 2.4 8.8 10.2 7.9 12.6-4.1 5.9-57.1-19.2-47.7-94.2 0.8 0.5 0.9 0.5 1 0.5-0.1 0-0.2 0.2 0.1 1.1 0.5 1.7-0.2 3.9-0.2 5.6-0.1 2.3-0.1 4.8-0.1 7.1-0.1 5.3 0.2 10.1 0.7 15.4 1 10.1 3.6 21.4 8.2 30.2 6.4 12.2 20.3 30.5 35.8 33.2-1.1-2.1-2.8-4-4.2-5.6-9.9-12-17-26-23-40.5-3.7-9-6.9-20.2-8.5-29.9-1.3-8.3-2.2-25.2-5.2-31.8-9.6 1.8-32.4 51.7 5.2 92l9.3 9.2 22.5 12.8c10.1 3.5 26.5-15 32.7-21.7l12.8-14.9c1.1-1.5 2.7-3.2 4.2-4.6 3.4-3.2 9.6-6.3 11.7-0.8-1.8 7-12.8 8-17.8 13.2l-27.3 29.6c-0.6 0.8-0.7 1-1.3 1.9-3.2 4.8-3.5 3.7-9.1 12.7-1.2 2-1.2 2.3-2.1 4.2 13.8-2.6 17.7-12.2 32.3-7.1 5.2 1.9 9.8 6.2 13.3 10.5 11.3 13.7 11.8 37.8 1.9 47.7-12.9 13-31.9 12.8-44.4-0.7-8.6-9.3-13.4-23.5-10.6-36.9 0.7-3.6 2.8-7.4 3.5-10.8-1.3-1.1-3.3-1.3-4.7-1.9-7.4-3.4-3.5-7.5-13.5-4.8-4 1-7.1 3.9-8.8 6.1-0.7 0.8-0.9 1.4-1.5 2.2-0.6 0.9-0.8 0.9-1.5 1.8-0.9 1.1-1.6 2.8-1.9 4.2 4.2 2.8 7.6 3.3 12.5 7.1 2.3 1.8 7.4 7.8 9.5 11 6 8.8 10.9 19.3 12.7 31 1.4 9.5-1 15.3-5.9 22.4-1.3 1.8-3.1 3.2-5.6 4.7-2.8 1.8-5.2 1.9-7.5 3.3-2.5 1.4-3.2 2.7-6.9 3.8-15.7 4.8-28.6-9-36.3-22.6-5.9-10.6-8.1-21.6-7.6-34.1 0.5-11.2 5.5-18.9 15-23.9 6.7-3.6 14-2.1 16.8-3.3l8.1-11.1c-15.7 1-28-4.8-43.8-2.1-7.9 1.3-15.6 4.3-23.3 6.1-25.6 6.1-44.9 9.4-71.5 7.1-2.9-0.3-38.6-4.9-39.8-8-2.4-6 20-8.2 22.4-8.7 25.9-5.7 50.9-11.4 77.3-10.7 15.3 0.4 30.7 1.7 44.8 4.5 10.6 2.2 19.7 6.5 30.3 8 5.4 0.8 6.1 1.3 10.7-2.2l-2.6-0.9c-1.1-0.1-1.7-0.1-2.7-0.3l-16-3.2c-6.9-1.6-13.5-3.3-20.5-4.7-7.3-1.6-14.3-2.3-21.5-3.6-7-1.3-13.8-3.2-20.3-5.2-6.7-2.1-12.5-4.7-18.7-7.4l-13.4-6.8c-1.6-1-2.4-1.2-4.1-2.4l-7.6-6.2c-2.5-2.3-4.6-4.4-6.9-7.1-2.9-3.3-11.2-13.1-11-18.3 1.2-2.1 1.7-2.5 4.7-3.4 13.6-3.7 28.2 3.2 39.7 8.4l43.7 21.5c8.8 4.8 19.5 11.3 27.4 16.8 13.6 9.6 32.2 17.2 49 12.6zm-3.1 118.4c-1.8-1.2-2.6-1.3-4.1-3-28.5-30.8-4.7-64.7-3.9-70.2-4.5-1.4-11.6 0.7-15.8 3.2-4.6 2.8-7.4 6.8-9.2 10.3-6.3 12.4-1.9 33.9 6.6 47 7.8 12.1 19.7 24.6 36.5 17-2.6-1.6-4.8-0.3-10.1-4.3zm51.4-86.6c1.5 0.9 2.4 1.5 3.6 2.4 8 6 10 20.5-0.1 24.6-9.1 3.7-24.5-6.8-15.5-25.5-7.4 1.5-7.8 1.6-9.5 5.7-12.3 28.5 14.7 63.2 42 49 6.8-3.5 11.1-9.6 12.6-16.4 1.8-8 0.6-17-2.6-24.8-1.4-3.5-3.5-7.4-5.8-10-7.4-8.3-20.2-14.9-29.1-6.8 1.1 0.7 3.3 1.2 4.4 1.8zm-59.9 21.3c5.8-1.1 9.2 0.2 12.5 2.4-1.5-5-5.2-8.3-8.8-9.3-1.7 1.3-3.4 4.3-3.7 6.9zm12.9-0.8c3 5.6 0.1 2.3 6.2 12 10.6 16.8 13.8 37.9 5 54.9 6.9-2.4 11.1-8.1 13.3-14.7 5.8-17.9-13.5-51.8-27-56.4 0.7 1.7 1.7 2.7 2.5 4.2zm-3.1 19.4c4.5-0.6 6.1-6.7 4.4-10.7-1.3-3-7.1-7.2-10.8-6.8-4.9 0.7-7 6.8-4.4 11.8 1.5 2.9 6.7 6.2 10.8 5.7zm57-29.5c-3.4-7.4-15-15.6-18.7-3.4-0.9 2.9-0.9 6.5 0.2 9.8 5.2 15.4 25.6 9.2 18.5-6.4zm-32-10.2c5.1 2.3 5.3-2.2 7.2-4.8 2.1-2.9 3.3-5.3 5.3-8.2 1.9-2.6 4.5-4.7 5.7-7.6-8.4 4.1-16.4 10.7-25.7 14.4 1.1 2.1 5.6 5.3 7.5 6.2zm-198.8 2.6c24.7 6.9 58.6 8.3 83.5 4.1 16.3-2.7 30.3-8.9 44.6-11.3 23-3.9 30.9 3.2 40.5 1.6-12.9-1.5-21.5-8.3-50.7-10.5-41.7-3.2-53.2-1.4-91 7.3-6.1 1.4-26.3 3.3-29.1 7.7zm260.7-64.9c-5.6-0.7-10.6 6-13.2 10.3 4.9-2 15.1-5.7 13.2-10.3zm-84.9 46.9c-18-5.5-25-12.4-38.5-20.2l-6.8-4.5c-12.3-7.5-59.9-30.9-71.3-33.9-3.5-0.9-24.4-4.1-20.7 4 3 6.4 9.9 14.1 14 18.3 9.3 9.6 24.4 17 37 22 18.4 7.3 26.5 7.4 45 10.9l45.9 9.6c4.9 0.9 7.4 2 12.1-0.4 2.1-1.1 9-4 10.2-5.9-9.8 1.6-17.9 2.9-26.9 0.1zm-16.2 80.9c2 5.3 5.1 9.8 8 13.7 1.5 2 3.3 3.7 5.1 5 0 0 0.2 0.1 0.3 0.2l6 2.9c3.1 1 5.5 1.7 7.4-1 12.1-17.3 1.5-47.3-5.5-54-1.4 1.8-0.2 4.4-2.7 7-4.3 4.3-15.8 2-18.4-7.2-4.2 7.8-3.8 23.9-0.2 33.4z"/>
	</g>
</svg>