<svg version="1.2" xmlns="http://www.w3.org/2000/svg" viewBox="0 0 1191 1684" width="1191" height="1684">
	<title>Carta</title>
	<defs>
		<clipPath clipPathUnits="userSpaceOnUse" id="cp1">
			<path d="m0 0h1191v1684h-1191z"/>
		</clipPath>
	</defs>
	<style>
		tspan { white-space:pre } 
		.s0 { fill: #cad2b2;stroke: #cad2b2;stroke-miterlimit:22.92558479309082;stroke-width: 1.1 } 
		.t1 { font-size: 42px;line-height: 32px;fill: #cad2b2;font-family: "Engravers Gothic BT" } 
		.t2 { font-size: 34px;line-height: 32px;fill: #cad2b2;font-family: "Engravers Gothic BT" } 
		.s3 { fill: #f8cfc9 } 
		.s4 { fill: #ffffff } 
		.s5 { fill: #f8cfc9;stroke: #f8cfc9;stroke-miterlimit:22.92558479309082;stroke-width: 1.1 } 
		.s6 { fill: #f8cfc9;stroke: #f8cfc9;stroke-miterlimit:22.92558479309082;stroke-width: 1.5 } 
	</style>
	<g id="Page 11" clip-path="url(#cp1)">
		<path id="Path 402" fill-rule="evenodd" class="s0" d="m414.1 1360.1c19.7 0 35.7 16 35.7 35.7 0 19.7-16 35.6-35.7 35.6-19.7 0-35.7-15.9-35.7-35.6 0-19.7 16-35.7 35.7-35.7z"/>
		<text id="BEBIDAS " style="transform: matrix(1.061,0,0,.943,668.071,1537.204)" >
			<tspan x="0" y="0" class="t1">BEBIDAS 
</tspan>
		</text>
		<text id="con alcohol" style="transform: matrix(1.061,0,0,.943,819.895,1559.846)" >
			<tspan x="0" y="0" class="t2">con alcohol
</tspan>
		</text>
		<path id="Path 405" fill-rule="evenodd" class="s0" d="m347 1179.8c27.1 0 49 21.9 49 48.9 0 27.1-21.9 49-49 49-27 0-49-21.9-49-49 0-27 22-48.9 49-48.9z"/>
		<path id="Path 413" fill-rule="evenodd" class="s3" d="m369.9 1094.6c29.1 2.5 56.9 3.5 84.3 11.3 19.5 5.5 16.7 5.8 27.6 19.4 5.3 6.8 18.2 15.3 20.6 25.8 7.6 32-106.3 33.2-127 19.9l-8.1-6.9c-0.4-0.4-0.9-0.9-1.3-1.3l-2.9-2.7c-0.3-0.4-1-1-1.5-1.5-1.4 11.8-5.6 22.3 6.6 28.6 50.2 25.7 63-7.9 106.4 2.3 12.8 37.6-21.4 59.1-34.6 75.4 13.4-5 20.3-10.7 30.1-22.7 11.5-13.3 22.5-58 14.1-22.4-2.8 13.3-9.5 26-25.3 40.6-24.1 16.5-60.1 30.2-93.9 37.6-25.7 5.7-31.5 3.5-32 30.8-0.3 21.6-1.5 43-2 64.6-0.4 19.1-2.1 46.2 0.3 64.6 3 21.9 25 23.4 23.4 42.9-10.7 3.7-24.2 1-36.1 0.3l-11.8 2c24.8 11.7 116.7-8 132.4 28.7-7.2 35.5-104.7 29.3-140 27.9-28.6-1-153.9 3.7-168-2.1 10.5-8 114.4-1.8 137-3.3-23.3-4.8-46.3-23.3-15-35.9-0.3 8.1 0.5 2.7-5.6 9.9 15.4 14.1 69.6 17.2 95.2 21.9 28.3 5.3 17.7 8 51.2 2 16.6-3 35.4-6.2 39.9-20.4-13.4-23.2-74.6-20-101.9-20.2-15.8-0.1-30.6 2.1-31.1-14 19-4.3 28.4 2.7 49.1 0.5-4.4-18.5-20-17.1-23.3-35.6-5.7-32.5-0.4-83 0.7-117 0.8-22.3-4.1-35.3 12.4-47-70.2-1.5-168.5-36-175.9-113.7-1.8-18.9 6.1-40.6 14.8-53.6 31.9-47.9 134.1-32.2 184.7-37.7 5.3-26.1 8-52.8 12.2-78.9 2.1-13.2 4.5-26 7.3-38.6 3.6-15.8 3.5-30.3 21.7-26.6-0.5 18-31.3 95.9-34.7 145.1zm99.8 99.3c-17.4-4.8-48.6 6.7-67.7 9 7.9 23.3 13.6 40.1-4.5 59.1-12.7 13.4-30.9 23.9-57.8 24.8-25.2 0.9-48.6-8.8-62.6-20.4-27.9-23.3-16.6-46.9-16.2-60.7-27.1-1.1-79-6-91.5-21.6 3.3 73.5 140.6 149.7 253.1 84.8 21.9-12.6 62-47.9 47.2-75zm-202.6 13.4c-23.6 69.5 80.3 94.9 120.5 57.3 21.2-19.9 19.4-46.4 11-56-5.6-6.4-10.4-3.6-21.9-2.6-36.5 3.4-77.8-2-109.6 1.3zm-68.8-88.6c-16.7 9.1-28.3 34.1-29.1 56.8 14.8-7.6 65.2 5.4 87.6 7.2 26.5 2.1 24.1 2 46.9-4.7 14.6-4.3 33.1-6.6 45.7-2-8 23.3-59.8-0.3-76.9 25.3 22.4 2.5 94 3.7 113.7-1.3-8.3-7.6-22.8-4.9-28.8-14.5-5.6-9.1-0.4-29.2 0.4-40.3-48.3-0.2-122.6-1.7-162.7-15.8 0.8-9.5-1.6-3.6 3.2-10.7zm142.1 59.8c-11.2-0.9-23.1-0.1-30.7 3l23.5 0.2c8.2-2.1 5.6-2.2 7.2-3.2zm137.5-49.3c-69.4 22-60 9.1-111.8 17.1 2.5 33.5 51.6 28.3 82.6 25.8 49.5-3.9 66.8-12.8 29.2-42.9zm-8.6-3.2c-17.5-9.6-81.1-15.5-102.5-11.6l-0.9 25.1c21 3.6 90.9-1.8 103.4-13.5zm-107.8-12.9c-18 0-138.1-1.1-155.5 8.4-5.7 3.1-2-0.3-5.9 5.3 32.9 7.8 123.4 17 158.7 12.8zm-84.2 75.4c-21.1-0.3-94.5-12.9-103.3-9.8 4.7 16.5 63.7 21.2 80.1 22.1 8.4 0.5 13.3 2.5 23.2-12.3zm-78.9-69.8c27.1-11.3 91.9-10.3 126.1-10.3 33-0.1 35.1 4.1 38.4-6.2-6.5-4.6-14.1-3.7-23.2-3.8-41.6-0.6-107.9 2.2-141.3 20.3zm274.5 2.3c-14.5-13.9-77.7-24.8-104.2-20.1v7.2c43.7 3 63.2 3.6 104.2 12.9zm-73-168.3c-14.6 8.6-16.1 36.4-16.3 51.2zm-66.5 601.5q1.2-0.1 1.9-0.3-0.9 0.2-1.9 0.3zm-90.8-21.5c13.5 22.5 61.4 25.7 90.8 21.5-14.8 0.9-79.1-15.3-90.8-21.5z"/>
		<path id="Path 414" fill-rule="evenodd" class="s4" d="m517.7 1430.3c-3.6-3.9-5-8.6 0.3-12.1 2.6 3.9 3.1-5.8 1.4 7.1-0.1 0.6-1.4 4.2-1.7 5z"/>
		<path id="Path 415" fill-rule="evenodd" class="s5" d="m1046.6 370.6c-14.7 5.9-14.9 6.2-33.4 3.1-35.6-6.1-45.5-46.6-12.9-65 22.2-12.6 31 1.9 38.5-16.9 5.6-13.8 5.5-35.9-2.6-46.7-11.5 15.3-22 27.5-36.1 40.3-13.3 12-30.5 21-44.1 33 9.1 14.9 16.3 29.3 1.3 44.4-25.8 26.1-64.3 0-67.6-1.6 0.3-0.1-0.5-0.8-0.7-3.6-4.7-9-9.9-15.5-7.8-29.5 1.4-9.4 8.6-19.6 16.7-21.7 11-2.9 6.9 2.6 16.5-3.5 14.6-9.3 28.8 7.6 40.6 12.4 4.4-4.6 19.8-14.5 25.5-18.7 9-6.5 15.5-12.7 23.5-19.6 7.2-6 15.2-15 21.5-23.2 17-22 5.2-10.7 7.3-32.5 13.1-1.2 11.6 6.5 8 15.6-4.9 12.8 16.2 29-4.4 66.1 10.3 7.5 21.9 6.2 26.4 22.7 5.4 20.2-0.3 27.4-8.6 38.6-1.7 1.2-1.1 1.8-7.6 6.3zm-27.8-49.6c-59.2 25 43.1 75.8 42.6 17.4-0.2-20.1-10.2-26.9-26.8-31.6-8.8 5.3-5.9 10-15.8 14.2zm-112.1-12.2c-13.4-0.5-20.3 7.5-22.3 19.4-1.6 9.6 1.6 24.9 10.6 29.4-5.1-31.5 6.3-35.7 11.7-48.8zm11.7 4.1c1.6 1.5 2.7 2.1 4.7 3.8 6.4-2 3.8-4 12.6-2.5 2.3 3.7 0.8 1.7 1.3 4l0.5 3.6c5.4-1.1 8.6-1.8 11.8-5-2.8-4.1-10.2-8.9-15.8-11.3-9.8-4.4-14-3.2-20.1 2.1 1.9 1.9 2.7 3 5 5.3zm110.5-7.3c-22.3-3-47.9 13.5-44.9 35.8 4 30 40.3 34.3 52.4 27.6-16.4-2.5-25.7-7.5-34.3-16.6-13.4-14.3-0.9-26.4 9.9-30.8-3.3-6.6-4.4-1.7-2.9-8.7 8.7-2.3 5.2 2 11.6 3.9 3.4-3.6 7.2-8.2 8.2-11.2zm8.8-81.6c-2.3 3.4-2.8-5.2-1.2 6.3 0 0.5 1.2 3.8 1.4 4.5 3.3-3.6 4.5-7.7-0.2-10.8zm-87.8 140.7c22.7-13.6 9.4-33.8 3.4-44.8-27 9.2-25.2 1.5-43.8-9.3-3.4 6.8-8 11-11 21.1-3.9 12.9 0.7 19.4-1.6 30.2 17.2 6.1 31.8 15.5 53 2.8z"/>
		<path id="Path 416" fill-rule="evenodd" class="s6" d="m586.5 1227.6c-6.3 6.7-6.5 8.1-7.9 17.2-1.1 6.4-1.9 13.6-2.7 20.3-0.7 6.7-1.6 13.6-2.5 20.3-0.5 3.2-3.4 18.4-2 20.4 0.7 1 3.1 2.1 4.1 2.5 1.9 0.9 1.9 1.6 4.8 1 3.7-0.8 7.4 0.5 9.8 1.6 9.8 4.5 23 14.4 31.6 21.9 4.2 3.7 10.6 8.6 14.1 14 12.2-4.2 31.2-7.9 37.9-6.8 5.8 0.2 106.1 55.4 257.8-21.5 9.1-4.7 29.4-4 35.9-0.7 0.3 0.2 4.7 1.8 4.8 2.2 0.7 1.7-22-6.9-38.3 0.6-150.6 69.2-223.8 32.9-260.7 21.6-3.8-1.2-13-1-16.9 0.4-6.3 1.8-13.1 3.4-19.2 5.6l9.4 14.1c17.4 27.8 22.5 54.7 18.7 86.8-1.5 11.8-5.1 23.7-9.2 33.5-0.3 0.6-0.4 1.1-0.7 1.7-0.2 0.6-0.5 0.9-0.8 1.6-4.7 10.6-12.4 22.9-20.2 31.6-11.7 13.1-21.8 22-37.2 31-11.1 6.5-22.2 11.3-35.4 15-34.5 9.5-68.5 7.5-99-5.5-4.4-1.9-9.2-4.2-13.2-6.8l-9.4-6.4c-15.7-10.7-35.4-29-45-50.9-5.1-11.4-9-25.7-10.6-38-2.9-22 1.6-26.7 1.6-33.1-4.2-2.2-0.2-4.5 1.5-2 1.1 2-1.5 11.2-1.9 14.9-1.7 18.2 3 38.4 10.1 55.3 8.5 20.5 26.9 38.8 40.9 49.1 2 1.6 3.8 3 6 4.4 5.1 3.3 10.1 7 15.6 9.5 1.3 0.5 2.2 1.2 3.5 1.7 9.6 3.6 18.8 7.3 29.1 9 35.1 6 71.6 2 104.3-17.2 19.2-11.2 33.8-24.4 46.3-42.5 5.8-8.3 10.3-16.8 14.1-26.2 7-17.4 10.7-39.6 8.1-63.2-1.4-13.1-4.4-25-10.2-37.2-2.6-5.3-5.7-10.4-8.7-15.3-2.4-4.1-7.6-10.8-9.3-14-4.1 2.8-6.4 14.2-7.7 20.3-1.6 7.5-2.8 14.9-4.5 22.2-2.3 9.4-3.5 11.5-11 18.5-5.5 5.1-11.5 10.2-17.1 15.4-5.7 5.2-12.3 11.2-20.9 12.1-5 0.5-18.3-0.7-24.1-0.9-12.5-0.4-13.8-0.2-25.1 6.2-11.9 6.6-34.4 21.2-47 23.4-11.2 2-38.7 1.5-47.1-3.6-11.3-6.9-30.3-28.4-39.7-39.8-4.3-5.2-1.8-6.1-8.9-6.6-4.5-0.3-7.4-0.7-10.2-3.8-2.8-3.1-3.8-8.6-2-11.7 2.9-4.5 18.7-7.5 22-12.7-0.6-4.8-4.4-8.1-5.1-12.3-0.5-3.2 2.7-7.9 4.2-10 3.4-4.8 2.8-4.4 9.6-6 2.6-0.6 3.5-1.9 5.6-3 1.9-1 4.4-1.1 6.6-1.5 4.5-0.9 8.7-2 11 1.6 5 7.6-4.4 23.2-2.1 34.8 1.8-0.8 2.7-1.9 3.5-3.1-2.9-7.7-0.1-15.6 3-19.9 1.7-2.4 2.6-5.8 6-7.4 3.8-1.9 8.8-2 11.5-0.8 6.6 2.9 4.1 13.3-0.3 17.3-2.1 1.8-6.6 4.6-9.7 5.3-1.9 0.5-4.3 0.6-5.8 1.7-1 0.8-2.6 3-2.3 4l1.2-0.1c1.1-0.5 2-1.5 3.1-2.2 3-2.1 12.8-7.7 15-3.5 1.8 3.2-1.6 7.1-1.7 9.5-0.1 2.6 0.9 3-0.6 5.1-0.9 1.1-2.2 2.7-3.3 3.5 2.9 1.3 8-1.9 10.2 1.5 1.7 2.6 2.1 9.1 2 11.7 4 1.5 19.5 0.8 25 0.4 27.8-2.5 58.3-11.4 81.2-26.4 6.7-4.4 13.5-10.3 18.6-15.5 10.7-10.8 20.1-27.3 15.1-43-1.9-6.1-5.8-11.4-10.8-15l-4.8-3c-4.5 1.6-5.5 1-9.5 0.7-0.5 1.3-1.8 14.7-2.1 16.5-2.1 13.9-2.5 19.5-4 33-0.5 4.8-0.5 13.4-6.7 13.8-6.4 0.4-3.9-10.7-3.5-14.6 0.6-5.8 1.3-11 2-16.5 0.3-2.7 0.8-5.2 1-8.1 0.3-2.8 0.7-5.6 1-8.4 0.4-2.8 0.7-5.4 1.1-8.3 0.3-2.1 1-6.5 0.9-8.5-1.8-0.6-13.8-2-16.8-2.5-16.7-2.6-43.6 2.6-59.5 8.1-17.1 5.9-37 16.3-50.7 27.7-2.3 1.8-4.4 3.7-6.8 5.5-7.5 5.7-11.9 2.3-4-5.2 14.8-14 40.6-26.3 59.7-32.7 13.8-4.7 28.1-8 42-9 6.4-0.5 12.8-0.8 19.1-0.6l17.9 1.4c1.3-2.8 7.2-61.1 8.5-70.6 0.5-3.7 2.4-5.5 4.9-8.3q1.8-2 3.5-3.9l3.4-1c-2.7 2.9-5.2 5.7-7.1 8-2.1 2.5-2.7 2.9-3.1 6.7l-8.1 69.4c4.8 1.9 6.1-0.2 7.2 6.4 2.7-0.1 4.2 0.6 7.4 0-4-4.1-7.9 0.1-6.1-12.2 2-13.9 6.2-52.3 8.5-61.5 1.3-5.4 3.9-7.5 8.1-11.9 1.5-1.6 5.4-5.5 9.3-9.7l3.6-1.1c-4.4 4.8-9.4 9.7-12.7 13.2zm-138.4 191.3c0.4 3.4 0.5 4.7-3.2 6-6.9 2.4-3.3 0.6-5.4 4.8-3 6-9.9 3.6-14.8 5.1-6.2 1.8-11.5-2.4-9.9-7.7 0.6-2 6.8-10.6 2.6-12.9-1.7 1.9 0.7 4.9-7.9 10.3-2.3 1.5-4.6 2.2-6.3 0.1-2.3-2.9-1.5-3.5-5.3-4-7.8-1.1-5.5-4-2.6-9.1 2.8-5 3-6.9 10.9-9.3 15.2-4.5 6.8 3.6 9.2 9.3 2-2.4 0-6.6 5.2-10.4 12.2-8.9 13.1 3.1 15.2 5.7 1.9 2.4 7.4 4.7 10 5.6 1.5 0.5 4.5 1.5 6.3 1.4-0.1-2.2-0.3-9.5-2.4-10.7-3.3-1.8-15.6 3.9-7.6-5 1.8-2 1.9-1.7 1.6-4.7-0.4-4.9 7.2-13.1-3.8-8.9-1.8 0.7-3.4 1.4-4.9 2.3-6.9 4.2-3.7 4.2-8.8 3.6-0.9 1.4-2.4 3.2-4.6 3.1-3.7-1-0.5-17.2 0.3-20.6 0.6-2.2 1.3-4.4 1.8-6.8 0.4-2.2 0.5-4.9-0.6-7.4-1.3-2.7-3-2.8-6.1-2.4-15.5 2.3-9.1 3.6-15.6 5.2-6.6 1.7-5.6 0.6-10.6 8.5-4.1 6.5-0.9 6.9 2.2 14.2 1.4 3.3 1.5 4.9-1 6.7-9.2 6.5-19.3 7.4-20.6 11.8-1.6 5.3 2.7 10.4 6.6 11.3 6.5 1.6 8.3-2 12 4.3 2.3 4 15.4 17.9 19.3 22 6.4 6.7 13.1 14.1 19.8 18.8 9.2 6.5 16.6 5.7 27 6.3 27.5 1.7 35.8-5.5 59.7-19.3 10-5.8 17.3-11.6 29.5-11.4 9.8 0.2 20 1.5 29.8 1.1 7.9-0.3 18.4-11.2 24.2-16.4 4.1-3.7 11.9-10.4 15.6-14.2 2.1-2.2 2.5-3.2 3.9-5.6 4.7-8.4 7-40 13.2-49.4 0.6-0.9 1.6-1.7 2.1-2.6-3.4-5.3-12.8-12.8-18-17.1-8.3-6.8-25.7-20.7-35.4-19.5 6.5 4.6 12.6 9.5 15.4 20.5 6.1 24-19.2 48.5-37.3 59.7-27.4 16.9-65.5 26.8-98.5 25.7-2.3 0-4-0.3-6.2-0.7-1.7-0.2-4.3 1.7-6 2.7zm-34.5-16.2c-3.6-0.1-11.5 2-13.8 4.7-1.1 1.4-2.1 3.4-3 4.9-0.9 1.6-2.6 3.4-2.2 5.8 1.7 0.5 4.5 0.6 6.3 1.4 2.1 0.9 2.9 3.1 4.6 4.7 2.4-0.4 5.2-2.5 6.8-4.1 2.2-2.2 2.4-3.4 3.1-6.4-4.7-4.3-0.8-6.6-1.8-11zm13.1-16.4c2.2-2.1 0.4-3.2 7.8-4.7 14.4-2.9 16.7-16.8 10.7-19.7-2.5-1.2-6.4-0.6-9.7 0.9-3 1.4-3.8 4.5-5.3 6.6-2.5 3.6-5.6 10.3-3.5 16.9zm23.7 29.4c-1.6-1-6-1.4-10.3-3.8-3.9-2.1-5.5-2.3-7.9-8.4-2.1-5.4-5.6-4.3-10.1-1.3-2.1 1.4-2.6 2.4-3.3 4.4-0.4 1.3-1.2 4.3-1.1 5.6 5.2 3.4 2.8 7.3-0.1 13.1-1 2-2.5 4.5 0.3 6.8 2.4 2.1 4.2 1.2 8.1 0.4 2.9-0.6 5 0.7 8.6-0.9 3.9-1.6 2.8-3.4 4.2-5.8 1.5-2.6 6.4-1.8 7.5-4 1.4-3-2.5-3.1 4.1-6.1zm109.7-104.1l-1.8 15.3c-0.7 5.2-1.3 10.3-1.9 15.4-0.6 5.1-4.3 27.7-2.3 31.2 6.2 2.3 6.3-7.6 6.7-12.5l2.8-24.3c0.4-2.8 0.7-5.5 1.1-8.1 0.8-4.7 1.9-11.5 1.8-16.3zm6.4-1.7c-0.1-1.8-0.7-2.3-2.1-2.7-0.9-0.4-2.3-0.8-3.5-0.8l-0.3 3.2zm-7.5-4c-2.8-0.1-5.9-0.8-8.8-1-38.2-2.7-71.4 6.6-105 25.1-7.4 4.1-15.9 9.4-22.1 15.1-1 0.9-2 1.9-2.9 2.8-1.3 1.4-2 1.9-2.2 3.3 2.9 0.6 12-7.8 14.4-9.7 13-10.3 35-21.6 50.8-26.7 16.6-5.5 41.5-9.8 58.6-7.6 5.4 0.7 11.5 2.1 16.6 2.3 0.5-1 0.6-2.3 0.6-3.6z"/>
	</g>
</svg>