<svg version="1.2" xmlns="http://www.w3.org/2000/svg" viewBox="0 0 1191 1684" width="1191" height="1684">
	<title>Carta</title>
	<defs>
		<clipPath clipPathUnits="userSpaceOnUse" id="cp1">
			<path d="m0 0h1191v1684h-1191z"/>
		</clipPath>
	</defs>
	<style>
		tspan { white-space:pre } 
		.s0 { fill: #cad2b2;stroke: #cad2b2;stroke-miterlimit:22.92558479309082;stroke-width: 1.1 } 
		.s1 { fill: #f8cfc9;stroke: #f8cfc9;stroke-miterlimit:22.92558479309082;stroke-width: 1.1 } 
		.s2 { fill: #111212;stroke: #a8b69f;stroke-miterlimit:22.92558479309082;stroke-width: 1.1 } 
		.s3 { fill: #ffffff;stroke: #f8cfc9;stroke-miterlimit:22.92558479309082;stroke-width: 1.1 } 
		.t4 { font-size: 42px;line-height: 32px;fill: #cad2b2;font-family: "Engravers Gothic BT" } 
		.t5 { font-size: 42px;line-height: 43px;fill: #cad2b2;font-family: "Engravers Gothic BT" } 
		.s6 { fill: #f8cfc9;stroke: #f8cfc9;stroke-miterlimit:22.92558479309082;stroke-width: 1.5 } 
	</style>
	<g id="Page 5" clip-path="url(#cp1)">
		<path id="Path 121" fill-rule="evenodd" class="s0" d="m367.7 1504.8c16.3 0 29.6 13.2 29.6 29.6 0 16.4-13.3 29.6-29.6 29.6-16.4 0-29.7-13.2-29.7-29.6 0-16.4 13.3-29.6 29.7-29.6z"/>
		<path id="Path 122" fill-rule="evenodd" class="s1" d="m505.1 1454.2c7.2 4.2 15.7 24.5 18.3 33.4 2.1 7.1 3.1 13.5 6.2 19.7 1.5 3 3.3 5.8 5.5 7.5 4.4 3.4 4.1 2.5 7.4 3.9 0.5 0.2-0.1-0.1 0.7 0.3 0.1 0 0.2 0.1 0.3 0.2 0.1 0 0.2 0.1 0.3 0.2 0.7 14-3.6 24.6-9.2 34.3-2.6 4.5-6 9.1-9 12.6-5.2 6-11 11.1-16.9 16-14.1 11.6-31.4 20.7-48.5 28.2-66.5 29-152.9 25.8-225 6.6-16.2-4.3-32.4-10.5-45.7-19.7-21.8-14.9-39.7-36.5-45.7-63.5-1.4-6.3-2.1-13.1-1.9-19.9 0.5-15.2 2.7-9.8 8.6-24.6 0.8-2 2-6.3 2.9-7.9 1.5-2.6 8.9-7.8 12.6-9.5-2 11.2-1.9 4.4-2 18.5 0 7.6-1.7 11.6-2.5 18.1-0.9 7.7 2.5 10.8 5.7 14.9 8.8 11.1-6.3 20.9 16.3 24.9 18 3.1 8.3 17.2 24 17.5 14.8 0.4 14.8 9.2 26.6 14.5 9.2 4.1 16.4 1.7 32.5 8.9 24.1 10.7 24.9-3.8 52.7 5.4 21.1 7 19.6 1 34-1.2 14.5-2.2 19.1 8.6 33.4-3.2 3.1-2.6 2.7-2.1 7.1-3.3 2.5-0.6 5.6-2.2 8.1-2.2 6.2 0.1 12.9 1.6 18.2-1.7 4.4-2.7 5.9-7.6 9.6-10.7 4.5-3.7 11.4-3 17.8-2.9 19.9 0.1 14.7-11.7 25-16.6 10.4-4.9 24.9-0.3 27.4-13.8 1.5-8.1-0.2-10.3 6.6-13.9 4.8-2.5 10.5-4.7 7.8-12.1-2.4-6.7-6.7-7.8-1.2-14.8 9.4-11.8-3.3-17.6-8.2-26.3-4-7 0.4-10.8 0.2-17.8zm-485.6 71.9c1.1 0.6 8.1-3 12.8-4.2 31.7-8.1 77 11.4 103.3-10.8 1.5-1.3 3.8-3.6 5.4-4.6-1.6 25.6 3 41.9 17.2 62.6 4.3 6.4 13.2 16.2 19.2 21 7.4 5.9 14.6 11.2 24.4 16.2 32.1 16.5 93.1 25.8 134.3 27.2 57.6 1.8 116.5-11.4 160.9-40.8 15.4-10.2 31.3-24.1 40.4-40.7 5.4-10 8-19.2 8.1-32.6 11.8-0.9 6.9 0.2 19.7-2.7 16-3.7 45.1-7.7 55.5 4.9-0.8 2.1-3.4 4.7-3.9 7.8-1.3 9.1 8.5 10.3 9.3 1.2 0.4-4.8-2-6-3-9 5.9-6.9 19-8.4 28.2-7.9 2.4 0.1 9.5 1.5 10.8 0.3-2-2.5-23.9-3-32.2 1.4-3.6 1.9-5.3 3.6-7.8 5-2.6-1.5-4.7-5.6-15.3-7.8-6.9-1.5-14.6-1.1-21.7-0.6-6.6 0.5-13.6 1.7-20 3.2-4.2 1-15.7 4.2-19.7 2.3-0.6-3.1-0.7-7.1-1.3-10.4-3.8-20-12.9-43.3-27.3-57.9-15.2-15.4-44.1-24.8-65.7-31.3-54.8-16.3-110.5-24.5-171.2-15.2-26.3 4-53.2 12.1-74.7 22.2-10.6 5-23.1 11.2-30.6 17.8-10.4 9-14.5 15.3-19.6 29.2-0.9 2.4-1.9 6.3-3 8.6-0.6 1.2-1.7 2.3-2.5 3.4-7.5 11.4-5.9 16.8-9.6 21-7.5 8.5-17.9 14-33.1 15.6-16 1.7-30.7-1.4-46.3-2-7.9-0.3-15.9-0.4-23.5 0.9-3.8 0.7-16.5 3.6-17.5 6.7zm220.1-21.3c-2.1 3.6-16.8 7.3-21.8 8.1-19.6 3.2-43.2-3.8-39.3 19.6 0.8 4.6 2.4 7.5 4.9 10.1 3.8 3.9 6.1 2.8 11.6 2.4 4 6.9 14.7 11.8 24.3 11.7 12.3-0.2 21.5-5.3 29.8 4.1 5.9 6.8 6.9 13.5 17.7 18.8 3.9 1.9 9.9 3.9 15 2.8 5.7-1.2 6.9-5.3 6.9-11.7 22.7-1.6 10.6-40.1-15.1-36.7-17.9 2.4-13.1 28.7 1 32.9 10.7 3.1 2.7 6.6 6.9 11.1 6.5 1 4.6-9.3 4.1-14-0.8-7.7-2.6-12.2-3.1-16.1 2.2 3.4 3.9 10.8 4.5 15.9 0.8 6.4 1 14.2-3.9 16.6-8.3 4.1-21.9-4.4-27.8-13.2-8.1-12.3-10.9-15-28.1-12.7-10 1.3-17.3 1-25.5-4.9-1.5-1.1-4.8-3.8-5.4-5.4 2.5-2.1 3.6-2.6 5-5.8 5.8-12.7-7.6-21.4-8.1-22.4 12.5-0.3 23.5-0.5 35.3-4 3.9-1.2 6.4-2.6 9.8-3.9-2.2 13.6 13.1 9.3 14.1 7.9 1-3.6-1.7-5.6 2.2-7.7 3.5-1.9 19.1 0.1 23.8 7.9-2.1 4.2-9.9 7.8-16.1 4.8-10.9-5.3-1.5-6.6-0.7-10.4 0.9-4.5-3.3-1-4.5 0.2-5.2 5.7-6.4 9.1 0 12.7 8.6 4.7 15.3 4.8 21.3-1.5l1.8 2.2c0.5 1.1 0.7 2.3 1.5 3.1 4.4 4.2 18.1-4 19.9-4.7-1.5 6.7-3.1 9.2-2.8 17.1 0.2 5.7 1.8 11.3 4.1 15.5 4.3 7.8 11.8 15.6 24.5 14.4 16.8-1.6 19.2 1.1 27.9 10 8.8 9.1 14.6 9.3 30.4 9.2-1.2 1.8-4.7 4.2-7.6 5.1-10.2 2.8-14.1-6.3-34 0.6-18.7 6.5-25.7-5.9-44.1-4.4-7.3 0.6-15.9 2.8-23.3 1.2-6.6-1.4-12.4-5-19-7-6.8-2.2-14.9-2.5-21.5-4.8-10.9-3.8-14.7-13.4-23.7-14.9-4.5-0.7-8.1 1.1-11.3-1.9-5.2-4.8-4-11.4-11.8-14.4-6.4-2.5-16.2-1.1-17.6-8.6-0.7-4.1 0.6-8-0.7-12.3-0.9-3.1-3.5-5.7-5.2-7.9-5.2-6.8-2.3-12.4-0.9-20.6 1.3-8-0.3-16.7 1.9-24.2 1.7-5.8 2.6-4.6 5.1-8 2.2-2.9 2.3-5.3 5.4-7.7 4.2-3.3 10.8-7.9 18-8.1-7.9 3.2-23.2 7.5-22.8 21.1 0.3 9.3 9.4 8.7 3.4 14.5-3.2 2.9-9.8 6.7-7.3 14 2.7 7.8 22.8 10.9 33 10.8 17.3-0.2 24.3-3.8 37.9-6.5zm-47.9 35.4l1.9 3.4c-8.9 1.9-12.8-4.8-13.7-12.3-1.2-9.3 3-14.1 11.4-15.2 0.1 0.1 0.2 0.2 0.2 0.3l3.3 4.4c4.4 7.2 3.3 16.5-1.7 17.4-1.9-2.4-1.3-2.9-3.9-5.1-6.4-5.4-10.9 1.3-5 5.1 2.3 1.4 4.6 1.7 7.5 2zm430.4-16.9c1.3 1.7 2.6 4 2.7 6.5 0.4 7.3-8.2 7.6-6.4-0.6 0.5-2.3 1.5-5.1 3.7-5.9zm-276.5-57.5l10.2 0.1c-3.1 0.6-5 1.4-8.9 1.4-11.2 0-21.8-2.3-29.3 4.7-5 4.6-11.2 18.9-2.1 23.4 9.9 4.8 41.6-5 36-21.6-1-2.9-2.1-3.2-4-4.9l2.6-0.2c0.5 7.7 16.8 11 23 9.6 9.8-2.2 12.4-9.6 13.7-20.3 4.6 6.7 9.4 10.9 17.9 14.9 16.2 7.8 51.9 13.1 68.2 2.4 4.6-2.9 5.3-3.9 8.4-8.2-0.4 3.9-5.6 17.5 3.1 23.5 2.6 1.7 5 1 8.3 6.6 3.5 6.1 3.6 15-2.4 15.8-2.2 0.3-3.3-1.1-5.5-2.1-11.6-5.2-22.2-10.7-35-10.6-27.6 0-22.6 25.5-13.3 35.1 6.5 6.8 9.1 5.2 13.4 6.8 0.1 0.1 0.2 0.1 0.3 0.2-2.8 1.7-8.4 2.8-11.9 2-7.4-1.8-16.5-17.3-19.8-24-8.1-16.4-7.5-22.3-28-30.6-16.1-6.5-33.1-6.1-47.8 1.9-6.4 3.4-11.7 7.4-18.6 10.7-20 9.6-12.2 7.8-17.8 11.6 0.1-9.1-6.2-14.8-13-17.3-10.7-3.9-22.7-1.9-21.8-8.4 0.1-1.1 5.9-9.2-0.4-10.2-4.7-0.7-6.5 4.2-8.6 6.9-3 4-12 9.3-17.9 12.3-13.6 6.9-32.1 12-50.4 9.6-21-2.7-18.7-19.6-8.7-21.8 1.2-0.3 9.4 0.1 7.8-4.7-1.6-4.5-7.4 0.9-11.9-4.8-2.5-3.2-2-7.6-0.1-10.9 3.9-7.1 16.3-9.8 25.4-10.6 3.1-0.3 3.7 0.3 6.7 0.5 5.2 0.4 7.7-0.9 13.4 0 8.4 1.4 16.1 5.5 25 3.4-1.4 2.1-2.7 2.4-4.1 5-3.3 6-0.9 15.9 6.7 18.5 5.6 1.9 11.8-0.7 13.9-3.7 2.6-3.8 1.2-5.4 5.1-8.5 1.9-1.6 0.6-1.2 1.6-3.1 1.2 1.6 8.8 7.6 10.8 9.2 4.9 3.9 9.7 3.4 16 1.1 5.2-1.9 7.9-5.2 8.2-11.7 0.3-7.9-2.2-10.4-4.6-15.7 23.6 8.7 32.6-6.3 46-4.9 4.1 0.5 6.5 3 8.2 5.6 2.8 4.3 1 6.5-2.2 8.8-4.5 3.3-19.3 3.2-21.8-1.5 3.4-4.8 17.3-3.9 20.4-4.9 1.4-7.3-20.9-7-22.4 3.6-1 7-3.2 9.9 12 10zm157 5.3c3.7 5.3 1.8 3.2 6.5 8.4 1.8 2 5 5.9 5.7 9.7 1.8 9.8-11 7.6-3.1 21.9 6.4 11.4-6.1 10.5-10.7 16.6-4.9 6.5 1.9 16.1-10.9 19.8-8.4 2.4-17.5 1.5-22.8 7.5-5.6 6.3-4.9 12.6-17.5 12.9-11.6 0.4-18.5-1.4-24.2 6.7-5 7.2-8.4 10.9-21.7 8.6 7.5-5.3 13.7-7.9 19-19.5 1.9-4.2 3.5-10.4 3.4-15.9 0-4.5-1.6-13.7-4.5-15.3-0.7 0.7-7.2 21.9-9.1 26.5-3.8 9.4-7.9 15.4-17.7 18.3-10.1 3-21.4 3-30.1-2-7.3-4.2-12.1-12.8-20.6-15.4-11.1-3.5-17.9 6.2-28.2-3.8-10.8-10.4-15.8-37.6 11.1-44.3 4.8-1.3 9.5-2 14.1-4 4.2-1.8 7.3-4.8 10.9-7 6.5-4 21.6-6 30.3-5.2 10.4 1 16.1 8.7 20.5 15.5 1.7 2.6 12.9 21.4 13 23.2 0 4.5-13.8 10.8-23.8-1.5-6.1-7.5-12.1-10.6-25.7-9.6-9.4 0.6-21.9 4.9-20 15.9 1.6 9 15.2 11 25.2 10.9 10.5-0.1 23.3-2.6 20.6-14.7 11.7 11.2 27.7 4.8 24.8-3-0.6-1.6-1.7-3-2.6-4.3-7-10.6-13.1-29.8-28.9-33.4-6.5-1.4-18.6-0.1-25.1 1.4-9 2.1-11.5 5.7-18 9.5-5.9 3.4-14.4 4-21 6.4-25.5 9.6-15.4 46.8 1.8 50 11.9 2.2 16.6-7.8 31.5 6.9 2.5 2.4 4.3 4.4 7.4 6.6 11 7.6 33.1 7.2 42.7-1.6 11.3-10.4 14.5-34.2 17.4-38 4 8 2.8 19.2-0.6 26.8-3.5 7.9-8.4 12.9-14.9 17.1-10.3 6.7-6.3 0.9-17.3 6.5-2 1-4.6 1.1-6.9 1.3-21.6 1.5-25-9.2-32.7-15.1-2.9-2.3-6.8-4.3-11.5-4.8-12.8-1.5-15.7 4.7-26.9-4.2-12.2-9.7-15.3-30.4-5.2-46.3 5.1-8 9.3-8.7 18.6-13.4 7.4-3.8 12.9-7.9 20.4-11.7 16.1-8.1 36.4-6 51.5 2.3 19 10.5 13.3 19.2 26.7 37.3 8.6 11.6 12.1 19.2 30.1 11 4.6-2.1 6.9-2.8 8.8-7.4 2.4 0.5 4.7 6 17.3 2.8 6.7-1.8 12-2.8 9.5-10.9 5.7-2.7 4.6-7.7 1.5-12.2 0.1-0.1 0.3-0.3 0.3-0.2 0 0 3.2-1.7 4.3-3.5 1.2-2 1.5-4.5 1.3-7.1-0.5-4.7-3.1-8.8-5.3-11.4 0.1 0 0.2-0.2 0.3-0.2 0 0.1 0.2-0.1 0.3-0.1 0-0.1 0.2-0.2 0.3-0.2 0-0.1 0.2-0.1 0.3-0.2 3.2-1.4 5.6-1.9 8.3-6.4 2.8-4.5 2-8.9 1.8-14.5zm-145.7 59.5c7.2-5.9 28.9-2.6 32.8 3.3 4.1 6.2-0.3 10.8-5.5 12.8-7.7 2.9-27.9 3.1-34.3-4.2-4.4-5-0.9-11.3 3-14 8.1-5.7 26.8-5.6 33.7 0.7-8.9-2.5-25.4-6.2-32.8 2-5.8 6.2-2.8 12.9 1.2 12.9 2.8 0 4.6-2.8 4.5-5.7-0.2-3.3-2.2-5-2.6-7.8zm-159.2-7.9c2.1 3.6 3.9 5.4 3.4 11.1-0.4 4.3-2.9 7.6-5.8 9-0.9-0.7-1.2-1.2-1.8-2.7 2.9-2.2 4.3-1.9 5.2-7 0.8-4.3-0.1-6.6-1-10.4zm263 13.5c-4.6 0.9-8.1 2.2-12.9-0.4-3.7-1.9-6.7-4.3-7.9-8.4-3-10.4 3.1-17.7 10.9-20.1 7.5-2.3 20.8-0.4 27.3 2.7 1.8 0.9 3.3 1.9 5.3 2.8 1.8 0.9 4.3 1.3 5.6 2.5 3 2.6 4.3 8.5-0.4 10.2-2-0.9-2.2-2.6-7.6-4.5-1.9-0.7-8.4-3.4-9.1-3.5-3.7 3.8 0.2 7.5 5.4 7.2 2.3-0.1 4.6-0.9 6.8 0.1 1.2 0.5 3.6 2.3 4.1 3.9 2.8 8.1-16.3 10-21.1 7.6-1.3-0.6-3.3-2.2-4-3.6l-2.9-4.8c-1.3-2-5.7-8.2-9-4.9-2.7 2.6 0.3 10.7 4 9 1.6-0.7 2.4-3.8 4.8-1.7 1.9 1.7 1.3 3.7 0.7 5.9zm-205.4-21c0.1 0.1 0.1 0.1 0.2 0.3l0.3 1.2c1.1 3.9 5 5.5 8.9 6.4 4.6 1 10.7-1.1 13-3.4-1.8 4.9-8.2 6.3-13.4 5.2-2.9-0.6-4.9-1.6-7.1-2.9-3.8-2.3-3.2-2.9-1.9-6.8zm202.4 23.4c-1.8 0.6-4.2 3.4-10.9 1.7-9-2.2-17.2-12.9-16-24.6 0.8-8.7 4.8-12.3 13.5-13.5 7.3-1.1 17.7 0.3 23.5 3.1-7.4-0.2-11-1.7-18.5 1-11.5 4-15.3 17.3-7.6 26.6 4.1 4.9 7.8 5.4 16 5.7zm-206.6-23.4c-3.9 1.8-13.5 2.1-11.3-6.4 1.3-5.1 8.2-7 12.4-8.8 2.1-1 8-4.4 9.5-4.6 8.3-1 16.8 3.8 20.1 7.9 2 2.4 3.9 5.6 4.4 9.7 0.5 4.5-0.3 9.4-3.8 10.3-1.1-1.7 0.2-11.2-13.5-15.3-4.4-1.3-13.9-4-17.3 0.9-1.6 2.3-0.4 3.9-0.5 6.3zm207.4 12.9c-3.2 0.9-2.1 2.1-4.7 2.6-1.2-1.1-3.6-5.6-1.2-6.7 2.8-1.4 5.3 2.4 5.9 4.1zm-189.3-39c1.9 1.9 0.2 3.9 6.5 5.4 9.6 2.2 19.7 1.6 26.2 10.3 11.9 15.7-15.9 25.5-19.6 20.9 0.5-1 0-0.3 0.9-1 0.2-0.1 0.9-0.4 1.2-0.6 6.9-4.4 5.5-28.3-20.8-30.2 1.4-1.9 4.4-2.9 5.6-4.8zm43.7-4.7c0.8 4.8 1.3 6 4.2 8.8l1.2 1.4c-4.4-0.9-7.7-5.6-5.4-10.2zm1.7-1.5c3.9-0.1 8.4 6.9 6.7 11.2-3.6-0.7-7.3-5.8-6.7-11.2zm85.7-75.8c7.1-0.2 42 9.6 50.6 12.3 16.6 5.3 31.4 10.1 46.2 17.5 14 7.1 24.5 17.6 32 31.6 4.4 8.2 16.2 37.8 14.5 48.9-21.5-5.7-11.3-33.5-35.1-62.1-20.2-24.2-45.6-32.6-76.7-36.7-12-1.5-16.8-1-28.2 0.7 1.8-7.7 0.2-7.8-3.3-12.2zm-150.3 89.1c7-4.9 10.7-5.8 15.5-12.8 1.3-1.9 2.4-4.1 5.6-3.7 3.5 5.9-8.1 13.8-13.4 14.6-3 0.4-5.2 1.4-7.7 1.9zm72.6-1.1c2.2-6.3-2.7-12.9-7.4-13.9 4-12.3 29.6-16.3 34.2-8.1 7.2 12.6-15.4 22.1-26.8 22zm163.5-6.8c-8.5-3.2-2.6-27.7 5.5-30 6.6-1.9 8.1 6.8 9.2 12.2 1.3 5.7 0.8 14.1-3.6 16.9 1.3-5-0.9-9-5.9-9.1-5.8-0.2-6.1 5-5.2 10zm-130.6 43.6c0.9 1.3 2.2 4.1 2.4 5.7 0.4 2.3-0.5 5.1-2.8 5.1-4.4-0.1-3.7-8.4 0.4-10.8zm-107.1-59.2c3.2-1.1 5.5-2.4 9.8-2.8 4.5-0.3 7.5 0.8 11.6 0.9-1.4 5.1-4 8.9-9.5 9.8-6.2 0.9-10.8-3-11.9-7.9zm33.7 103.8c-2.1-5.6 3.1-7.8-6-10.7-5.5-1.8-6.9-2.9-9.5-7.2-4.9-8.1-4.4-19.5 4.5-22.5 12.7-4.1 28.1 7.9 28.1 21.2 0 5.1-2.9 9.6-6.5 10.9 2.1-8.4-3.5-8.9-3.7-14.6 0-2.3 1.9-4.1 0.3-4.1-1.9 0.1-1.3 3.7-5.9-4.5-0.7-1.3-1.6-2.8-2.3-4-1.4-2.5-0.8-3-3.9-3.4 0.5 4.1 5.8 12.1 7.2 29.6 0.2 1.9 0.4 4 0.2 5.8-0.1 2.3-0.3 3.6-2.5 3.5zm-6.9-135.8c-7.9 1.4-9 4.8-11.7 8.5l-5-7.9c-2.8-5 1.1-6.1 3.5-8.2 5.1-4.3 2.7-13.3-6.9-15.5-19.9-4.7-44.2 9.5-60 19-6.3 3.8-11.3 6.8-15.3 11.7-1.9 2.2-3.5 5.9-4.6 8.9-1.4 3.9-3.3 4.9-5.5 8.1-4.4 6.7-3.6 4.3-11 9.3-1.4 1-2.4 2-3.9 2.9 2.6-12 10.8-25.6 20.2-33.1 10-8 20.4-13.5 33.7-19.4 12.3-5.5 25.5-10.3 39.3-14 11.4-3.1 26.4-6.3 38.5-7.8q1.5-0.2 3-0.4l3 0.1c-8.4 1.7-17.2 9.1-20.4 15-1.1 2.1-1.6 4.1-2.6 6-1.2 2.5-2.6 2.9-2 7 0.8 5.1 4.1 7.6 7.7 9.8zm59.1 18.2c9.2 3.7 19.6 7.2 27.8-2.9 0.6 3.2 0.7 5.8-0.8 8.3-3.3 0.6-12.3 0.1-16.2 0-5.3-0.1-11.4 0.9-10.8-5.4zm-86.5 12c-1.3-11.7 12.3-17.9 20.1-10.6 9.6 8.9-7.3 7.2-13.4 8.2-3.5 0.5-4.3 1.6-6.7 2.4zm36.7-9.7c0.9-1.5 2.5-2.9 2.1-4.7-1.8-0.1-9.6 6.5-12.3 7.6-2.3-4 0.5-9.2 2.3-12.4 1.9-3.3 4.6-6.4 8.7-7.9 14.3-5.4 26.7 12.5 22.6 24.9-1.3 4-4.4 6.1-9.4 7.2-6.6 1.6-9 0.7-12.9-2.5-1.6-1.3-8.3-6.7-9-7.7 5.5-2.9 25.3 2.4 26.5-4.6l-7.8-0.2c1.5-0.4 4.2-3.2 4.3-5.6-3.2 0.6-5.1 5-15.1 5.9zm-58.2-8.7c4.8-1.1 8.9-3.4 14.6-3.1 4.8 0.3 9.8 3.6 12.3 5.9l-2.6 1.5c-6 1.8-13.9-1.8-20.7-3.1-1.4-0.2-2.5-0.3-3.6-1.2zm217.2 14.7c2.3 2.1 5 7.5 14.1 8.6 7.1 1 13.4-2.8 16.3-6.3 9.7-12.2 3.2-23.4-3.3-33 7.7 3.3 15.3 17.1 10 28.4-4.2 9-14.9 13.7-27.3 14.7-24.5 2-53.3-5.9-63.7-20.1-4.2-5.7-2.2-6.7-4.7-16.1-1.4-5.4 3.1-12.8 6.6-14.3 9.1-3.7 8.2-6.8 12.6-8.2 17.9-5.5 53.9 2.8 70.6 10.4 3.7 1.7 11.2 5.5 13.4 7.7-3.2-1-5.9-2.4-9.8-3.3-7.7-1.8-2.9 0.7-9.9-3.5-15.7-9.2-52.6-10.6-66.3-0.3-13.4 10.1-11.1 25.6 1.4 34.1 5.5 3.7 12.8 5.4 20 6.6 3.8 0.6 8.6 1.2 12.5 0.4 5.2-1.1 4.6-2.8 7.5-5.8zm-197.3 31.1c-6.3 3.8 0.9 3.3-16.5 7.6-13.6 3.3-29.3 5.5-43.2 2.4-31.9-7.1-9.5-19.6-7.5-22.9 3.4-5.9-8-6.8-4.4-17.9 3.3-9.9 17-14.3 26.6-16.3 3.4-0.7 2.4-0.7 4.6 0.9l-2.1 0.9c-5.4 1.1-10.8 1.4-16.5 4.5-13.1 7.3-10.1 19.2-3.3 21.9 1.8 0.8 10.5-0.3 7.4 2.9-1.8 2-12.6-0.3-14.5 10-1.4 7.5 4.6 12.2 9.7 14.3 5.9 2.3 15.1 2.6 21.8 2.2 10.3-0.6 20.3-3 29.6-6.9 2.8-1.1 5.7-2.7 8.3-3.6zm89.1-43.4c2-6.8 17.5-8 19.3-3.7q-5.5-0.2-10.7 0.7c-4.2 0.7-5.5 1.8-8.6 3zm-49.5 96.6l1.8 0.6c0 4.6 1.3 5.9 3 9.1 1.6 3 2.1 7.2-1.8 7.7-0.3-4.9-1.2-13.8-3-17.4zm-109.3-94c3-10.7 13.1-15.8 21.9-21.2 8.5-5.3 19-11 29-14.4 9.1-3.1 29.7-7 34.5 1.6 1.4 2.6 1.4 6-0.4 8.2-1.8 2-4.8 2-5.5 5.6-1 6.1 7.2 9.1 5.8 15-2.2 1.1-4.8 1.7-7.4 1.1-1.3-1.9-1.4-3.2-3.6-4.8-6.6-4.8-16.8-0.6-21.7-0.4 0.3-0.3 0.2-0.3 0.8-0.7 1.9-1.2 2.4-0.9 4.5-3.2 5.5-6 2.7-14.3 13.6-10.1 2.3 0.9 5.5 1.7 7.6 0.2 2.2-1.6 5.6-11.2-10.2-12.5-14.1-1.3-31.8 2.8-40.1 13.6-3.5 4.7-3.7 7.4-2.2 13.7-14.2-0.7-17.6 3.1-26.6 8.3zm141.6-7.3c-3.6 0-7.4-0.7-9.8-2.4l23.4-0.3c-0.9 0-4.1 1.4-6.2 1.8-2.4 0.5-4.8 0.9-7.4 0.9zm-134.8 82.8c3.3-1.4 7.5 2.9 7.9 5.5-3.7 0-8.9-1.5-7.9-5.5zm88.7-74.8c-3.6-4.9-2.3-3.3-7.6-6.1 0.4-3.8 3.4-6.8 6.1-8.3 4.4-2.5 7.4-1.2 12.7-0.9-1.8 1.9-5.5 2.3-9.2 10.8-0.6 1.3-1 3.4-2 4.5zm87.4-25.3c0.6-2.4 0.4-2.7 2.8-3.3 1.9-0.5 3.9-0.7 5.9-0.4 3.3 0.3 6.6 1.9 8.6 3.6 2.3 2.1 3.8 4 5.2 6.9 1.5 3 0.7 6.7 1.7 10.6 1.2 4.7 2.1 4.2 1.4 10.2-1.8 17.6-16 20.3-29.2 13-4.1-2.3-6.4-5.2-1.7-5.3 2.1 0 3.4 0.7 5.5-0.2 2.9-1.4 0.3-1.8 4.5-2 4.1-0.2 6.2-1.2 7.9-4.1 2.3-4.1 5-14.2 3.1-19.9-1.1-3.4-2.7-5.6-4.9-7.3-3.6-2.7-6.1-2-10.8-1.8zm2.5 17.8c-1.7-2.6-2.2-4.1-4.7-5.7-3.5-2.5-4.7-1.4-7.5-2.7 7.3-4.2 8.6-7.6 9-7.8 4.6-0.7 8.3-0.9 11.2 1.9 6.2 6 4.8 14.1 2 21.8-1.6 4.4-2.8 6.4-8.4 6.3 2.2-4.9 3.1-4.9 3.9-11.7 2.3-20.8-11.5-16.4-10.9-11.5 0.3 2.4 6.3 3.7 5.4 9.4zm112.4-14.1c8.7 0.3 27.4 10.6 29 16.6 0.8 2.7-1.1 10.7-1.9 13.3-1.6-3.9-2.2-9.4-7.4-9.9-4.5-0.4-8.7 3.8-9.8 7.1 0.1-6.8 1.9-9.3-1.3-16.3-1.9-4.2-5.7-8.5-8.6-10.8zm-109.8 22.7c-1.7-2-1-9.8-1.2-10.8-0.8-4.9-3.4-4.8-5.5-7.1 0.8-4.6 7.6-3.2 8.3 3.2 0.4 4-0.2 11.2-1.6 14.7zm-135.2-9.4c-2.2 1.4-6 2.6-9.1 2.5-2-0.1-10 0-11.2-0.3-2.4-0.5-4.8-3.8-5.2-6-2.4-11.6 15.8-21.6 32.6-22.9 23.3-1.8 21.8 10 16.2 10.4-3.1 0.3-5.6-1.8-8.6-2.1-7.6-0.9-6.8 7.7-10.6 11.8-6.2 6.9-14.1 1.9-16.2 2.3 0.2 1.9 2.5 3 4.4 3.7 2.5 0.8 5 0.6 7.7 0.6zm56.6-11.4c-1.3-2 1.9-7.4-2.1-7.9-1.4 3.1 1.2 5.8-1.4 8-5.3 4.4-16.5-4.3-12.8-11.9 1.9-4 8.1-5 13.2-0.6 1.3 1.1 2.9 3.3 3.9 5.5 1.7 3.6 1.4 4.4-0.8 6.9zm155.8 22m-197.3-12.5c3.8 0.1 6.9 1.7 7.8 4.7-2.1-1.1-3-2.3-5.7-3.5zm136.6-33.1c6.8-2.3 11 7.4 4.1 8.7-4.7 0.9-11.5-6.2-4.1-8.7zm-93.7 26.6c1.8-0.6 6.8-13.2-3.6-20-4.8-3.2-4.3-4.3-0.6-7.9 10-9.9 43.6-11.8 58.5-2.6 4.9 3 11.3 9.5 10.8 18.2-0.4 8-7 13.3-13.5 15.3-8.7 2.7-24 2-34.4 1.8-2.9 0-2.8-0.9-5-2.2-5.1-3.1-6.6-2-12.2-2.6zm100.2-11.3c-1.5 3-2.7 4.7-4.2 8.7-2.6-3.3-2.9-5.7-8-8.8-4.9-3-8.6-2.7-14.5-1.8 2.7-4.5 11.4-7.9 15.3-11.5-2.7 8.4 3.2 13.5 11.4 13.4zm-8.3-16.5c2-1.7 3.1-3.5 5.7-5.2 10.7-6.6 20.4 1.8 17.5 9.8-1.1 2.8-4.5 3-9.8 6.9-1.6 1.1-1.5 1.6-2.8 2.6-2.3 1.9-12.5 1.6-13-7.3 1.5 1.7 3 4.1 5.8 4.6 3.6 0.6 6.1-1.2 7.1-3.3 1.3-2.8-0.4-5.6-2.1-7.1-2.5-2.1-5-1.6-8.4-1zm110.3 76.2l-0.5-0.6c-1.6-1.9-2.7-3.4-2-6.2 0.6-2.7 3.3-4 6.1-2.9 5.3 2.2 3.9 9.4-3.6 9.7zm-201.1-59.2c-0.6-0.5-0.3-0.2-0.8-0.8-0.1-0.2-0.6-0.8-0.7-1.1-3.7-5.7-7.7-7.9-15.1-6.4 2.3-8 10.5-14 18.3-17.1 9.1-3.6 20.9-4 31.8-3.3 13.9 0.9 29.2 5.7 35.1 17.9 3.2 6.6 1.8 9-1.8 12.9 0.5 1.6 0.4 0.6 1.5 1.8-1.7 2.8-5.3 5.5-9.2 7 16.3-15.8 0-37-27.2-38-10.4-0.4-25.1 1.3-33.2 5.5-2.8 1.4-10.4 6.2-7.9 10.6 1.9 3.4 7.8 3.4 9.2 11zm-25.9 23.3c5.5-0.3 8.9 4.4 8.9 7.5-2.5-1.3-2.5-4.6-10.7-5.8 0.7-0.5 1.2-1.1 1.8-1.7zm97.9-28c-3.2-17-18.7-23.6-37.3-25.5 15.6-0.7 50.9 1.1 65.6 4.6-3.6 1.9-5.1 2.1-8 4.6-6 5.4-2.3 4.3-13.2 11.2zm111.9 93.2c0.1 0 7.8 3 9.1 3.4-3.7 1-10.4 1.4-9.1-3.4z"/>
		<path id="Path 123" fill-rule="evenodd" class="s2" d="m415.9 1428.4c-9.5 2-18.5 8.4-20.8 17-0.9 3.6 0.5 9.4 5.6 15.8 5.1 6.3 29.3 13.7 37.4 7.8 5.1-3.7 4.8-5.1 10-0.6 3.4 3 5.1 7.8 17.3 3.8 12.8-4.2 13.3-13.5 10.3-23.3-5.6-17.9-22.2-23.3-39.1-22.2-6.5-0.8-19.8 1.5-20.7 1.7zm25.8 32.1z"/>
		<path id="Path 124" fill-rule="evenodd" class="s3" d="m415.9 1428.4c-9.5 2-18.5 8.4-20.8 17-0.9 3.6 0.5 9.4 5.6 15.8 5.1 6.3 29.3 13.7 37.4 7.8 5.1-3.7 4.8-5.1 10-0.6 3.4 3 5.1 7.8 17.3 3.8 12.8-4.2 13.3-13.5 10.3-23.3-5.6-17.9-22.2-23.3-39.1-22.2-6.5-0.8-19.8 1.5-20.7 1.7z"/>
		<text id="pizzas•tartas empanadas" style="transform: matrix(1.061,0,0,.943,741,1467.214)" >
			<tspan x="0" y="31.9" class="t4">pizzas•tartas</tspan><tspan  y="31.9" class="t5">
</tspan>
			<tspan x="21.2" y="74.5" class="t5">empanadas
</tspan>
		</text>
		<path id="Path 126" fill-rule="evenodd" class="s1" d="m435.8 1195.1c0 2.3 0.1 3.3-0.6 5.6-0.2 0.6-0.5 1.6-0.7 2-1 1.9-0.3 0.6-1 1.4-7.7 11.1-17.1 6.9-18.4 20.4-1.1 11.6 0.6 7-6.3 13.3-4.1 3.9-5.3 6.6-4.8 13.7 0.4 5.9-4.7 6.8-5.9 13.5-1.1 6.6 0.8 11.4 1.4 17.2 1.2 12.3 22.7 0.8 27.4 0.1 1.5 2.6 5.8 13.1 6.2 16.3-4.6 1.5-23.5 13.1-27.9 10.2-0.3-1.1 4.3-7.8 1.9-15.2-1.6-5.4-6.9-7.9-11.1-2.9-1.4 3 5.8 17.2 5.7 18.6-0.3 3.7-7.7 8.7 1 17 12.1 11.7 29.6-3.4 35.5-4.8 1.6 2.5 2.6 6.3 3.8 9.1 1.3 2.8 3 5.7 4.2 8.4-4 2.1-17.8 8.3-22.9 8.4-4.5-3.8-6.5-15-14.7-13.4-5.2 8.5 7.3 13.2 8.6 16.6 3.5 2.9 1.9 7.5 3.8 11.2 1 2.1 7.4 5.8 9.7 3-1.5-2-2.8-1-7.6-2.8-1-2.7-1.8-8.1-2.6-11-1.8-3.1-9.5-8.6-10.8-12.2-1.2-3.9 2.8-4.6 8 3.9 1.9 3 3.2 7.8 8.2 6.8 7-1.2 15.9-7.3 21.5-8.5l7.9 13.7c-2.5 1.4-12.7 7.2-15.2 7.7-1.3 0.9-1.8 1-3.7 1.2-2.7 0.3-2.7-0.5-4 1.3 1.9 2.4 6 0.1 8-0.7 3.5-0.3 12.4-6.3 16-7.8 1.7 2.2 8.4 12.3 9.1 14.6-4.3 1.5-12.2 6.7-17.1 9.4-2.4 1.3-2 0.8-4.5-0.4-3.5-1.7-11.5-4.7-15.1-4.7l-12.4-2.5c-19.6-3.5-45.6-5.7-66.3-4.9-11.2 0.5-21.6 1-32.5 2-10.8 0.9-19.8 3.7-29.6 5.1l-0.1 2.6 18-3.6c29.3-5.1 73.7-5.1 102.8-0.3 6.7 1.1 12.5 2 18.8 3.3 7.4 1.5 11.2 3.2 17.3 5.5-0.8 1.4-1.5 1.9-1.6 3.8 2.3 2.3 7.5 4.4 10.6 6.8 3.4 2.7 5.1 6.9 8.2 9.3 5.2 3.8 21.6 6.6 29.2 6.5 13.3-0.2 7.4-4.6 29.3 2.6 14.1 4.7 24.8-4.2 28.7-3.6 1.7-1.6 4.9-1.3 6.8-0.5 0.1 0 0.3 0.1 0.4 0.2 1.5 0 3.5 0.1 5.6 0.1l3-0.4c1.1-1.3 0.8-1 2.3-1.6 1.6-0.8 3.2-1.9 4.4-2.2 0.7-1 0-0.4 0.9-1.1 1.1-0.8 0.7-0.5 1.6-0.9 1.4-3.5 4.9-6.7 8.7-8.5 4.3-2 8.6-2.9 12.9-4.4 10.5-3.6 13.9-7.7 18.9-16.3 0.3-1 0-0.6 0.5-1.5 0.9-1.7 0.2-0.3 0.8-1.1v-0.6c0.8-2.1 1.2-3.5 3-5.2 0.1-0.1 0.4-0.5 0.6-0.6 0.8-0.6 0.1-0.2 1.1-0.8 3.3-2.7 5.6-1.7 7.2-6.5 1.6-4.8 0.9-6.2 4-10.3 2.5-3.3 12-12.4 8.1-19.4-3.3-6-12.5-5.6-18.1 1.8-7 9-0.2 12.6-3.4 23.3-3.5 11.9-9.1 4.3-12.3-3.7-2.6-6.6-5.2-14.1-8.1-20.4-3-6.5-6.8-13.3-12-16.7-5.1-3.2-17.6-6.2-22.1-1-0.2 3.5 6.1 13.4 7.9 16.6 4.2 7.7 22.8 45.3 22 52-2.3 1.6-6.4 4.2-10.7 3.6-2.8-1.5-17.7-34.7-21.5-42.4-1.9-3.8-6-11.2-7-14.7 4-4.1 12-3.2 4.9-13.3-1.1-1.6-3.7-6-4.9-6.9-3.1-2.3-7 0.4-10 1.1-1.7-5.2-13-23.3-13.2-25.8-1.5-1.4-0.1-0.6-2.2-1.3-1.1 1.1-0.4-0.3-0.4 1.5l13.9 26.3c-2.3 1.7-5.9 3.2-8.6 4.8-2.9 1.8-6.1 3.6-8.7 5.1l-11.9-23.1c-1-0.7-0.4-0.6-1.8-0.5l0.2 2.9c1.5 2 10.8 19.9 11.2 22.1l-11.3 6.3-6.1-13.8c2.7-1.5 6-1.7 6.1-5.1 0.1-2.8-2.8-5.3-3.7-7.3-0.7-1.5-0.4-4.3-3.6-7.6-2.2-2.4-6.4-1-9.4-0.8-1.3-5.1-6.7-11.1-8.3-16.4 2-0.8 8.2-4.3 10.5-4.6l9.6 17.7c2.4 1.8 0.7 3.6 3.3 3.5l0.1-0.8c-0.5-4.1-0.5 0.6-1.3-3.4-1.2-3.9-8.3-14.3-9.6-18.1l4.4-2.4c3.2-1.5 10.1-5.4 12.6-5.8l7.9 13 1.8 1-0.3-2.3-7.1-12.9c5-3 11.9-5.1 6.6-14.1-5-8.5-8.6-4.2-15.9-2.6-1.7-1.9-8.5-14.7-9.3-17.4 5.2-2.3 10.2-5.4 15.4-8 6.3-3.1 25.6-12.6 29.6-16.4 6.2-5.9 6.9-12.2 8.9-14.2l-7.1 20.7c-2.2 6.5-4.7 13.8-6.8 20.4-4 12.7-10.5 29.4-11.5 43 1.1 1.5 1.3 4.2 3.4 6.7 0.6 0.8 1.1 1.3 1.7 2.2 2.9 1.5 2.7 2.4 8.4 4.8 8.7 3.6-1.3 6.9 24.7 17 13.2 5.2 27.5 9.8 41.5 14 34.4 10.4 60.8 11.8 99.3 9.7 51.8-2.8 108.5-17.8 157.9-33.4 4-1.3 18.4-6.3 21.4-6.4l2.8-1.2c5.3-1.3 6.2-2.6 8.8-3.1 0.7-0.2 11.8-2.2 12.2-2.9 0-0.2 0.2-0.2 0.4-0.2l41.8-8.8c27.3-4.4 67.5-8.2 95.1-6 7.6 0.6 16 0.8 23.3 2 7.6 1.2 15.4 2.4 22.5 3.4 1.9 0.3 3.3 0.5 5.2 0.8l2.9 0.7c0.1 0 0.3 0.2 0.4 0.2l0.9 0.6c1.4-0.4 2.2 0.1 2.8 0.5 2.9 0.4 7.5 1.1 9.4 2.7 3.7-0.2 8.5 2.5 12.9 3.4v-2.2c-8.2-2.5-15.4-4.3-23.1-6.6-1.7 0.1-2.5 0.2-4.1-0.2-0.1 0-1.3-0.4-1.4-0.4-1-0.5-0.6-0.3-1.2-0.8l0.1 0.2c-1.6-0.4-3.2-0.3-4.7-1.2-7.1-0.8-15-2.3-22.6-3.3-37-5-81.8-2-118.3 4l-41.8 8.7-1.2 0.6q-0.3 0.1-0.5 0.2c-0.1 0-1.3 0.3-1.4 0.4l-20.6 6.2c-2.9 0.2-33.9 10.4-39.8 12.1-67 20-155.7 39.1-224.8 22.1-13.4-3.3-27.6-8-40.3-12.4-10.8-3.7-30-8.8-34.2-17.6 2.3 0.1 7.2 2.1 10 3 14.2 4.6 66.1 17.4 74.5 15.4 1.9-4.3 1.6-15.7 1.6-21.3 0.1-6.6-0.4-14.2-4-17.9-8.1-1.5-12.9 5.6-18 8.2-2-2.1-6.9-10.6-7.5-13.7 1.9-1.8 8-7.7 10.5-8.1 2.7 2.8 6.7 14.5 12.5 12 4.9-3.4-1.8-20.7-3.6-24.2-1.8-3.5-3.3-6.3-5-10.1-1.3-3.1-3-8.7-4.3-10.7-10.8-0.9-19.5 6.7-24.6 11.1-3.2 2.8-7.1 4.5-11.3 6.6-6 3-10.1 4.1-8.9 8.2 4.1 1.3 11-1.6 13.6-3.3 1.8-1.1 1.5-1.6 3.7-2.3 4.4-0.2 13.3 17.9 14.3 20.7-4.2 2.5-9.2 8.1-13.7 10.1-1.9-3.7-4.9-8.2-7.2-12.3-14.4-24.2-24.5-3.3-35.9-0.4l-0.8 1.4c2.4 2.3 3.3 2.2 4 5.5-2.8-0.5-3.3-1.2-5.4-5.1l-1.9 0.7c-2 1.2-3.7 2.1-4.8 3.7-0.8 3.3-0.2 3.1 1.2 5.1 1 1.5 1 3.4 1.4 5.3l3.9 7.7-5.1-2.5c-1.8-1.6-3.2-1.9-4.4-3.6-0.9-1.4-1.6-3.2-2.8-4.9l0.8-4.4c0-5.4 11.7-41 14.1-48.9 2.4-8 5.7-16.2 8.3-23.4 1.6-4.5 8.4-19.8 4.5-23.3-3.7 0.5-4.1 6.2-5 9.2-3.8 13.9-6.2 17.8-17.6 24l-27.5 13.9c-2.7 1.4-6.4 3.8-9.4 4.7-1.5-4.8-5-9.6-6.7-14.5 10.6-5.7 21.7-11.6 32.5-17.2 7-3.8 27.5-13.7 30.4-19.1-1.7-3.4-3.5-2.1-7.7-2.7-11.4-1.5-18.7-5.6-24.9-5.1-9.7 0.8-9.6 6.3-33.3 6.2-22.4 0-23.2 15.2-40.3 19.4-5.4 1.3-12.8 0.1-12.9 6.3zm173.6 163.4c5.6 2.7 6.6 0.5 9.7-2.2 2.9-8.5 3.1-8.4 1.8-18.1-1.3-10.2 13-18.7 17-10.9 4.1 8-8.3 14.9-10.7 22.1-1 3-0.8 6-2.7 8.1-1.6 1.8-4.8 2.6-6.7 4.6-6.7 6.6-2.8 16.9-21.2 23.8l-16.2 5.9c-0.1 0.1-0.3 0.1-0.4 0.3 0 0.2-0.3 0.2-0.3 0.3-11 8.1-2.3 6.9-12.5 11.3l-0.8 0.2c-0.9 0.9 0.3 0.6-2.4 0.9-3.2 0.7-2.5 1.9-7.8 0.5-9.1-2.3-14.4 4.3-22.9 5.1-13.7 1.5-21.5-6.7-33.5-5.1-12.9 1.6-18.5 2.7-32.7-2.9-7.4-2.8-4.6-3.7-10-9.1-4.2-4.2-7.2-4.8-10.2-6.7l-1.5-1.3c1.9-1.7 2.2-1.3 4.5 0 5.6 3 9.6 2.7 13.5 7.9 2.1 2.9 3.3 5.4 7.5 6.6 1.3 0.3 12.1 0.7 13.5 0.5 2.4-5.5-14.1-23.7-15.4-29.5l17.5-9.1c4.3 7.4 8.6 14.2 12.9 21.4 2.8 4.6 10.6 20.3 16.8 17.4 5.6-4.2-3.5-19.8-5.6-23.9-2.8-5.6-8.7-16.5-9.9-22.8l17.2-9.2 1.9 3.5c0.6 1.7 1.2 3.1 1.7 4.5 4.8 11.8 11.5 31.4 18.8 40.5 5.6 7 9 5.9 18.2 4.6 1-2 1.7-1.9 1.6-4.8-1-2.3-4.5-5.3-7.9-12.4-2.4-4.8-4.4-10-6.3-15l-11.5-30.4 17.9-9.4c3.3 4.1 20.4 42.8 25.3 51.6 3.5 6.2 6.4 9.9 15.9 3.8 3.5-2.3 3.6-5.2 1.8-9.4l-17.8-39.8c-2.5-5.1-10.8-17.8-10.9-21.8 5.9-2.4 14-0.4 18.5 2.6 8.6 5.7 13.3 20.5 16.8 30.2 1.1 2.9 2.1 5.9 3.3 8.6 0.9 2.1 4 6.3 4.2 7zm-150.9-3.6c5.8-2.1 11.8-6.8 17.7-9.3l9.2 14.3-18 9.7c-2.4-4.7-5.9-8.5-8.9-14.7zm20-10.3c1.9-1.6 11.2-6.8 13.7-7.3l5.8 15.8-10.6 5.6c-2.1-1.9-7.5-12-8.9-14.1zm41.7-1.2c1.5-1.4 10.2-6.7 12.4-7.3 1 4.2 4.5 11.4 6.1 15.8 3.4 9.9 10.6 30.3 16.8 38.1 1.5 1.8 4 5.1-0.5 6.2-8.1 2-11.6-1.8-14.5-6.5-6.5-10.4-9.6-18.7-14-30.3-1.8-4.8-4.9-11.5-6.3-16zm-70.8-3.5c3.1-1.5 5.7-2.7 9-4.4 2.8-1.5 6.3-3.7 9-4.5 2.3 4.1 5.4 8.3 7.6 12.4-1.4 1.5-15.5 9.4-18.2 10.1-1.2-3.8-5.5-9.1-7.4-13.6zm44.5-4l16.7-9 6.7 15.3c-2.4 2.3-13.7 7.8-17.4 9.7-2-4.2-4.4-11.3-6-16zm-24.5-6.1c1.5-1.6 13.6-8.6 14.9-9.2 1.9 3.9 5.8 10.6 6.7 14.7-4 1.6-11.1 6.4-14.4 7.3-0.9-2.9-5.3-9-7.2-12.8zm43.6-3.9l11.3-6.6c1.6 2.6 6.4 12.3 7.2 15.3l-11.9 6.6c-1.4-1.5-6-12.8-6.6-15.3zm-72.4-5.4l17.6-8.9c1.1 6.7 5.8 11.6 7.5 17.1-2.5 2.2-13.9 8.2-17.5 9.2-2.7-3.2-6.5-12.8-7.6-17.4zm45.8-1.1c2.6-2.2 13.3-7.8 17.4-8.6 1.1 3.3 5.5 11.1 5.8 14.4l-16.3 8.7c-1.2-1.4-6.7-13.1-6.9-14.5zm-83.1-8.6c8.1 2 9.4-0.3 16-3.4 2.7-1.3 12.7-6.5 14.7-6.7 1.6 3.7 3.8 13.7 3.8 18.1-3.1 2.6-18.7 9.9-23.8 10-5 0.1-9.7-2.9-11.6-5.6-3.7-5.4-0.4-7.7 0.9-12.4zm123.2 7.3c3.8-2.4 13.3-8.5 17.7-9.5l7.2 14.8-18 10zm-66.3-8.2c4.4-1.6 9.2-6.5 13.7-8.4l9 16.5c-1.7 1.6-12.9 8.5-14.9 9.3-2.4-3.2-7.4-12.7-7.8-17.4zm6.7 62.6c2.3 2.5 14.7 22.2 15.9 25.4-14.7-0.4-11.8 1.4-18.1-6.5-5-6.3-10.5-5.2-15.6-9.2 5.4-2.2 12.2-7.8 17.8-9.7zm79.2-65.2c4.5-1.3 6.2-3.2 9.3 1.5 4.1 5.9 8.2 10.7-1.9 13.4-1.3-2.1-6.8-12.6-7.4-14.9zm-109.9-8.3c3.1-1.9 15.1-9.2 17.6-9.4 2.7 6 3.5 12.8 3.7 19.8-4.7 2.4-12.1 6.6-17.5 8.4-0.4-5.1-3.9-16.3-3.8-18.8zm40 1c3.6-2.3 13.5-7.3 18.6-7.7 1.8 4.5 6.6 11.9 7.8 16.4-7.1 2.3-14.5 7.2-17.6 8.2-1.6-1.8-5.2-9.4-6.7-12.3-0.5-0.9-0.7-1.1-1.2-2.1-0.4-0.8-0.9-2.4-0.9-2.5zm-76.9-9.2c7.3-1.8 8.1 8.7 3.9 16-1.4-2.2-2.3-5.3-3.3-7.9-1.3-3.8-2.3-4.9-0.6-8.1zm107 5.7c-0.1 1.5-0.3-0.4 0 0.9 0 0 0.3 1.2 0.4 1.4 0.9 2.5 2.7 3 2.6 6.7-1.5 1-2.4 1.5-4.5 2.1l-2.7-5.4c-0.3-0.3-0.5-0.5-0.8-1.1-0.2-0.4-0.4-1-0.8-1.7-0.3-1.3-0.7-2-1.6-3.2-1.4-1.9-1.3-1.1-2.1-3.3 1.5-2.6 5.1-3.6 5.9-3.4 2.4 1.5 4.6 3.4 3.6 7zm-50.7-8.6l8.9-4.2 8.6 15.6c-1.6 1.8-4.4 3.2-6.5 4.5-2.8 1.7-3.9 2.7-6.9 4.1-0.7-13.4-3.7-15.5-4.1-20zm11.3-5.4l18-8.6c3 4.9 5.6 11.1 8.6 16-2.7 1.4-6.5 2.5-9.5 3.8-3 1.4-6.5 3.8-8.9 4.6zm73.2-12.3c-1.2-1.8-0.3-1.3-1.9-3.5-1-1.2-0.4 0.8-0.9-1.5-0.5-1.7-0.2-0.8 0-2.4 3.5 2.8 2.8 5.6 3.3 3.1-1.3-0.6-1.5-0.9-1.5-2.9 1-0.4 0.3-1.1 1.7 0 0.9-0.5 1.2 0.6 0.7-0.5-2.2-0.9-0.7 0.1-1.5-1.7l3.4-0.5c1.1 1.2 2.6 3.4 4.6 3.9l0.9-1.2-2.6-3.8 11-7.6c11.3-7.9 16-3.6 22.4 7.3 2.3 4 5.3 8.4 7 12.1-12.7 9-16.6 10.4-9 15.5 2.1 1.4 7.6 6.3 10.5 6 2.6-0.3 7.6-5.4 10.2-6.9 2.3 1.6 12.2 14.3 22.4 10 4.9-2.1 2.3-7.2-0.1-10.5-2.1-2.9-5.5-6.4-6.9-10 3.1-2 5.8-4.4 9.2-6.4 4.6-2.9 7.3-1.6 8.5 3.5 1.2 5.2 1.6 25.8-0.7 30.1-9 0.9-61.3-12.4-75.3-16.9-5-1.7-8.7-2.2-10.3-5-1.7-2.9-3.9-7.1-5.1-10.2zm-93.4 3.6c1.7 3.4 4.9 9.3 5.9 12.9l-17.5 10.1-6.1-15.8zm150 10.2c-10 9-9 6.2-16.6 1.7-4.7-2.7-3.9-4.6 0-7.3 1.6-1.1 2.2-1.7 3.8-3l3.9-2.7zm-171-3.8c-4.6 1.7-9.2 4-14.8 4.6-10 1.1-8.7-0.3-10.3-8.5-1.1-5.7-1.8-11.4 1.5-15.7 7.2-9.4 2.6-5.2 4.2-14.9 0.9-5.5 6-7.7 8.7-11.2 3.2-4 0.6-10.3 3.6-15.6 2-3.7 7.5-4.7 11.1-8.1 14.3-13.5 3.9-16.7 10.7-18.6 2.6-0.7 5.8-0.6 8.3-1.2 17.2-4.4 19.2-18.7 38.4-19.4 27.5-1.1 17.6-2.9 32.5-5.9 7.5-1.5 10.3 0.8 16.3 2.6 5.5 1.6 10.7 1.6 16.4 2.7-4.9 4.8-22.6 13.9-30.1 17.9-5.4 2.9-27.7 15.1-31.4 16.4-3.7-5.3-10.7-14.9-21.5-11.4-11.2 3.7 0.5 19.7 0.9 22.2l-11.1 4.9c-0.1-0.1-0.2-0.2-0.3-0.3l-6-9.8c-7.3-9.8-16.8 2.1-18.2 8.9-1.3 6.6 2.2 8.7 3.3 12.8-6.8 4.1-5.4 5.6-1.5 11.6 3 4.5 4.6 7.2 11.6 5.8 1.9 5.3 6.7 12.5 8 17.3l-8.2 3.3c-1.9-2.7-3.6-7.1-5.3-10.1-1.9-3.5-3.3-5.9-5.4-9.2-3.3-5.1-9.6-16.7-15.3-12.2-4.4 3.4-9.6 13.5-5.8 21.8 2 4.6 9.1 14.4 9.7 19.3zm164-9.1c2.8-2.1 10.8-9 13.6-10.1 1.8 4.5 5.7 9.4 7.3 13.8l-11.6 7.7-3-2.8c-0.9-1.1-1.4-1.8-2.3-2.8-1.4-1.8-3.1-3.9-4-5.8zm-130.5-2.7c2.9-1.7 15-7.4 18-8.2 1.4 1.4 6.2 10.3 6.5 12.3-4.1 1.9-13.6 6.8-18 7.9-2.4-2.9-5-8.5-6.5-12zm20.3-9.4c2.3-1.4 7.6-4.1 10.1-4.8 1.8 2.4 5.2 8.9 6.4 11.7-1.7 1.6-7.5 4.1-10 5.4-1.3-1.2-6.2-10.3-6.5-12.3zm-51.6 20.1c-1.4-2.9-3-6.5-4.5-9.3-4.3-7.9-8.6-11.8-5.6-20.5 0.7-2.3 3.6-7.4 5.1-8.5 6.4-4.5 21.7 27.3 22.7 30.9zm172.3 4.9c1.8-1.4 9.9-6.6 11.7-7.2 2.1 2.6 3.7 5.5 5.6 8 1.8 2.4 4.3 4.7 3.3 8.5-8.9 3-18.2-5.1-20.6-9.3zm-108.3-31.1c4-2.1 12.9-7.5 16.5-8.4l6.8 12.5-17.4 7.9c-1.4-3.4-5.1-8.7-5.9-12zm-41.9-3.3c1.1-1.2 15.4-7.7 17.3-8.2l8.7 16.4c-1.9 1.8-15.1 7.8-18.3 8.4zm60.6-6.6c5.4-1.4 9.1-5.4 12.9 1.3 3.5 6.5-0.7 10-5.8 11.7-1.2-1.5-6.3-10.7-7.1-13zm-30.5-8.5c1.2 1.7 8 15.8 8.4 17.7l-10.4 4.9-8.7-17zm-33.5 13.5c-6 1-5.9-2-8.8-5.6-2.8-3.5-3.6-6.1 1.5-8 1.4 1.5 7.3 11.9 7.3 13.6zm126-5.4c1.7-2.5 6.9-4.3 10.2-5.9 3.7-1.9 6.8-3.7 9.7-6 3.5-2.8 3.9-4.4 9-6.8 3.1-1.4 8.2-3.6 12.3-3.3 1.3 2.1 2.9 7.5 3.9 10.1 1.3 3.2 3.1 6 4.5 9 2.3 5.2 6.3 15.1 5.1 21.6-3.6 0.3-4.5-2.3-6.2-5.5-1.5-2.8-2.4-5.4-4.8-7.1-5.3-0.4-8.7 6.4-12.5 8.5-2.2-2.6-3.8-6.6-5.6-9.6-13.6-22.1-9.9-5.7-25.6-5zm-74.3-17.6l8.7 17.4c-4.7 3.5-11.7 5.7-16 8.6-1.5-2-8.2-15.1-8.5-17.8zm-40-0.3c2 3.2 6.4 10.9 7.6 14.4-0.5 0.5-0.3 0.4-1 0.9l-7.2 3.4c-2.9 1.3-5.8 2.8-9.2 3.7-1.9-5.5-6.2-11.4-6.9-13.8zm2.4-0.7c1.2-1.2 9-5.3 10.8-6 1.7 1.7 6.9 12 7.6 14.8l-10.7 5.4zm-20.3 7.7c-6.6-5.6-4.3-14.9 1.6-20.1 7.7-6.6 13.1 5.9 15.4 11.4zm49.2-22.8c1.4 1.5 2.8 4.9 3.9 7.1 1.6 3.1 3.2 5.2 3.2 7.4l-15.5 8.4-7.4-14.9zm-16.9 6c-2-2-4.1-6.3-5.3-9.5-5.5-15.4 17-10.4 21.1 1.7-4.9 1.8-10.9 6.5-15.8 7.8zm-23.9 58c3.1-0.7 5.5-2.7 8.5-3.1l6.1 11.8c-1.6 1.6-6.6 3.8-9.1 4.4zm39.7 87.8l10-5.3 10 21.8c1.4 2.6 11.6 22.2 5.5 21.9-3.8-0.2-11.2-14-13.7-18.3-4-6.9-8.3-13.1-11.8-20.1z"/>
		<path id="Path 127" fill-rule="evenodd" class="s6" d="m296.8 1384.5c2.8 14.9-14.1 18.3-15.4 6-0.7-6.5 2.6-10 4.3-15.2-17.8-5.3-44.9 3.4-62.2 8.5-20.1 5.9-25.2 8.1-40.5 18.5l-9.1 6.3c-7 4.5-7.7 5.4-16.1 9.4-7.4 3.5-1.2-1-9.8 5.1-1.1 0.8-1.9 1.2-3.2 2-9.6 6.7-24.8 10.6-38.7 6.5-3.8-1.1-6.6-3.1-9-3.9-2.6-0.8-10.7 5.1-12.7 7.1-13 13.4-3.3 28.7-3.2 31.1-3.2-1.6-4.2-6.9-4.6-10.2-2.9-21.6 16.1-27.2 18.2-29.6-4-4.5-7.6-7.1-6.2-14.3 2.9-14.6 25.3-14.3 21.1 1.8-2.3 8.6-7.6 9.5-11.5 12.9 12.3 10.5 39.3 4.5 49.7-5.3-5-0.1-7.6 1-13.3-1.6-3.7-1.6-7.7-5.6-9-8.2-1.3-2.9 0.3-2.5-2.6-4.8-5.9-4.5-6.1-9.4-4.5-16.9-5-2.7-6.9-5.8-8.1-10-1.7-6.1 0.5-8.7 2.9-14.1-6.9-6.7-6.3-18.6 2.5-26.4-1.6-3.4-2.4-8.4-0.1-13.5 2.4-5.2 5.7-7 9.5-8.6-0.3-11 5.7-14.3 14.4-16.6 0.7-8.3 2.7-12.4 10.1-15.9 2.1-1 4.1-1.2 6.9-0.8 7.3 1.1 1.5-2.9 9.9-7.3 4.5-2.4 8.4-1.3 14.3 0 4.3-12.8 19-16.5 29.2-7.3 4.6-3.2 6.7-5.9 14-5.8 8.2 0.1 10.9 4.3 15.2 8.1 6.9-3.2 15.9-0.7 21.6 4.2 2.7 2.4 2.3 2.8 3.6 5.9 11.2 1.4 14.6 3.9 19.1 11.3 9.8 1.1 17.2 11.6 17.5 21.7 0.1 2.4-0.4 1.2 1.2 3.1 1.1 1.3 1 1 2.1 2.8 3.9 6.2 3.5 16.1-0.3 23.4-5.1 9.4-15 11.4-23.4 14.6-21.4 7.9-62 17.6-80.2 26.3l-18 9.5c-1.9 1.2-4 2.7-5.9 4.1-5.2 3.7-17.9 13.9-21.5 18.8 15.6-3.8 25.6-20.9 60-32.3 12-4 37.4-11.3 51.1-12.5 8.6-0.7 11.8 0.2 20.7 1.6 10.2-12.1 13.9-12.8 29.4-17.6 9.8-3.1 24.3-7.7 27.8-21.9-3.8 0.2-6.4 1-10.1-1.8-7.9-5.7 0.9-15.1 8.1-9.3 2.9 2.4 2.8 5.5 3.8 8.4 16.8-8.7 7.1-23.9 39.4-45.9 3.1-2.1 3.6-3.9 6.3-6.1 0 0.2 2.3-0.2-1.6 4.1-5 5.4-13.2 7.3-22.7 20.2-6.7 8.9-8.1 17.5-15.2 25.1-3.9 4.1-5.6 2.6-6.8 5.7-3.5 9.2-4.4 10.7-11.1 15.4-13.1 9.5-35.1 7.6-45.8 24.2 4.6 4.3 7.4 4.4 8.5 10zm-54.5-104.3c-0.4 3.6-2.6 5.2-5.4 4.9-8.5-1-1.8-9.9 0.7-13-9.1-10-18.9-9-26.4-1.7 1.8 3.9 5.1 9.2 0 14.5-9-0.8-5-8.8-2.1-14.7-6.2-4.5-7.9-6.1-15.9-4-5 1.3-9.5 4.5-11.3 11.3 4.7 2.8 9 8.3 4.5 13.3-8-0.3-5.1-7.7-6.4-12.7-7.2-5.2-16.3 0.4-19 7 3.2 1.6 6.1 3.9 7.2 6.3 5.1 10.3-14.1 15.1-9.1-5.7-10-2.7-17.9 4.3-18.1 14.7 7.2 1.4 13 4.8 8.7 11.5-8.6 0.6-8.2-5.7-10.4-9.8-6.7 1-12.5 5.3-12.7 14.6 3.6 1.1 5.3 0.2 9 2.7 9.7 6.6-4.4 13.7-10-0.6-8.2 2-12.1 11.2-8.4 19.4 4-2.5 16.7-1.9 14.5 5.1-1.1 3.5-4.4 3.7-8.2 2.4-3.5-1.3-4.8-3.7-7-5.3-7.5 6.3-8.3 18.9-2.2 24.1 3.9-2 8.7-4.8 13.9 0-0.2 9-8.3 4.9-14 2.1-2.3 4.8-3.6 7.6-2.3 12.8 0.8 3.2 3 7.4 7.4 8.8 3.7-4.2 7-9.2 13.1-3.7-0.4 9.7-6.3 5.7-12.4 5.9-2.8 6.1-0.3 12.5 4.2 15.4 1.4-1 0.2 0 1.4-1.7 4.7-7 9.9-5 11.1-2.6 1.4 2.7-1.1 5.3-2.9 6.2-3.6 1.7-4.8 0.2-7.6 0.8 4.9 12.9 19.6 13.2 25.1 10 7.8-4.6 16.3-25.2 70.4-43.3 17.8-5.9 36-10.4 53.7-16.5 7.8-2.7 19.4-5.7 24.8-12 7.8-9 6.7-23 0.2-28.5-1.3 3.2-2.4 5.2-5.1 6.4-10 4.5-11.8-14.9 4.2-9.3 0.8-8.1-5.5-18.4-15.3-21-0.2 2.9 0.7 4.5-0.8 7.6-0.9 2.1-3 3.7-5.4 2.2-2-1.2-1.7-3.9-0.5-6.6 1.4-3.1 2.5-3.1 4.2-4.7-3.9-6-7.5-9.4-16.9-9.6-0.9 3.2-0.3 5-2.7 8.1-3 4.1-8.6 1.8-7.1-3.1 0.4-1.3 1.3-2.6 2-3.4 2-2 4.2-2 5.8-3.1-4.9-10.4-17.4-12-22.6-9.1 0.3 3 2.6 3.9 2.1 7.6zm-115.5 85.7c-0.3-5.2-9.4-1.5-10.9-0.3 2.3 2.6 11.1 4.8 10.9 0.3zm163.6 30.5c5.5-1.6 9.6-14.9-3-20.3-7.7 8.5-5.1 22.8 3 20.3zm-159.7-55.4c-4.1-3.7-8.2-3.4-12.5-1.6 1.8 4.4 11.7 9.3 12.5 1.6zm6.7-16.6c-0.9-3.5-5.4-6.6-10.1-5.8 0.3 1.8 1.7 3.7 3.6 5.4 2.7 2.4 4.4 2.4 6.5 0.4zm10.8-19.6c-1.8-1.9-4-2.7-6.8-2.8 0.5 12.2 13.2 9.6 6.8 2.8zm12.2-18.3c-0.9 2.6-1.4 5.6-0.6 8.1 0.7 2.5 3.1 5.3 5.7 3.9 5.4-3-0.4-10.5-5.1-12zm131.6 29.4c-1.9 0.8-3.7 3.7-2.6 5.9 2.6 5 8.9 0.3 9.8-4.8-2.4-1.5-5.1-1.9-7.2-1.1zm49.4 8.8c-2.2-2-6.1-2.3-8-0.2-4.5 5.2 4 10.9 10.5 8.2 0.4-3-0.7-6.2-2.5-8zm-156.6-35.3c4.9-1.9 0.4-8.1-3.1-10.2-0.5 4.5 0.1 8.3 3.1 10.2zm97.6 5.4c-1.1 0.2-2.2-0.2-3.8 3.5-1.3 2.8-1 4.1 1.3 5 2.9-1.3 3.8-5.2 2.5-8.5zm-72.1-11.5c3.6-0.9 2.2-9.3-0.6-11.4-3.9 6.6-2.8 12.3 0.6 11.4zm47.8 2.6c-4.7 4.6-0.1 8.7 3.2 4.1 1.4-1.8 1.7-4.2 1.9-6.4-2.4 0.3-3.1 0.3-5.1 2.3zm-19.8-12.3c-2.7 2.5-4 4.9-3.9 8.6 7 5.2 8.3-4.6 3.9-8.6zm-105.3 132.8c2.2-1.1 2.7-2.3 2.6-4.8-4.1-1.9-8.1 0.2-9.5 4.8 2.5 1.1 5 0.9 6.9 0zm-25.4 9.1c2.5-5.9 0.7-12.7-5.7-13-9-0.5-18.9 12.4-5.8 22.7 3.4-0.5 9.5-4.9 11.5-9.7z"/>
		<path id="Path 139" fill-rule="evenodd" class="s1" d="m732.8 261.2c20.1-14.9 60-18.5 84.7-16.5 16.4 1.3 42.8 1.7 54.1 14.1 3.6 3.9 4.5 6 4.5 12.7 0 4.9-0.5 10.9-1 15.8-0.6 6.1-0.3 25 6.4 27.1l1.4-1.4c0.3-0.4 0.9-0.8 1.4-1.1 1-0.6 2.3-1 3.5-1.6 2.6-1.1 4.6-2.2 6.8-3.5 1.6-0.9 4.9-3.8 6.6-3.6 0.7 0 5.6 2.6 6.6-2l-3-0.2c-0.2-1.5 1-1.8 2.5-2.5 3.7-1.7 5.9-3.9 8.8-6.5 2.4-2.1 5.3-1 8.6-0.5 6.2 0.9 8.8-5 2.1-3.2-1.3 0.3-2.1 0.9-3.4 0.5-0.8-0.6-0.3-1.6 0.5-2.2l5.3-3.1c2.5-1.4 4.7-3.6 8.3-3.3 4 0.3 22.4 6.5 26.6 8.2 10.9 4.5 11.1 3.3 11.2 11.9 0.1 3 1.4 7.9-0.8 9.7-1.4-0.1-2.5-1.3-4-0.3-1.9 1.2-3.7 6-0.1 5.5 1.1-0.1 1.6-1.2 4-1.3 0.8 1.1 1.5 1.1 1.3 3.3 0 1.2-0.5 2.4-0.8 3.6-3.2 14.6 1.5 18.3-3.6 21.7-0.2 0.1-0.4 0.4-0.4 0.3-0.1-0.1-0.2 0.1-0.3 0.2 25.9-2.4 30.6-1.8 55.9-0.4 14.2 0.7 34.2 3.5 47.8 0.4 1.5-0.3 4.6-1.3 5.7-0.8-0.2 1.5-1.6 1.5-4.2 2.1-11.3 2.3-28.1 2-39.2 0.4-4.2-0.6-17.1-1.2-22.3-1.5-7.6-0.5-15.3-0.7-22.9-0.3-14.1 0.7-18.5 0.5-31 5l-35.9 11.7c-10.8 2.9-8.6 3-9.9 0.1-0.5-1-0.7-0.5-1.2-1.8 2.3-0.8 2.5 1.5 3.2 2.4 0.8-0.5 11.1-3.1 13.1-3.6 8.8-2.4 32.4-11.7 37.4-12.4-4.4-0.3-18 3.5-22.7 4.9-4.6 1.3-18.2 7.6-20.2 6.8-0.7-2.8 2.8-3.1 0.9-6.3-1.1-1.8-2.7-2.8-5.7-2.9 0.1 4.2-0.3 6.3-5 5.7-1-1.1-2.4-2.3-1-4.3 0.8-1 2.4-2.1 4.1-2.4l-1-1.9c0-0.1-0.1-0.1-0.2-0.2 0-0.1-0.1-0.1-0.1-0.2-2.1 6.6-12.8 8.2-12.8 1 0-3.5 2.4-5.9 5-6.7 4.3-1.3 5.2 1.8 7.9 2.9 1.2-1.5 2.5-5.7 4.7-5.5l0.2 0.6c0.8 2.7-0.5 4.3 4 5.1 3.2 0.5 5.6-0.2 7.1-2 2.6-3.2 1.5-11.8-5.9-8.4-7.1 3.2-9.9-3.6-6.8-8.4 1.2-2 3.8-2.9 6.7-2.1 3.7 1 3.8 3.2 4.7 4.6l5.7-3.2c2.5-1.5 1.4-2.4 5.4-3.7 2.9-0.9 5.2-0.7 7.2 0.9 3.4 2.8-0.9 4.1-0.8 5.8 1.2 3.7 5.4 2.6 7-0.2 0.7-1.2 0.8-3.3-0.3-4.3-1.7-1.4-2.4 0.3-4.4 0 0-1.7 3.6-2.5 5.5-6.8-7.7 1.7-9.2-4.1-7-7 2.4-3.3 7.7-1.2 8.6 2.4l0.3 1.4c4.2-3.1 1.6-7.5 2-11.6-4 0.6-9.9 2.5-13.9 3.5-3.6 1-11.8 2.1-14.3 3 2.1 0.9 4.9 1.1 5.3 3.6 0.5 2.9-1.4 4.8-3.1 5.8-4.3 2.4-9.6-1.9-9.9-6.3-1.1 0-3.9 1.3-5.4 1.6-2.1 0.6-3.6 0.8-5.9 1.3 1.8 0.7 3.8 2.6 4 4.9 0.4 5.4-4.8 8.7-9.8 8.1-3.4-0.4-3.2-2.2-4.7-3.9-4.6 1.2-6.8 0.5-6.6-4.9-3.7 1.1-8.9 3.3-13.1 1.4-0.7 2.8-0.2 9-0.3 12.4 0 2.8-0.6 10 0.9 11.8l0.2-0.3c4.6-6.9 16 0.7 6.4 8.9-3.9 3.4-7.4-0.6-7.3 7.2 0 2.6-0.5 11.9 0 13.4 1.7 0 4.1-1.4 5.7-2.1 3.5-1.7 7.6-2.7 11.5-3.6 2-0.4 4.4-1.5 5.8 0.1-1.2 1-0.7 0.2-2.6 0.4l-14.7 4.6c-1.9 0.9-6.6 3.9-7.4 0.2-0.4-1.4 0.3-8.3 0.3-10.5-0.1-3.6-0.7-7.4 2.4-8.8 3.4-1.6 4.7-0.5 7.1-3.8 2.1-2.8 2.4-5.7-1.4-7-4.6-1.5-3.6 3.1-6.8 3.3-2-2.5-1.8-8.4-1.7-12.5 0.1-4.6-0.4-9.9 0.3-14.2-4.6-1.9-5.4-5.4-6.5-10.4-1.6-6.9-1.5-15.9-0.6-23.1 0.3-2.4 0.3-5.6 0.4-8.1 0.2-6 0.5-8.9-3.2-13.7-4.8-6.2-14.7-9.7-22.7-11-5-0.8-9.6-1.5-14.8-2.2-5.1-0.7-10.1-0.7-15.3-1.2-24.7-2.4-65.1 1.5-84.7 16.1-1.5 1.2-2.9 2.4-4.3 4.1-3.8 4.5-5.8 13.7-5.2 19.8 2.5 1.6 7.9 3.1 10.9 4.4 7.4 3.1 14.2 6.4 22 8.6 2.1 0.7 3.9 1 6 1.7 1.2 0.3 1.9 0.3 3.1 0.6 1.3 0.2 1.8 0.7 2.2 1.8-8.1-0.8-15.8-3.9-23.2-6.8-4.5-1.8-17.9-8.5-21.3-8.3 0.2 6.3-0.1 12.9-0.1 19.3 0 15.3-4.3 25.9 5.6 35.8 2.3 2.3 5.3 4.3 8 6.1 7.6 4.7 17.3 8.1 28.2 10 14.5 2.4 39.2 2.3 54.5 0.2 5-0.7 9.5-3.3 10.3-8.7 0.8-4.4-1.2-12.5-1.3-17.4l-0.1-19.1c-0.2-1.8-1.9-5.4-2.9-6.8-4.6-6.3-16-5.5-23.2-4.3-6.3 1.1-20.5 2-27.2 1.1-2.5-0.3-6.1 0.2-7.2-2.3 2.9 0.2 5.5 0.9 8.2 1 3 0.1 6.2 0 9.1 0 4.7 0 12.3-0.4 16.8-1.1 4.1-0.7 12.8-1.5 16.7-0.3 5.3 1.5 7.1 3.4 9.7 7.9 0.4-3.5-1.8-11.3-3.1-14-2-4.1-4.2-7-7.1-10.1-1.6-1.6-3-2.7-4.6-4.1-4.8-4.5-20.1-12.2-15.8-16.8 2.5-2.8 19.5-1 23.5-1 10.7 0.1 21.5-0.8 31.6-2.4 4-0.7 11.5-2.3 15.2-0.5 10.7 5-0.5 16.7 5.2 43.3 1.1 4.9 2.4 9.4-1.5 13.4-6.3 6.6-20.3 5.5-28.9 5.5-3-0.1-5.1 0.1-7.8-0.7-1.3-0.4-2.1-0.7-3.1-1.3-0.9-0.6-1.4-1.6-2.3-1.9 0.1 6.5-0.2 14.9 0.8 21.3 0.7 3.7 1.8 9.4 0.2 13-2.4 5.5-6.9 7.7-13.5 8.1-4.5 0.3-9.1 0.9-13.8 0.9-22 0-43.1 1-63.1-9.2-9.8-5.1-19.3-12.1-19.3-24 0-6.2 1.9-40.3 0.9-41.6-0.8-1.1-18.6-6.1-21.1-6.8-7.6-2-15.1-3.6-23.4-4-11.8-0.7-31.5 1.4-42.9 5.3-2 0.7-4 2.2-4.3 0.1 4.7-2.8 16.5-4.5 22.1-5.4 17.2-2.9 32.3-2 48.9 2.7 2.6 0.7 20.2 6.2 20.9 6.1 0.2-9.7 2.2-18.5 10-24.3zm241.2 47.1c0.3-2.3-0.1-6.6-0.1-9.3 0-4.5-0.1-4.8-3.6-6.4-10.2-4.6-13.2-4.7-21.6-7.9-4.6-1.7-11.2-4.6-15.5-2l-6.2 3.8c1.8 0.2 3.2-0.6 4.6 0.6 1.8 1.6 0.6 7.1-9.3 5.6-4.7-0.8-5 0-7.4 2.5-1.9 1.8-4.1 3.2-6.7 4.4 2.6 2.6-0.6 5.4-3.3 5.8-1.7 0.2-3.3-0.9-4.5-0.5-0.3 0-2.7 1.7-3.4 2.2-1.3 0.8-2.2 1.4-3.3 2l-9.1 4.3c-1.5 1-1.1 1.1-1.3 1.6 1.7 0.9 5.4 0.7 7.4 0.1 2.1-0.6 4.6-1.8 7-1.6 0.1 1.9-1.3 3.4 0.2 4.9 1.3 1.5 3.2 0.1 4.6-0.2 0-1.3 0.2-3.7 0.8-4.8 0.8-1.3 0-0.6 1.2-0.9 1.1-0.8 1.8 1.4 1.8 2.8-0.1 2.5-1.1 2.2-1.9 3.5-1.8 3.1 5.9 5.6 9.5 1.3 0.7-0.8 1.6-2.8 1.7-3.8 0.1-3.5-3.8-3.6-4.6-4.8-0.3-0.5-0.1-0.1-0.2-0.4-0.4-1.4 0.9-1.3 2.4-1.7 0.9-0.2 1.9-0.5 2.8-0.6 5.2-1 10.8-4.6 11.1-2.8 0.3 1.3-2.4 0.9-0.7 3.9 4.5 8.1 13.2-0.2 8-2.7-1.8-0.9-3.8-0.6-4.6-2.5 1.1-1.8 3.8-1.9 6.1-2.2 2.6-0.5 4.9-0.8 7.4-1.4l20.4-5.4c2.9-0.6 5.5-1.1 6.5 1.4 1 2.7-0.6 4.9-2.7 5.6-2.4 0.9-4.2-0.2-5.7-2 0 0.4 0.5 5.7 0.6 6l-0.3 0.4c-0.1 0.1-0.1 0.2-0.2 0.3-0.8 1.4-0.5 2-2.7 3.9-1.1 0.8-1 0.4-1.3 1.8-0.4 1.7-1.9 3.6-3.2 4.6l2.2 2.1c3.1 5.2-5.1 11.6-9 6.8-2.2-2.9 0.5-4.2 1.1-5.9-1.6-3.3-6.9-1.8-9.4-0.2 0.9 0.7 2.8 0.4 4 2.9 2.5 5.3-3.4 7.7-5.9 5.2-1.5-1.5-1.1-3.1-1.5-5.3-2.7 1.5-4.9 3.6-6.4 3.7-0.6-1.6 0.3-1.6-0.8-3.4-1.6-2.6-6.8-4.1-8.6 0.2-1.1 2.5-0.5 6.1 2.7 6.1 3.3-0.1 4.1-2.7 7.9-1.5 6.6 2.1 5.6 15.9-5.9 14.1-4.9-0.8-4.6-3.4-5.1-4.5-0.8 0.2-0.5 0.2-1.3 1.7-1.8 3-1.6 1.9-0.6 3.8 0.6 1 0.3 1.3 1.3 1.9 0 0 7.3 0.1 7.6 5.6 0.1 2.3-0.8 2.4-0.9 3.7l7.6-3.1c9-4 15.7-5.5 25.6-7.6 9.8-2.1 13.8-0.9 12.9-9.1-1.1-9.5 2.8-15.7 1.7-19.6l-2.1 1c-0.1 0-0.2 0.1-0.2 0.1 0 0.1-0.1 0.1-0.2 0.2 0 0-0.1 0-0.1 0.1-4.8 0.4-5.7-3.8-3.2-6.9 0.9-1.2 1.4-1.1 2.4-2.1 1.9 0.3 1.8 0.1 3.5 0.6zm-32 19.3c1.1-0.9 0.9-2.3 0.1-3.7-0.8-1.4-1.7-1.7-3.7-1.5-1.8 3.7 0.9 7.4 3.6 5.2zm8.5-20.6c-0.9 1.4-0.6 3.7 0.6 4.5 1.5 1.1 4.1 0.5 5.4-0.2 0.5-5-4.3-6.9-6-4.3zm14.1-5.8c4.3 1.9 6.4-4.8 2.1-4.6-0.3 0-4.7 1.1-5 1.2 0.2 1 2.1 3 2.9 3.4zm-49.8 49.7c0.7 0.7 2.1 0.3 2.6-0.2 0.8-0.9 0.6-2.2 0.6-3.3-1.8-0.3-4.7 1.9-3.2 3.5zm-42.9-49.8c-4.7-22 5.7-35.1-3.7-39.2-2.9-1.2-13 0.3-16.6 1.1-7.8 1.5-27 2.3-35.3 2-4.6-0.2-13.4-1.5-17.1 0.9-0.3 2.9 4.5 5.8 7.4 7.8 1.4 1 2.6 1.9 4.4 3.2 11.4 7.9 19.8 19.1 19.6 34.4 0 2.8 0.4 4.6 1.3 6.6 0.8 1.7 2.9 2.7 4.8 3 3.3 0.7 10.8 0.9 14.4 0.8l10.5-0.9c1-0.2 2-0.7 3.1-0.8l1.2-0.5c10.6-3 7.5-11.1 6-18.4zm33 43.1c-0.2 3.2 3.2 4.2 6 3.1 3.1-1.3 3.4-4.1 4.5-4.9-3.9-6.1-10.3-2.9-10.5 1.8z"/>
	</g>
</svg>