<svg version="1.2" xmlns="http://www.w3.org/2000/svg" viewBox="0 0 1191 1684" width="1191" height="1684">
	<title>Carta</title>
	<defs>
		<clipPath clipPathUnits="userSpaceOnUse" id="cp1">
			<path d="m0 0h1191v1684h-1191z"/>
		</clipPath>
	</defs>
	<style>
		tspan { white-space:pre } 
		.s0 { fill: #ffffff;stroke: #ffffff;stroke-miterlimit:22.92558479309082;stroke-width: 2 } 
	</style>
	<g id="Page 1" clip-path="url(#cp1)">
		<path id="Path 6" fill-rule="evenodd" class="s0" d="m917.3 902.7c11.8-36.8 43-115.1 62.5-150.1 2.3-4.2 4.2-10.4 10.1-9.9 0.9 13.7-17.3 63.8-22.7 79.7-3.8 11.4-25.6 72.4-25.8 78.4 2.8-4.4 13.9-32.3 16.6-39.2 8.2-21 35.7-87.5 46.1-106.7 2.1-3.9 2.9-6.5 7.9-6.3 1.3 17.9-30 119.1-38 151-1.9 7.2-3.1 15.5-4.9 21.9 4.2-4.4 15.3-33.4 17.7-39.1l16.6-41.8c4.7-13.2 10.6-27.6 16.2-41.1 2.6-6 12.7-37.5 19.6-39.1 3.2 6-6.5 34-8.7 41.7-5.4 19.2-34.8 113.5-35 124.6 2.8-3.4 15.7-36 17.3-39.6l31.9-80.5c2.7-6.9 13-36.4 18.6-38.5 3.7 7-32.2 118.6-36.9 134.8-6.5 23-12.5 44.1-21 65.3-14.3 35.9-33.9 37.6-40.1 46.9 26.3 20.5 47.7 29.3 82 39.1 2.5-5.1 6.1-25.3 8.2-32.5 3.3-10.9 6.2-21.2 9.7-31.8 5.9-17.7 15.2-42.9 23.4-59.2 22.5-44.5 33.8-65.1 62.4-102.4 2.8-3.6 6.2-7.8 9.3-10.8l10.6-10.5c9.3-8.4 21.7-12.3 18.8 7.9-2.8 19.9-11.2 46.4-17.1 64.9-22.6 71.1-44.2 147.8-73.7 216.2-1.1 2.6-2 5-3.1 7-2.2 4-1.6 2.3-3.1 7.1l-11.8 29.2c-0.7 2.6-1.8 4.9-3.1 6.9l-8.8 22.5c-2.1 5.2-4.2 10.3-6.1 14.9-4.3 10.2-7.8 19.5-11.7 29.6-20.1 51.6-37.2 104.2-46.5 160.1-7.7 46.3-5.6 84.3-23.5 131.8-1 2.6-2.5 4.6-3.3 7l-2.1-0.1c0.7-4.4 5.6-15.7 7.3-20.9 6.3-19.4 12.3-52.9 13.6-72.7 4.4-66.7 22.1-124.5 44.1-185.5 10.2-28.3 20.5-56 33.5-82.1 1.6-3.4 1.7-6.9 3.4-10.6 2.7-5.7 2.6-3 4.5-10 1.3-5.1 3.2-7.6 5.2-11.8l11.1-28.6c3-7.1 5.5-13.9 8.5-21 22.8-54.8 38.8-116 57.5-172.3 5-15 25.9-78.8 21.8-92.8-6.5-1.9-12.4 4-15.6 7.1-43.5 42.3-78.8 113.8-99 168.5-4.8 12.9-21 63.4-21 75.7 6.8 4.3 31.4 6.1 24.7 32.4-3.7 14.3-21.1 34.3-29.2 31-11.4-10-0.3-46.4 0.6-61-6.5-3.3-16-4.9-23.3-7.5-17.1-5.9-36.3-15.3-51.1-26.1-3.2-2.4-5.6-4.5-9.6-6.9-8.3 2.9-18.7 15.3-23.6 24-24.3 43.1-45.6 127.5-58.5 177.4-3.2 12.3-6 25.6-9.1 38.3-3.1 12.6-7.2 24.4-10.3 37.1-13.7 57.1-5.8 187.6-58.4 201.4-28.2 7.4-54.6-18.2-53.7-38.5 0.2-4.7 2.2-16.3 4-19.3-32.8 8.7-23.7 10.3-67 15.4-69.8 8.3-167.5-10.4-234.3-32.3-2.6-0.9-4.6-1.6-7.3-2.8l-15.7-5.3c-1.8-0.4-2.1-0.5-3.9-1.3-1.6-0.7-1.4-0.7-2-1l-1.4-0.6q-0.4-0.2-0.8-0.3c-5.2-1.9-10.3-3.5-15.3-5.4-55.1-21.7-101.9-46.3-150.8-79.7-22.6-15.4-37.9-27.8-58.7-45.8-19.3-16.7-25.7-25.1-42.1-41.5-7.1-7.1-12-14.2-18.9-22.2-19.9-23-35-50.9-49.4-77.5-8.9-16.4-17.4-40.5-23.2-60-14.8-49.5-16.6-99.8-11.6-150.9 1.1-11.2 9.6-64.5 14.1-69.8l0.9 0.9c-2.3 4.2-2.5 3.5-1.6 9-5.9 17.1-12.1 68-12.7 84.7-2 63.2 4.5 110.5 28.8 167.5 5.2 12.4 10.7 22.3 16.3 33.1l13.7 23.3c1.1 1.6 2.2 3 3.1 4.4l-13-24.8c-28.4-55.3-44.4-116.7-46.3-180.5-0.5-15.5 0.6-29.1 1.3-44.2l3.5-30.1c0.5-4.1 0.7-7.5 2.9-9.1 2 6.9-1.9 18.9-2.6 26.2-0.9 9.3-1.4 17.8-1.9 27-2.6 50.1 5.4 107.7 21.5 153 14.1 39.6 34.8 82.2 60.3 114.8 12.8 16.3 18.9 24.1 33.5 39.7 2.4 2.6 5 4.6 7.6 7.5l47.7 39.8c52.5 35.4 97.4 57.1 164.5 68.9 17.2 3 34.1 5.1 52.5 5.7 17.3 0.5 33.6 1 50.8-1l7.2 1c-0.3 0.2-0.7 0.1-0.9 0.5-0.2 0.4-0.6 0.3-0.9 0.4-9.2 3.4-54.1 2.2-70.2 1-42.6-3-82.9-13.3-121.9-28.8-8.7-3.4-18.6-7.9-26.4-11.8l-18.4-9.7c-0.9-0.5-2.1-1.5-3.1-1.8-6.1-2.3-1.4-1.2-2.9 0 4.8 2.5 7.4 4.8 11.9 7.8 28.8 19.1 64.3 38.5 95.2 52.8 9.2 4.2 19 8.6 28.5 12.6 5 2.1 10 4.1 15.1 6.1 2.7 1 4.8 1.5 7.2 2.6 3.1 1.3 4.2 2.5 7.8 3.5l15.9 5.3c3.2 1.1 1 0.6 3.5 1.5 81 27.2 219.6 54.4 302 22.2 8.5-3.3 8.1-0.9 11.1-9.9 1.4-4.1 5.2-11.4 5.3-15.4 2.2-2.3 2.7-5 3.9-7.6 0.9-2.2 2.3-5 3.5-7.7 2.4-5.1 5.2-10.5 7.1-15.5l32.1-59.9c14.1-26.2 24.7-52.8 36-80.6l39.2-117.8c1.8-4.2 0.4-1.9 2.9-2.9 4.9 7.9-7.4 67.4-9.7 78.3-5 23.7-11.8 48.5-19 71.8-12.4 40.2-27.6 83.5-50.2 119.7-1.5 2.5-3.6 5-4 7.6-3 1.7-2.7 2.5-5.5 6.1-2.3 2.9-3.3 4.8-6.4 5.9 2-7.5 8.6-11.8 11.9-19.2 6.1-4.6 24.3-45.4 28.2-54.6 17.2-40.3 29.4-85 40.1-127.9 3.7-15 13.2-58 11.7-72.9l-10.1 33.2c-7.2 23.5-26.4 75.3-35.4 96.3-4 9.6-8.7 19.7-13.2 30.2-8.8 20.6-20.5 38.8-30.3 58.1-3.7 7.1-12.8 21.6-14.9 29.3l-11.4 23.9c-3.1 7.9-6.9 18.4-10.4 25.6 4.7-0.2 10-4.8 13.8-7.2 4.3-2.7 8.6-7.2 13.9-8.3-2.7 4.8-6.6 5.1-8.4 9.1-3.9 0.4-4.3 1.9-8 4-12.7 7.6-12.7 2.7-16 19.7-1.6 7.8-2.1 13.6 1.5 20.2 2.8 5.3 7.8 11 11 13.9 20.3 18 47.1 14.9 62-13.5 23.4-44.5 18.8-126.2 28.8-167l10.5-38c11-47.2 50-219.6 86.6-244.4 2.7-1.8 4.6-3.8 6.7-5.2-12.3-10.8-28.9-25.7-35.6-40.5 3.6 1.6 1.7 2.5 5.6 3.9 3.3 8.3 25.5 31.2 32.6 34.6 6.7-4 6.3-4.9 11.7-9 4.9-3.6 7.7-5.4 11.8-9.3 20.2-19.6 36.6-89.1 45.7-120.1 3-10.5 6.8-21.6 9.9-32.3 2.9-10.3 18.2-58.1 18-64.8-2.4 6-5.7 13-8.1 19.1l-48.5 120.6c-2.2 5.4-5.1 17.3-11.4 17.4-2.4-6.3 18.4-73.5 21.5-83.6 4.2-14 23-74.7 23.4-84.6l-16.7 39.8c-5.4 14.1-11.1 28.2-16.5 41.7-7.6 18.9-20.4 53.3-29.4 71.2-1.9 3.8-2.7 7.3-7.2 7.7-1.9-11 16.7-73.2 20.8-87.3 8.3-29.4 15.5-56.8 21.9-87-5.4 2.9-32.5 70.3-37.2 81.6l-26.5 63.9c-1.3 3.1-6 16.7-9.7 18.3l-1.5-4.9 12.2-37.6c5-14 9.5-28.1 14.3-41.9 5.3-15.3 25.5-73.4 26.2-85.8-3.9 4.3-10.2 17.6-13 23.4-3.7 7.8-7.8 16.7-11.9 25.6-7.6 16.5-15.8 35.5-22.1 52.1-6.9 18-13.9 36-19.9 54.7-8.3 26-9.4 36.9 0.7 61.6-0.2 1.8 0.4 1.4-1.2 1.4-1-5-16.9-18-2.8-61.9zm-802.2 279.7c-0.5-1.1-1-2.2-1.7-3.2zm944.4-73.6c16.3-16.5 24.9-43.9-9.2-50.6 0 0-19.7 79.7 9.2 50.6z"/>
		<path id="Path 7" fill-rule="evenodd" class="s0" d="m131.6 705.9c19.1-28.3 22.8-32.1 42.3-55.3 16.1-19.3 30.8-32 49.4-48.1 5-4.2 22.9-18.2 28-20.8 0.9-11.4-5.6-39.3-8.5-50.4-3.9-15.3-9.3-29.9-15.4-43.8-22.8-50.8-64.2-96.3-111.3-126-3.8-2.4-5.4-3.1-8.8-5.3l-19.1-10.8c-21.3-12.1-34.9-15.5-52-23.7 3.9-3.4 13 2.2 21.4 5.9 24.2 10.7 56.2 27.1 75.8 42.7 2.6 2.1 6.2 4.3 8.7 6.4 8.8 7.5 15.9 12.8 24.2 21.1 1.8 1.8 1.9 1.8 3.7 3.4 1.4 1.2 2.7 2.6 4 4 2.9 3 4.6 4.9 7.3 7.8 14.2 15.1 27.3 34 37.6 51.9 21 36.7 29.2 68.7 35.4 114.1 3.5-1.2 10.5-6.3 15.1-8.9 6-3.4 10.4-6.1 16.1-9.1 39.4-21.1 73.6-28.5 119.2-33.4 22.1-0.9 39.4-1.2 61.3 1.3 5.1 1.6 15.1 2.2 21.4 3.5 28.6 5.6 35.5 9.6 59.9 16 14.2 3.7 26.6 6.1 40.5 10.1 12.3 3.4 26.3 8.5 37.8 13.4 29.4 12.6 46.3 21.7 73.8 39.9l22.6 16.6c36.3 26.9 71.4 69.6 95.2 107.9 6.9 11 12.4 22.3 18.4 33.3 23.1 42.8 40 111.2 42.2 161.3 3.4 77.3-11.4 146.1-42.7 210-5.7 11.8-11.8 22.5-18.1 33.2-16.3 28.1-44.4 63.3-67.6 85.1-62.1 58.2-135.5 98-220.8 111.5-8.4 1.4-18.3 4.5-23 1 32.9-6.9 39.7-5.4 77.2-16.7 82.3-24.9 155.1-78.1 205.8-144 34.2-44.4 54.4-87.4 70.7-140.6 7.6-24.7 11.2-51.1 14.7-78.7 10.7-86.5-16.7-186.4-62.7-259.6l-14.3-20.8c-1.6-2.4-3.4-5.1-5-7.1-16-19.8-23.6-30.3-44-49.5l-24.6-21.6c-4.6-3.8-8.9-6.8-13.1-9.9-4.9-3.6-8.4-6.4-14.1-10.2-29-19.3-58.8-34.7-92.9-46.6-7.8-2.7-29.4-10.3-36.8-10.5 5.8 3.4 16.9 7.8 24 11 26.9 12.2 52.4 29.6 77.6 47 16.9 11.8 33.4 26.5 48.9 40.7 55.8 51.1 104.2 123.4 128.5 194.2 33.6 97.8 24 201.9-25.6 291.8-4.1 7.4-8.5 14.9-12.9 22.3-18.1 30.4-39.9 54.9-64.7 79.3-3.5 3.5-15.6 15.9-19.8 16.4 0.7-3.4 2.3-3.4 5.2-6l32.9-32.4c102-114.5 132.7-260.3 68.3-406.1-8.2-18.5-23.1-45.7-33.7-61.7-6.7-10.2-13.4-19.5-19.8-28.5-19.8-27.6-56.1-65.2-80.4-85.5-40.1-33.5-82.4-60.4-132.8-81.4-23.8-9.9-53.1-12.9-81.1-13.2-73.8-0.8-129.3 12.4-194.1 44-11.5 5.6-19.6 10.8-30.7 17.1-0.8 15.7-0.5 32.2-1.2 48.3-0.7 14.4-2.9 30.4-4.9 44.5-22.3 155.8-112.9 360.1-39.6 495.6 7.1 13.3 19.2 32.9 29.4 43.8 2.2 2.3 9.3 11 12.1 12.4 3.6 6.3 18.2 15.1 20 21.3-6.2-1.6-13.5-11.5-19.2-15-1.2-2.5-17.6-19.3-22.4-26.2-4-5.7-7-9.7-10.5-14.9-16.7-24.9-29.4-56.1-35.2-89.6-22.8-131.5 41.7-285.9 62.3-424.7 4.7-31.9 6.1-59.8 6.2-92.9-3.6 0.1-10.2 5.8-13.3 7.8-32 20.7-59.3 47.6-84.6 76.1-18.6 21-36.5 50.4-49.7 74.8l-18.6 39.3c-1.7-1.2-1.4 1.3-0.7-3.1 0-0.3 0.8-2.6 0.9-2.9 1-2.8 1.4-2.8 2.5-5.7 2.6-7.2 3.6-4.6 4.8-11.1 7.6-24.2 38.6-67.9 57.2-90.9 1.5-1.8 2.8-2.9 4.8-5.2 30.3-35.2 48-49.1 83.9-74.9 4.6-3.2 8.9-5.1 12.8-8.8l-1.3-18.4c-2.7 1.4-3.4 2.2-6.2 4.3-31.3 23.5-48 37.4-74.6 69.2-2.8 3.4-6.6 7.2-10.2 11.9-2.1 2.7-2.6 3.6-4.8 6.1l-14.1 19.3c-11.9 16.9-42.6 67.5-47.5 84.8l-8.7 17.8c-2.8 7.6 0.8 3.9-3.8 5.1 4.5-20.2 37.6-79.6 49.5-97.1zm124.2-105c3-0.6 22.3-11.8 27.1-14.3 58.7-30.8 137.4-49.5 204.3-45.2 10.6 0.7 30.5 3.5 39.2 3.1-41.3-14.2-104-19-150.7-11-26 4.5-43 10.2-65.6 19.1-12.9 5-47.4 22.3-55.1 30.1z"/>
		<path id="Path 8" fill-rule="evenodd" class="s0" d="m956.3 1537.8c-6.5 1.3-8.3 4.3-14.6 4.4-16.9 0.1-25.2-1-37.6-14.8-14.7-16.3-13-34.1-5-52.9 11.1-25.8 34.2-63.3 48-91 7.6-15.2 14.4-32.7 21.3-48.3l41.9-96.7c2.8-6.6 19.3-40.7 19.1-48.2 0-0.4-0.1-0.5-0.2-0.8-2.4 1.6-2.3 2.7-3.6 6.3-5.1 14.1-33.9 79.3-39.8 92.7-7.7 17.3-14.6 33.1-21.8 49.8-20.3 47.5-23.1 51-46.7 94.9-11 20.5-32.7 53.1-25.7 77.4 4.7 16.4 19.5 31.1 36.4 33.9 11.2 1.9 12.1-0.5 15.9-1.3 6-1.2 10 0.7 12.4-5.4z"/>
		<path id="Path 9" fill-rule="evenodd" class="s0" d="m281.2 1279.9c2.9 0.7 8.5 5.2 10.9 6.8 38.3 26.3 96.9 48 141.8 53.2 12.4 1.4 56.3 7.3 65.5 4.1-2.1-2-0.8-1.3-4.2-1.8-0.1 0-3.6 0.1-4 0.1-16.8 0.2-40.8-2.1-56.7-4.8-38.6-6.4-71.7-15.4-106.2-32.7-11.1-5.5-34.6-18.3-43.3-26.2-5.6-2.7-7.8-7.4-12.9-7.8 1.1 3.1 1.3 2.3 4.1 4.5 2.1 1.6 3.5 2.2 5 4.6z"/>
		<path id="Path 10" fill-rule="evenodd" class="s0" d="m707.4 1270.6c-3.8 0.3-11.4 6.6-14.9 9.1l-13.4 8.8c-54.6 31-76.5 40.4-137.8 50.7-1.3 0.2-2.6 0.3-3.8 0.8-2.6 0.9-1.1 0.2-2.6 1.4 20.9 3.4 80.8-17.6 97.4-25.1 13.9-6.2 27.5-13.1 39.9-20.5l27.5-17.8c3.8-2.6 6.9-4.5 7.7-7.4z"/>
		<path id="Path 11" fill-rule="evenodd" class="s0" d="m64.9 856.3l0.9 0.9c-2.3 4.2-2.5 3.5-1.6 9 0.7 8.4-5.3 16.1-2.4 24.3 2.2-1.3 1.2 0.6 2.3-3.1l5.3-25.4c1-3.9 1.1-3.9 1.6-7.7 0.7-5.4 1-2.3 2.3-6.5 1.1-3.4 0.1-4.5 1.4-7.8 1-2.8 1.7-2.5 2.9-7l1.3-6.9c-2.8 2.2-4.5 2.8-4.7 9.3-0.2 11-0.4 7.2-4.3 8.8-0.2-12.3 3.9-7.1 5.6-15.3 1.6-7.9-0.3-4.6-2.2-5.8z"/>
		<path id="Path 12" fill-rule="evenodd" class="s0" d="m82.1 803c-1.3 0 0.2-2.5-1.9 1.4-0.3 0.6-3.8 15.3-6.9 18.7 1.9 1.2 3.8-2.1 2.2 5.8-1.7 8.2-5.8 3-5.6 15.3 3.9-1.6 4.1 2.2 4.3-8.8 0.2-6.5 1.9-7.1 4.7-9.3l-1.3 6.9c2.4-2.4 1.7-4.4 2.4-7 1.2-4.4 1.2-1.7 3-6.2 1.3-3.6 3-9.7 4.1-14.3-1.7-1.2-1.4 1.3-0.7-3.1 0-0.3 0.8-2.6 0.9-2.9 1-2.8 1.4-2.8 2.5-5.7 2.6-7.2 3.6-4.6 4.8-11.1v-2.6l-8.7 17.8c-2.8 7.6 0.8 3.9-3.8 5.1z"/>
	</g>
</svg>