<svg version="1.2" xmlns="http://www.w3.org/2000/svg" viewBox="0 0 1191 1684" width="1191" height="1684">
	<title>Carta</title>
	<defs>
		<clipPath clipPathUnits="userSpaceOnUse" id="cp1">
			<path d="m0 0h1191v1684h-1191z"/>
		</clipPath>
	</defs>
	<style>
		tspan { white-space:pre } 
		.t0 { font-size: 42px;line-height: 32px;fill: #cad2b2;font-family: "Engravers Gothic BT" } 
		.t1 { font-size: 42px;line-height: 43px;fill: #cad2b2;font-family: "Engravers Gothic BT" } 
		.s2 { fill: #cad2b2;stroke: #cad2b2;stroke-miterlimit:22.92558479309082;stroke-width: 1.1 } 
		.s3 { fill: #f8cfc9;stroke: #f8cfc9;stroke-miterlimit:22.92558479309082;stroke-width: 1.1 } 
	</style>
	<g id="Page 7" clip-path="url(#cp1)">
		<text id="ensaladas y  guarniciones" style="transform: matrix(1.061,0,0,.943,756,1467.671)" >
			<tspan x="13" y="31.9" class="t0">ensaladas y </tspan><tspan  y="31.9" class="t1">
</tspan>
			<tspan x="0" y="74.5" class="t1">guarniciones
</tspan>
		</text>
		<path id="Path 232" fill-rule="evenodd" class="s2" d="m305.5 1241.1c24.6 2.1 42.8 23.8 40.7 48.3-2.1 24.6-23.8 42.8-48.3 40.6-24.6-2.1-42.8-23.7-40.6-48.2 2.1-24.6 23.7-42.8 48.2-40.7z"/>
		<path id="Path 233" fill-rule="evenodd" class="s3" d="m638.3 1299.3c0.6-4 1.3-3.7 0.4-8.4-4.2-2-13.4-3.2-16-4.7 1.3-7.4-4.1-15.3-3.7-21.3 0.3-4.5 2.6-6.7-4-6.7-9.4 0.1-4.7-1.6-8.3-6.3-2.1 0.2-10.8 3.1-14.1 3.9-11.9 3-31.1 13.9-23.7 25-11.7-2.3-23.3-4.7-35-7.2-11.8-2.6-23.3-6.1-34.3-8.5 3.7-9.2-3.9-31.4 22.2-28.7 17.5 1.8 15.8 24.2 31.5 19.2 13.5-4.3 33.6-43.1 45.8-26.7 3.7 5 6.7 14.1 14.5 12.3 3.9-7.2 1.8-18.4 0.7-26.2 8.9-2.1 41 17.7 51.2 29.1 14.6 16.4 17 44.1 15.9 68.9-2.2 46.3-11.5 84.8-33.4 123.3-2.5 4.4-5 7.8-7.7 12.1-12 19.2-61.6 57-79.8 69.3-84.7 57.5-178.3 72.9-269.9 23.4-11-6-18.2-10.8-27.9-17.5l-25.3-20.9c-16.2-14.6-30.4-31.7-43.3-50.3-13.9-20.1-37.5-61.5-40-90.9 6.7 7.2 5 8.1 17.3 19 17.1 15.3 50.4 24.8 74.4 28.3 61.9 9.1 161.3-7.3 225.6-20.8 14.9-3.1 29.4-4.8 44.4-8.5 6.8-1.7 13.6-3.5 20.3-5.6l14.2-5.1c3.3-1.5 3.1-0.8 3.2-3.6-3.1-1.2-67.1 17.8-83.4 20.5-10.5 1.7-21.4 3-32 4.2-67.1 7.9-161.4 14.1-223.5-8.3-16.3-5.9-29-12.3-41-21.2-5.3-3.9-31.2-26.5-24.9-38.2 4.1 1.2 5 3.2 7.9 5.5 2.6 2 5 3.1 8.1 5.1 2.5 1.6 5.8 7.2 13.8 13.3 2.5 1.9 5 3.7 8 5.3 1.5 0.9 2.7 1.6 4.2 2.4 8.1 4.3-4.4 3.2 20.1 11.9 45.8 16.3 82.8 16.3 131.6 17.3 34.9 0.6 68.2-2.8 102.9-8 47.4-7 101.8-14.5 142.9-35 13.2-6.6 24.1-12.9 35.7-20.5 12-7.9 23.2-15.9 28.4-27 10.6-22.7 0.4-51.6-27.8-58.5-4.9-1.2-7.1-1.4-8.4 3.2-2.7 10 2.8 14.8 11.6 14.2 36.4-2.6 16.4 42 10.6 47.9zm-341.8-54.4c-3.8-3.3-12.8-2-19.5-2.2-18.4-0.6-9.5-16.6-23.9-24.4-19.9-10.6-24.7 24-41.8 26.8-10.6 1.8-24.8-24-47.5-22.8-18.4 1.1-8.7 21.6-15.5 30.7-3.4 4.6-12.7 5.1-18.4 7.8-12.1 5.6-13.2 19.4-6.2 33.4 4.9 9.7 16.7 21.2 23.3 26-2.8 8.3-2.4 9.5 2.4 17.8 8.9 15.5 23.1 25.9 38.3 34.4 19.9 11 43.2 18.1 68.9 22.3 41.6 6.9 84.9 4.5 127.8 2.5 15.6-0.7 31.2-3.1 46.7-3.9-12.7 4.4-72.3 11.2-88.2 12.4-57.5 4.5-132.7 9.4-176.2-33-5.3-5.2-12.1-12.8-14.1-20.8-0.8-3.1-0.7-7.6-4-8.4-1.7 3.1 2.2 11.3 3.5 21.3 5.2 41.1 38.4 89.6 62.9 118.5 27.4 32.3 69.6 63.1 115.7 77.8 55.6 17.7 104.6 17.8 165.6-6.1 69.5-27.3 115.8-76.7 124.1-81.1-0.7 1.8 0 0.6-1.2 2.2-5.6 7.8-15.5 16.4-22.3 22.9-8.5 8.2-17.2 15-27.1 22.5-62.5 47.6-159 68-233.1 47.3-12.1-3.4-22.2-7.1-34-11.3-13.6-5-21.4-9-38-2.2-24.5 10-46.1 26.8-78 23.4-22.9-2.3-31.6-11.9-47.6-21.3-4.6-2.7-10.2-5.9-16-8-25-8.8-43.4-1.3-52.2 23.4-0.5 1.3-1 2.9-1.3 4.3-0.9 3-1 3.5 0.1 4.9 4.9-2.9 5.4-34.2 35.8-33.9 24.6 0.2 42.8 23.1 69 30.8 30.9 9.1 57.1-5.4 83.1-17.7 8-3.7 19.1-9.1 28.6-6.6 26.7 7 38.4 16.5 76 21.9 96.7 14 192.1-25 255.5-94.9 5.6-6.1 10.7-12.4 15.4-18.8 8.3-11.6 31.6-33.1 48.1-55.7 13.7-18.8 15.4-22.4 20.9-46.1 6.1-26.7 16.9-25.6 39.9-17.8 12.2 4.2 22.9 9.7 34.3 15.3 1.8 0.9 10 7 10.7 3.8-0.1-1.5-1.8-1.8-4-3-13.1-7.1-26.4-13.8-40.8-18.8-22-7.6-35.9-8.2-42.1 17.7-7 29.7-11.2 36.2-28 56.6-2.7 3.3-5.1 6.7-8.1 9.8-5.8 5.9-10.4 12.6-16.8 18.4 1-3.6 17.5-28.8 25.6-58.4 5.7-20.5 9.8-47.4 11.1-70.4 3-53.7-10.7-78.1-55.6-98-2.5-1.1-5.2-2.2-7.8-3-12.5-4-7.9 3.1-7.5 13.8 0.2 4.7 0.4 8.7-1 12.2-6.7-1.3-7.8-9.6-12.8-13.9-6.1-5.2-14.4-1.8-19.8 2.9-7.3 6.3-19.8 24.5-29 25.5-12.2 1.2-10.6-20.7-32-19.9-25.3 0.9-17.2 17.9-19.7 27l-1.9 2.7c-1 1-0.3-0.2-1.2 1.3 2.2 3 7.4 3.8 11.2 4.9l10.6 2.7c2.4 0.9 0.5 0.1 1.7 0.8-8.9-0.6-23.9-4.1-33-6.1-6.7-1.5-10.7-4.6-14.2 1.8-2.6 5-2.3 10.5-3.5 16.5-3.7-1.4-8.1-1.7-11.6-2.7 1.5-1.2 4.7-1.3 6.3-2.5 3.5-2.5 5.7-8.5 6.4-12.5 0.7-3.8 1.1-4.7 2.4-7.4 9.2-1.5 17.7 6.6 21.9 2.8 1.5-5.6-4.3-13.7-7-17.6-3.3-4.8-8-10.9-13.8-10.9-10.2-0.1-5.7 27.9-8.3 36.8-5.3-5.1-12.4-26.2-13.4-35.5 23.7-5.8 48.8-9.2 73.1-13.6 9.3-1.7 69.8-10.6 72.7-13.6-1.8-3.4-11.2-4.3-15.9-5.1-43.8-7.4-90-10.5-134.9-7.8 0.1-5.7-0.6-14.1-4.9-16.3-6.1-1.4-151.7 25.3-160.1 29.2 0.2 5.5 4.2 14.7 6.3 19.5 2.9 6.6 6.1 11.2 8.9 16.7zm130.8 128.4c0.2-0.1 0.4-0.6 0.5-0.4l4.2-2.5c15-8.6 20.7-29.1 3.3-26.2-11.8 1.9-28.8 20.7-25.8 30.9l-27.8 4c2.1-9.7 17.2-27 24.8-33.7 30.2-27 82.1-35.6 59.8 4.7-2.9 5.2-8.3 11.4-13.6 15.5-7 5.4-15.3 6.1-25.4 7.7zm-224.2-17.2c9.5-2.2 19.7-3.7 29.3-5.6 35-7 60.7-13.4 97.9-17.6 3.4 10.6 5.4 36.2-0.9 41.8-5.2 4.6-36.3 3.3-42.9 1.6 6.9-2.6 9.7-4.2 6.6-12.3-4.6-11.8-9.6-27.7-17.6-6.9-4.2 10.9-3.9 8.9-9.4 12.2-4.6 2.7-2.1 2.6-15.1-0.2-11.1-2.5-40.4-8.9-47.9-13zm208.7 17.5c-2.2-10.4 22-33.2 30.3-26.1 5.7 4.8-4.9 15.8-7.6 18.1-4.1 3.6-16.6 9.4-22.7 8zm-33.1 5.7l-22 1.2c3.8-2 13.4-3.3 18.6-5.8 8.5-4 4-7.2 0.3-13 4.2-2.7 5.4-1.8 10.6-10.6 2.4-4 5.2-10.7 8.3-13.1 6.7 1.2 0.3 3.5 16 0.4-3.4 4-10.1 8.4-18.4 18.6-4.2 5.1-11.2 14.6-13.4 22.3zm-180.8-22.1l35.5 10.5c7.8 1.8 32 6.5 37.2 9-12.6 0.7-43.1-7.6-56.1-12.3-2.9-1-5.5-1.9-8.3-3-4.3-1.8-5.6-1.9-8.3-4.2zm69.2 14.7c3.5-3.5 4.3 0.6 9.2-10.1 2.1-4.7 3.2-10.8 7.3-12.4 2.4 3.5 8.1 16.2 8 21.7-5.1 3.8-18.3 2.9-24.5 0.8zm102.8-43.2c3.5 3.5 8.4 7.9 15.8 6.1 6-1.5 4.8-9.9 9.5-14.2 8.3-7.6 31.1-2.1 35.6 3.5-2.7 5.3-17.2 11.5-25.9 12.9-13.5 2.1-7.5-10.4-20.2 11.6-8.9 15.6-11.4 10.6-18.3 1.8-8.8-11.3-8.9-14.7 3.5-21.7zm-168.6 22.4c-1.9-6.1 12-23.3 24.8-26.1 13.8-3 31.4 6.8 34.5 16-9 2.8-18.9 4.5-28.6 6-5 0.8-9.8 1.9-14.8 2.6-2.7 0.5-5.4 0.8-8.1 1.3l-5.9 0.6q-0.3-0.1-0.7-0.1zm137.7-81.8c3.2-0.1 7.6-9.8 9.5-13.6 4.8-9.7 12.2-22.6 22-28.4 7.7-4.6 14.2-4.1 18 2.6 6.4 11.1 2.9 31.8-1.9 39.9-4.3 7.4-9.7 8.2-14.5 11.5-8.4 5.9-0.1 11.7-3.4 18.6-5.1-32.7-31.4-19.1-36.5 4.7-0.7 3.5-1 7.6-0.7 11.4 0.4 5 2.1 7.8 2.6 11.4-12.1-1-32.4-0.5-44.2 4.7-4 1.8-7.9 5.2-12.3 5.4-6 0.3-15.5-9.5-18.8-14-5.6-7.5-7.6-14.5-15.9-17.4-29.6-10.6-6.4 40.7-63.1 3.8-6.2-4-15.9-11.9-21.7-9.2-1.7 5 2.5 14.1-8.9 17.8-7.7-6.4-16.9-13.7-22.6-24.5-2.9-5.5-5.3-12.9-4.3-19.8 2.3-15.8 22-11.6 28.2-19.6 3.3-4.3 2.6-12 3.4-18.1 2.3-17.5 19-12 29.3-6.3 10.5 5.8 18.8 18.6 27.8 17.6 19-2.2 22.1-35.4 40.6-27.5 5.5 2.4 7.1 6.6 10 13.9 7.8 19.4 19.3 6.2 32.7 12.2 1.9 9.3-15 16.3-7.7 19.4 10.1 4.4 32-27.8 41.7-21.1 7.5 5.2 4 22.7 10.7 24.6zm32 55.8c-1-4.5-1.3-3.2 3.5-5.2 2.6-1.2 4.5-2.4 7.3-2.6l0.9 4.8zm-1.3-5.9c-0.8-7.1 0.3-13.7 1.9-19.6l8.6 14.6zm256.7-21.5c0 8.3-10.1 17.5-15.7 22.1-7.7 6.2-17.2 8.9-27.4 13-19.5 7.7-38.2 16.4-58.3 23.8-12.5 4.6-18.8 5.6-28.8-1.4-7.1-4.9-12.4-12-16.8-22.3-6.5-15.3-13.4-55-3.3-65.5 2.3-0.1 23.8 5 28.6 5.8 8.1 1.5 22.8 3.5 28.5 7.2-5.6 27.8 23 35.7 40.8 22.5 4.5-3.4 10.8-11.8 12.4-12.7 1.4 6.5 0.3 6.7-2.8 10.1-8.8 9.5-17.6 12.7-32.1 11.8-32.3-2-24.3-22.6-27.2-29.5-3.5-1.2-6.2 2.6-8.5 6.1-23 35.9 13 49.1 41.2 45.5 18.6-2.3 28.5-13.9 31.7-28.7 1.5-7-0.7-15.5 14.8-13.9 7.9 0.8 18 1.7 22.9 6.1zm-259.3 22.7c-7.8 3.4-15.4 7.7-25.2 8.6 2.6-1.8 11.7-4.3 20.3-14.6l5-7.1zm219.6-19.6c0.7 10.3-7.8 21.9-14.6 25.8-17 10-56.3 6-60.6-12.8-2.4-10.4 5.4-24.9 11-28.9 1.2 15.6 2.1 25.9 24.2 29.2 18 2.7 31.6-3 40-13.3zm-367.1 23.5l10.1-14.7c5.2-5 15.2-1 18.1 2.2 6.4 7 6.5 12.6 17.3 21.7l7.4 5.6c0.1 0.1 0.3 0.3 0.5 0.4l-9.2 1.7c-4.4-7.9-8.1-11.8-17.5-16.2-13-6-18.5-2.5-26.7-0.7zm399.6-88.2c8.5-1.2 18 5.9 22.6 9.4 6.1 4.7 10.4 13.3 11.7 23.7 2.7 22.1-9.8 33.2-23.2 42.9-21.1 15.3-74.1 43.5-99 45.1l65.5-26.8c10.9-4.4 20.5-11.8 26-18.7 1.4-1.8 7.3-10.5 6.3-14.3-1.2-4.4-10.3-5.7-14.6-7.2 5.8-0.4 7-1.5 12.4-0.4 3.6 0.8 7 1.7 10 2.6-0.2 4.1-3.1 8.6-0.9 11.8 8.2 0.9 31.1-53.9-2-55.5-4.6-0.3-20.2 4.2-14.8-12.6zm-253.3 64.9c-1.2 9.1-8.8 16.2-16.2 21.1-2.8 1.9-10.6 6.8-13.1 3.7-3.5-4.4-6.2-31.2 11.5-40.4 5.9-3.1 9.4-3.5 13 0.9 2.8 3.5 5.6 9.1 4.8 14.7zm161.3-26.2c4.6 0.4 10.2 2 14.8 3 10.1 2.2 37.4 8.2 44.7 8.4l-0.9 0.8c-0.1 0.1-0.7 0.6-0.9 0.8-0.7 0.6-0.9 0.7-1.6 1.4-3.1 3-2.6 4.7-8.6 10-10.6 9.4-35.4 13-39.1-8.7-2-11.6 4.7-10.4-6.1-14.7zm-91.2 34.4c4-7-0.5-20.5 6.3-23.2 10.5-4 17.2 2 18.7 2.3 2.9 0.7 4.8-0.1 7.7-0.6-0.8 15.4 2.9 33.9 9 47.4 4.2 9.3 9.9 17.6 18.3 23 3.7 2.3 6.6 2.6 9.2 4.4-9.8 2.1-49.6 9.1-58 9.3 7.5-4.9 12.6-8.1 17.2-14 16.7-21.6 14.9-50.2-30.7-32.4l-0.2-0.7c-2.7-10.1-26.4-11.6-34.2-9.1-14.6 4.6-5.7 18.8-18.2 16.7-4.1-0.7-6.3-1.6-8.3-4.3 5.6-5.4 12.6 2.1 12-9.7v-1.4c0-0.2 0-0.5 0-0.7 0-0.1 0-0.4 0.1-0.6 10.9-4.5 10.4-3.7 2.8-17.1-6.5-11.6 0-15.3 10.3-10.8 7 3.1 12.4 7.5 19.4 10.4 6.5 2.8 4.2 0.3 9.1 5.5 3.1 3.2 4.7 6.5 9.5 5.6zm134.3-30.8c-2.9-16.4 30.1-21 34.5-23.7 5.8 6.3-2 5.3 12.5 6-2.6 6.2 1.6 13.3 2.9 19.7 1.4 7.2 0.6 5.7-12.8 3.6-6.6-1-34-4-37.1-5.6zm-418.6 41.7c7.6-3.7 8.4-8 8.2-17.6 4.7-0.2 10.4 4.4 13.9 6.5 11.4 7.1 28.6 19.7 43.7 16.4-0.1 0.1-0.3 0.1-0.4 0.4 0 0.2-0.3 0.3-0.4 0.4-5.4 4.5-6.1 3.4-12.2 11.4-2.3 3-8.9 11.7-4.2 16.1-6 1.3-23.6-10.9-26.9-15.6 5.3 1.6 17.9 10.3 24.6 8.7-0.3-3.5-1.8-3.6-4.2-4.8-5-2.5-20.4-10.3-25-11.1-5.5-0.9-14.1-6.8-17.1-10.8zm282.4-13.1c-2.6-1.8-5-4.7-7.4-6.2l1.3-1.1c0.3-0.2 1.3-0.8 1.4-0.9 6.8-5.8-2.9-23.6 2.3-27.7 3.2-2.5 9.9 5.8 16.8 8.4 2.9 1.1 4.5 0.7 5.1 3.1-25.7-2.7-14.1 15.7-19.5 24.4zm-43.8 3.8l-7.9 1.7c-2.5-3.5-9.5-15-9-18.1 0.6-4.1 6-12.8 11.6-15.9 7-4 15.8 1.3 19.8 4 3.4 2.2 11.9 9.8 14.4 13.6-7.7-2.6-19.3-12.3-27.2-12.8-7.6-0.5-11.3 4.6-8.9 11.6 2 6 7 8.9 7.2 15.9zm-18.8-19c-2-6.7 0.8-8.1 6-10.4-0.9 1.8-1.9 3.1-3.1 5-1.3 2-1.8 3.3-2.9 5.4zm215.2-5l10.5 1.5c-3.4 1.2-6 2.7-7.4 4.6-1.5-4.4 0-3-3.1-6.1zm-160.6-25.9c-1.2-1.3-2.8-3.8-4.3-4.7-2.8 1.5-5.6 8.2-6.8 11.4-0.9 1.9-6.9 14.1-1.4 13.4 5.2-0.7 11-15 15.4-16.5 2.9-1 2.6 0.7 4.3-2.2 0.7-1.3 0.1-0.6 0.6-2.1l0.7-1.5c0-0.1 0.1-0.3 0.3-0.4 9.6 2.2 12.5 8.5 16.1 19.3-4.1-1-8.1-3.5-10.7-5.7-2.4-2-7-6.7-11.1-2-4.9 5.4 4.4 25.1-2.5 27.4-4.4 1.5-12.6-14.4-27.5-20.7-5.4-2.3-6.5-2.1-13.1-1.8 1.5-2.4 2.6-3.4 3.8-5.8 1.4-2.7 2-4.9 2.8-7.9 1.3-5 2.2-12.3 1.7-18-1.4-16.4-6.4-23.8-22.3-19.7l6.5-6c2.4-2.4 3.6-3.9 5.4-6.4l9.7-14.9c4.4 2.9 8.9 13.5 8 18.5-0.5 2.6-3.4 4.6-4.9 7.6-1.5 2.9-3.3 6.4-2.1 10.1 7.8-0.1 6-12 10.4-15.8 11.8-5.3 11.8 27.7 24.2 12.7 8.8-10.7 10.9-25 14.5-29.9 1.8 13.2-5.8 41.1-13.1 55.1-1.5 2.8-2.3 5.2-4.6 6.5zm37.8 13.9c-3.4 5.8-7.9 6.5-10.5 1.7-1.9-3.6-2.1-6.8-6.1-12.8-4.1-6-6.5-6.7-14.2-8.4 7.1-16.8 9.5-21.1 12.1-40.5 0.6-4.6 0.7-11.8 1.6-16.1 10.9-2.5 60.9-0.5 74.3 0.5 15.8 1.3 36.2 3.2 51.9 5.6l16.9 3.4c-15.1 3.3-32.5 6-48 8.4l-71.9 12.7c-22.3 4.7-26.1-0.4-15.5 27.6 3.1 8 5.6 12.1 9.4 17.9zm-128.6 92.3c2.3 7.6 1 10.1 7.2 12.9l-18.6-0.3c4.4-1.9-2.7 0.9 1.2-0.5 4.4-1.6 9-2.6 10.2-12.1zm-48.2-30.2l1-0.7c11.1-7.5 28.6-5.9 40.6-6.2 12.5-0.4 14.5 6.1 38.9-7l1.4 3.4c-4 1.8-7.3 4.4-9.4 7.4-3 4.4-2.3 6.5 0.1 12-5-2.1-18.2-19.1-24.4-1.8-2.7-16.4-1.4-14.5-18.4-11.9-10 1.5-19.9 3.3-29.8 4.8zm181.7-75.9c-1-6.3 0-20 2.4-24 9.6-0.4 19.4 16.9 20.7 24.7-7.2-0.4-18.6-9.3-23.1-0.7zm-172.2-16.1c2.8 2.2 5.6 7 12.5-2.9 6.4-9 7.8-16.9 17.7-25.1 3.5-2.9 9.3-8.1 14.5-7.2 6.1 9.3 6.6 20.5 27 15.5-0.1 0.2-0.3 0.2-0.4 0.5l-4.3 3.6c-10.2 9.3-17.4 26-23.9 37.4-1.3-1-0.3 0.2-1.2-1.3-1.3-2.1-1.5-5.6-2-8.1-7.9-39.3-32.7 5.5-48.9 6.3 2.1-5.7 11.4-8.4 9-18.7zm117.7 33c1.1-6.8 4.8-12.6 6.8-18l4.2 3.3c-2.5 5.5-6.7 10.5-11 14.7zm-129.5-67.7c8.1-2.8 101.2-19.9 116-22.4 11.1-1.9 29-6.2 39.7-6.1 2.8 3.1 3.1 8.5 3.6 13.5-3.6 4-3.1 3.8-5.3 9.3-3.2 8-8 24.6-16.7 25.9-5.1-7-7-19.6-17.9-16.5-0.2-8.4-5.6-19.5-11-21.1-2.4 1.5-3.6 4.7-5 7.3-1.4 2.5-3 4.8-4.6 7.2-6.1 9.9-20 22.1-31 14.7-6.4-4.3-7.5-13.2-10.3-14.6-7.5-2.9-21.8 11.6-24.5 15.2-4.2 5.6-11.7 22.6-15.8 22.7-4.9 0.1-18.9-31.1-17.2-35.1zm93 160.4c-7.4 3.9-23.9 9.2-33.3 7.2-9-1.9-8.1-26.6-7-31.7 3.1-14.3 14.8-3.2 21.2 3 8.1 7.8 17 13.1 19.1 21.5z"/>
		<path id="Path 234" fill-rule="evenodd" class="s3" d="m921.8 356.4c-1-0.2-1.2-0.1-2.1-0.2-12.4-1.2-2.8-15 5.1-1.6 5 0.4 10.3 0.6 15.4 0.6 14.6 0.2 10 0.2 11-2.7 3.7 0.7 3.8 2.4 7.6 1.8 1.8-0.8 1.8-4.8 4.8-4.2 3.1 2 1.2 1.9 3.3 5 7.2 0.4 7.6-2.4 12-4.8l-1.5 4.3 8.2 0.1c1.7-2.2 1.5-2.5 3.7-3.6-0.7 3-1 2-2.3 4.3 9.8 0.5 17.8 6.1 22.9 10.9 12.6 12.1 16.4 34.2 10.3 50.8-4.9 13-7.2 12.5-13.2 19.9 4.4-0.4 14.8-2.1 18.1-1.2 0.1 0.1 0 0.3 0 0.4l-0.2 0.7c-0.5 1.6-1 0.1-0.5 1.4 4.4-0.1 4.3-0.1 8.1-1.5 3-1 17.9-1.1 22-0.8 3.5 0.2 2.9 0.5 3.5 1-5.5 1-14.9 0-21.2 0.4-5 0.2-12.6 4.6-14.4 0.5l-0.1-0.7c-0.1-0.2 0-0.3-0.1-0.4-5.7 0.2-15.6 0.2-20 3.4-1.7 1.2-2.8 1.8-4.6 2.7-15.9 8-34.1 7.9-50.4 1.5-8.1-3.2-12.7-7.5-17.3-12.7-18.9-21.6-16.5-67 17.2-73.7 0.9-0.2 2.3-0.4 3-0.6 2.4-0.7 1.2-0.2 2.5-1.1l-27.1-0.2c-0.1 0.2-0.2 0.4-0.2 0.5l-1.5 3c-4.7 0.2-31.6 0.7-33.9-0.5 2.5-1.8 20-0.8 26.1-0.7 9.5 0.1 6.6 0.4 7.6-1.5zm64.4 25.4c3.3-3.7 12.7-7.6 19.6-5.4-0.5-5.8-9.2-12.6-19.6-11-0.1 1.7 2.6 2.7 4.3 3.5l1.1 0.5c-8.7 4.1-11.9 2-16.2-0.5-1.4 0.9-3.5 3.1-4.8 4.5-2.3 2.3-2.4 3.5-5.4 4.4v-7.7c-2.9 0.3-16.8-0.1-20.2-0.9-0.3-0.1-0.4-0.1-0.4-0.1q-0.2-0.1-0.7-0.3c-2.4-1-0.5-0.1-1.6-1 7.2-0.6 15-4.9 20.6-2.9 0.1-0.4 0-0.9 0-1.3h0.1q0 0-0.1 0c-9.5-1.9-2.7-8.6-20.1-3.3-25.4 7.7-27 41.9-19.5 59.1 2.6 6.1 8.2 12.8 12.1 16.4 20 18.1 57.2 12.8 66.3 3.1-3.8 0.1-7.3 0-11 0-5.7 0.1-13.6 4.9-30.4 2-25.3-4.5-44-27.6-37.8-50.4 2.9-10.6 7.7-11.8 11.9-15.9 2-1.9 6-7.6 11-2.2-1.9 1.7-1.6 1-5.5 1.9-6 1.4-7.6 3.9-8.9 13.7-1.3 9.6 2.3 17 6.1 23.4 14.4 23.4 33.5 13.4 40.1 19.9 6.8 6.7 10.1 8.5 19.9 2.3 12.5-7.7 19.2-23 22.1-37.9 2.1-10.4-1.9-15.7-10.9-17.6 1.5 7.9 2.5 14.6-2.4 20.3-1.9 2.2-4.5 4.5-8.6 4.8-3.5 0.3-8.2-0.4-9.5-3.7-4.6-1.8-7.7-10.8-1.6-17.7zm-23.2-18.2c0.1 0.1 0.1 0.2 0.1 0.3 0.1 0 0.1-0.2 0-0.5q0 0.1 0 0.3zm-0.1-0.8q-0.1 0-0.2 0.1 0.2 0.2 0.4 0.5-0.1-0.3-0.2-0.6zm13.9 69.6c-3.2-3.2-6.3-2.2-11.9-2.7-9.3-0.9-15.4-3.7-20.9-8.4-4.6-4-9-10.3-12-17.4-4.4-10.3-2-15.9 0.2-26-16.6 12.3-11.1 42.4 10.9 55.2 12 7 32.5 10.4 42.5 5.2-5.3-1.7-5.6-2.7-8.8-5.9zm-33.2-60.3c-3.1-0.8-5.3-0.5-6.8 1.6zm16.5-6.7c-5.2-0.3-9 2.5-11.4 2.8 3 0.3 5.8 0.5 8.6 0.9 4 0.6 5.7-0.3 9.2-0.3v6.6l7.2-7.4-5.6 1c-2.1-2.8-0.4-1.1-2.5-1.7-2.2-0.5-1.9-1.7-5.5-1.9zm15.1 1.9c5.6 3.8 5.5 3.7 12.9 2-4.1-4.3-6.6-2.8-12.9-2zm-5.1 0.1l3-0.4c-0.3-1.5 0-1-0.9-2.5l-2.3-2.5zm36.2 6.3c1.7 3.2 0.4 2.2 3.7 3.5 7.7 3.2 4.2 2.2 9 5.3-4.1-13.5-16.7-23.9-32.7-26.3-0.9 2.8-2.1 6.9-3.8 8.3 11.1-0.1 17.8-1.5 23.8 9.2zm-9 28.4c3.9-0.4 6.2-2.5 7.8-4.6 4.7-5.8 3.9-12.6 1.8-20-7.8-0.5-15.1 0.1-19.5 4.5-7.6 7.7-0.1 15.7 0.5 17.4 3.1 1 4.5 3.2 9.4 2.7zm-22.6-37.3c0.1-2.3 0.4-2.5 0.6-4.3 0.1-0.5 0.2-1.6 0.2-2.1-0.1-0.5-0.1-0.7-0.1-0.8 0 0.1 0 0.1-0.2-0.6 0-0.2-0.2-0.4-0.2-0.6-0.1-0.1-0.2-0.4-0.3-0.6-1.4 0.5-3.2 1.2-2.7 5.4 0.2 1.6 1.7 3.8 2.7 5 2.3-0.6 5.6-0.7 7.1-2.2 1.2-1.4 2.6-4.4 1.7-6.3-1 3.2-4 2.6-8.8 7.1zm-10.9-8c0.9 1.6 1.7 2.8 2.7 4.7 0.9 1.9 1.4 4.1 2.3 5.8 0.3-5.6-0.7-9.4-5-10.5zm20.3-0.7l-7.1-0.5-0.8 6.4 7.3-4.3c0.3-0.8-0.7-0.7 0.6-1.6zm-13.6 3.8l1.2-3.8-3.6 0.1zm-10.4-4.1c0 0 0.1 0 0.1 0 1.3-1 0.2-0.7 0-0.6q-0.2 0.1-0.4 0.2 0.1 0.1 0.3 0.3c0 0 0 0.1 0 0.1zm-6.2 0.1c1.3 0.8-0.7 0.8 1.5 0.7 2.6-0.2 1.4-0.7 1.8-1.1zm-38.2-5.2l-0.3 3.3c2.2 0.9 5.1 1.1 8 1-1.2-3-3.1-5.6-7.7-4.3zm47.3 0.6c-0.7 0.5-0.4 0-1.2 1-0.4 0.6-0.4 0.9-0.7 1.4 2.4-0.2 3.3 0.1 1.9-2.4zm44.3 83.6c11.7-11.9 16.5-23.9 14.1-43.5-6.8 21.1-5.3 33.3-29.6 46.5 6.9 0.2 11.8 0.8 15.5-3z"/>
		<path id="Path 235" fill-rule="evenodd" class="s3" d="m856 377.2c-8.5-1.4-16.6 2.2-22.7-1.8-0.7-4.8 1.9-11.5 3.2-17.1 2.4-10.3 1.9-21.1 18.1-22 7.2-0.5 7.7-3.3 8.9-11.6-19.1-3.3-33.6-1.3-50.5 0.4-21 2.2-31.7-8.3-46.8-18.1-28.6-18.7-54.8-26.3-89.3-25.2-3.6 0.1-10.5 1.2-11.6 0 8.6-3.3 40.7-0.1 52.3 2.6 54.3 12.7 60.9 42.7 95.4 39.6 16.5-1.4 32.8-4.2 50.8-0.2l0.6-16.7c1.6 1.9 1.1 4.5 1 8 0 2.9 0 6.1-0.4 8.9 3.8 0.9 8.2 1.6 10.8 4.3-1.3 2.5-4.9 2.1-9.5 2.7 1.1 1.6 1.9 1.7 4.4 2.7 2.2 0.9 3.6 1.1 5.1 2.8-0.1 0.1-0.3 0.1-0.4 0.3-0.5 0.9-3.6 0.8-4.8 0.7-2.2-0.1-4-0.4-6.2-0.5 3 2 13 4.8 16.7 5.9 0.2 0.5 0.1 0.4 0.8 1.2 3.2 4 8.8 13.3 8 18.5-0.4 2.9-0.4 2.2-2.8 2 2.2 5.1-0.9 7.9-3 14.2-1.6 4.9-2.6 10.9-5.5 14.7-9.4 12.2-8.9 20.6-12.7 27.4-2.6-0.1-1.6 0.2-3.4-1.5 2.2 7.3-0.1 7.7-3.5 15.4-2.6 6.1-4.5 8.8-7.7 13.7-2.6 4-5.8 8-8.6 12.3-1.5 2.2-2.8 4.1-4 6.2-1.8 3-2.4 4.8-5.2 5.1-2.8-2.7-3.6-20.9-3.7-25.5-0.3-14.2 15.5-8.9 17.8-7.1 2.3 1.9 1.8 2.1 1.7 2.6-6.2-3.3-5.8-5.6-17.3-2.2-2.2 5.8-0.3 17.3 0.4 24.7 0.6 6.2 0.4 5.1 2.2 6.5 2.5-4 5.6-8.8 8.3-12.8 2.8-4.1 6-7.7 8.4-11.9l-2-4.8c0 0.1-0.1 0.2 0 0.5l1.5 2c0.5-0.4 2.3 1.6 0.6-3.5q0.5 0.3 0.8 0.4c0.1 0.1 0.2 0.3 0.6 0.7 0.6 0.8-0.3 0.2 1 1.5 2.1-4.4 4-8.4 6.1-12.8 2.9-6.1 4.2-8.1-0.5-12-10.8-8.9-22.5-4.1-28.5-5.4l-0.2 21.7c0-0.8-1.1 0.2-1-5.8l-0.1-18.8c-0.4-4.1 2.3-20.7 3-26.6 1.5-12.4 27.9-1.6 33.9 2.8 3.2 2.3 6.4 6 10 7.2 0.2-3.5-0.4-3.3-0.9-6-4.7-3.1-7.4-8.2-19.6-10.3zm-25.3 57.8v-0.3q0.1 0.1 0 0.3zm10.1-27.8c18.4 2.1 20.5 10.4 24.6 12.6 1.8-4.1 3-9.3 4.7-13.8 1.7-4.2 4.3-7.4 5.7-11.1-11.2-8.6-24.1-19.1-41.4-14.9l-4 29.3c0.2 0 0.8-0.1 1-0.1 0 0 0.4 0.1 0.5-0.1 0.1-0.2 0.4 0 0.5 0 1.6-2.5 5.5-2.2 8.4-1.9zm-9.5 4.3c6.5 2.9 14.4-4.8 30.5 7.4-1-2.5-2.6-4.1-4.9-5.5-8.8-5.4-17.5-5-24.5-4.3zm46.8-19c1.1-2 8.8-23.2 9.1-25.6-5.6-7.7-24-12-35.1-15-14.1-3.9-11.6-7.1-13.5 2.6-1.1 5.6-4.8 15.7-4.3 20.3 5.1 2.9 15-0.2 22.8 1.4 4.2 0.8 18.1 5.6 18.5 11.2 2.3 1.4 1.3 2.1 2.5 5.1zm0.8-36c4.1 2.4 6.3 5.2 9.5 7.3 1.4-5.4-3.7-15-6-17.6-4.9-5.7-17.1-5.2-20.4-9.6 3-1.5 8.2-0.1 12.1-0.3-5.8-3.2-8.3-1.8-9.1-5.9 2.5-1.6 6.4-0.5 9.6-2l-9.5-3.6c-3.2 9.2-1.5 11.9-11 12.5-5.1 0.4-12.4 3.2-13.5 8.4 7.7-3.2 30.1 5.9 38.3 10.8zm4.2 4.9l-3.7-3.4c-7.5-4.6-32-15-38-11 6.7 3.3 26.6 7.8 41.7 14.4z"/>
		<path id="Path 236" fill-rule="evenodd" class="s3" d="m886 306.9c-3.4 5.3-2.9 7.4-5.9 8.8 1.4-9.8 11.3-45.9 19.7-52 2.6-1.9 7-2.9 10.5-3.1 0.6-0.1 1.7-0.2 2.3-0.2 0.2-0.1 0.9-0.2 1-0.3 0.2 0 0.5-0.1 0.6-0.1 0.1 0 0.3-0.1 0.5-0.2l0.2-3.1c-3.4-1.3-11.8 2.5-15 3.7 3.1-4.1 9.7-3.8 15.1-5.7 1.1-4.2 1-5.3 3.4-8 3.9 1.5 2.8 3.2 5.4 5.8 3-2.5 0.5-5.1 4.5-6.3 3.2 1.8 0.8 0 1 1.8l-1.9-0.7c-1.1 3.8-0.8 4.7-3.2 6.7-3.6-2.2-3.1-5.3-5.2-5.8-0.1 0.1-0.3 0.1-0.4 0.4-0.1 0.3-0.3 0.4-0.4 0.5-1.5 2.2-1.3 2.4-1.9 5.2 2.3 3.1 1.2 0.6 2.8 2.8 1 1.6 0.8 1.5 0.8 3.6 15.2 2.3 36.1 11.9 49.3 6.7-3.2-2.6-6-2.7-10-2.9-2-0.1-3.1-0.1-5-1.1-3.7-2.1-3.1-3.5-3.1-4.4 7.6 8 14.7 1.9 19.2 8.2-2.6 4.2-17.3 2.4-22 1.5-8.8-1.6-19.5-5.7-27.7-6.7-0.1 0.2-0.2 0.2-0.3 0.5l-3.2 5.3c-2.6-1.6-2.1-2.6-2.3-6.3-13.2-0.4-16.7 3.2-22.2 16-4.1 9.4-8.7 24.1-10.8 34.4 1.4-3.6 5.2-8.8 7.8-11.7 4.3-4.9 5.4-5.1 12.3-6 0.7-4.7 1.6-9.4 5.2-11 3.2 1.8 4.7 8.6 6.6 11.7 0.6-4.4-0.9-11.6 0.5-14.5 4.6 2.7 4.3 13.8 8.6 18 1.3-8.2-1-16.4 5.4-11.9l-1.1 0.2c-0.1 0-0.3 0.1-0.5 0.1-2.7 0.2 0.2-0.5-1.7 0-0.6 3.8 0.1 10.3-2 12.9-3-1.3-3.4-4.6-4.6-7.9-1.1-3.2-2-6.9-3.5-9.3-0.1 3.9 1.4 10.3-0.9 13.8-3.5-2.2-3.3-9.1-7.1-11.9-2.5 2.2-3.1 6.4-3.9 10 5.6 1.4 6.1 2.1 7 5.3 0.9 3.5-1.4 0.9 1.2 2.8 7.2 1.8 14.3 3.1 21.4 3.2 5.6 0 15.3-2.4 18.1-2.1-2 1.8-5.6 2.1-8.4 2.6-10.1 1.4-22.7-0.1-32.5-3-2.3 2.5-3 5.1-6.8 5.4-2.8-2.9-0.8-4.4-2.3-8.2-10.4-3.4-8.4 4.4-15.8 16.4-8.1 13.3-6.3 10.4-5.4 23.5-3.8-2.8-2-14 2.3-20.7 3.6-5.5 7.4-13.2 10.1-19.7-1.7 1.1-2.2 1.1-5.8 7zm7.8-7.8c1.7-0.8-0.2-0.4 1.9-0.7 1.9-0.3 3.7 0.5 5.5 1l0.5-3.8c-2.2-0.2-4.2 0-5.6 0.6-2.4 1-3.3 2-4.3 3.7zm9.2-3.4l-0.5 4.3 6.2 1.9c0.5-4.1-1.1-5.6-5.7-6.2zm14.8-34.1c-2.5 0.8-2.4-1.4-1.2 4.6 0 0 1 0.6 1.6-1.8 1.5-5.2 0.6-0.5-0.4-2.8zm-1.6-5.3l-0.4 4 3.1 0.4c0-2.8-0.1-3.1-2.7-4.4zm-8.2 46.4l-5.7-1.5c0.3 3.4-0.6 3.1 1 6.1 2.7-0.6 3.8-1.6 4.7-4.6z"/>
		<path id="Path 237" fill-rule="evenodd" class="s3" d="m862.1 253.9c0.6 1.2 0.7 1.8 1.2 2.8 5.6 12.7 7.5 16.2 9 31.8 0.5 5-0.2 10.8 0.9 15.1 1.7-7.8 4.3-22.7 4.8-30.3 0.9-13.3-1.6-12.8 3.2-27.7-2.9-2.4-6-6.2-5.9-9.8 3.1-1.1 2.4 0.6 10.4-0.7-2.9 2.8-5.1 1.9-9.4 1.1 0.5 3.8 2.6 5.5 5.1 8.4l2.1-1.2c0.1-0.1 0.3-0.2 0.5-0.2 1.4-2 0.9-0.4 3.6-0.1 2.5 0.3 2-0.7 5.2-1.1l-4.4 2.6c0.6 1.5 1.2 2.7 0.8 5.1-3.7 0.9-7.2-6.1-6.6 8.5 0.9 21.4 0.8 25.2-5.1 49.3 4.8-8.2 9.3-40.7 19.9-46.1 0.5-0.3 0.7-0.4 0.7-0.5 0.2 0 0.6-0.1 1.3-0.2-12.6 12.5-12.6 22-17.9 39.5-1 3.1-2.9 10.9-5.3 13.1-0.1 0.1-0.3 0.2-0.4 0.3-0.9-7.7 7.9-28.4 5.9-50.8-1-11.6 1.4-13.2 1.2-15.3-1.6 0.1-0.4-1.6-2.1 2.2-3.5 8.1-0.7 17.6-2.4 28.8-0.8 5.4-4 30.9-6.2 34-1.1-2.2-0.4-13.2-0.5-16.6-0.5-10.4-1.8-21.5-5.7-30.8-1.4-3.3-5.5-10.4-5.5-13.8zm21.2-7.4c1.4-0.3 2.2-1.1 3.3-2.5l-2.7-0.8c-1.1 2.8-1.3 1.3-0.6 3.3zm3.7-0.9l-2 1.5 2.9 2c0.4-1.3 0.5-0.6 0.2-1.9-0.9-3 0-0.4-1.1-1.6z"/>
		<path id="Path 238" fill-rule="evenodd" class="s3" d="m879.4 340.3c0.3 1-0.2 0.1 0.7 1.4 0.2 0.4 0.5 1 0.6 0.8 0.1-0.1 0.3 0.3 0.4 0.4 21.1 3.1 38.2-1.9 60.4 3.3 49.8 11.5 52.5 68.5 125.7 56.9 4-0.6 22.5-4.5 24.2-7.5-1.7 0.3-16.9 5-25.3 6.6-8.8 1.6-19 1.9-29.1 0.4-46.2-6.6-52.5-49-98.1-58.1-10.4-2.1-20.6-2.2-30.4-1.9-10.6 0.2-18.7 2.1-29.1-2.3z"/>
		<path id="Path 239" fill-rule="evenodd" class="s3" d="m851.3 240.9c-6.7-2-17-2.9-24.7-4.7-2.9-0.6-21-4-23.3-5.7-1.8-1.4-0.2-0.1-1-1.3l1-0.5c10.9-3 5.2-0.4 12.2-10.3 4.4 1.4 4.4 5.8 6.8 8.4l1.6-2.3c1.2-2 0.4-1.2 2.2-2.3 4.3 1.3 3.2 3.5 3.2 3.5l-3.1-2.4c-2.3 2.1-1.2 3-3.6 4.9-3.4-2.1-2.9-5.5-6.5-8.8-1.5 2.6-2.1 5.2-4.4 7.3-3.3 2.8-4.5 2.2-7.3 3.1 11.4 3.9 34.2 8.4 45.8 9.5 1.2-1.6 0.6-1.7 1.3-4.2 1.5-0.6 0.8-0.6 2.9-0.6-0.5-2.3-1-2.4-1-4.9 0.8 0.7 0.2-0.2 1 1.2l2 4c1 1 4.4 3.1 5.4 3.9-1.1 2.2 0.2 1.2-3.5 2.9-0.1 0-0.3 0.1-0.4 0.2 0.8 2.5 2.7 7.3 2.6 9.5-0.2-0.1-0.3-0.5-0.4-0.4l-1.8-4.2c-0.9-2.5-1-2.6-1.4-5.2l-4-0.8c0.2 4.5 7 17.1 7.3 20.8-2.6-2-7.7-17.5-8.9-20.6zm6.1-0.9c2.2 0 1.3 0.3 3-0.8l-3.9-2.9zm-5.3-1l4 1.1c-0.5-3.1 0.3-4.1-3.3-4.8z"/>
		<path id="Path 240" fill-rule="evenodd" class="s3" d="m848.7 268.3c3.6 2.2 8.4 6.3 9.9 10.3-4.7-3.9-8.2-10.1-16-11.8-4-0.9-7.9-2.2-11.8-2-3.1 0.2-7.1 1.6-9.4 0.6-3.8-2.9 3.2-6.6-3-10.8l-2.8-2.7c9.6 3.2 5.9 9 5.8 12.1 2.9 1.3 6.3-0.2 9.3-0.3 4-0.2 7.2 1.2 11.1 1.7-3.2-3.8 1.3-2.2 3-8.4 1.4-4.8-0.1-4.8 0.3-8.5 0.9 1.2 0.3-0.6 1 1.9 1.1 3.7-0.4 6.5-0.8 9.3 2.3-0.7 2.8-0.9 5.3 0.4l-0.8 4.4c2.6 1.5 4.9 1.9 7.6 4.5 0.4 0.4 0.8 0.8 1.1 1.2 0.9 1.5 0.2 0 0.5 1.4-2.4-1.2-2.9-2.6-5.7-4.2-0.7-0.4-2.6-1.4-3.3-1.6-3.4-1.4-1.5-1-4.1-0.4-0.6 1.7 1 1.8 2.8 2.9zm-3.1-7.7c0.8 2.1 0.1 1.3 2.1 2.8l2-2.9zm1.1 3.5c-2.5-2.2-3.5-4.6-4.8 0.1 2.4 1.4 1.5 1.1 4.1 1.2 0.6-1.3-0.6-1 0.7-1.3z"/>
		<path id="Path 241" fill-rule="evenodd" class="s3" d="m829.3 225.7c0.1 1.1-1.3 0.2 0.7 1.9 2.1 1.8 1.9 0.5 1.9 0.5 3.2-5.2-1.6-12.1-3.2-15.1 10.7 7 7.1 20.3 16.8 19.2 5.3-0.6 3.4-9.1 3.2-12.9 2 3.2 2.1 4.9 3.1 7.7l1.6 2.6c0.1-1.9-2.3-11-5.7-12.6-0.9 5.5 1.9 8.6-1.1 14.1-7.8 0.2-7.8-4.9-9.6-10-1.2-3-5.7-9.9-11.1-10.2 1.4 3.3 2.9 3.5 4.3 7.1 1.1 2.7 1.6 5.4 1.5 8.9-2.4-0.9-0.3 0.1-2.4-1.2z"/>
		<path id="Path 242" fill-rule="evenodd" class="s3" d="m817 247.7c0.3 5.1 8.3 2.8 11.9 3.8 0.6 1.5 0.5 2.8 2.4 4.3 3.5-1.2 1.7-2.2 4.7-4.1 1.9 1.5 1 0.3 1.8 3.6 0.7 2.5 0.3 2.3 2.6 3.5 4.3-5.6 1.2-8 3.2-11 0.1-0.2 0.6-0.6 0.9-1.3l-3.3-1.6c0.1 3.7 1.7 7-0.7 11.5l-0.7 0.8c-2.1-3.2-0.1-4.5-3.5-6.8-2.8 0.9-2.6 2.5-4.9 4.3-1.6-2.3-0.8-5.5-5.8-4.7-5.8 0.8-4.2 0.1-8.6-2.3z"/>
		<path id="Path 243" fill-rule="evenodd" class="s3" d="m950.6 303.6c1.8-0.2 1.3 0.2 2.7-1.5-4.7-1.3-7.4-0.6-10.2-4.5-4.1-5.4-1-7.2-5-8.7l-2.5 9.2c-4.3-0.7-4.3-6.3-6.8-9.2-0.1 2.6 2.2 7.7 4.3 9.5 1.7 1.5 2.7 1.5 4-1.1l1.5-7c2.8 5.5 2.7 12 12.4 12.4-0.3-0.4 0.2-0.3-0.4 0.9z"/>
		<path id="Path 244" fill-rule="evenodd" class="s3" d="m896.9 233.2c0 0-1.4 1.7 3 2.4 1.4 0.2 3.4 0 5 0q4.5 0.2 9.1 1.5c-3 0.8-6.6 0.8-9.8 1.3-1.9 0.3-2.9 0.5-4.7 1-0.8 0.3-1.8 0.5-2.5 0.8-0.2 0.1-0.8 0.3-1 0.4-1.6 0.8-0.4 0.1-1.7 1.2 5.4-0.8 8-2.4 16.5-3.1 3.5-0.2 3.4 0.3 5.4-1.8-7.3-3-15.1-1.3-19.3-3.7z"/>
		<path id="Path 245" fill-rule="evenodd" class="s3" d="m938.3 251c-0.4 1.7-0.5 2.2-0.1 4.1 0.4 2.2 0.3 1.9 1.9 3.1 4.2-0.9 5.6-6 8-9.7-0.4 4.8-0.3 7.9 2.5 10.6-0.8-4.5-1.9-4.3-1.5-10.5 0.3-4.5 0-3-0.5-3.8-3.5 3.2-3.5 10.1-8.3 12.4-2.3-3.3 0-3.6-2-6.2z"/>
		<path id="Path 246" fill-rule="evenodd" class="s3" d="m870.2 314.9l-1.3-24-2.2 1c0-0.1-0.3 0-0.4 0 1.5 7.2 2.2 10.5 2.5 18.1 0.3 5-0.5 4 1.4 4.9z"/>
		<path id="Path 247" fill-rule="evenodd" class="s3" d="m896.9 233.2c0.1-2 0-6-1.1-7.6-3.1 0.3-3.5 2.6-4.9 6.4-3.9-0.6-3.7-2.7-7.4-3.5 0.6 2.2 1.4 1.4 2.3 4.3 3.4-1.7 1.3 0.1 5.7 0.2 1.9-3.5 1-4.7 4.2-6.3l0.2 5.2c0.7 1.8 0 0.3 1 1.3z"/>
		<path id="Path 248" fill-rule="evenodd" class="s3" d="m817 247.7c0-0.3 0.8-2.2-2.9-5-1.1 2.2-1.1 1.5-0.7 4.2 0.4 3.2 1.3 3.1 1.9 3.8l-0.9-6.2z"/>
		<path id="Path 249" fill-rule="evenodd" class="s3" d="m845.9 265.4c0.6-1.2-0.6-1 0.7-1.2-2.5-2.3-3.5-4.7-4.8 0 2.5 1.5 1.5 1.1 4.1 1.2z"/>
		<path id="Path 250" fill-rule="evenodd" class="s3" d="m931.7 253.1c0.1 1.5-0.9 0.3 0.6 1.4 1.3 0.9 0.6 0.5 2.2 0.9 1.4-1.9 1.6-3.3 3.8-4.4-0.4-1.5 2.3-0.6-1.5-1.5l-2.5 4.5c-2-0.4-0.8 0-2.6-0.9z"/>
		<path id="Path 251" fill-rule="evenodd" class="s3" d="m916.5 266.2c0 0 1 0.6 1.7-1.8 1.4-5.2 0.5-0.5-0.4-2.8-2.6 0.8-2.5-1.4-1.3 4.6z"/>
		<path id="Path 252" fill-rule="evenodd" class="s3" d="m858.3 279c0.5 1.7 0.1 0.8 1.1 2.5l3.7 5.6c-0.7-3.2-2-6.5-4.8-8.1z"/>
		<path id="Path 253" fill-rule="evenodd" class="s3" d="m860.2 261.5c0.2 1.6 0.3 2.1 1 3.5 1.2 2.7 0.8 1.7 2.4 2.9-0.7-1.8-0.9-2.7-1.5-4-1.1-2.7-0.9-1.7-1.9-2.4z"/>
		<path id="Path 254" fill-rule="evenodd" class="s3" d="m857.4 240c2.2 0 1.3 0.3 3-0.8l-3.9-2.9z"/>
		<path id="Path 255" fill-rule="evenodd" class="s3" d="m884 243.2c-1.1 2.8-1.3 1.3-0.7 3.3 1.5-0.3 2.2-1.1 3.3-2.5z"/>
		<path id="Path 256" fill-rule="evenodd" class="s3" d="m885.1 247l2.9 2.1c0.3-1.3 0.5-0.7 0.1-1.9-0.8-3 0-0.4-1-1.7z"/>
		<path id="Path 257" fill-rule="evenodd" class="s3" d="m931.7 253.1c-0.1-1.3-0.1-1.3-0.6-2.6-1.4-3.7 0-1.3-1.8-2.5 0.1 1.1 0.2 1.5 0.6 2.6 0.1 0.2 0.5 1.3 0.6 1.4 1.1 1.5-0.3 0.1 1.2 1.1z"/>
		<path id="Path 258" fill-rule="evenodd" class="s3" d="m861.2 275.1c-0.5-2.1-0.5-2.2-2.2-3.5 0.2 2.1-1.1-0.4 0.5 2.1 1 1.9 0.4 0.8 1.7 1.4z"/>
	</g>
</svg>